%TF.GenerationSoftware,Altium Limited,Altium Designer,24.2.2 (26)*%
G04 Layer_Physical_Order=1*
G04 Layer_Color=255*
%FSLAX45Y45*%
%MOMM*%
%TF.SameCoordinates,A2E2EA48-9257-4B33-8537-14B19699C7D1*%
%TF.FilePolarity,Positive*%
%TF.FileFunction,Copper,L1,Top,Signal*%
%TF.Part,Single*%
G01*
G75*
%TA.AperFunction,Conductor*%
%ADD10C,0.18697*%
%ADD11C,0.50000*%
%TA.AperFunction,SMDPad,CuDef*%
%ADD12R,0.35000X1.35000*%
%ADD13R,1.35000X0.35000*%
%ADD14R,1.90000X1.40000*%
%ADD15R,2.00000X0.80000*%
%ADD16R,1.40000X1.80000*%
%ADD17R,1.65872X0.62684*%
G04:AMPARAMS|DCode=18|XSize=1.65872mm|YSize=0.62684mm|CornerRadius=0.31342mm|HoleSize=0mm|Usage=FLASHONLY|Rotation=0.000|XOffset=0mm|YOffset=0mm|HoleType=Round|Shape=RoundedRectangle|*
%AMROUNDEDRECTD18*
21,1,1.65872,0.00000,0,0,0.0*
21,1,1.03188,0.62684,0,0,0.0*
1,1,0.62684,0.51594,0.00000*
1,1,0.62684,-0.51594,0.00000*
1,1,0.62684,-0.51594,0.00000*
1,1,0.62684,0.51594,0.00000*
%
%ADD18ROUNDEDRECTD18*%
%ADD19R,1.10000X1.30000*%
%ADD20R,0.85872X0.91213*%
%ADD21R,0.91213X0.85872*%
G04:AMPARAMS|DCode=22|XSize=0.3mm|YSize=1.65mm|CornerRadius=0.0495mm|HoleSize=0mm|Usage=FLASHONLY|Rotation=90.000|XOffset=0mm|YOffset=0mm|HoleType=Round|Shape=RoundedRectangle|*
%AMROUNDEDRECTD22*
21,1,0.30000,1.55100,0,0,90.0*
21,1,0.20100,1.65000,0,0,90.0*
1,1,0.09900,0.77550,0.10050*
1,1,0.09900,0.77550,-0.10050*
1,1,0.09900,-0.77550,-0.10050*
1,1,0.09900,-0.77550,0.10050*
%
%ADD22ROUNDEDRECTD22*%
G04:AMPARAMS|DCode=23|XSize=0.3mm|YSize=1.65mm|CornerRadius=0.0495mm|HoleSize=0mm|Usage=FLASHONLY|Rotation=180.000|XOffset=0mm|YOffset=0mm|HoleType=Round|Shape=RoundedRectangle|*
%AMROUNDEDRECTD23*
21,1,0.30000,1.55100,0,0,180.0*
21,1,0.20100,1.65000,0,0,180.0*
1,1,0.09900,-0.10050,0.77550*
1,1,0.09900,0.10050,0.77550*
1,1,0.09900,0.10050,-0.77550*
1,1,0.09900,-0.10050,-0.77550*
%
%ADD23ROUNDEDRECTD23*%
%ADD24R,1.80620X1.35443*%
%ADD25R,0.95822X1.00650*%
%ADD26R,2.79000X0.74000*%
%ADD27R,0.57247X0.61535*%
%ADD28R,0.61535X0.57247*%
%ADD29R,1.00000X1.25000*%
%ADD30R,0.80000X1.00000*%
%ADD31R,0.95814X0.96213*%
%ADD32R,1.40000X0.45000*%
%ADD33R,1.84600X2.15000*%
%ADD34R,0.75000X1.00000*%
%ADD35R,0.80000X0.80000*%
%ADD36R,0.90000X1.05000*%
%ADD37R,0.95650X0.96213*%
%ADD38R,0.93504X0.96213*%
%ADD39R,0.96213X0.93504*%
G04:AMPARAMS|DCode=40|XSize=1.1mm|YSize=0.6mm|CornerRadius=0.051mm|HoleSize=0mm|Usage=FLASHONLY|Rotation=0.000|XOffset=0mm|YOffset=0mm|HoleType=Round|Shape=RoundedRectangle|*
%AMROUNDEDRECTD40*
21,1,1.10000,0.49800,0,0,0.0*
21,1,0.99800,0.60000,0,0,0.0*
1,1,0.10200,0.49900,-0.24900*
1,1,0.10200,-0.49900,-0.24900*
1,1,0.10200,-0.49900,0.24900*
1,1,0.10200,0.49900,0.24900*
%
%ADD40ROUNDEDRECTD40*%
%ADD41R,3.06000X2.66000*%
G04:AMPARAMS|DCode=42|XSize=1.95543mm|YSize=0.42077mm|CornerRadius=0.21038mm|HoleSize=0mm|Usage=FLASHONLY|Rotation=90.000|XOffset=0mm|YOffset=0mm|HoleType=Round|Shape=RoundedRectangle|*
%AMROUNDEDRECTD42*
21,1,1.95543,0.00000,0,0,90.0*
21,1,1.53467,0.42077,0,0,90.0*
1,1,0.42077,0.00000,0.76733*
1,1,0.42077,0.00000,-0.76733*
1,1,0.42077,0.00000,-0.76733*
1,1,0.42077,0.00000,0.76733*
%
%ADD42ROUNDEDRECTD42*%
%ADD43R,0.42077X1.95543*%
%ADD44R,1.90292X2.70620*%
%ADD45R,2.90000X5.40000*%
%ADD46R,2.20000X2.15000*%
%ADD47R,1.45620X1.25464*%
%ADD48R,0.95872X0.91213*%
%ADD49R,1.13108X0.91213*%
%ADD50R,1.20000X0.60000*%
%ADD51R,1.00000X0.80000*%
%ADD52R,1.00650X0.95822*%
%ADD53R,1.40000X2.10000*%
%ADD54R,1.10000X0.45000*%
%ADD55R,3.50000X4.10000*%
%ADD56R,0.66213X0.91213*%
%ADD57R,1.90000X1.10000*%
%ADD58R,0.61213X0.68106*%
%ADD59R,0.91213X0.95872*%
%ADD60R,1.95524X0.49493*%
G04:AMPARAMS|DCode=61|XSize=1.95524mm|YSize=0.49493mm|CornerRadius=0.24746mm|HoleSize=0mm|Usage=FLASHONLY|Rotation=0.000|XOffset=0mm|YOffset=0mm|HoleType=Round|Shape=RoundedRectangle|*
%AMROUNDEDRECTD61*
21,1,1.95524,0.00000,0,0,0.0*
21,1,1.46031,0.49493,0,0,0.0*
1,1,0.49493,0.73015,0.00000*
1,1,0.49493,-0.73015,0.00000*
1,1,0.49493,-0.73015,0.00000*
1,1,0.49493,0.73015,0.00000*
%
%ADD61ROUNDEDRECTD61*%
G04:AMPARAMS|DCode=62|XSize=0.49493mm|YSize=1.95524mm|CornerRadius=0.24746mm|HoleSize=0mm|Usage=FLASHONLY|Rotation=0.000|XOffset=0mm|YOffset=0mm|HoleType=Round|Shape=RoundedRectangle|*
%AMROUNDEDRECTD62*
21,1,0.49493,1.46031,0,0,0.0*
21,1,0.00000,1.95524,0,0,0.0*
1,1,0.49493,0.00000,-0.73015*
1,1,0.49493,0.00000,-0.73015*
1,1,0.49493,0.00000,0.73015*
1,1,0.49493,0.00000,0.73015*
%
%ADD62ROUNDEDRECTD62*%
%ADD63R,1.10000X0.60000*%
%ADD64R,0.91213X0.95814*%
%ADD65R,0.96213X0.95650*%
%ADD66R,0.95814X0.91213*%
%ADD67R,0.91213X1.13108*%
%ADD68R,0.41000X1.60000*%
%ADD69R,0.80000X0.80000*%
%ADD70R,1.35000X0.40000*%
%ADD71R,1.90000X1.50000*%
%ADD72R,0.91213X0.66213*%
G04:AMPARAMS|DCode=73|XSize=1.65872mm|YSize=0.62684mm|CornerRadius=0.31342mm|HoleSize=0mm|Usage=FLASHONLY|Rotation=90.000|XOffset=0mm|YOffset=0mm|HoleType=Round|Shape=RoundedRectangle|*
%AMROUNDEDRECTD73*
21,1,1.65872,0.00000,0,0,90.0*
21,1,1.03188,0.62684,0,0,90.0*
1,1,0.62684,0.00000,0.51594*
1,1,0.62684,0.00000,-0.51594*
1,1,0.62684,0.00000,-0.51594*
1,1,0.62684,0.00000,0.51594*
%
%ADD73ROUNDEDRECTD73*%
%ADD74R,0.62684X1.65872*%
%ADD75R,0.80000X1.20000*%
%ADD76O,0.70000X2.50000*%
%TA.AperFunction,Conductor*%
%ADD77C,0.45000*%
%ADD78C,0.25400*%
%ADD79C,0.55000*%
%ADD80C,0.18700*%
%ADD81C,0.60000*%
%ADD82C,0.17780*%
%ADD83C,0.40000*%
%ADD84C,0.35000*%
%ADD85C,0.15159*%
%ADD86C,0.18697*%
%ADD87C,0.49500*%
%TA.AperFunction,NonConductor*%
%ADD88C,0.25400*%
%TA.AperFunction,ComponentPad*%
%ADD89R,1.40000X1.40000*%
%ADD90C,1.40000*%
%ADD91C,1.55000*%
%ADD92C,2.10000*%
%ADD93C,2.95000*%
%ADD94R,1.80000X1.80000*%
%ADD95C,1.80000*%
%ADD96R,1.80000X1.80000*%
%ADD97C,1.65000*%
%ADD98C,6.50000*%
%ADD99C,1.70000*%
%ADD100R,1.70000X1.70000*%
%ADD101C,1.45000*%
%ADD102R,1.65000X1.65000*%
%ADD103C,1.57000*%
%ADD104R,1.57000X1.57000*%
%TA.AperFunction,ViaPad*%
%ADD105C,0.60000*%
%ADD106C,1.00000*%
%ADD107C,0.80000*%
G36*
X15620592Y11811122D02*
X15639027Y11810321D01*
X15644640Y11807916D01*
X15653857Y11806713D01*
X15656664Y11805511D01*
X15660670Y11803908D01*
X15665881Y11802706D01*
X15668687Y11801503D01*
X15672694Y11799900D01*
X15677905Y11797896D01*
X15679108Y11796693D01*
X15685521Y11794289D01*
X15689529Y11791884D01*
X15700751Y11785471D01*
X15716383Y11773848D01*
X15717184Y11771443D01*
X15716383Y11769038D01*
X15713979Y11766633D01*
X15713176Y11765030D01*
X15710771Y11762625D01*
X15709970Y11761022D01*
X15706363Y11756613D01*
X15704359Y11753808D01*
X15701955Y11751403D01*
X15701553Y11750201D01*
X15699950Y11749399D01*
X15697946Y11747395D01*
X15697545Y11746192D01*
X15695943Y11745391D01*
X15694740Y11744189D01*
X15693938Y11742585D01*
X15690331Y11741383D01*
X15685922Y11744990D01*
X15679509Y11748998D01*
X15675101Y11751804D01*
X15673497Y11753407D01*
X15669089Y11754609D01*
X15666283Y11757415D01*
X15662274Y11758217D01*
X15660670Y11759820D01*
X15656664Y11761423D01*
X15652655Y11762225D01*
X15651051Y11763828D01*
X15645441Y11765431D01*
X15640631Y11766232D01*
X15635020Y11768637D01*
X15618988Y11769439D01*
X15616583Y11770241D01*
X15594138Y11769439D01*
X15591733Y11768637D01*
X15581313Y11767836D01*
X15579710Y11766232D01*
X15576503Y11765431D01*
X15570090Y11764630D01*
X15565282Y11761423D01*
X15560471Y11760621D01*
X15555661Y11757415D01*
X15552455Y11756613D01*
X15547646Y11753407D01*
X15545239Y11752605D01*
X15542836Y11750201D01*
X15537224Y11746994D01*
X15532816Y11743387D01*
X15531613Y11742185D01*
X15530009Y11741383D01*
X15527605Y11738978D01*
X15526003Y11738176D01*
X15516785Y11728958D01*
X15515982Y11727355D01*
X15514378Y11726553D01*
X15513577Y11724950D01*
X15510371Y11721744D01*
X15507967Y11717736D01*
X15506363Y11716132D01*
X15503958Y11712124D01*
X15500751Y11706513D01*
X15499149Y11704910D01*
X15497946Y11700501D01*
X15495943Y11698497D01*
X15493536Y11692084D01*
Y11691283D01*
X15491934Y11689679D01*
X15489529Y11680060D01*
X15485120Y11674048D01*
X15472694Y11675250D01*
X15463075Y11676052D01*
X15447044Y11676854D01*
X15445441Y11678457D01*
X15446242Y11680862D01*
X15447845Y11684870D01*
X15449048Y11692485D01*
X15450652Y11696493D01*
X15451854Y11700100D01*
X15452655Y11703307D01*
X15455862Y11710521D01*
X15457866Y11715731D01*
X15459068Y11716934D01*
X15460670Y11720942D01*
X15461473Y11722545D01*
X15465482Y11729760D01*
X15467886Y11733768D01*
X15468687Y11735371D01*
X15470290Y11736974D01*
X15471092Y11738577D01*
X15476303Y11746192D01*
X15478307Y11748196D01*
X15479108Y11749800D01*
X15482715Y11754209D01*
X15483919Y11755411D01*
X15484718Y11757014D01*
X15486324Y11757816D01*
X15487125Y11759419D01*
X15496342Y11768637D01*
X15497946Y11769439D01*
X15501955Y11773447D01*
X15503557Y11774249D01*
X15505962Y11776653D01*
X15507565Y11777455D01*
X15518788Y11785471D01*
X15520390Y11786273D01*
X15526003Y11789479D01*
X15527605Y11791082D01*
X15532816Y11793086D01*
X15534018Y11794289D01*
X15538026Y11795892D01*
X15546844Y11799900D01*
X15550050Y11800702D01*
X15555661Y11803106D01*
X15562074Y11804710D01*
X15567685Y11807114D01*
X15576102Y11808317D01*
X15580110Y11809920D01*
X15590932Y11811122D01*
X15618185Y11811924D01*
X15620592Y11811122D01*
D02*
G37*
G36*
X15748447Y11797094D02*
X15749249Y11793888D01*
X15747646Y11773848D01*
X15745241Y11768237D01*
X15744440Y11760221D01*
X15743637Y11757014D01*
X15742033Y11755411D01*
X15741232Y11752205D01*
X15740431Y11746593D01*
X15737225Y11741784D01*
X15736423Y11736172D01*
X15733215Y11731363D01*
X15732414Y11727355D01*
X15730009Y11724950D01*
X15728006Y11719740D01*
X15726804Y11718537D01*
X15722797Y11711323D01*
X15711974Y11694890D01*
X15709970Y11692886D01*
X15709167Y11691283D01*
X15706764Y11688878D01*
X15705962Y11687275D01*
X15702354Y11682866D01*
X15699548Y11680060D01*
X15698747Y11678457D01*
X15691533Y11671243D01*
X15690730Y11669639D01*
X15689529Y11668437D01*
X15688327Y11668036D01*
X15687524Y11666433D01*
X15682315Y11661223D01*
X15680711Y11660421D01*
X15674300Y11654008D01*
X15672694Y11653207D01*
X15669489Y11650000D01*
X15667886Y11649198D01*
X15666283Y11647595D01*
X15664679Y11646794D01*
X15653458Y11638778D01*
X15649449Y11636373D01*
X15643839Y11633166D01*
X15642233Y11631563D01*
X15628607Y11624349D01*
X15608566Y11614730D01*
X15599750Y11610722D01*
X15596542Y11609920D01*
X15590932Y11607515D01*
X15587724Y11606713D01*
X15580511Y11603507D01*
X15574500Y11602305D01*
X15570892Y11600301D01*
X15567685Y11599499D01*
X15561272Y11598697D01*
X15559669Y11597094D01*
X15556464Y11596293D01*
X15550851Y11595491D01*
X15546042Y11594690D01*
X15542033Y11593086D01*
X15538828Y11592285D01*
X15528006Y11591082D01*
X15521191Y11589078D01*
X15517986Y11588277D01*
X15497144Y11587475D01*
X15494739Y11586673D01*
X15483116Y11585471D01*
X15452254Y11585070D01*
X15448647Y11587876D01*
X15447446Y11594690D01*
X15445842Y11598697D01*
X15445039Y11601904D01*
X15444238Y11612325D01*
X15443437Y11618737D01*
X15442635Y11622746D01*
X15441833Y11627555D01*
X15441434Y11635972D01*
Y11636774D01*
X15442233Y11658417D01*
X15443437Y11659619D01*
X15449850Y11658818D01*
X15452254Y11658016D01*
X15460271Y11657214D01*
X15515581Y11656413D01*
X15517986Y11657214D01*
X15547646Y11658016D01*
X15551653Y11659619D01*
X15554860Y11660421D01*
X15567685Y11661223D01*
X15572095Y11662425D01*
X15576503Y11664429D01*
X15586925Y11665230D01*
X15594138Y11668437D01*
X15601353Y11669239D01*
X15608566Y11672445D01*
X15614178Y11673247D01*
X15621393Y11676453D01*
X15625401Y11677255D01*
X15629408Y11679659D01*
X15632616Y11680461D01*
X15650250Y11688477D01*
X15651854Y11689279D01*
X15659068Y11693287D01*
X15660670Y11694890D01*
X15665881Y11696894D01*
X15667886Y11698898D01*
X15673497Y11702104D01*
X15681113Y11707315D01*
X15683919Y11709319D01*
X15685521Y11710922D01*
X15689529Y11713327D01*
X15691132Y11714930D01*
X15692735Y11715731D01*
X15695943Y11718938D01*
X15697545Y11719740D01*
X15704761Y11726954D01*
X15705962Y11727355D01*
X15706764Y11728958D01*
X15707967Y11730160D01*
X15709569Y11730962D01*
X15713577Y11735772D01*
X15717986Y11740180D01*
X15718788Y11741784D01*
X15721191Y11744189D01*
X15721994Y11745792D01*
X15723598Y11747395D01*
X15724399Y11748998D01*
X15730009Y11757014D01*
X15730812Y11758617D01*
X15733215Y11762625D01*
X15736423Y11768237D01*
X15741232Y11778657D01*
X15742033Y11781864D01*
X15744440Y11789880D01*
X15746042Y11797094D01*
X15747244Y11798297D01*
X15748447Y11797094D01*
D02*
G37*
G36*
X15731613Y11677655D02*
X15730812Y11675250D01*
X15729208Y11673647D01*
X15726003Y11668036D01*
X15724399Y11666433D01*
X15721994Y11662425D01*
X15717986Y11656814D01*
X15714378Y11652405D01*
X15713176Y11651203D01*
X15709970Y11645591D01*
X15707967Y11642786D01*
X15706363Y11641984D01*
X15705161Y11640782D01*
X15704359Y11639178D01*
X15700751Y11635571D01*
X15700351Y11635170D01*
X15696342Y11631162D01*
X15695541Y11629559D01*
X15689128Y11623146D01*
X15688327Y11621543D01*
X15683919Y11617134D01*
X15682315Y11616333D01*
X15670290Y11604309D01*
X15668687Y11603507D01*
X15662274Y11597094D01*
X15660670Y11596293D01*
X15656664Y11592285D01*
X15655060Y11591483D01*
X15653458Y11589880D01*
X15649449Y11587475D01*
X15647044Y11585070D01*
X15645441Y11584269D01*
X15642233Y11581062D01*
X15640631Y11580261D01*
X15638226Y11577856D01*
X15634218Y11575451D01*
X15632616Y11573848D01*
X15628607Y11571443D01*
X15627003Y11569840D01*
X15622997Y11567435D01*
X15617384Y11563427D01*
X15606161Y11557014D01*
X15603757Y11554609D01*
X15600551Y11553808D01*
X15598146Y11551403D01*
X15594138Y11549800D01*
X15591733Y11547395D01*
X15588527Y11546593D01*
X15583717Y11543387D01*
X15579710Y11541784D01*
X15570892Y11536974D01*
X15566884Y11535371D01*
X15562875Y11532966D01*
X15558868Y11531363D01*
X15550050Y11527355D01*
X15547646Y11526553D01*
X15542033Y11524148D01*
X15533215Y11520140D01*
X15530009Y11519339D01*
X15526003Y11516934D01*
X15519589Y11515331D01*
X15515581Y11512926D01*
X15509970Y11512124D01*
X15505962Y11512926D01*
X15503557Y11515331D01*
X15501955Y11516132D01*
X15499149Y11518136D01*
X15498347Y11519739D01*
X15495943Y11521343D01*
X15495140Y11522946D01*
X15492336Y11524950D01*
X15491132Y11526152D01*
X15490730Y11527355D01*
X15489128Y11528156D01*
X15487125Y11530962D01*
X15483919Y11534168D01*
X15483116Y11535771D01*
X15479910Y11538978D01*
X15479108Y11540581D01*
X15477505Y11542184D01*
X15476703Y11543788D01*
X15473497Y11548597D01*
X15474298Y11550200D01*
X15475500Y11551403D01*
X15485922Y11552204D01*
X15493137Y11553006D01*
X15495541Y11555411D01*
X15501152Y11556212D01*
X15509970Y11557014D01*
X15512375Y11559419D01*
X15524399Y11561022D01*
X15526804Y11563427D01*
X15530009Y11564229D01*
X15537224Y11565030D01*
X15538828Y11566633D01*
X15542033Y11567435D01*
X15548447Y11568236D01*
X15552455Y11570641D01*
X15555661Y11571443D01*
X15560471Y11572245D01*
X15562875Y11574649D01*
X15569688Y11575852D01*
X15574899Y11578657D01*
X15579710Y11579459D01*
X15584518Y11582665D01*
X15589330Y11583467D01*
X15593336Y11585872D01*
X15599750Y11588277D01*
X15613377Y11594690D01*
X15617384Y11597094D01*
X15621393Y11598697D01*
X15625401Y11601102D01*
X15639027Y11608317D01*
X15644640Y11611523D01*
X15646243Y11613126D01*
X15653458Y11617134D01*
X15661473Y11621944D01*
X15663075Y11622746D01*
X15665482Y11625150D01*
X15667084Y11625952D01*
X15672694Y11629960D01*
X15674300Y11630762D01*
X15676703Y11633166D01*
X15679509Y11634369D01*
X15680312Y11635972D01*
X15684319Y11638377D01*
X15685120Y11639980D01*
X15689931Y11641583D01*
X15690730Y11643187D01*
X15691934Y11644389D01*
X15693536Y11645190D01*
X15697545Y11649198D01*
X15699149Y11650000D01*
X15701553Y11652405D01*
X15703156Y11653207D01*
X15707565Y11656814D01*
X15708768Y11658016D01*
X15710371Y11658818D01*
X15711974Y11660421D01*
X15713577Y11661223D01*
X15715179Y11663627D01*
X15716785Y11664429D01*
X15727205Y11674850D01*
X15728809Y11675651D01*
X15730009Y11676854D01*
X15730411Y11678056D01*
X15731613Y11677655D01*
D02*
G37*
G36*
X15770090Y11692084D02*
X15770892Y11688878D01*
X15771693Y11678457D01*
X15774098Y11672846D01*
X15774899Y11645591D01*
X15774098Y11618337D01*
X15773297Y11615932D01*
X15771693Y11610321D01*
X15770892Y11604710D01*
X15770090Y11599900D01*
X15767686Y11594289D01*
X15766483Y11589078D01*
X15763676Y11582265D01*
X15762875Y11579058D01*
X15759669Y11574249D01*
X15758868Y11570241D01*
X15756464Y11567836D01*
X15755661Y11564629D01*
X15754860Y11563026D01*
X15752455Y11560621D01*
X15750851Y11556613D01*
X15749249Y11555010D01*
X15746443Y11549800D01*
X15744839Y11548998D01*
X15742033Y11544589D01*
X15736423Y11537375D01*
X15733215Y11534168D01*
X15732414Y11532565D01*
X15719189Y11519339D01*
X15717586Y11518537D01*
X15714378Y11515331D01*
X15712776Y11514529D01*
X15710371Y11512124D01*
X15708768Y11511323D01*
X15706764Y11510120D01*
X15705962Y11508517D01*
X15701553Y11505711D01*
X15695943Y11502505D01*
X15693536Y11500100D01*
X15691533Y11499699D01*
X15691132Y11499299D01*
X15680711Y11493687D01*
X15676703Y11492084D01*
X15669489Y11488878D01*
X15666283Y11488076D01*
X15664679Y11487274D01*
X15663075Y11485671D01*
X15659869Y11484870D01*
X15653458Y11484068D01*
X15649449Y11481663D01*
X15646243Y11480862D01*
X15635020Y11480060D01*
X15629408Y11477655D01*
X15623798Y11476854D01*
X15586122Y11477655D01*
X15582114Y11479258D01*
X15578908Y11480060D01*
X15573297Y11480862D01*
X15566081Y11481663D01*
X15560471Y11484068D01*
X15556863Y11486072D01*
X15558066Y11487274D01*
X15561272Y11488076D01*
X15563676Y11488878D01*
X15593336Y11504108D01*
X15597345Y11506513D01*
X15608566Y11512926D01*
X15615782Y11516934D01*
X15624599Y11522545D01*
X15626202Y11523347D01*
X15627806Y11524950D01*
X15633417Y11528156D01*
X15635020Y11529760D01*
X15639027Y11532164D01*
X15647044Y11537776D01*
X15648647Y11538577D01*
X15651051Y11540982D01*
X15652655Y11541784D01*
X15654259Y11543387D01*
X15655862Y11544188D01*
X15660271Y11547796D01*
X15661473Y11548998D01*
X15663075Y11549800D01*
X15666283Y11553006D01*
X15667886Y11553808D01*
X15670290Y11556212D01*
X15674300Y11558617D01*
X15675902Y11560220D01*
X15677505Y11561022D01*
X15681512Y11565030D01*
X15683116Y11565832D01*
X15684718Y11568236D01*
X15686324Y11569038D01*
X15689529Y11572245D01*
X15691132Y11573046D01*
X15694339Y11576252D01*
X15695943Y11577054D01*
X15714780Y11595892D01*
X15715581Y11597495D01*
X15718788Y11600701D01*
X15719589Y11602305D01*
X15721191Y11603106D01*
X15721994Y11604710D01*
X15726003Y11608717D01*
X15726804Y11610321D01*
X15729208Y11612726D01*
X15730009Y11614329D01*
X15738026Y11625551D01*
X15738828Y11627154D01*
X15741232Y11629559D01*
X15747646Y11640782D01*
X15751653Y11647996D01*
X15753258Y11652004D01*
X15755661Y11656012D01*
X15757265Y11660020D01*
X15758066Y11663227D01*
X15759669Y11664830D01*
X15760471Y11668036D01*
X15761273Y11672846D01*
X15762875Y11674449D01*
X15764479Y11678457D01*
X15765282Y11688076D01*
X15766884Y11689679D01*
X15768887Y11693287D01*
X15770090Y11692084D01*
D02*
G37*
G36*
X15528323Y10542388D02*
X15542387Y10528323D01*
X15550000Y10509945D01*
Y10500000D01*
Y10490054D01*
X15542387Y10471677D01*
X15528323Y10457612D01*
X15509946Y10450000D01*
X15490054D01*
X15471677Y10457612D01*
X15457613Y10471677D01*
X15450000Y10490054D01*
Y10500000D01*
Y10509945D01*
X15457613Y10528323D01*
X15471677Y10542388D01*
X15490054Y10550000D01*
X15509946D01*
X15528323Y10542388D01*
D02*
G37*
G36*
X3528323D02*
X3542388Y10528323D01*
X3550000Y10509945D01*
Y10500000D01*
Y10490054D01*
X3542388Y10471677D01*
X3528323Y10457612D01*
X3509945Y10450000D01*
X3490054D01*
X3471677Y10457612D01*
X3457612Y10471677D01*
X3450000Y10490054D01*
Y10500000D01*
Y10509945D01*
X3457612Y10528323D01*
X3471677Y10542388D01*
X3490054Y10550000D01*
X3509945D01*
X3528323Y10542388D01*
D02*
G37*
G36*
X14580000Y9124142D02*
X14570000Y9120000D01*
X13939999D01*
Y9750000D01*
X14580000D01*
Y9124142D01*
D02*
G37*
G36*
X6450000Y8900000D02*
Y8500000D01*
X6400000Y8450000D01*
X6086017D01*
X6076006Y8456494D01*
Y8517299D01*
X6002700D01*
Y8529999D01*
X5990000D01*
Y8603507D01*
X5950000D01*
Y8636689D01*
X5989886D01*
Y8710001D01*
Y8783311D01*
X5950000D01*
Y8950000D01*
X6400000D01*
X6450000Y8900000D01*
D02*
G37*
G36*
X17950000Y8350000D02*
X17500000D01*
Y8850000D01*
X17950000D01*
Y8350000D01*
D02*
G37*
G36*
X10730000Y7803466D02*
X10718267Y7798606D01*
X10659319Y7857554D01*
X10651265Y7862936D01*
X10641764Y7864826D01*
X10508424D01*
X10508149Y7865490D01*
X10495490Y7878149D01*
X10478951Y7885000D01*
X10461049D01*
X10444509Y7878149D01*
X10431851Y7865490D01*
X10425000Y7848951D01*
Y7831049D01*
X10431851Y7814510D01*
X10444509Y7801851D01*
X10461049Y7795000D01*
X10478951D01*
X10495490Y7801851D01*
X10508149Y7814510D01*
X10508424Y7815175D01*
X10631481D01*
X10679987Y7766669D01*
X10677007Y7751688D01*
X10669135Y7748427D01*
X10656477Y7735769D01*
X10649626Y7719229D01*
Y7701327D01*
X10638874Y7694099D01*
X10624510Y7688149D01*
X10611851Y7675490D01*
X10605000Y7658951D01*
Y7641049D01*
X10611851Y7624510D01*
X10624510Y7611851D01*
X10641049Y7605000D01*
X10658951D01*
X10675490Y7611851D01*
X10685397Y7621758D01*
X10730000D01*
Y7578243D01*
X10699363D01*
X10688554Y7576093D01*
X10679392Y7569971D01*
X10679391Y7569970D01*
X10662819Y7553398D01*
X10658951Y7555000D01*
X10641049D01*
X10624510Y7548149D01*
X10611851Y7535490D01*
X10605000Y7518951D01*
Y7501049D01*
X10611851Y7484510D01*
X10624510Y7471851D01*
X10641049Y7465000D01*
X10658951D01*
X10675490Y7471851D01*
X10688149Y7484510D01*
X10695000Y7501049D01*
Y7505696D01*
X10711061Y7521757D01*
X10730000D01*
Y6270000D01*
X10569493D01*
Y6335853D01*
X10578149Y6344510D01*
X10585000Y6361049D01*
Y6378951D01*
X10578149Y6395490D01*
X10565490Y6408149D01*
X10548951Y6415000D01*
X10531049D01*
X10518989Y6410005D01*
X10507890Y6417629D01*
X10507631Y6418000D01*
X10508243Y6421077D01*
Y6494603D01*
X10518149Y6504509D01*
X10525000Y6521049D01*
Y6538951D01*
X10518149Y6555490D01*
X10505491Y6568149D01*
X10488951Y6575000D01*
X10471049D01*
X10454510Y6568149D01*
X10441851Y6555490D01*
X10435000Y6538951D01*
Y6521049D01*
X10441851Y6504509D01*
X10451757Y6494603D01*
Y6432776D01*
X10440767Y6421785D01*
X10430000Y6428979D01*
X10435000Y6441049D01*
Y6458951D01*
X10428149Y6475490D01*
X10415490Y6488149D01*
X10398951Y6495000D01*
X10381049D01*
X10364510Y6488149D01*
X10351851Y6475490D01*
X10346733Y6463135D01*
X10333267D01*
X10328149Y6475490D01*
X10315490Y6488149D01*
X10298951Y6495000D01*
X10281049D01*
X10264510Y6488149D01*
X10251851Y6475490D01*
X10245000Y6458951D01*
Y6441049D01*
X10251851Y6424510D01*
X10263007Y6413353D01*
Y6388593D01*
X10250307Y6383332D01*
X10245490Y6388149D01*
X10228951Y6395000D01*
X10211049D01*
X10194509Y6388149D01*
X10181851Y6375490D01*
X10180025Y6371084D01*
X10167325Y6373610D01*
Y7893686D01*
X10168149Y7894509D01*
X10175000Y7911049D01*
Y7928951D01*
X10168149Y7945490D01*
X10155490Y7958149D01*
X10138951Y7965000D01*
X10121049D01*
X10104510Y7958149D01*
X10091851Y7945490D01*
X10085000Y7928951D01*
Y7911049D01*
X10091851Y7894509D01*
X10104510Y7881851D01*
X10117674Y7876398D01*
Y6270000D01*
X9817325D01*
Y6302217D01*
X9860384Y6345275D01*
X9861049Y6345000D01*
X9878951D01*
X9895490Y6351851D01*
X9908149Y6364509D01*
X9915000Y6381049D01*
Y6398951D01*
X9908149Y6415490D01*
X9895490Y6428149D01*
X9878951Y6435000D01*
X9861049D01*
X9844510Y6428149D01*
X9831851Y6415490D01*
X9825000Y6398951D01*
Y6381049D01*
X9825275Y6380384D01*
X9774946Y6330054D01*
X9769564Y6322000D01*
X9767674Y6312500D01*
Y6270000D01*
X9617325D01*
Y6857500D01*
X9615436Y6867000D01*
X9610054Y6875055D01*
X9017554Y7467554D01*
X9009500Y7472936D01*
X9000000Y7474826D01*
X8938425D01*
X8938150Y7475490D01*
X8925491Y7488149D01*
X8908951Y7494999D01*
X8891050D01*
X8874510Y7488149D01*
X8861851Y7475490D01*
X8855001Y7458951D01*
Y7441049D01*
X8861851Y7424509D01*
X8874510Y7411851D01*
X8891050Y7405000D01*
X8908951D01*
X8925491Y7411851D01*
X8938150Y7424509D01*
X8938425Y7425175D01*
X8989717D01*
X9567675Y6847217D01*
Y6342559D01*
X9555941Y6337698D01*
X9555490Y6338149D01*
X9538951Y6345000D01*
X9521049D01*
X9504510Y6338149D01*
X9491851Y6325491D01*
X9485000Y6308951D01*
Y6291049D01*
X9488458Y6282700D01*
X9479972Y6270000D01*
X9420743D01*
Y6429494D01*
X9436249Y6445000D01*
X9448951D01*
X9465490Y6451851D01*
X9478149Y6464510D01*
X9485000Y6481049D01*
Y6498951D01*
X9478149Y6515490D01*
X9465490Y6528149D01*
X9448951Y6535000D01*
X9431049D01*
X9414509Y6528149D01*
X9401851Y6515490D01*
X9395000Y6498951D01*
Y6483634D01*
X9383443Y6472077D01*
X9370743Y6477337D01*
Y6547103D01*
X9378149Y6554510D01*
X9385000Y6571049D01*
Y6588951D01*
X9378149Y6605490D01*
X9365491Y6618149D01*
X9348951Y6625000D01*
X9331049D01*
X9314510Y6618149D01*
X9301851Y6605490D01*
X9295000Y6588951D01*
Y6571049D01*
X9301851Y6554510D01*
X9314257Y6542104D01*
Y6509789D01*
X9301557Y6507263D01*
X9298149Y6515490D01*
X9285490Y6528149D01*
X9268951Y6535000D01*
X9251049D01*
X9234510Y6528149D01*
X9221851Y6515490D01*
X9215000Y6498951D01*
Y6481049D01*
X9221851Y6464510D01*
X9234510Y6451851D01*
X9251049Y6445000D01*
X9255696D01*
X9264257Y6436439D01*
Y6358812D01*
X9251557Y6353552D01*
X9174724Y6430384D01*
X9175000Y6431049D01*
Y6448951D01*
X9168149Y6465490D01*
X9155490Y6478149D01*
X9138951Y6485000D01*
X9121049D01*
X9104510Y6478149D01*
X9091851Y6465490D01*
X9085000Y6448951D01*
Y6431049D01*
X9091851Y6414510D01*
X9104510Y6401851D01*
X9121049Y6395000D01*
X9138951D01*
X9139616Y6395276D01*
X9155159Y6379733D01*
X9147965Y6368966D01*
X9138951Y6372700D01*
X9121049D01*
X9104510Y6365849D01*
X9091851Y6353190D01*
X9089956Y6348617D01*
X9077500Y6346139D01*
X9075490Y6348149D01*
X9058951Y6355000D01*
X9041049D01*
X9024510Y6348149D01*
X9011851Y6335491D01*
X9011350Y6334281D01*
X8998650D01*
X8998149Y6335491D01*
X8985491Y6348149D01*
X8968951Y6355000D01*
X8951049D01*
X8934510Y6348149D01*
X8921851Y6335491D01*
X8915000Y6318951D01*
Y6301049D01*
X8921851Y6284510D01*
X8923661Y6282700D01*
X8918400Y6270000D01*
X8800000D01*
Y6589934D01*
X8808665Y6593279D01*
X8812700Y6593661D01*
X8824510Y6581851D01*
X8841049Y6575000D01*
X8858951D01*
X8875491Y6581851D01*
X8888149Y6594510D01*
X8895000Y6611049D01*
Y6628951D01*
X8888149Y6645490D01*
X8875491Y6658149D01*
X8858951Y6665000D01*
X8844942D01*
X8839970Y6669972D01*
X8830807Y6676094D01*
X8819999Y6678244D01*
X8819998Y6678244D01*
X8800000D01*
Y6775800D01*
X8885213D01*
X8895000Y6768951D01*
Y6751049D01*
X8901851Y6734510D01*
X8914509Y6721851D01*
X8931049Y6715000D01*
X8948951D01*
X8965490Y6721851D01*
X8978149Y6734510D01*
X8985000Y6751049D01*
Y6768951D01*
X8978149Y6785490D01*
X8965490Y6798149D01*
X8948951Y6805000D01*
X8931049D01*
X8930819Y6804905D01*
X8922221Y6813502D01*
X8927056Y6825175D01*
X8950001D01*
X8959501Y6827065D01*
X8967555Y6832446D01*
X9017554Y6882446D01*
X9022936Y6890500D01*
X9024825Y6900000D01*
Y6971576D01*
X9025490Y6971851D01*
X9038149Y6984510D01*
X9045000Y7001049D01*
Y7018951D01*
X9038149Y7035490D01*
X9025490Y7048149D01*
X9008951Y7055000D01*
X8991049D01*
X8974510Y7048149D01*
X8961851Y7035490D01*
X8955000Y7018951D01*
Y7001049D01*
X8956537Y6997340D01*
X8946816Y6987620D01*
X8940288Y6990324D01*
X8925485D01*
X8925000Y6991049D01*
Y7008951D01*
X8918149Y7025490D01*
X8905490Y7038149D01*
X8888951Y7045000D01*
X8871049D01*
X8854510Y7038149D01*
X8841851Y7025490D01*
X8835000Y7008951D01*
Y6991049D01*
X8835276Y6990384D01*
X8820343Y6975451D01*
X8800000D01*
Y7771758D01*
X8858300D01*
X8937819Y7692240D01*
Y7678230D01*
X8944670Y7661691D01*
X8957329Y7649032D01*
X8973868Y7642181D01*
X8991770D01*
X9008309Y7649032D01*
X9020968Y7661691D01*
X9027819Y7678230D01*
Y7696132D01*
X9020968Y7712671D01*
X9008309Y7725330D01*
X8991770Y7732181D01*
X8977760D01*
X8929947Y7779995D01*
X8937141Y7790761D01*
X8951049Y7785000D01*
X8968951D01*
X8985491Y7791851D01*
X8998149Y7804510D01*
X9005000Y7821049D01*
Y7838951D01*
X8998149Y7855491D01*
X8986289Y7867351D01*
Y7873554D01*
X8984139Y7884362D01*
X8978017Y7893524D01*
X8978016Y7893525D01*
X8928274Y7943267D01*
X8932876Y7956626D01*
X8945490Y7961851D01*
X8958149Y7974510D01*
X8965000Y7991049D01*
Y8008951D01*
X8958149Y8025490D01*
X8945490Y8038149D01*
X8933135Y8043267D01*
Y8056733D01*
X8945490Y8061851D01*
X8958149Y8074510D01*
X8965000Y8091049D01*
Y8102005D01*
X8977700Y8104531D01*
X8981851Y8094510D01*
X8994510Y8081851D01*
X9011049Y8075000D01*
X9028951D01*
X9045490Y8081851D01*
X9058149Y8094510D01*
X9065000Y8111049D01*
Y8128951D01*
X9058149Y8145490D01*
X9045490Y8158149D01*
X9028951Y8165000D01*
X9019471D01*
X9017325Y8167146D01*
Y8190000D01*
X9964257D01*
Y8163561D01*
X9945696Y8145000D01*
X9941049D01*
X9924509Y8138149D01*
X9911851Y8125490D01*
X9905000Y8108951D01*
Y8091049D01*
X9911851Y8074510D01*
X9924509Y8061851D01*
X9941049Y8055000D01*
X9958951D01*
X9975490Y8061851D01*
X9988149Y8074510D01*
X9995000Y8091049D01*
Y8108951D01*
X9993398Y8112819D01*
X9995784Y8115206D01*
X10011632Y8113554D01*
X10015000Y8108951D01*
Y8091049D01*
X10021851Y8074510D01*
X10034510Y8061851D01*
X10051049Y8055000D01*
X10068951D01*
X10085490Y8061851D01*
X10098149Y8074510D01*
X10105000Y8091049D01*
Y8108951D01*
X10098149Y8125490D01*
X10085490Y8138149D01*
X10070743Y8144258D01*
Y8190000D01*
X10198897D01*
X10203757Y8178267D01*
X10192446Y8166955D01*
X10187064Y8158901D01*
X10185174Y8149401D01*
Y8038424D01*
X10184509Y8038149D01*
X10171851Y8025490D01*
X10165000Y8008951D01*
Y7991049D01*
X10171851Y7974510D01*
X10184509Y7961851D01*
X10201049Y7955000D01*
X10218951D01*
X10235490Y7961851D01*
X10248149Y7974510D01*
X10253724Y7987970D01*
X10266424Y7985444D01*
Y7958942D01*
X10264510Y7958149D01*
X10251851Y7945490D01*
X10245000Y7928951D01*
Y7911049D01*
X10251851Y7894509D01*
X10264510Y7881851D01*
X10281049Y7875000D01*
X10298951D01*
X10315490Y7881851D01*
X10328149Y7894509D01*
X10335000Y7911049D01*
Y7928951D01*
X10328149Y7945490D01*
X10316075Y7957564D01*
Y8090856D01*
X10328775Y8096116D01*
X10355276Y8069616D01*
X10355000Y8068951D01*
Y8051049D01*
X10361851Y8034509D01*
X10374510Y8021851D01*
X10391049Y8015000D01*
X10408951D01*
X10425490Y8021851D01*
X10438149Y8034509D01*
X10445000Y8051049D01*
Y8068951D01*
X10438149Y8085490D01*
X10425490Y8098149D01*
X10408951Y8105000D01*
X10391049D01*
X10390384Y8104724D01*
X10367325Y8127783D01*
Y8190000D01*
X10419166D01*
X10419564Y8188000D01*
X10424946Y8179946D01*
X10445276Y8159616D01*
X10445000Y8158951D01*
Y8141049D01*
X10451851Y8124510D01*
X10464510Y8111851D01*
X10481049Y8105000D01*
X10498951D01*
X10515491Y8111851D01*
X10528149Y8124510D01*
X10535000Y8141049D01*
Y8158951D01*
X10528149Y8175490D01*
X10526340Y8177300D01*
X10531600Y8190000D01*
X10730000D01*
Y7803466D01*
D02*
G37*
G36*
X11073994Y8252700D02*
X11147300D01*
Y8240000D01*
X11160000D01*
Y8166493D01*
X11210000D01*
Y8129320D01*
X11164829D01*
Y8065714D01*
Y8002107D01*
X11210000D01*
Y7980000D01*
X11176625Y7946625D01*
X11152700D01*
Y7900001D01*
X11140000D01*
Y7887301D01*
X11091233D01*
Y7880511D01*
X11090000Y7880000D01*
X10922900D01*
Y7887301D01*
X10830000D01*
Y7912701D01*
X10922900D01*
Y7937301D01*
X10830000D01*
Y7962701D01*
X10922900D01*
Y7970000D01*
X11040000D01*
Y8260000D01*
X11073994D01*
Y8252700D01*
D02*
G37*
G36*
X6900977Y6882700D02*
X6957144D01*
Y6870000D01*
X6969844D01*
Y6815976D01*
X6990000D01*
Y6790000D01*
X7028513D01*
X7039394Y6785606D01*
Y6745000D01*
X7092500D01*
Y6695000D01*
X7039394D01*
Y6660000D01*
X6840000D01*
Y6910000D01*
X6900977D01*
Y6882700D01*
D02*
G37*
G36*
X17725002Y7105600D02*
X17810001D01*
Y6973311D01*
X17770116D01*
Y6900000D01*
Y6826689D01*
X17810001D01*
Y6800000D01*
X17845625D01*
X17853291Y6787300D01*
X17847586Y6773526D01*
Y6751646D01*
X17855959Y6731431D01*
X17871431Y6715959D01*
X17891646Y6707586D01*
X17913525D01*
X17933742Y6715959D01*
X17937300Y6719518D01*
X17950000Y6714258D01*
Y6452781D01*
X17937300Y6448928D01*
X17929941Y6459942D01*
X17911617Y6472186D01*
X17900000Y6474497D01*
Y6430001D01*
X17867702D01*
Y6430000D01*
X17950000D01*
Y6300000D01*
X17950000D01*
Y6270400D01*
X17905000D01*
Y6170001D01*
X17855000D01*
Y6120001D01*
X17734599D01*
Y6069601D01*
Y6020001D01*
X17855000D01*
Y5970001D01*
X17905000D01*
Y5869600D01*
X17950000D01*
Y5840000D01*
X17950000D01*
Y5710000D01*
X17867702D01*
Y5710000D01*
X17900003D01*
Y5665505D01*
X17911617Y5667815D01*
X17929941Y5680059D01*
X17937300Y5691072D01*
X17950000Y5687220D01*
Y2050000D01*
X14350000D01*
Y3300000D01*
X14489999D01*
X14530000Y3340000D01*
Y3393493D01*
X14542700Y3398458D01*
X14551048Y3395000D01*
X14568951D01*
X14585490Y3401851D01*
X14598149Y3414510D01*
X14605000Y3431049D01*
Y3448951D01*
X14598149Y3465490D01*
X14585490Y3478149D01*
X14568951Y3485000D01*
X14551048D01*
X14542700Y3481542D01*
X14530000Y3486507D01*
Y3594818D01*
X14535100Y3599003D01*
X14545000D01*
Y3655000D01*
X14624998D01*
Y3599003D01*
X14634898D01*
X14646800Y3601370D01*
X14656888Y3608111D01*
X14663629Y3618200D01*
X14665997Y3630100D01*
Y3648342D01*
X14670000Y3650000D01*
X14939999D01*
Y3709999D01*
X14939999Y3710000D01*
X15850000D01*
X15880000Y3680000D01*
Y3120000D01*
X15230000D01*
X15120000Y3230000D01*
X14750000D01*
Y2900000D01*
X14800000Y2850000D01*
Y2250000D01*
X15900000D01*
Y2570000D01*
X16550000D01*
Y2596670D01*
X16556947Y2606493D01*
X16562700Y2606493D01*
X16617471D01*
Y2680000D01*
Y2753507D01*
X16566602D01*
X16560439Y2761011D01*
X16558875Y2766207D01*
X16560838Y2770000D01*
X17030000D01*
Y2950000D01*
X17439999D01*
Y4330000D01*
X17638147D01*
X17645203Y4319440D01*
X17645000Y4318951D01*
Y4301049D01*
X17651851Y4284510D01*
X17664510Y4271851D01*
X17681049Y4265000D01*
X17698952D01*
X17715491Y4271851D01*
X17728149Y4284510D01*
X17735001Y4301049D01*
Y4318951D01*
X17734798Y4319440D01*
X17741853Y4330000D01*
X17760001D01*
Y4520000D01*
X17610001D01*
Y4546494D01*
X17668840D01*
Y4620000D01*
X17681540D01*
D01*
X17668840D01*
Y4693507D01*
X17610001D01*
Y4970000D01*
X17760001Y5120000D01*
Y5318978D01*
X17764999Y5331049D01*
Y5348951D01*
X17760001Y5361022D01*
Y5430000D01*
X17539999D01*
Y5458994D01*
X17581351D01*
Y5530000D01*
Y5601007D01*
X17539999D01*
Y5640000D01*
X17500000Y5680000D01*
Y5890000D01*
X17700000D01*
Y6180000D01*
X17677901D01*
Y6182501D01*
X17585001D01*
X17492101D01*
Y6180000D01*
X17431021D01*
X17418951Y6185000D01*
X17401048D01*
X17400000Y6185701D01*
Y7000000D01*
X17460001D01*
X17559534Y7099534D01*
X17569601Y7105600D01*
Y7105600D01*
X17569601Y7105600D01*
X17655000D01*
Y7201000D01*
X17725002D01*
Y7105600D01*
D02*
G37*
G36*
X6570000Y6330000D02*
X5290000D01*
Y7610000D01*
X6570000D01*
Y6330000D01*
D02*
G37*
G36*
X15730000Y5720000D02*
X15630000D01*
Y5580000D01*
X15580000D01*
X15550000Y5610000D01*
X15220000D01*
Y5400000D01*
X14989999D01*
Y5750000D01*
X15730000D01*
Y5720000D01*
D02*
G37*
G36*
X16050000Y5931006D02*
X16010030D01*
Y5860000D01*
Y5788994D01*
X16050000D01*
Y5400000D01*
X16230000D01*
Y5280000D01*
X16080000D01*
Y4980000D01*
X16139999Y4920000D01*
X16720000D01*
Y5150000D01*
X16797069D01*
X16809003Y5144900D01*
Y5095100D01*
X16810001Y5090088D01*
Y4920000D01*
X17400000D01*
Y4250000D01*
X16530000D01*
Y4139999D01*
X16320000Y3930000D01*
X16130000D01*
X16020000Y4040000D01*
Y4890000D01*
X15989999Y4920000D01*
Y5280000D01*
X15360001D01*
X15239999Y5400000D01*
Y5590000D01*
X15539999D01*
X15600000Y5530000D01*
Y5420000D01*
X15620000Y5400000D01*
X15810001D01*
Y5950000D01*
X16050000D01*
Y5931006D01*
D02*
G37*
G36*
X17470000Y5670000D02*
X17520000Y5620000D01*
Y5601007D01*
X17490948D01*
Y5530000D01*
Y5458994D01*
X17520000D01*
Y5431006D01*
X17477328D01*
Y5360000D01*
Y5288993D01*
X17520000D01*
Y5270000D01*
X17400000Y5150000D01*
Y4950000D01*
X17000000D01*
Y5850000D01*
X17260001D01*
X17370000Y5960000D01*
X17470000D01*
Y5670000D01*
D02*
G37*
G36*
X16550000Y5684913D02*
X16549004Y5679900D01*
Y5630100D01*
X16550000Y5625087D01*
Y5054911D01*
X16549004Y5049900D01*
Y5000100D01*
X16550000Y4995088D01*
Y4950000D01*
X16250000D01*
Y5700000D01*
X16550000D01*
Y5684913D01*
D02*
G37*
G36*
X15800000Y4920000D02*
X15950000D01*
X15989999Y4880000D01*
X15989999Y4040000D01*
X15150000D01*
Y5050000D01*
X15350000Y5250000D01*
X15800000D01*
Y4920000D01*
D02*
G37*
G36*
X14600000Y4360000D02*
X14720000Y4240000D01*
X14910001D01*
Y4200000D01*
Y4040000D01*
X14200000D01*
Y5000000D01*
X14600000D01*
Y4360000D01*
D02*
G37*
G36*
X3528323Y4042388D02*
X3542388Y4028322D01*
X3550000Y4009945D01*
Y4000000D01*
Y3990054D01*
X3542388Y3971677D01*
X3528323Y3957612D01*
X3509945Y3950000D01*
X3490054D01*
X3471677Y3957612D01*
X3457612Y3971677D01*
X3450000Y3990054D01*
Y4000000D01*
Y4009945D01*
X3457612Y4028322D01*
X3471677Y4042388D01*
X3490054Y4050000D01*
X3509945D01*
X3528323Y4042388D01*
D02*
G37*
G36*
X6133943Y3765943D02*
X6144811Y3768104D01*
X6148800Y3770770D01*
X6160000Y3764783D01*
Y3760000D01*
X6253989Y3666011D01*
X6248729Y3653311D01*
X6244858D01*
Y3580000D01*
Y3506689D01*
X6290000D01*
Y3473301D01*
X6278250Y3471007D01*
X6277300Y3471007D01*
X6232444D01*
Y3400000D01*
Y3328994D01*
X6277300D01*
X6278250Y3328993D01*
X6290000Y3326699D01*
Y3293506D01*
X6240001D01*
Y3220000D01*
Y3146493D01*
X6290000D01*
Y3100000D01*
X5990000D01*
Y3148994D01*
X6029543D01*
Y3220000D01*
Y3291007D01*
X5990000D01*
Y3328994D01*
X6029543D01*
Y3400000D01*
Y3471007D01*
X5990000D01*
Y3508993D01*
X6029543D01*
Y3580000D01*
Y3651006D01*
X5998948D01*
X5993706Y3663706D01*
X6090000Y3760000D01*
X6102700Y3767105D01*
X6108543Y3765943D01*
Y3915000D01*
X6133943D01*
Y3765943D01*
D02*
G37*
G36*
X14910001Y3670000D02*
X14670000D01*
Y3720000D01*
X14670000D01*
X14665961Y3724921D01*
X14665977Y3725000D01*
X14584999D01*
Y3775000D01*
X14665977D01*
X14665961Y3775079D01*
X14670000Y3780000D01*
X14670000D01*
Y3830000D01*
X14910001D01*
Y3670000D01*
D02*
G37*
G36*
X16097324Y3902679D02*
X16097324Y3730000D01*
X15960001D01*
Y3500000D01*
X15900000D01*
Y3700000D01*
X15850000Y3750000D01*
X14930000D01*
Y3850000D01*
X14670000D01*
X14665997Y3851658D01*
Y3869900D01*
X14663629Y3881800D01*
X14656888Y3891889D01*
X14646800Y3898630D01*
X14634898Y3900998D01*
X14624998D01*
Y3845000D01*
X14545000D01*
Y3900998D01*
X14535100D01*
X14530000Y3905183D01*
Y4000000D01*
X16000003D01*
X16097324Y3902679D01*
D02*
G37*
G36*
X16810001Y3490000D02*
X16539999D01*
X16500000Y3530000D01*
X16450000D01*
Y3670000D01*
X16810001D01*
Y3490000D01*
D02*
G37*
G36*
X6800000Y3100000D02*
X6320000D01*
Y3146493D01*
X6359999D01*
Y3220000D01*
Y3293506D01*
X6320000D01*
Y3330000D01*
X6800000D01*
Y3100000D01*
D02*
G37*
G36*
X17000000Y4142566D02*
X16984509Y4136149D01*
X16971851Y4123490D01*
X16964999Y4106951D01*
Y4089049D01*
X16971851Y4072510D01*
X16984509Y4059851D01*
X17000000Y4053434D01*
Y3975000D01*
X16996049D01*
X16979509Y3968149D01*
X16966850Y3955490D01*
X16960001Y3938951D01*
Y3921049D01*
X16966850Y3904510D01*
X16979509Y3891851D01*
X16996049Y3885000D01*
X17000000D01*
Y3714565D01*
X16984509Y3708149D01*
X16971851Y3695490D01*
X16964999Y3678951D01*
Y3661049D01*
X16971851Y3644510D01*
X16984509Y3631851D01*
X17000000Y3625435D01*
Y3547000D01*
X16996049D01*
X16979509Y3540149D01*
X16966850Y3527491D01*
X16960001Y3510951D01*
Y3493049D01*
X16966850Y3476510D01*
X16979509Y3463851D01*
X16996049Y3457000D01*
X17000000D01*
Y3264565D01*
X16984509Y3258149D01*
X16971851Y3245490D01*
X16964999Y3228951D01*
Y3211049D01*
X16971851Y3194509D01*
X16984509Y3181851D01*
X17000000Y3175434D01*
Y3085778D01*
X16999945Y3085756D01*
X16987286Y3073097D01*
X16980437Y3056558D01*
Y3038656D01*
X16987286Y3022116D01*
X16999945Y3009458D01*
X17000000Y3009435D01*
Y2800000D01*
X16450000D01*
Y3150000D01*
X15900000D01*
Y3470000D01*
X16830000D01*
Y3690000D01*
X16680000D01*
Y3726893D01*
X16680212D01*
Y3853106D01*
X16680000D01*
Y4079393D01*
X16680264D01*
Y4200606D01*
X16680000D01*
Y4220000D01*
X17000000D01*
Y4142566D01*
D02*
G37*
G36*
X15220000Y3100000D02*
X15727089D01*
Y3097261D01*
X15852911D01*
Y3100000D01*
X15966061D01*
Y3042461D01*
X16012500D01*
Y3022461D01*
X16032500D01*
Y2899290D01*
X16057500D01*
Y3022462D01*
X16097501D01*
Y2892676D01*
X16100000Y2890800D01*
Y2850000D01*
X16030000Y2780000D01*
X15880000D01*
X15857899Y2757900D01*
X15810201D01*
Y2679999D01*
Y2602100D01*
X15850000D01*
Y2300000D01*
X14830000D01*
Y2870000D01*
X14780000Y2920000D01*
Y3210000D01*
X15110001D01*
X15220000Y3100000D01*
D02*
G37*
%LPC*%
G36*
X6078311Y8783311D02*
X6015286D01*
Y8722701D01*
X6078311D01*
Y8783311D01*
D02*
G37*
G36*
Y8697301D02*
X6015286D01*
Y8636689D01*
X6078311D01*
Y8697301D01*
D02*
G37*
G36*
X6076006Y8603507D02*
X6015400D01*
Y8542699D01*
X6076006D01*
Y8603507D01*
D02*
G37*
G36*
X17910400Y8611400D02*
X17802699D01*
Y8528700D01*
X17910400D01*
Y8611400D01*
D02*
G37*
G36*
X17777299D02*
X17669600D01*
Y8528700D01*
X17777299D01*
Y8611400D01*
D02*
G37*
G36*
X17910400Y8503300D02*
X17802699D01*
Y8420600D01*
X17910400D01*
Y8503300D01*
D02*
G37*
G36*
X17777299D02*
X17669600D01*
Y8420600D01*
X17777299D01*
Y8503300D01*
D02*
G37*
G36*
X11134600Y8227300D02*
X11073994D01*
Y8166493D01*
X11134600D01*
Y8227300D01*
D02*
G37*
G36*
X11129829Y8129320D02*
X11081394D01*
Y8083214D01*
X11129829D01*
Y8129320D01*
D02*
G37*
G36*
Y8048214D02*
X11081394D01*
Y8002107D01*
X11129829D01*
Y8048214D01*
D02*
G37*
G36*
X11127300Y7946625D02*
X11091233D01*
Y7912701D01*
X11127300D01*
Y7946625D01*
D02*
G37*
G36*
X6944444Y6857300D02*
X6900977D01*
Y6815976D01*
X6944444D01*
Y6857300D01*
D02*
G37*
G36*
X17744714Y6973311D02*
X17681689D01*
Y6912700D01*
X17744714D01*
Y6973311D01*
D02*
G37*
G36*
Y6887300D02*
X17681689D01*
Y6826689D01*
X17744714D01*
Y6887300D01*
D02*
G37*
G36*
X17809998Y6474496D02*
X17798384Y6472186D01*
X17780058Y6459942D01*
X17767815Y6441616D01*
X17765504Y6430000D01*
X17765508D01*
X17766045Y6432700D01*
X17809998D01*
Y6474496D01*
D02*
G37*
G36*
X17805000Y6270400D02*
X17734599D01*
Y6220001D01*
X17805000D01*
Y6270400D01*
D02*
G37*
G36*
X17677901Y6245400D02*
X17602501D01*
Y6217501D01*
X17677901D01*
Y6245400D01*
D02*
G37*
G36*
X17567500D02*
X17492101D01*
Y6217501D01*
X17567500D01*
Y6245400D01*
D02*
G37*
G36*
X17805000Y5920001D02*
X17734599D01*
Y5869600D01*
X17805000D01*
Y5920001D01*
D02*
G37*
G36*
X17765508Y5710000D02*
X17765504D01*
X17767815Y5698384D01*
X17780058Y5680059D01*
X17798384Y5667815D01*
X17810001Y5665504D01*
Y5707300D01*
X17766045D01*
X17765508Y5710000D01*
D02*
G37*
G36*
X17676006Y5601007D02*
X17606750D01*
Y5542700D01*
X17676006D01*
Y5601007D01*
D02*
G37*
G36*
Y5517300D02*
X17606750D01*
Y5458994D01*
X17676006D01*
Y5517300D01*
D02*
G37*
G36*
X17714200Y5011581D02*
Y4917359D01*
X17759354D01*
Y4956253D01*
X17754950Y4978392D01*
X17742409Y4997161D01*
X17723639Y5009703D01*
X17714200Y5011581D01*
D02*
G37*
G36*
X17688800Y5011580D02*
X17679359Y5009703D01*
X17660591Y4997161D01*
X17648050Y4978392D01*
X17643646Y4956253D01*
Y4917359D01*
X17688800D01*
Y5011580D01*
D02*
G37*
G36*
Y4891959D02*
X17643646D01*
Y4853065D01*
X17648050Y4830926D01*
X17660591Y4812156D01*
X17679359Y4799615D01*
X17688800Y4797738D01*
Y4891959D01*
D02*
G37*
G36*
X17759354D02*
X17714200D01*
Y4797737D01*
X17723639Y4799615D01*
X17742409Y4812156D01*
X17754950Y4830926D01*
X17759354Y4853065D01*
Y4891959D01*
D02*
G37*
G36*
X17753691Y4693507D02*
X17694240D01*
Y4632700D01*
X17753691D01*
Y4693507D01*
D02*
G37*
G36*
Y4607300D02*
X17694240D01*
Y4546494D01*
X17753691D01*
Y4607300D01*
D02*
G37*
G36*
X16642871Y2753507D02*
Y2692700D01*
X16703397D01*
Y2753507D01*
X16642871D01*
D02*
G37*
G36*
X16703397Y2667300D02*
X16642871D01*
Y2606493D01*
X16703397D01*
Y2667300D01*
D02*
G37*
G36*
X17526759Y2840000D02*
X17473241D01*
X17420383Y2831628D01*
X17369485Y2815090D01*
X17321802Y2790794D01*
X17278505Y2759337D01*
X17240663Y2721495D01*
X17209206Y2678199D01*
X17184911Y2630515D01*
X17168372Y2579617D01*
X17160001Y2526759D01*
Y2473241D01*
X17168372Y2420383D01*
X17184911Y2369485D01*
X17209206Y2321801D01*
X17240663Y2278505D01*
X17278505Y2240663D01*
X17321802Y2209206D01*
X17369485Y2184910D01*
X17420383Y2168372D01*
X17473241Y2160000D01*
X17526759D01*
X17579617Y2168372D01*
X17630515Y2184910D01*
X17678198Y2209206D01*
X17721495Y2240663D01*
X17759337Y2278505D01*
X17790794Y2321801D01*
X17815089Y2369485D01*
X17831628Y2420383D01*
X17839999Y2473241D01*
Y2526759D01*
X17831628Y2579617D01*
X17815089Y2630515D01*
X17790794Y2678199D01*
X17759337Y2721495D01*
X17721495Y2759337D01*
X17678198Y2790794D01*
X17630515Y2815090D01*
X17579617Y2831628D01*
X17526759Y2840000D01*
D02*
G37*
G36*
X15984628Y5931006D02*
X15923994D01*
Y5872700D01*
X15984628D01*
Y5931006D01*
D02*
G37*
G36*
Y5847300D02*
X15923994D01*
Y5788994D01*
X15984628D01*
Y5847300D01*
D02*
G37*
G36*
X17440948Y5601007D02*
X17383994D01*
Y5555000D01*
X17440948D01*
Y5601007D01*
D02*
G37*
G36*
Y5505000D02*
X17383994D01*
Y5458994D01*
X17440948D01*
Y5505000D01*
D02*
G37*
G36*
X17427328Y5431006D02*
X17383994D01*
Y5385000D01*
X17427328D01*
Y5431006D01*
D02*
G37*
G36*
Y5335000D02*
X17383994D01*
Y5288993D01*
X17427328D01*
Y5335000D01*
D02*
G37*
G36*
X6100750Y3651006D02*
X6054943D01*
Y3592700D01*
X6100750D01*
Y3651006D01*
D02*
G37*
G36*
X6219458Y3653311D02*
X6156433D01*
Y3592700D01*
X6219458D01*
Y3653311D01*
D02*
G37*
G36*
X6100750Y3567300D02*
X6054943D01*
Y3508993D01*
X6100750D01*
Y3567300D01*
D02*
G37*
G36*
X6219458D02*
X6156433D01*
Y3506689D01*
X6219458D01*
Y3567300D01*
D02*
G37*
G36*
X6100750Y3471007D02*
X6054943D01*
Y3412700D01*
X6100750D01*
Y3471007D01*
D02*
G37*
G36*
X6207044D02*
X6161237D01*
Y3412700D01*
X6207044D01*
Y3471007D01*
D02*
G37*
G36*
X6100750Y3387300D02*
X6054943D01*
Y3328994D01*
X6100750D01*
Y3387300D01*
D02*
G37*
G36*
X6207044D02*
X6161237D01*
Y3328994D01*
X6207044D01*
Y3387300D01*
D02*
G37*
G36*
X6100750Y3291007D02*
X6054943D01*
Y3232700D01*
X6100750D01*
Y3291007D01*
D02*
G37*
G36*
X6214601Y3293506D02*
X6153994D01*
Y3232700D01*
X6214601D01*
Y3293506D01*
D02*
G37*
G36*
X6100750Y3207300D02*
X6054943D01*
Y3148994D01*
X6100750D01*
Y3207300D01*
D02*
G37*
G36*
X6214601Y3207300D02*
X6153994D01*
Y3146493D01*
X6214601D01*
Y3207300D01*
D02*
G37*
G36*
X6446006Y3293506D02*
X6385399D01*
Y3232700D01*
X6446006D01*
Y3293506D01*
D02*
G37*
G36*
Y3207300D02*
X6385399D01*
Y3146493D01*
X6446006D01*
Y3207300D01*
D02*
G37*
G36*
X16830606Y4205606D02*
X16775371D01*
Y4152699D01*
X16830606D01*
Y4205606D01*
D02*
G37*
G36*
X16749971D02*
X16694736D01*
Y4152699D01*
X16749971D01*
Y4205606D01*
D02*
G37*
G36*
X16830606Y4127299D02*
X16775371D01*
Y4074393D01*
X16830606D01*
Y4127299D01*
D02*
G37*
G36*
X16749971D02*
X16694736D01*
Y4074393D01*
X16749971D01*
Y4127299D01*
D02*
G37*
G36*
X16832936Y4035606D02*
X16782701D01*
Y3982699D01*
X16832936D01*
Y4035606D01*
D02*
G37*
G36*
X16757301D02*
X16707063D01*
Y3982699D01*
X16757301D01*
Y4035606D01*
D02*
G37*
G36*
X16832936Y3957299D02*
X16782701D01*
Y3904393D01*
X16832936D01*
Y3957299D01*
D02*
G37*
G36*
X16757301D02*
X16707063D01*
Y3904393D01*
X16757301D01*
Y3957299D01*
D02*
G37*
G36*
X16828291Y3858106D02*
X16774239D01*
Y3802700D01*
X16828291D01*
Y3858106D01*
D02*
G37*
G36*
X16748839D02*
X16694788D01*
Y3802700D01*
X16748839D01*
Y3858106D01*
D02*
G37*
G36*
X16828291Y3777300D02*
X16774239D01*
Y3721893D01*
X16828291D01*
Y3777300D01*
D02*
G37*
G36*
X16748839D02*
X16694788D01*
Y3721893D01*
X16748839D01*
Y3777300D01*
D02*
G37*
G36*
X15992500Y3002461D02*
X15966061D01*
Y2899290D01*
X15992500D01*
Y3002461D01*
D02*
G37*
G36*
X15784801Y2757900D02*
X15727100D01*
Y2692699D01*
X15784801D01*
Y2757900D01*
D02*
G37*
G36*
Y2667299D02*
X15727100D01*
Y2602100D01*
X15784801D01*
Y2667299D01*
D02*
G37*
%LPD*%
D10*
X12288133Y9678133D02*
G03*
X12288133Y9628992I24571J-24571D01*
G01*
X12362847Y9505136D02*
G03*
X12362847Y9554278I-24571J24571D01*
G01*
X12313705Y9505136D02*
G03*
X12362847Y9505136I24571J24571D01*
G01*
X12208852Y9609989D02*
G03*
X12159711Y9609989I-24571J-24571D01*
G01*
X12159711Y9609989D02*
G03*
X12159711Y9560847I24571J-24571D01*
G01*
X12285227Y9386190D02*
G03*
X12285227Y9435332I-24571J24571D01*
G01*
X12236084Y9386190D02*
G03*
X12285227Y9386190I24571J24571D01*
G01*
X12110569Y9511706D02*
G03*
X12061427Y9511706I-24571J-24571D01*
G01*
X12061427Y9511706D02*
G03*
X12061427Y9462564I24571J-24571D01*
G01*
X12186943Y9287906D02*
G03*
X12186943Y9337048I-24571J24571D01*
G01*
X12137801Y9287906D02*
G03*
X12186943Y9287906I24571J24571D01*
G01*
X12012285Y9413422D02*
G03*
X11963143Y9413422I-24571J-24571D01*
G01*
X11963144Y9413422D02*
G03*
X11963143Y9364280I24571J-24571D01*
G01*
X12088660Y9189623D02*
G03*
X12088660Y9238765I-24571J24571D01*
G01*
X12039517Y9189622D02*
G03*
X12088660Y9189623I24571J24571D01*
G01*
X11914002Y9315139D02*
G03*
X11864860Y9315139I-24571J-24571D01*
G01*
X11864860Y9315139D02*
G03*
X11864860Y9265997I24571J-24571D01*
G01*
X11990376Y9091339D02*
G03*
X11990376Y9140481I-24571J24571D01*
G01*
X11941234Y9091339D02*
G03*
X11990376Y9091339I24571J24571D01*
G01*
X11815718Y9216855D02*
G03*
X11766576Y9216855I-24571J-24571D01*
G01*
X11766577Y9216855D02*
G03*
X11766576Y9167713I24571J-24571D01*
G01*
X11892093Y8993056D02*
G03*
X11892093Y9042198I-24571J24571D01*
G01*
X11842950Y8993055D02*
G03*
X11892093Y8993056I24571J24571D01*
G01*
X11717435Y9118572D02*
G03*
X11668293Y9118572I-24571J-24571D01*
G01*
X11668293Y9118572D02*
G03*
X11668293Y9069430I24571J-24571D01*
G01*
X11793809Y8894772D02*
G03*
X11793809Y8943914I-24571J24571D01*
G01*
X11744667Y8894772D02*
G03*
X11793809Y8894772I24571J24571D01*
G01*
X11649291Y8990149D02*
G03*
X11600149Y8990149I-24571J-24571D01*
G01*
X16380000Y7630000D02*
X16792345D01*
X16660001Y7280000D02*
X17439999D01*
X7410000Y7940000D02*
Y8040000D01*
X6862500Y7392500D02*
X7410000Y7940000D01*
X6860000Y7820000D02*
X6980000D01*
X14070000Y8400000D02*
Y8590000D01*
X14132391Y8652392D01*
X13963139Y8740000D02*
X14020000D01*
X13919102Y8695964D02*
X13963139Y8740000D01*
X14020000D02*
X14082391Y8802392D01*
Y8997501D01*
X13980000Y8810000D02*
X14032391Y8862392D01*
X13820000Y8740000D02*
X13889999Y8810000D01*
X13980000D01*
X14032391Y8862392D02*
Y8997501D01*
X13919102Y8639103D02*
Y8695964D01*
X13917918Y8637918D02*
X13919102Y8639103D01*
X13563033Y9373033D02*
X13631064Y9305001D01*
X13824892D01*
X13552081Y9257918D02*
X13552699Y9257301D01*
X13822592D01*
X13588467Y9443588D02*
X13699879Y9555001D01*
X13822592Y9257301D02*
X13824892Y9255001D01*
X13699879Y9555001D02*
X13824892D01*
X10442500Y8197500D02*
Y8287501D01*
Y8197500D02*
X10490000Y8150000D01*
X7900000Y7840000D02*
X8510000D01*
X8599999Y7750001D01*
X8705000D01*
X7400000Y8240000D02*
X7860000Y7780000D01*
X7430000Y8310000D02*
X7900000Y7840000D01*
X7460000Y5780000D02*
Y7130000D01*
X8000000Y7670000D01*
X6789334Y8240000D02*
X7400000D01*
X9092500Y6163752D02*
X9096135Y6167386D01*
Y6246135D02*
X9130000Y6280000D01*
X9096135Y6167386D02*
Y6246135D01*
X9130000Y6280000D02*
Y6327700D01*
X9042500Y6163752D02*
X9046250Y6167501D01*
Y6306250D01*
X9050000Y6310000D01*
X9000000Y6900000D02*
Y7010000D01*
X8950001Y6850001D02*
X9000000Y6900000D01*
X7110000Y5430000D02*
X7460000Y5780000D01*
X6697548Y7392500D02*
X6862500D01*
X10492500Y8287501D02*
Y8447500D01*
X10448565Y8491435D02*
X10492500Y8447500D01*
X10940000Y8070000D02*
Y8330000D01*
X11544396Y8934396D01*
X10920001Y8050001D02*
X10940000Y8070000D01*
X10830000Y8050001D02*
X10920001D01*
X12288133Y9678133D02*
X12336047Y9726047D01*
X12288133Y9628992D02*
X12362847Y9554278D01*
X12208852Y9609989D02*
X12313705Y9505136D01*
X12208852Y9609989D02*
X12208852Y9609989D01*
X12159711D02*
X12159711Y9609989D01*
X12159711Y9560847D02*
X12159711Y9560848D01*
X12285227Y9435332D01*
X12285226Y9435331D02*
X12285227Y9435332D01*
X12236084Y9386190D02*
X12236085Y9386190D01*
X12110569Y9511706D02*
X12236085Y9386190D01*
X12110569Y9511705D02*
X12110569Y9511706D01*
X12061427D02*
X12061427Y9511706D01*
X12061427Y9462564D02*
X12061427Y9462564D01*
X12186943Y9337048D01*
X12186943Y9337048D02*
X12186943Y9337048D01*
X12137801Y9287906D02*
X12137801Y9287906D01*
X12012285Y9413422D02*
X12137801Y9287906D01*
X12012285Y9413422D02*
X12012285Y9413422D01*
X11963143D02*
X11963144Y9413422D01*
X11963143Y9364280D02*
X11963144Y9364280D01*
X12088660Y9238765D01*
X12088659Y9238764D02*
X12088660Y9238765D01*
X12039517Y9189622D02*
X12039518Y9189623D01*
X11914002Y9315139D02*
X12039518Y9189623D01*
X11914002Y9315138D02*
X11914002Y9315139D01*
X11864860D02*
X11864860Y9315139D01*
X11864860Y9265997D02*
X11864860Y9265997D01*
X11990376Y9140481D01*
X11990376Y9140481D02*
X11990376Y9140481D01*
X11941234Y9091339D02*
X11941234Y9091339D01*
X11815718Y9216855D02*
X11941234Y9091339D01*
X11815718Y9216855D02*
X11815718Y9216855D01*
X11766576D02*
X11766577Y9216855D01*
X11766576Y9167713D02*
X11766577Y9167713D01*
X11892093Y9042198D01*
X11892092Y9042197D02*
X11892093Y9042198D01*
X11842950Y8993055D02*
X11842951Y8993056D01*
X11717435Y9118572D02*
X11842951Y8993056D01*
X11717435Y9118571D02*
X11717435Y9118572D01*
X11668293D02*
X11668293Y9118572D01*
X11668293Y9069430D02*
X11668293Y9069430D01*
X11793809Y8943914D01*
X11793809Y8943914D02*
X11793809Y8943914D01*
X11744667Y8894772D02*
X11744667Y8894772D01*
X11649291Y8990149D02*
X11744667Y8894772D01*
X11544396Y8934396D02*
X11600149Y8990149D01*
X8939162Y6760000D02*
X8940000D01*
X8898537Y6800625D02*
X8939162Y6760000D01*
X8706251Y6850001D02*
X8950001D01*
X8931337Y6934676D02*
Y6945324D01*
X8897286Y6900625D02*
X8931337Y6934676D01*
X8705625Y6900625D02*
X8897286D01*
X8830625Y6950625D02*
X8880000Y7000000D01*
X8705625Y6800625D02*
X8898537D01*
X16320000Y6940000D02*
X16660001Y7280000D01*
X16010001Y6940000D02*
X16320000D01*
X16010001Y6930000D02*
Y6940000D01*
X8705625Y6950625D02*
X8830625D01*
X16385001Y7341000D02*
Y7361000D01*
X16184000Y7140000D02*
X16385001Y7341000D01*
X16010001Y7130000D02*
Y7140000D01*
X16184000D01*
X16792345Y7630000D02*
X17032346Y7390000D01*
X16093333Y7343333D02*
X16380000Y7630000D01*
X17032346Y7390000D02*
X17439999D01*
X16010001Y7333333D02*
Y7343333D01*
X16093333D01*
X16385001Y7805000D02*
Y7931000D01*
X16135001Y7555000D02*
X16385001Y7805000D01*
X16020000Y7555000D02*
X16135001D01*
X16010001Y7545000D02*
X16020000Y7555000D01*
X16010001Y7535000D02*
Y7545000D01*
X16210001Y8350000D02*
X16680000D01*
X16037300Y8187300D02*
X16047301D01*
X16210001Y8350000D01*
X16010001Y8160000D02*
X16037300Y8187300D01*
X16291669Y8240000D02*
X16630000D01*
X16037300Y7985633D02*
X16037302D01*
X16291669Y8240000D01*
X16010001Y7958333D02*
X16037300Y7985633D01*
X16010001Y7948333D02*
Y7958333D01*
Y8139999D02*
Y8149999D01*
X16580000Y7730000D02*
X16870000D01*
X15921667Y7850000D02*
X16010001Y7938333D01*
X15760001Y7850000D02*
X15921667D01*
X16010001Y7938333D02*
Y7948333D01*
X15920001Y8050000D02*
X16010001Y8139999D01*
X15760001Y8050000D02*
X15920001D01*
X16910001Y7830000D02*
X17439999D01*
X16580000Y8160000D02*
X16910001Y7830000D01*
X16320000Y8160000D02*
X16580000D01*
X16220000Y8060000D02*
X16320000Y8160000D01*
X8960000Y6298824D02*
X8992500Y6266323D01*
Y6163752D02*
Y6266323D01*
X8960000Y6298824D02*
Y6310000D01*
X16680000Y8350000D02*
X16980000Y8050000D01*
X17439999D01*
X16630000Y8240000D02*
X16930000Y7940000D01*
X17400000D01*
X16220000Y7860000D02*
Y8060000D01*
X16106667Y7746666D02*
X16220000Y7860000D01*
X16010001Y7746666D02*
X16106667D01*
X16010001Y7736666D02*
Y7746666D01*
X15923334Y7650000D02*
X16010001Y7736666D01*
X15760001Y7650000D02*
X15923334D01*
X16870000Y7730000D02*
X16989999Y7610000D01*
X17439999D01*
X6287500Y6062500D02*
Y6202451D01*
Y6062500D02*
X6440000Y5910000D01*
X6482500Y7737548D02*
Y7862500D01*
X13616196Y9655001D02*
X13824892D01*
X6740000Y5430000D02*
X7110000D01*
X6680000Y5490000D02*
Y5730341D01*
Y5490000D02*
X6740000Y5430000D01*
X6592671Y5817671D02*
X6680000Y5730341D01*
X12336047Y9726047D02*
X12360000Y9750000D01*
X13521196D01*
X10342500Y8117500D02*
Y8287501D01*
Y8117500D02*
X10400000Y8060000D01*
X14132391Y8652392D02*
Y8997501D01*
X10291250Y7921250D02*
Y8286251D01*
X10292500Y8287501D01*
X10290000Y7920000D02*
X10291250Y7921250D01*
X10210000Y8000000D02*
Y8149401D01*
X10242500Y8181901D01*
X8992500Y8156863D02*
Y8287501D01*
Y8156863D02*
X9020000Y8129363D01*
Y8120000D02*
Y8129363D01*
X8704998Y8100001D02*
X8919999D01*
X8920000Y8100000D01*
X8869999Y8050001D02*
X8920000Y8000000D01*
X8704998Y8050001D02*
X8869999D01*
X10242500Y8181901D02*
Y8287501D01*
X13521196Y9750000D02*
X13616196Y9655001D01*
X10332974Y8721286D02*
X10392500Y8661760D01*
Y8287501D02*
Y8661760D01*
X10448565Y8491435D02*
Y8816852D01*
X7032329Y8160000D02*
X7290000D01*
X6935236Y8062907D02*
X7032329Y8160000D01*
X6417500Y7877500D02*
X6570000Y8030000D01*
X6902329D01*
X6740000Y7940000D02*
X6860000Y7820000D01*
X6560000Y7940000D02*
X6740000D01*
X6714667Y8165333D02*
X6789334Y8240000D01*
X6360000Y7920000D02*
X6750000Y8310000D01*
X7430000D01*
X6482500Y7862500D02*
X6560000Y7940000D01*
X6210000Y7920000D02*
X6360000D01*
X6320000Y7980000D02*
X6510000Y8170000D01*
X6178077Y7980000D02*
X6320000D01*
X6417500Y7737548D02*
Y7877500D01*
X6092500Y7894423D02*
X6178077Y7980000D01*
X6092500Y7737548D02*
Y7894423D01*
X6157500Y7867499D02*
X6210000Y7920000D01*
X6157500Y7737548D02*
Y7867499D01*
X6440000Y5832856D02*
Y5910000D01*
Y5832856D02*
X6574814D01*
D11*
X17925000Y5710000D02*
G03*
X17925000Y5710000I-25000J0D01*
G01*
X17835001D02*
G03*
X17835001Y5710000I-25000J0D01*
G01*
X17925000Y6430000D02*
G03*
X17925000Y6430000I-25000J0D01*
G01*
X17835001D02*
G03*
X17835001Y6430000I-25000J0D01*
G01*
X14321132Y3443717D02*
Y3655000D01*
X15730000Y5030000D02*
X15905000D01*
X15720000Y5220000D02*
X15905000D01*
X14462585Y3440000D02*
X14560001D01*
X13227000Y2509000D02*
X13256000Y2480000D01*
X13227000Y2509000D02*
Y3292500D01*
X12973000Y2578000D02*
Y3292500D01*
X12875000Y2480000D02*
X12973000Y2578000D01*
X12427000Y2588835D02*
Y3292500D01*
Y2588835D02*
X12494000Y2521835D01*
Y2480000D02*
Y2521835D01*
X12173000Y2581835D02*
Y3292500D01*
X12113000Y2521835D02*
X12173000Y2581835D01*
X12113000Y2480000D02*
Y2521835D01*
X10573000Y2496000D02*
X10589000Y2480000D01*
X10573000Y2496000D02*
Y3292500D01*
X11351000Y2480000D02*
X11373000Y2502000D01*
Y3292500D01*
X11627000Y2585000D02*
X11732000Y2480000D01*
X11627000Y2585000D02*
Y3292500D01*
X10827000Y2623000D02*
X10970000Y2480000D01*
X10827000Y2623000D02*
Y3292500D01*
X9781000Y2781000D02*
X10027000Y3027000D01*
Y3292500D01*
X9781000Y2480000D02*
Y2781000D01*
X9773000Y3103000D02*
Y3292500D01*
X9400000Y2730000D02*
X9773000Y3103000D01*
X9400000Y2480000D02*
Y2730000D01*
X9019000Y2779000D02*
X9227000Y2987000D01*
Y3292500D01*
X9019000Y2480000D02*
Y2779000D01*
X8638000Y2718000D02*
X8973000Y3053000D01*
Y3292500D01*
X8638000Y2480000D02*
Y2718000D01*
X8257000Y2777000D02*
X8427000Y2947000D01*
Y3292500D01*
X8257000Y2480000D02*
Y2777000D01*
X7876000Y2480000D02*
Y2766000D01*
X8173000Y3063000D01*
Y3292500D01*
X7495000Y2480000D02*
Y2875000D01*
X7630000Y3010000D01*
Y3292500D01*
X7114000Y2480000D02*
Y2824000D01*
X7376000Y3086000D01*
Y3292500D01*
X17902586Y6762586D02*
Y6900000D01*
D12*
X10642500Y6162501D02*
D03*
X10592500D02*
D03*
X10542500D02*
D03*
X10492500D02*
D03*
X10442500D02*
D03*
X10392500D02*
D03*
X10342500D02*
D03*
X10292500D02*
D03*
X10242500D02*
D03*
X10192500D02*
D03*
X10142500D02*
D03*
X10092500D02*
D03*
X10042500D02*
D03*
X9992500D02*
D03*
X9942500D02*
D03*
X9892500D02*
D03*
X9842500D02*
D03*
X9792500D02*
D03*
X9742500D02*
D03*
X9692500D02*
D03*
X9642500D02*
D03*
X9592500D02*
D03*
X9542500D02*
D03*
X9492500D02*
D03*
X9442500D02*
D03*
X9392500D02*
D03*
X9342500D02*
D03*
X9292500D02*
D03*
X9242500D02*
D03*
X9192500D02*
D03*
X9142500D02*
D03*
X9092500D02*
D03*
X9042500D02*
D03*
X8992500D02*
D03*
X8942500D02*
D03*
X8892500D02*
D03*
Y8287501D02*
D03*
X8942500D02*
D03*
X8992500D02*
D03*
X9042500D02*
D03*
X9092500D02*
D03*
X9142500D02*
D03*
X9192500D02*
D03*
X9242500D02*
D03*
X9292500D02*
D03*
X9342500D02*
D03*
X9392500D02*
D03*
X9442500D02*
D03*
X9492500D02*
D03*
X9542500D02*
D03*
X9592500D02*
D03*
X9642500D02*
D03*
X9692500D02*
D03*
X9742500D02*
D03*
X9792500D02*
D03*
X9842500D02*
D03*
X9892500D02*
D03*
X9942500D02*
D03*
X9992500D02*
D03*
X10042500D02*
D03*
X10092500D02*
D03*
X10142500D02*
D03*
X10192500D02*
D03*
X10242500D02*
D03*
X10292500D02*
D03*
X10342500D02*
D03*
X10392500D02*
D03*
X10442500D02*
D03*
X10492500D02*
D03*
X10542500D02*
D03*
X10592500D02*
D03*
X10642500D02*
D03*
D13*
X8705000Y6350001D02*
D03*
Y6400001D02*
D03*
Y6450001D02*
D03*
Y6500001D02*
D03*
Y6550001D02*
D03*
Y6600001D02*
D03*
Y6650001D02*
D03*
Y6700001D02*
D03*
Y6750001D02*
D03*
Y6800001D02*
D03*
Y6850001D02*
D03*
Y6900001D02*
D03*
Y6950001D02*
D03*
Y7000001D02*
D03*
Y7050001D02*
D03*
Y7100001D02*
D03*
Y7150001D02*
D03*
Y7200001D02*
D03*
Y7250001D02*
D03*
Y7300001D02*
D03*
Y7350001D02*
D03*
Y7400001D02*
D03*
Y7450001D02*
D03*
Y7500001D02*
D03*
Y7550001D02*
D03*
Y7600001D02*
D03*
Y7650001D02*
D03*
Y7700001D02*
D03*
Y7750001D02*
D03*
Y7800001D02*
D03*
Y7850001D02*
D03*
Y7900001D02*
D03*
Y7950001D02*
D03*
Y8000001D02*
D03*
Y8050001D02*
D03*
Y8100001D02*
D03*
X10830000D02*
D03*
Y8050001D02*
D03*
Y8000001D02*
D03*
Y7950001D02*
D03*
Y7900001D02*
D03*
Y7850001D02*
D03*
Y7800001D02*
D03*
Y7750001D02*
D03*
Y7700001D02*
D03*
Y7650001D02*
D03*
Y7600001D02*
D03*
Y7550001D02*
D03*
Y7500001D02*
D03*
Y7450001D02*
D03*
Y7400001D02*
D03*
Y7350001D02*
D03*
Y7300001D02*
D03*
Y7250001D02*
D03*
Y7200001D02*
D03*
Y7150001D02*
D03*
Y7100001D02*
D03*
Y7050001D02*
D03*
Y7000001D02*
D03*
Y6950001D02*
D03*
Y6900001D02*
D03*
Y6850001D02*
D03*
Y6800001D02*
D03*
Y6750001D02*
D03*
Y6700001D02*
D03*
Y6650001D02*
D03*
Y6600001D02*
D03*
Y6550001D02*
D03*
Y6500001D02*
D03*
Y6450001D02*
D03*
Y6400001D02*
D03*
Y6350001D02*
D03*
D14*
X17789999Y8516000D02*
D03*
X17689999Y7201000D02*
D03*
D15*
X17439999Y8050000D02*
D03*
X17400000Y7940000D02*
D03*
X17439999Y7830000D02*
D03*
X17460001Y7720000D02*
D03*
X17439999Y7610000D02*
D03*
X17460001Y7500000D02*
D03*
X17439999Y7390000D02*
D03*
Y7280000D02*
D03*
D16*
X16385001Y7931000D02*
D03*
Y7361000D02*
D03*
D17*
X14510001Y8143000D02*
D03*
X14512331Y7651500D02*
D03*
X14510001Y7160000D02*
D03*
D18*
Y7960000D02*
D03*
X14705342Y8051500D02*
D03*
X14512331Y7468500D02*
D03*
X14707671Y7560000D02*
D03*
X14705342Y7068500D02*
D03*
X14510001Y6977000D02*
D03*
D19*
X11790000Y7280001D02*
D03*
Y7490001D02*
D03*
X11625000D02*
D03*
Y7280001D02*
D03*
X13622501Y10395000D02*
D03*
Y10185000D02*
D03*
X13457500D02*
D03*
Y10395000D02*
D03*
D20*
X15630063Y8880001D02*
D03*
X15474721D02*
D03*
X15630063Y8660000D02*
D03*
X15474721D02*
D03*
X15627733Y9330000D02*
D03*
X15472392D02*
D03*
X15630063Y9100001D02*
D03*
X15474721D02*
D03*
X11162344Y10669999D02*
D03*
X11317685D02*
D03*
X10694673D02*
D03*
X10850015D02*
D03*
X9863170Y10660000D02*
D03*
X9707828D02*
D03*
X10150158D02*
D03*
X10305499D02*
D03*
X8748341Y10680000D02*
D03*
X8593000D02*
D03*
X9035329D02*
D03*
X9190671D02*
D03*
X3589962Y8252581D02*
D03*
X3745303D02*
D03*
X3589962Y8082581D02*
D03*
X3745303D02*
D03*
X3589962Y7917410D02*
D03*
X3745303D02*
D03*
X3589962Y7747410D02*
D03*
X3745303D02*
D03*
X3590002Y6899991D02*
D03*
X3745343D02*
D03*
X3590000Y7240000D02*
D03*
X3745342D02*
D03*
X3590000Y7070000D02*
D03*
X3745342D02*
D03*
X3590007Y7410000D02*
D03*
X3745349D02*
D03*
X3590002Y6729991D02*
D03*
X3745343D02*
D03*
X3590008Y6389991D02*
D03*
X3745350D02*
D03*
X3589957Y6220050D02*
D03*
X3745298D02*
D03*
X3590007Y7580000D02*
D03*
X3745349D02*
D03*
X3590008Y6559991D02*
D03*
X3745350D02*
D03*
X3590023Y5710000D02*
D03*
X3745364D02*
D03*
X3589957Y6050050D02*
D03*
X3745298D02*
D03*
X3590023Y5880000D02*
D03*
X3745364D02*
D03*
X17145436Y3047607D02*
D03*
X17300777D02*
D03*
X16614659Y3969999D02*
D03*
X16770000D02*
D03*
X6902329Y8030000D02*
D03*
X7057671D02*
D03*
X7751013Y10680000D02*
D03*
X7595672D02*
D03*
X8193343D02*
D03*
X8038001D02*
D03*
X15992329Y6030000D02*
D03*
X16147672D02*
D03*
X12287671Y8930000D02*
D03*
X12132329D02*
D03*
X8227671Y6750000D02*
D03*
X8072329D02*
D03*
X10907671Y5730000D02*
D03*
X10752329D02*
D03*
X17607671Y5360000D02*
D03*
X17452328D02*
D03*
X17534657Y4430000D02*
D03*
X17689999D02*
D03*
X13314722Y9600001D02*
D03*
X13470062D02*
D03*
X15230063Y9870001D02*
D03*
X15074721D02*
D03*
X7247671Y6540000D02*
D03*
X7092329D02*
D03*
X7092329Y6370000D02*
D03*
X7247670D02*
D03*
D21*
X6590000Y5662329D02*
D03*
Y5817671D02*
D03*
X5567414Y4904659D02*
D03*
Y5060000D02*
D03*
X5397414Y4904659D02*
D03*
Y5060000D02*
D03*
X5230000Y9039986D02*
D03*
Y8884644D02*
D03*
X5060000Y9039986D02*
D03*
Y8884644D02*
D03*
X5227326Y4904745D02*
D03*
Y5060086D02*
D03*
X5057326Y4904745D02*
D03*
Y5060086D02*
D03*
X4890000Y9039993D02*
D03*
Y8884652D02*
D03*
X4720000Y9039993D02*
D03*
Y8884652D02*
D03*
X4887326Y4904738D02*
D03*
Y5060080D02*
D03*
X4717326Y4904738D02*
D03*
Y5060080D02*
D03*
X4550000Y9040000D02*
D03*
Y8884659D02*
D03*
X4380000Y9040000D02*
D03*
Y8884659D02*
D03*
X4547326Y4904731D02*
D03*
Y5060072D02*
D03*
X4377326Y4904731D02*
D03*
Y5060072D02*
D03*
X14080000Y8127671D02*
D03*
Y7972329D02*
D03*
Y7137671D02*
D03*
Y6982329D02*
D03*
Y7627671D02*
D03*
Y7472329D02*
D03*
X13830000Y3452329D02*
D03*
Y3607671D02*
D03*
X5569995Y8884725D02*
D03*
Y9040067D02*
D03*
X5399996Y8884725D02*
D03*
Y9040067D02*
D03*
X14084784Y6670000D02*
D03*
Y6514659D02*
D03*
X14880000Y5842329D02*
D03*
Y5997671D02*
D03*
X14084784Y6030000D02*
D03*
Y5874659D02*
D03*
X14192392Y10552330D02*
D03*
Y10707671D02*
D03*
X10340000Y5332329D02*
D03*
Y5487671D02*
D03*
X14232391Y8454659D02*
D03*
Y8610001D02*
D03*
X14732391Y10707671D02*
D03*
Y10552330D02*
D03*
X14372392Y10707671D02*
D03*
Y10552330D02*
D03*
X14552393Y10707671D02*
D03*
Y10552330D02*
D03*
X11727000Y4302329D02*
D03*
Y4457670D02*
D03*
X10926999Y4302329D02*
D03*
Y4457670D02*
D03*
X13327000Y4302329D02*
D03*
Y4457670D02*
D03*
X12527000Y4302329D02*
D03*
Y4457670D02*
D03*
X7730000Y4302329D02*
D03*
Y4457671D02*
D03*
X8526999Y4302329D02*
D03*
Y4457670D02*
D03*
X10127000Y4302329D02*
D03*
Y4457670D02*
D03*
X9327000Y4302329D02*
D03*
Y4457670D02*
D03*
X6760000Y5662329D02*
D03*
Y5817671D02*
D03*
X5890000Y5337671D02*
D03*
Y5182329D02*
D03*
X6060000Y5337671D02*
D03*
Y5182329D02*
D03*
X6230000Y5337671D02*
D03*
Y5182329D02*
D03*
D22*
X13824892Y9155001D02*
D03*
Y9205001D02*
D03*
Y9255001D02*
D03*
Y9305001D02*
D03*
Y9355001D02*
D03*
Y9405001D02*
D03*
Y9455001D02*
D03*
Y9505001D02*
D03*
Y9555001D02*
D03*
Y9605001D02*
D03*
Y9655001D02*
D03*
Y9705001D02*
D03*
X14689893D02*
D03*
Y9655001D02*
D03*
Y9605001D02*
D03*
Y9555001D02*
D03*
Y9505001D02*
D03*
Y9455001D02*
D03*
Y9405001D02*
D03*
Y9355001D02*
D03*
Y9305001D02*
D03*
Y9255001D02*
D03*
Y9205001D02*
D03*
Y9155001D02*
D03*
D23*
X13982391Y9862501D02*
D03*
X14032391D02*
D03*
X14082391D02*
D03*
X14132391D02*
D03*
X14182391D02*
D03*
X14232391D02*
D03*
X14282391D02*
D03*
X14332391D02*
D03*
X14382391D02*
D03*
X14432391D02*
D03*
X14482391D02*
D03*
X14532391D02*
D03*
Y8997501D02*
D03*
X14482391D02*
D03*
X14432391D02*
D03*
X14382391D02*
D03*
X14332391D02*
D03*
X14282391D02*
D03*
X14232391D02*
D03*
X14182391D02*
D03*
X14132391D02*
D03*
X14082391D02*
D03*
X14032391D02*
D03*
X13982391D02*
D03*
D24*
X15310001Y3022411D02*
D03*
Y3297588D02*
D03*
X15570000Y3295177D02*
D03*
Y3020000D02*
D03*
D25*
X15789999Y3017414D02*
D03*
Y3162585D02*
D03*
X3915349Y7572586D02*
D03*
Y7427415D02*
D03*
X3915303Y8089996D02*
D03*
Y8235167D02*
D03*
Y7754825D02*
D03*
Y7899996D02*
D03*
X3915341Y7232586D02*
D03*
Y7087415D02*
D03*
X3915343Y6737406D02*
D03*
Y6882577D02*
D03*
X3915298Y6212635D02*
D03*
Y6067464D02*
D03*
X3915350Y6397406D02*
D03*
Y6542577D02*
D03*
X3915364Y5872586D02*
D03*
Y5727415D02*
D03*
X13904784Y5877414D02*
D03*
Y6022586D02*
D03*
Y6520000D02*
D03*
Y6665171D02*
D03*
D26*
X9650000Y5150000D02*
D03*
Y5277000D02*
D03*
Y5404000D02*
D03*
Y5531000D02*
D03*
Y5658000D02*
D03*
X9243000Y5150000D02*
D03*
Y5277000D02*
D03*
Y5404000D02*
D03*
Y5531000D02*
D03*
Y5658000D02*
D03*
D27*
X10190000Y8752856D02*
D03*
Y8667144D02*
D03*
X9490000Y5940001D02*
D03*
Y5854289D02*
D03*
X13789999Y10372856D02*
D03*
Y10287144D02*
D03*
X11450000Y7297144D02*
D03*
Y7382856D02*
D03*
X15042392Y9492857D02*
D03*
Y9407144D02*
D03*
X9080000Y8667144D02*
D03*
Y8752856D02*
D03*
X6440000Y5832856D02*
D03*
Y5747144D02*
D03*
X5900000Y8059644D02*
D03*
Y8145356D02*
D03*
X5940000Y5835356D02*
D03*
Y5749644D02*
D03*
X6040000Y8059644D02*
D03*
Y8145356D02*
D03*
X6260000Y5832856D02*
D03*
Y5747144D02*
D03*
X15182391Y9492857D02*
D03*
Y9407144D02*
D03*
X14139999Y10187144D02*
D03*
Y10272857D02*
D03*
X8600000Y8645714D02*
D03*
Y8560001D02*
D03*
X10540000Y8645714D02*
D03*
Y8560001D02*
D03*
X11460000Y8162857D02*
D03*
Y8248570D02*
D03*
X9990000Y5854289D02*
D03*
Y5940001D02*
D03*
X13520000Y7247143D02*
D03*
Y7332856D02*
D03*
D28*
X9270000Y8530000D02*
D03*
X9355713D02*
D03*
X11140000Y7760001D02*
D03*
X11225712D02*
D03*
X7042856Y7070000D02*
D03*
X6957144D02*
D03*
X4705356Y7290000D02*
D03*
X4619643D02*
D03*
X4702856Y6650000D02*
D03*
X4617143D02*
D03*
X6957144Y6870000D02*
D03*
X7042856D02*
D03*
X13542392Y9160001D02*
D03*
X13456679D02*
D03*
X14372392Y10240001D02*
D03*
X14458105D02*
D03*
X10052856Y8530000D02*
D03*
X9967144D02*
D03*
X8324287Y7550001D02*
D03*
X8410000D02*
D03*
X11225712Y7900001D02*
D03*
X11140000D02*
D03*
X11222856Y7620001D02*
D03*
X11137144D02*
D03*
X11195712Y7150001D02*
D03*
X11110000D02*
D03*
X10832856Y5890000D02*
D03*
X10747144D02*
D03*
X8324287Y7000001D02*
D03*
X8410000D02*
D03*
X8324287Y6110001D02*
D03*
X8410000D02*
D03*
X15562856Y10070000D02*
D03*
X15477144D02*
D03*
D29*
X11209672Y10290000D02*
D03*
X11409672D02*
D03*
X10756672Y10289999D02*
D03*
X10956672D02*
D03*
X9955157Y10280001D02*
D03*
X9755157D02*
D03*
X10212157Y10280000D02*
D03*
X10412157D02*
D03*
X8840328Y10300000D02*
D03*
X8640328D02*
D03*
X9097328Y10300000D02*
D03*
X9297328D02*
D03*
X8100000Y10300000D02*
D03*
X8300000D02*
D03*
X7843000Y10300000D02*
D03*
X7643000D02*
D03*
D30*
X11154672Y10480000D02*
D03*
X11304672D02*
D03*
X10701672D02*
D03*
X10851672D02*
D03*
X9850157Y10470000D02*
D03*
X9700157D02*
D03*
X10157157D02*
D03*
X10307157D02*
D03*
X8735328Y10490000D02*
D03*
X8585328D02*
D03*
X9042328D02*
D03*
X9192328D02*
D03*
X12475000Y6942001D02*
D03*
X12625000D02*
D03*
X15860001Y8149999D02*
D03*
X16010001D02*
D03*
X16010001Y6940000D02*
D03*
X15860001D02*
D03*
X16010001Y7140000D02*
D03*
X15860001D02*
D03*
X16010001Y7343333D02*
D03*
X15860001D02*
D03*
X16010001Y7545000D02*
D03*
X15860001D02*
D03*
X16010001Y7746666D02*
D03*
X15860001D02*
D03*
X16010001Y7948333D02*
D03*
X15860001D02*
D03*
X8195000Y10490000D02*
D03*
X8045000D02*
D03*
X7738000D02*
D03*
X7588000D02*
D03*
D31*
X11147301Y8240000D02*
D03*
X11292699D02*
D03*
X15622699Y9870000D02*
D03*
X15477301D02*
D03*
X6227301Y3220000D02*
D03*
X6372699D02*
D03*
X5857301Y8530000D02*
D03*
X6002699D02*
D03*
D32*
X15710001Y5667500D02*
D03*
Y5602500D02*
D03*
Y5537500D02*
D03*
Y5472500D02*
D03*
X16150000D02*
D03*
Y5537500D02*
D03*
Y5602500D02*
D03*
Y5667500D02*
D03*
D33*
X15930000Y5570000D02*
D03*
D34*
X17275000Y3502000D02*
D03*
X17125000D02*
D03*
X17125000Y3930000D02*
D03*
X17275000D02*
D03*
X13814999Y7350000D02*
D03*
X13664999D02*
D03*
X11902000Y4099999D02*
D03*
X11752000D02*
D03*
X11372000D02*
D03*
X11522000D02*
D03*
X10572000D02*
D03*
X10722000D02*
D03*
X11102000D02*
D03*
X10952000D02*
D03*
X13502000D02*
D03*
X13352000D02*
D03*
X12972000D02*
D03*
X13122000D02*
D03*
X12172000D02*
D03*
X12322000D02*
D03*
X12702000D02*
D03*
X12552000D02*
D03*
X7905000Y4100000D02*
D03*
X7755000D02*
D03*
X7375000D02*
D03*
X7525000D02*
D03*
X8172000Y4099999D02*
D03*
X8322000D02*
D03*
X8702000D02*
D03*
X8552000D02*
D03*
X10302000D02*
D03*
X10152000D02*
D03*
X9772000D02*
D03*
X9922000D02*
D03*
X8972000D02*
D03*
X9122000D02*
D03*
X9502000D02*
D03*
X9352000D02*
D03*
D35*
X17130000Y4098000D02*
D03*
X17289999D02*
D03*
X17130000Y3220000D02*
D03*
X17289999D02*
D03*
X17289999Y3670000D02*
D03*
X17130000D02*
D03*
X15100002Y6940000D02*
D03*
X14939999D02*
D03*
X15090001Y7930000D02*
D03*
X14930000D02*
D03*
X15100002Y7430000D02*
D03*
X14940001D02*
D03*
X14960001Y6490000D02*
D03*
X15120000D02*
D03*
X16350000Y11150000D02*
D03*
X16510001D02*
D03*
D36*
X15942500Y2680000D02*
D03*
X15797501D02*
D03*
X16282500D02*
D03*
X16137500D02*
D03*
D37*
X16480000D02*
D03*
X16630171D02*
D03*
D38*
X14948462Y7640000D02*
D03*
X15091541D02*
D03*
X14948460Y7150000D02*
D03*
X15091541D02*
D03*
X16618462Y3790000D02*
D03*
X16761539D02*
D03*
X14968462Y6650000D02*
D03*
X15111539D02*
D03*
X15091541Y8140000D02*
D03*
X14948460D02*
D03*
X15960001Y10920000D02*
D03*
X15816920D02*
D03*
X15961539Y11100000D02*
D03*
X15818462D02*
D03*
X15961539Y10730000D02*
D03*
X15818462D02*
D03*
X13821539Y7170000D02*
D03*
X13678461D02*
D03*
X17538460Y4620000D02*
D03*
X17681538D02*
D03*
X15223930Y9690001D02*
D03*
X15080853D02*
D03*
X11488539Y4770000D02*
D03*
X11345460D02*
D03*
X10688539D02*
D03*
X10545460D02*
D03*
X13088539D02*
D03*
X12945461D02*
D03*
X12288539D02*
D03*
X12145460D02*
D03*
X7491539Y4770000D02*
D03*
X7348461D02*
D03*
X8288539Y4770000D02*
D03*
X8145460D02*
D03*
X9888539D02*
D03*
X9745460D02*
D03*
X9088539D02*
D03*
X8945460D02*
D03*
D39*
X14260001Y8121540D02*
D03*
Y7978461D02*
D03*
Y7621539D02*
D03*
Y7478461D02*
D03*
Y7131539D02*
D03*
Y6988460D02*
D03*
X14880000Y5651539D02*
D03*
Y5508461D02*
D03*
X14020000Y3840000D02*
D03*
Y3983079D02*
D03*
X14012392Y10701540D02*
D03*
Y10558461D02*
D03*
D40*
X15905000Y5220000D02*
D03*
Y5125000D02*
D03*
Y5030000D02*
D03*
X16164999D02*
D03*
Y5125000D02*
D03*
Y5220000D02*
D03*
X16630000Y5655000D02*
D03*
Y5560000D02*
D03*
Y5465000D02*
D03*
X16889999D02*
D03*
Y5560000D02*
D03*
Y5655000D02*
D03*
X16889999Y5025000D02*
D03*
Y5120000D02*
D03*
Y5215000D02*
D03*
X16630000D02*
D03*
Y5120000D02*
D03*
Y5025000D02*
D03*
X14584999Y3655000D02*
D03*
Y3750000D02*
D03*
Y3845000D02*
D03*
X14315001D02*
D03*
Y3750000D02*
D03*
Y3655000D02*
D03*
D41*
X16239999Y3310000D02*
D03*
D42*
X16012500Y3597538D02*
D03*
X16077499D02*
D03*
X16142500D02*
D03*
X16207500D02*
D03*
X16272501D02*
D03*
X16337500D02*
D03*
X16402499D02*
D03*
X16467500D02*
D03*
Y3022462D02*
D03*
X16402499D02*
D03*
X16337500D02*
D03*
X16272501D02*
D03*
X16207500D02*
D03*
X16142500D02*
D03*
X16077499D02*
D03*
D43*
X16012500D02*
D03*
D44*
X16110001Y4230000D02*
D03*
X15879878D02*
D03*
X16110001Y4650000D02*
D03*
X15879878D02*
D03*
D45*
X15380000Y4690000D02*
D03*
X14410001D02*
D03*
D46*
X14550000Y3070000D02*
D03*
X14989999D02*
D03*
D47*
X15580000Y3815156D02*
D03*
Y3650000D02*
D03*
X15310001Y3815156D02*
D03*
Y3650000D02*
D03*
X15048000Y3815157D02*
D03*
Y3650001D02*
D03*
D48*
X16142671Y5860000D02*
D03*
X15997330D02*
D03*
X16762671Y4139999D02*
D03*
X16617329D02*
D03*
X11292671Y8065714D02*
D03*
X11147329D02*
D03*
X6390000Y4910000D02*
D03*
X6244659D02*
D03*
D49*
X17594052Y5530000D02*
D03*
X17465948D02*
D03*
D50*
X17164999Y6135000D02*
D03*
Y6040000D02*
D03*
Y5945000D02*
D03*
X16914999D02*
D03*
Y6040000D02*
D03*
Y6135000D02*
D03*
D51*
X14020000Y3455000D02*
D03*
Y3605000D02*
D03*
X11940000Y5090000D02*
D03*
Y5240000D02*
D03*
X12448000D02*
D03*
Y5090000D02*
D03*
X12194000Y5240000D02*
D03*
Y5090000D02*
D03*
X11686000Y5240000D02*
D03*
Y5090000D02*
D03*
D52*
X13857414Y4170000D02*
D03*
X14002586D02*
D03*
X5414829Y5230000D02*
D03*
X5560000D02*
D03*
X5417410Y8714725D02*
D03*
X5562581D02*
D03*
X5074740Y5230086D02*
D03*
X5219911D02*
D03*
X5077415Y8714644D02*
D03*
X5222586D02*
D03*
X4734740Y5230079D02*
D03*
X4879911D02*
D03*
X4737414Y8714652D02*
D03*
X4882586D02*
D03*
X4394740Y5230072D02*
D03*
X4539911D02*
D03*
X4397414Y8714659D02*
D03*
X4542586D02*
D03*
X12897415Y6952001D02*
D03*
X13042586D02*
D03*
X6002586Y8710000D02*
D03*
X5857414D02*
D03*
X14294785Y6270000D02*
D03*
X14149612D02*
D03*
X14304784Y5620000D02*
D03*
X14159613D02*
D03*
X14317413Y3440000D02*
D03*
X14462585D02*
D03*
X15962585Y10060000D02*
D03*
X15817415D02*
D03*
X15962585Y10240000D02*
D03*
X15817415D02*
D03*
X10745157Y9220001D02*
D03*
X10890328D02*
D03*
X9749986D02*
D03*
X9895157D02*
D03*
X8635157Y9240001D02*
D03*
X8780328D02*
D03*
X7637829Y9240000D02*
D03*
X7783000D02*
D03*
X17902586Y6900000D02*
D03*
X17757414D02*
D03*
X15487221Y8480001D02*
D03*
X15632391D02*
D03*
X15479807Y9510001D02*
D03*
X15624979D02*
D03*
X6389915Y4730000D02*
D03*
X6244744D02*
D03*
X6377329Y3580000D02*
D03*
X6232158D02*
D03*
D53*
X13085001Y8525000D02*
D03*
Y7615000D02*
D03*
X13535001Y8525000D02*
D03*
Y7615000D02*
D03*
X12585000D02*
D03*
Y8525000D02*
D03*
X12135000Y7615000D02*
D03*
Y8525000D02*
D03*
D54*
X12480001Y6752501D02*
D03*
Y6625501D02*
D03*
Y6498501D02*
D03*
Y6371501D02*
D03*
X13040001D02*
D03*
Y6498501D02*
D03*
Y6625501D02*
D03*
Y6752501D02*
D03*
D55*
X12760001Y6562001D02*
D03*
D56*
X12882500Y7142001D02*
D03*
X13057500D02*
D03*
X4710000Y7440000D02*
D03*
X4535000D02*
D03*
X13547501Y8970000D02*
D03*
X13372501D02*
D03*
X15464893Y9690001D02*
D03*
X15639893D02*
D03*
X5867244Y3400000D02*
D03*
X6042244D02*
D03*
X5867244Y3220000D02*
D03*
X6042244D02*
D03*
X5867244Y3580000D02*
D03*
X6042244D02*
D03*
X6394744Y3400000D02*
D03*
X6219744D02*
D03*
X7267500Y6720000D02*
D03*
X7092500D02*
D03*
X7265000Y7220000D02*
D03*
X7090000D02*
D03*
X6037500Y8350000D02*
D03*
X5862500D02*
D03*
X4525000Y6500000D02*
D03*
X4700000D02*
D03*
D57*
X11729940Y6615046D02*
D03*
Y6365046D02*
D03*
D58*
X11960000Y6578447D02*
D03*
Y6661555D02*
D03*
Y6411555D02*
D03*
Y6328447D02*
D03*
D59*
X11400000Y6442671D02*
D03*
Y6297329D02*
D03*
D60*
X5162452Y7587499D02*
D03*
D61*
Y7522500D02*
D03*
Y7457499D02*
D03*
Y7392500D02*
D03*
Y7327499D02*
D03*
Y7262500D02*
D03*
Y7197499D02*
D03*
Y7132500D02*
D03*
Y7067499D02*
D03*
Y7002500D02*
D03*
Y6937499D02*
D03*
Y6872500D02*
D03*
Y6807499D02*
D03*
Y6742500D02*
D03*
Y6677499D02*
D03*
Y6612500D02*
D03*
Y6547499D02*
D03*
Y6482500D02*
D03*
Y6417499D02*
D03*
Y6352500D02*
D03*
X6697548D02*
D03*
Y6417499D02*
D03*
Y6482500D02*
D03*
Y6547499D02*
D03*
Y6612500D02*
D03*
Y6677499D02*
D03*
Y6742500D02*
D03*
Y6807499D02*
D03*
Y6872500D02*
D03*
Y6937499D02*
D03*
Y7002500D02*
D03*
Y7067499D02*
D03*
Y7132500D02*
D03*
Y7197499D02*
D03*
Y7262500D02*
D03*
Y7327499D02*
D03*
Y7392500D02*
D03*
Y7457499D02*
D03*
Y7522500D02*
D03*
Y7587499D02*
D03*
D62*
X5312500Y6202451D02*
D03*
X5377500D02*
D03*
X5442500D02*
D03*
X5507500D02*
D03*
X5572500D02*
D03*
X5637500D02*
D03*
X5702500D02*
D03*
X5767500D02*
D03*
X5832500D02*
D03*
X5897500D02*
D03*
X5962500D02*
D03*
X6027500D02*
D03*
X6092500D02*
D03*
X6157500D02*
D03*
X6222500D02*
D03*
X6287500D02*
D03*
X6352500D02*
D03*
X6417500D02*
D03*
X6482500D02*
D03*
X6547500D02*
D03*
Y7737548D02*
D03*
X6482500D02*
D03*
X6417500D02*
D03*
X6352500D02*
D03*
X6287500D02*
D03*
X6222500D02*
D03*
X6157500D02*
D03*
X6092500D02*
D03*
X6027500D02*
D03*
X5962500D02*
D03*
X5897500D02*
D03*
X5832500D02*
D03*
X5767500D02*
D03*
X5702500D02*
D03*
X5637500D02*
D03*
X5572500D02*
D03*
X5507500D02*
D03*
X5442500D02*
D03*
X5377500D02*
D03*
X5312500D02*
D03*
D63*
X14574783Y6485000D02*
D03*
Y6580000D02*
D03*
Y6675000D02*
D03*
X14294785D02*
D03*
Y6485000D02*
D03*
X14584836Y5845048D02*
D03*
Y5940048D02*
D03*
Y6035048D02*
D03*
X14304836D02*
D03*
Y5845048D02*
D03*
D64*
X15487804Y5517301D02*
D03*
Y5662699D02*
D03*
X8370000Y6274602D02*
D03*
Y6420001D02*
D03*
D65*
X13830000Y3840000D02*
D03*
Y3990171D02*
D03*
D66*
X8764601Y8600001D02*
D03*
X8910000D02*
D03*
D67*
X11390000Y7745949D02*
D03*
Y7874054D02*
D03*
D68*
X10847750Y10040000D02*
D03*
X10911250D02*
D03*
X10974750D02*
D03*
X11038250D02*
D03*
X11101750D02*
D03*
X11165250D02*
D03*
X11228750D02*
D03*
X11292250D02*
D03*
Y9500000D02*
D03*
X11228750D02*
D03*
X11165250D02*
D03*
X11101750D02*
D03*
X11038250D02*
D03*
X10974750D02*
D03*
X10911250D02*
D03*
X10847750D02*
D03*
X9847750Y10040000D02*
D03*
X9911250D02*
D03*
X9974750D02*
D03*
X10038250D02*
D03*
X10101750D02*
D03*
X10165250D02*
D03*
X10228750D02*
D03*
X10292250D02*
D03*
Y9500000D02*
D03*
X10228750D02*
D03*
X10165250D02*
D03*
X10101750D02*
D03*
X10038250D02*
D03*
X9974750D02*
D03*
X9911250D02*
D03*
X9847750D02*
D03*
X7740750Y10050000D02*
D03*
X7804250D02*
D03*
X7867750D02*
D03*
X7931250D02*
D03*
X7994750D02*
D03*
X8058250D02*
D03*
X8121750D02*
D03*
X8185250D02*
D03*
Y9510000D02*
D03*
X8121750D02*
D03*
X8058250D02*
D03*
X7994750D02*
D03*
X7931250D02*
D03*
X7867750D02*
D03*
X7804250D02*
D03*
X7740750D02*
D03*
X8738078Y10050000D02*
D03*
X8801578D02*
D03*
X8865078D02*
D03*
X8928578D02*
D03*
X8992078D02*
D03*
X9055578D02*
D03*
X9119078D02*
D03*
X9182578D02*
D03*
Y9510001D02*
D03*
X9119078D02*
D03*
X9055578D02*
D03*
X8992078D02*
D03*
X8928578D02*
D03*
X8865078D02*
D03*
X8801578D02*
D03*
X8738078D02*
D03*
D69*
X13507001Y4290000D02*
D03*
Y4450000D02*
D03*
X12707000Y4290000D02*
D03*
Y4450000D02*
D03*
X11907000Y4290000D02*
D03*
Y4450000D02*
D03*
X11107000Y4290000D02*
D03*
Y4450000D02*
D03*
X10307000Y4290000D02*
D03*
Y4450000D02*
D03*
X9507000Y4290000D02*
D03*
Y4450000D02*
D03*
X7910000Y4290000D02*
D03*
Y4450000D02*
D03*
X8707000Y4290000D02*
D03*
Y4450000D02*
D03*
D70*
X17585001Y5940000D02*
D03*
Y6005000D02*
D03*
Y6070000D02*
D03*
Y6135000D02*
D03*
Y6200000D02*
D03*
D71*
X17855000Y5970000D02*
D03*
Y6170000D02*
D03*
D72*
X15307803Y5502500D02*
D03*
Y5677500D02*
D03*
X6090000Y5652500D02*
D03*
Y5827500D02*
D03*
X6190000Y8240000D02*
D03*
Y8065000D02*
D03*
X5780000Y5662500D02*
D03*
Y5837500D02*
D03*
D73*
X17610001Y5100000D02*
D03*
X17701500Y4904659D02*
D03*
X11417000Y4342329D02*
D03*
X11325500Y4537670D02*
D03*
X10617000Y4342329D02*
D03*
X10525500Y4537670D02*
D03*
X13017000Y4342329D02*
D03*
X12925500Y4537670D02*
D03*
X12217000Y4342329D02*
D03*
X12125500Y4537670D02*
D03*
X7420000Y4342329D02*
D03*
X7328500Y4537671D02*
D03*
X8217000Y4342329D02*
D03*
X8125500Y4537670D02*
D03*
X9817000Y4342329D02*
D03*
X9725500Y4537670D02*
D03*
X9017000Y4342329D02*
D03*
X8925500Y4537670D02*
D03*
D74*
X17518500Y4904659D02*
D03*
X11508500Y4537670D02*
D03*
X10708500D02*
D03*
X13108501D02*
D03*
X12308500D02*
D03*
X7511500Y4537671D02*
D03*
X8308500Y4537670D02*
D03*
X9908500D02*
D03*
X9108500D02*
D03*
D75*
X11627000Y3292500D02*
D03*
X11373000D02*
D03*
Y3907500D02*
D03*
X11627000D02*
D03*
X10827000Y3292500D02*
D03*
X10573000D02*
D03*
Y3907500D02*
D03*
X10827000D02*
D03*
X13227000Y3292500D02*
D03*
X12973000D02*
D03*
Y3907500D02*
D03*
X13227000D02*
D03*
X12427000Y3292500D02*
D03*
X12173000D02*
D03*
Y3907500D02*
D03*
X12427000D02*
D03*
X7630000Y3292500D02*
D03*
X7376000D02*
D03*
Y3907500D02*
D03*
X7630000D02*
D03*
X8427000Y3292500D02*
D03*
X8173000D02*
D03*
Y3907500D02*
D03*
X8427000D02*
D03*
X10027000Y3292500D02*
D03*
X9773000D02*
D03*
Y3907500D02*
D03*
X10027000D02*
D03*
X9227000Y3292500D02*
D03*
X8973000D02*
D03*
Y3907500D02*
D03*
X9227000D02*
D03*
D76*
X5994244Y3915000D02*
D03*
X6121244D02*
D03*
X6248244D02*
D03*
X6375244D02*
D03*
X5994244Y4405000D02*
D03*
X6121244D02*
D03*
X6248244D02*
D03*
X6375244D02*
D03*
D77*
X15477144Y9870000D02*
Y10069999D01*
X15230063Y9870001D02*
X15368851D01*
X16150000Y5667500D02*
Y5860000D01*
Y5472500D02*
X16312502D01*
X5771537Y5826893D02*
X5781072Y5836428D01*
X15639999Y9690000D02*
X15850000D01*
X15639999Y9342267D02*
Y9690000D01*
Y9870001D01*
X15710001Y5472500D02*
X15872501D01*
X6959288Y7070000D02*
Y7139287D01*
X6040000Y8059644D02*
X6190000D01*
X5857301Y8530000D02*
X5859914D01*
X5750000D02*
X5857301D01*
X5784926Y5837500D02*
X5792500D01*
X5754915Y3220000D02*
X5867244D01*
X5754915Y3400000D02*
X5867244D01*
X5754915Y3580000D02*
X5867244D01*
X6394744Y3400000D02*
X6507073D01*
X6377329Y3580000D02*
X6489659D01*
X6375244Y3915000D02*
X6377622Y3912622D01*
Y3732378D02*
X6380000Y3730000D01*
X6377622Y3732378D02*
Y3912622D01*
X6389915Y4730000D02*
X6502244D01*
X6390000Y4910000D02*
X6502329D01*
X15710001Y5667500D02*
Y5720000D01*
X15610001Y5602500D02*
X15710001D01*
X15582500Y5667500D02*
X15710001D01*
X16764999Y5120000D02*
X16889999D01*
X15987500Y5537500D02*
X16150000D01*
Y5667500D02*
X16312502D01*
X15477144Y9870000D02*
X15477301D01*
X15370279D02*
X15477144D01*
Y10070000D02*
Y10162391D01*
X15384752Y10069999D02*
X15477142D01*
X15562856Y10070000D02*
Y10162391D01*
X5858707Y8848707D02*
X5860000Y8850000D01*
X5858707Y8730000D02*
Y8848707D01*
X5754059Y8710000D02*
X5857414D01*
X16789999Y6040000D02*
X16914999D01*
X17164999D02*
X17289999D01*
X6547500Y7587499D02*
Y7737548D01*
Y7577499D02*
Y7587499D01*
X6697548D01*
X6537499D02*
X6547500D01*
X16630000Y5560000D02*
X16755000D01*
X15905000Y5125000D02*
X16030000D01*
X15464893Y9690000D02*
X15464893Y9690001D01*
X15370000Y9690000D02*
X15464893D01*
X15370000Y9690000D02*
X15370000Y9690000D01*
X15223930Y9690001D02*
X15223932Y9690000D01*
X15370000D01*
X15370000Y9690000D01*
X15410263Y9577130D02*
X15477393Y9510001D01*
X15370000Y9580000D02*
X15372870Y9577130D01*
X15477393Y9510001D02*
X15479807D01*
X15372870Y9577130D02*
X15410263D01*
X15370000Y8480000D02*
X15487221D01*
X15487221Y8480001D01*
X15370000Y8480000D02*
X15370000Y8480000D01*
X15725024Y10060000D02*
X15817415D01*
X15725024Y10240000D02*
X15817415D01*
X15630063Y9100000D02*
Y9100001D01*
Y8880001D02*
Y9100000D01*
X15739999D01*
X15632391Y8480000D02*
X15742438D01*
X15739999Y9100000D02*
X15739999Y9100000D01*
X15632391Y8480001D02*
Y8657671D01*
X15962585Y10060000D02*
Y10240000D01*
Y9962586D02*
Y10060000D01*
X15870001Y9870001D02*
X15962585Y9962586D01*
X15639999Y9870001D02*
X15870001D01*
X15230000Y9870064D02*
Y9980000D01*
X6500000Y7550000D02*
X6537499Y7587499D01*
Y7522500D02*
X6697548D01*
X5795532Y5848106D02*
Y5911474D01*
X5784926Y5837500D02*
X5795532Y5848106D01*
X5780000Y5837500D02*
X5784926D01*
X5795532Y5911474D02*
X5820000Y5935941D01*
X5785452Y5836428D02*
X5938928D01*
X5820000Y5935941D02*
Y5940000D01*
X5859914Y8530000D02*
X5861250Y8528664D01*
X5750000Y8350000D02*
X5862414D01*
X5851894Y8339394D02*
X5862500Y8350000D01*
X4710000Y7440000D02*
X4803477D01*
X4700000Y6400000D02*
Y6500000D01*
X5859914Y8530000D02*
X5862414D01*
X6537499Y7197499D02*
X6697548D01*
X6537499Y7132500D02*
X6697548D01*
X6537499Y7002500D02*
X6697548D01*
X6537499Y6937499D02*
X6697548D01*
X6537499Y6807499D02*
X6697548D01*
X6537499Y6742500D02*
X6697548D01*
X6537499Y6677499D02*
X6697548D01*
X6537499Y6547499D02*
X6697548D01*
X6537499Y6482500D02*
X6697548D01*
X6537499Y6417499D02*
X6697548D01*
X6537499Y6352500D02*
X6697548D01*
X6482500Y6202451D02*
Y6362500D01*
X6417500Y6202451D02*
Y6362500D01*
X6352500Y6202451D02*
Y6362500D01*
X6157500Y6202451D02*
Y6362500D01*
X6027500Y6202451D02*
Y6362500D01*
X5832500Y6202451D02*
Y6362500D01*
X5162452Y6612500D02*
X5322500D01*
X5162452Y7327499D02*
X5322500D01*
X6027500Y7577499D02*
Y7737548D01*
X6222500Y7577499D02*
Y7737548D01*
X6287500Y7577499D02*
Y7737548D01*
X6352500Y7577499D02*
Y7737548D01*
X6537499Y7457499D02*
X6697548D01*
X5832500Y7562595D02*
Y7737548D01*
X5906124Y8202065D02*
X5930000Y8225941D01*
Y8230000D01*
X5906124Y8151480D02*
Y8202065D01*
X5900000Y8145356D02*
X5906124Y8151480D01*
X5900000Y8059644D02*
Y8061787D01*
X5833876Y8099056D02*
Y8277189D01*
X5851894Y8295207D02*
Y8339394D01*
X5893876Y8067911D02*
X5900000Y8061787D01*
X5833876Y8277189D02*
X5851894Y8295207D01*
X5833876Y8099056D02*
X5865021Y8067911D01*
X5893876D01*
X6040000Y7990000D02*
Y8059644D01*
X5962500Y7912500D02*
X6040000Y7990000D01*
X4710000Y7440000D02*
Y7533477D01*
X4535000Y7440000D02*
Y7533477D01*
X6697548Y7067499D02*
X6954643D01*
X7265000Y7120000D02*
Y7220000D01*
X7267500Y6720000D02*
Y6820000D01*
X7042857Y6870000D02*
X7142856D01*
X7042857Y7070000D02*
X7142856D01*
X6040000Y8145356D02*
Y8230000D01*
X5784239Y5673107D02*
X5803107D01*
X5877397Y5747396D02*
X5937753D01*
X5780000Y5668868D02*
X5784239Y5673107D01*
X5937753Y5747396D02*
X5940000Y5749644D01*
X5803107Y5673107D02*
X5877397Y5747396D01*
X4700000Y6500000D02*
X4800000D01*
X5861250Y8351250D02*
Y8528664D01*
X6190000Y8240000D02*
X6290000D01*
X6290000Y8240000D01*
X6190000Y8240000D02*
X6190000Y8240000D01*
X6037500Y8350000D02*
X6130000D01*
X4702856Y6502856D02*
Y6650000D01*
X5962500Y7737548D02*
Y7912500D01*
X7092500Y6720000D02*
Y6725230D01*
X7081894Y6735836D02*
X7092500Y6725230D01*
X6957144Y6870000D02*
X6959288D01*
X7079394Y7202914D02*
X7090000Y7213520D01*
X6959288Y7139287D02*
X7022914Y7202914D01*
X7090000Y7213520D02*
Y7220000D01*
X7022914Y7202914D02*
X7079394D01*
X5897500Y7737548D02*
Y8057143D01*
X5962500Y6047500D02*
Y6202451D01*
X6086172Y5831327D02*
Y5923828D01*
X5962500Y6047500D02*
X6086172Y5923828D01*
X4525000Y6406523D02*
Y6500000D01*
X4526167Y7290000D02*
X4619643D01*
X4441524Y7440000D02*
X4535000D01*
X4500000Y6650000D02*
X4617143D01*
X4400000Y6500000D02*
X4525000D01*
X4702856Y6650000D02*
X4888170D01*
X4705356Y7290000D02*
X4889420D01*
X4916920Y7262500D01*
X4707678Y7292322D02*
Y7437678D01*
X4916920Y7262500D02*
X5162452D01*
X4915670Y6677499D02*
X5162452D01*
X4888170Y6650000D02*
X4915670Y6677499D01*
X6698798Y6871250D02*
X6955894D01*
X6260000Y5832856D02*
Y5890000D01*
X6092500Y6057500D02*
X6260000Y5890000D01*
X6092500Y6057500D02*
Y6202451D01*
X5940000Y5835356D02*
Y5930000D01*
X5897500Y5972500D02*
X5940000Y5930000D01*
X5897500Y5972500D02*
Y6202451D01*
X6260000Y5634814D02*
Y5747144D01*
X6090000Y5540171D02*
Y5652500D01*
X5940000Y5637314D02*
Y5749644D01*
X5780000Y5550171D02*
Y5662500D01*
D78*
X13547501Y8970000D02*
Y9155001D01*
X13057500Y6950000D02*
Y7142001D01*
X9890328Y9220001D02*
X9911250Y9240923D01*
X11290000Y8240000D02*
X11298570Y8248570D01*
X8782499Y9235993D02*
X8817953Y9271447D01*
X7795796Y9140625D02*
Y9246618D01*
X7783328Y9234150D02*
X7795796Y9246618D01*
X11408835Y6453835D02*
X11422671Y6440000D01*
X11108928Y7152322D02*
X11110624Y7150626D01*
X9991250Y6161251D02*
Y6162501D01*
X9491250Y6161251D02*
Y6211251D01*
X10342500Y5487671D02*
Y6162501D01*
X14690964Y9406072D02*
X15181320D01*
X14032391Y9667608D02*
Y9862501D01*
X14505000Y9405001D02*
X14689893D01*
X14495000Y9255001D02*
X14689893D01*
X11224284Y7621429D02*
Y7830000D01*
X10659999Y7100001D02*
X10830000D01*
X12597701Y6371501D02*
X12760001Y6533801D01*
X9942500Y6332500D02*
X9960000Y6350000D01*
X9942500Y6162501D02*
Y6332500D01*
X8705001Y7600003D02*
X8850003D01*
X9649644Y5655856D02*
X9885856D01*
X9649644Y5401856D02*
X9828781D01*
X9489644Y5852144D02*
X9567856D01*
X16460001Y3790000D02*
X16618462D01*
X9850741Y10032166D02*
Y10131416D01*
X14103830Y7651500D02*
X14512331D01*
X14102330Y7160000D02*
X14510001D01*
X14095329Y8143000D02*
X14510001D01*
X17518500Y4446158D02*
Y4904659D01*
X9916407Y10030001D02*
Y10145751D01*
X12135000Y8922670D02*
X12142329Y8930000D01*
X14080000Y7790001D02*
Y7972329D01*
X8190000Y9160000D02*
X8340000Y9010000D01*
X9336423Y9173577D02*
X9642500Y8867500D01*
X5077415Y5225355D02*
Y5230346D01*
X4737414Y5225347D02*
Y5230339D01*
X4397414Y5225340D02*
Y5230332D01*
X3897949Y5712414D02*
X3950575Y5765040D01*
X3897888Y7914996D02*
X3962884Y7850000D01*
X3907934Y7577586D02*
X3950560Y7534961D01*
X3907927Y7237586D02*
X3965513Y7180000D01*
X11420001Y7450001D02*
X11460001Y7490001D01*
X10830000Y7450001D02*
X11420001D01*
X11460001Y7490001D02*
X11625000D01*
X10830000Y6600001D02*
X11309999D01*
X11396173Y6513827D01*
X14232391Y8358592D02*
Y8454659D01*
X13380000Y9160000D02*
X13380000Y9160000D01*
X13456679D02*
X13456679Y9160001D01*
X13380000Y9160000D02*
X13456679D01*
X13547501Y9155001D02*
X13824892D01*
X13547501D02*
Y9156278D01*
X12044000Y5990000D02*
X12192000Y5842000D01*
X11160000Y5990000D02*
X12044000D01*
X12238000Y6050000D02*
X12446000Y5842000D01*
X11220000Y6050000D02*
X12238000D01*
X12422000Y6120000D02*
X12700000Y5842000D01*
X11290001Y6120000D02*
X12422000D01*
X12606000Y6190000D02*
X12953999Y5842000D01*
X11340000Y6190000D02*
X12606000D01*
X11110000Y6160000D02*
X11220000Y6050000D01*
X11190000Y6220001D02*
X11290001Y6120000D01*
X11040000Y6110000D02*
X11160000Y5990000D01*
X11190000Y6220001D02*
Y6390000D01*
X11270000Y6260000D02*
X11340000Y6190000D01*
X11270000Y6260000D02*
Y6440000D01*
X11110000Y6160000D02*
Y6340000D01*
X11040000Y6110000D02*
Y6300000D01*
X11390000Y7874054D02*
X11398402Y7865652D01*
X11364052Y7900001D02*
X11390000Y7874054D01*
X11790000Y7490002D02*
Y7655651D01*
X11398402Y7865652D02*
X11500000D01*
X14800000Y7710000D02*
X14930000Y7840000D01*
X15763933Y8149999D02*
X15860001D01*
X11422907Y7780000D02*
X11500000D01*
X8227671Y6750000D02*
X8520000D01*
X8214185D02*
X8227671D01*
X6590000Y5550000D02*
Y5662329D01*
X4443401Y4030535D02*
Y4839992D01*
X3354168Y2941302D02*
X4443401Y4030535D01*
X3394568Y2481568D02*
Y2924568D01*
X4483801Y4013801D01*
X3354168Y2624168D02*
Y2941302D01*
X4483801Y4013801D02*
Y4845212D01*
X13350000Y10190000D02*
X13452499D01*
X13457500Y10185000D01*
X14500000Y9400000D02*
X14505000Y9405001D01*
X14480000Y9270000D02*
X14495000Y9255001D01*
X13824892Y9205001D02*
X13995001D01*
X14060001Y9270000D01*
X14032391Y9667608D02*
X14039999Y9660000D01*
X8770000Y8605400D02*
Y8730000D01*
X8764601Y8600001D02*
X8770000Y8605400D01*
X8490001Y8560000D02*
X8599999D01*
X8600000Y8560001D01*
X8490000Y8560000D02*
X8490001Y8560000D01*
X13180000Y9660000D02*
X13239999Y9600001D01*
X13314722D01*
X14880000Y5997671D02*
X14880000Y5997671D01*
X14880000Y5997671D02*
Y6130000D01*
X14020000Y3455000D02*
X14139999D01*
X13710001Y3452329D02*
X13830000D01*
X13710001Y3840000D02*
X13830000D01*
X14030000Y3605000D02*
X14175000Y3750000D01*
X14020000Y3605000D02*
X14030000D01*
X14175000Y3750000D02*
X14315001D01*
X14017329Y3607671D02*
X14020000Y3605000D01*
X13830000Y3607671D02*
X14017329D01*
X14002586Y4170000D02*
X14012585Y4180000D01*
X14100000D01*
X16630000Y5340000D02*
Y5465000D01*
X16889999Y5215000D02*
Y5340000D01*
Y5215000D02*
X16889999Y5215000D01*
X16400000Y6005000D02*
X16406619Y6011620D01*
X17275000Y4083000D02*
X17289999Y4098000D01*
X17275000Y3930000D02*
Y4083000D01*
X17275000Y3655000D02*
X17289999Y3670000D01*
X17275000Y3502000D02*
Y3655000D01*
X17300777Y3047607D02*
Y3209223D01*
X17289999Y3220000D02*
X17300777Y3209223D01*
X17689999Y4310000D02*
Y4430000D01*
X17518500Y4446158D02*
X17534657Y4430000D01*
X17627670Y5340000D02*
X17720000D01*
X17610001Y5357671D02*
X17627670Y5340000D01*
X17607671Y5360000D02*
X17610001Y5357671D01*
X17010001Y4098000D02*
X17130000D01*
X17005000Y3930000D02*
X17125000D01*
X17005000Y3502000D02*
X17125000D01*
X17010001Y3670000D02*
X17130000D01*
X17025436Y3047607D02*
X17145436D01*
X17010001Y3220000D02*
X17130000D01*
X15710001Y5720000D02*
Y5920000D01*
X15820000Y6030000D01*
X10911250Y9240923D02*
X10922103Y9251775D01*
X10890328Y9220001D02*
X10911250Y9240923D01*
X9911250D02*
Y9500000D01*
Y9236094D02*
Y9240923D01*
X9925539Y9255212D01*
X8780656Y9234150D02*
X8782499Y9235993D01*
Y9237829D01*
Y9130000D02*
Y9235993D01*
X7795796Y9246618D02*
X7820625Y9271447D01*
X7795796Y9246618D02*
Y9248454D01*
X15580000Y5670000D02*
X15582500Y5667500D01*
X17610001Y5100000D02*
Y5357671D01*
X15820000Y6030000D02*
X15992329D01*
X15920000Y3610000D02*
X15932462Y3597538D01*
X16012500Y3792500D02*
X16020000Y3800000D01*
X16050000Y3810000D02*
X16077499Y3782500D01*
X16239999Y6030000D02*
X16470000Y5800000D01*
X16630000D01*
X16147672Y6030000D02*
X16239999D01*
X16312502Y5667500D02*
X16320000Y5660000D01*
X16548502Y3968502D02*
X16613161D01*
X16614659Y3969999D01*
X16337500Y3757500D02*
X16548502Y3968502D01*
X16272501Y3797499D02*
X16510001Y4034999D01*
X16272501Y3597538D02*
Y3797499D01*
X16510001Y4034999D02*
Y4034999D01*
X16614999Y4139999D01*
X16142500Y3597538D02*
Y3782500D01*
X16230000Y3870000D01*
X15720000Y5040000D02*
X15730000Y5030000D01*
X14020000Y3840000D02*
X14025000Y3845000D01*
X13865407Y3954765D02*
X13950171Y3870000D01*
X13865407Y3954765D02*
Y3955046D01*
X13950171Y3870000D02*
X13989999D01*
X14020000Y3840000D01*
X13830281Y3990171D02*
X13865407Y3955046D01*
X13830000Y3990171D02*
X13830281D01*
X14020000Y3983079D02*
Y4152586D01*
X14002586Y4170000D02*
X14020000Y4152586D01*
X13830000Y4142586D02*
X13857414Y4170000D01*
X13830000Y3990171D02*
Y4142586D01*
X14025000Y3845000D02*
X14315001D01*
X14317413Y3440000D02*
X14321132Y3443717D01*
X9986606Y5852144D02*
X9988125Y5853663D01*
X9912144Y5852144D02*
X9986606D01*
X9910000Y5850000D02*
X9912144Y5852144D01*
X11108928Y7152322D02*
Y7226784D01*
X11107856Y7227856D02*
X11108928Y7226784D01*
X11197856Y7152145D02*
Y7227856D01*
X11195712Y7150001D02*
X11197856Y7152145D01*
X10592500Y8287501D02*
Y8443137D01*
X10620000Y8470637D01*
Y8480000D01*
X10642500Y6057500D02*
Y6162501D01*
X10747144Y5890000D02*
Y5952856D01*
X10642500Y6057500D02*
X10747144Y5952856D01*
X8705000Y6400001D02*
X8870001D01*
X8900000Y6430000D01*
X8705000Y7050001D02*
X8840001D01*
X8870000Y7080000D01*
X8705000Y7600001D02*
X8705001Y7600003D01*
X8850003D02*
X8850005Y7600004D01*
X9440000Y8170000D02*
X9442500Y8172500D01*
Y8287501D01*
X9940000Y8170000D02*
X9942500Y8172500D01*
Y8287501D01*
X10580000Y8100000D02*
X10592500Y8112500D01*
Y8287501D01*
X10670000Y7900000D02*
X10719999Y7850001D01*
X10830000D01*
X10650000Y7110000D02*
X10659999Y7100001D01*
X9442500Y6332500D02*
X9480000Y6370000D01*
X9442500Y6162501D02*
Y6332500D01*
X9530000Y6290637D02*
X9542500Y6278138D01*
X9530000Y6290637D02*
Y6300000D01*
X9542500Y6162501D02*
Y6278138D01*
X9342300Y5870000D02*
Y5877700D01*
X9192500Y6027501D02*
X9342300Y5877700D01*
X9192500Y6027501D02*
Y6162501D01*
X9342500D02*
Y6577500D01*
X9340000Y6580000D02*
X9342500Y6577500D01*
X9392500Y6441192D02*
X9440000Y6488692D01*
X9392500Y6162501D02*
Y6441192D01*
X9440000Y6488692D02*
Y6490000D01*
X9260000Y6480637D02*
X9292500Y6448137D01*
Y6162501D02*
Y6448137D01*
X9260000Y6480637D02*
Y6490000D01*
X8250000Y6280000D02*
X8365851D01*
X8369374Y6276477D01*
X8910000Y5640000D02*
X9019000Y5531000D01*
X8910000Y5640000D02*
Y6030000D01*
X8942500Y6062500D01*
X9142500Y5999100D02*
Y6162501D01*
Y5999100D02*
X9210000Y5931600D01*
Y5860000D02*
Y5931600D01*
X8990000Y5740000D02*
Y6000000D01*
Y5740000D02*
X9072000Y5658000D01*
X8942500Y6062500D02*
Y6162501D01*
X9692500Y6056863D02*
X9730000Y6019363D01*
X9692500Y6056863D02*
Y6162501D01*
X9730000Y6010000D02*
Y6019363D01*
X9641250Y6161251D02*
X9642500Y6162501D01*
X9640000Y6010000D02*
X9641250Y6011250D01*
Y6161251D01*
X8527000Y4457670D02*
Y4579999D01*
X8526999Y4457670D02*
X8527000Y4457670D01*
X9327000D02*
Y4579999D01*
X9327000Y4457670D02*
X9327000Y4457670D01*
X7730000Y4457671D02*
Y4580000D01*
X7730000Y4457671D02*
X7730000Y4457671D01*
X10127000Y4457670D02*
Y4579999D01*
X10127000Y4457670D02*
X10127000Y4457670D01*
X8549362Y7050001D02*
X8705000D01*
X8509363Y7090000D02*
X8549362Y7050001D01*
X8500000Y7090000D02*
X8509363D01*
X10927000Y4457670D02*
Y4579999D01*
X10926999Y4457670D02*
X10927000Y4457670D01*
X12527000D02*
Y4579999D01*
X12527000Y4457670D02*
X12527000Y4457670D01*
X11727000D02*
Y4579999D01*
X11727000Y4457670D02*
X11727000Y4457670D01*
X13327000D02*
Y4579999D01*
X13327000Y4457670D02*
X13327000Y4457670D01*
X5640000Y2620000D02*
Y2882866D01*
X5561300Y2431247D02*
Y2541300D01*
X5640000Y2620000D01*
X5561300Y2431247D02*
X5630247Y2362300D01*
X5747624D01*
X5865324Y2480000D01*
X6060000D01*
X5679000D02*
X5680400Y2481400D01*
X4799300Y2431247D02*
Y2549300D01*
X4878168Y2628167D02*
Y2848168D01*
X4799300Y2549300D02*
X4878168Y2628167D01*
X4799300Y2431247D02*
X4868247Y2362300D01*
X5003356D01*
X5121056Y2480000D01*
X5298000D01*
X4917000D02*
X4918568Y2481568D01*
Y2831433D01*
X3275300Y2545300D02*
X3354168Y2624168D01*
X3275300Y2431247D02*
Y2545300D01*
X3344247Y2362300D02*
X3479356D01*
X3275300Y2431247D02*
X3344247Y2362300D01*
X3479356D02*
X3597056Y2480000D01*
X3774000D01*
X3393000D02*
X3394568Y2481568D01*
X4116168Y2626167D02*
Y3203302D01*
X4037300Y2547300D02*
X4116168Y2626167D01*
X4037300Y2431247D02*
Y2547300D01*
X4106247Y2362300D02*
X4241356D01*
X4037300Y2431247D02*
X4106247Y2362300D01*
X4241356D02*
X4359056Y2480000D01*
X4536000D01*
X4155000D02*
X4156568Y2481568D01*
X7843000Y10300000D02*
X7867750Y10275250D01*
Y10050000D02*
Y10275250D01*
X8840328Y10300000D02*
X8865078Y10275251D01*
Y10050000D02*
Y10275251D01*
X8300000Y10172157D02*
Y10300000D01*
X8227843Y10100000D02*
X8300000Y10172157D01*
X8187893Y10100000D02*
X8227843D01*
X9297328Y10172157D02*
Y10300000D01*
X9225171Y10100000D02*
X9297328Y10172157D01*
X9185221Y10100000D02*
X9225171D01*
X5133307Y11359307D02*
X5294000Y11520000D01*
X5092907Y11017094D02*
Y11340093D01*
X4913000Y11520000D02*
X5092907Y11340093D01*
X5133307Y11033828D02*
Y11356827D01*
Y11033828D02*
X5163925Y11003210D01*
X5092907Y11017094D02*
X5123525Y10986475D01*
X9297328Y10300000D02*
Y10978828D01*
X8121750Y10161750D02*
X8198000Y10238000D01*
Y10487000D01*
X8121750Y10050000D02*
Y10161750D01*
X4329600Y10930401D02*
X4783525Y10476476D01*
Y9099512D02*
Y10476476D01*
X4724006Y9039993D02*
X4783525Y9099512D01*
X4151000Y11520000D02*
X4329600Y11341400D01*
Y10930401D02*
Y11341400D01*
X5064006Y9039986D02*
X5123525Y9099505D01*
X5163925Y9104725D02*
X5228664Y9039986D01*
X5163925Y9104725D02*
Y11003210D01*
X5123525Y9099505D02*
Y10986475D01*
X5900000Y10790000D02*
Y11364000D01*
X5503920Y10393921D02*
X5900000Y10790000D01*
X5503920Y9104806D02*
Y10393921D01*
Y9104806D02*
X5568660Y9040067D01*
X5463520Y10410655D02*
X5859600Y10806735D01*
X5463520Y9099585D02*
Y10410655D01*
X5404002Y9040067D02*
X5463520Y9099585D01*
X5900000Y11364000D02*
X6056000Y11520000D01*
X5675000D02*
X5859600Y11335400D01*
Y10806735D02*
Y11335400D01*
X4823925Y9104732D02*
Y10493210D01*
Y9104732D02*
X4888664Y9039993D01*
X4370000Y10947135D02*
X4823925Y10493210D01*
X4370000Y11358000D02*
X4532000Y11520000D01*
X4370000Y10947135D02*
Y11358000D01*
X4443525Y9099519D02*
Y10266475D01*
X4384006Y9040000D02*
X4443525Y9099519D01*
X3569600Y11140400D02*
X4443525Y10266475D01*
X4483925Y9104740D02*
Y10283210D01*
Y9104740D02*
X4548664Y9040000D01*
X3610000Y11157134D02*
X4483925Y10283210D01*
X3389000Y11520000D02*
X3569600Y11339400D01*
Y11140400D02*
Y11339400D01*
X3610000Y11360000D02*
X3770000Y11520000D01*
X3610000Y11157134D02*
Y11360000D01*
X2919600Y3879600D02*
X3320000Y4280000D01*
X3293575Y6113575D02*
X3530438D01*
X3589957Y6054056D01*
X3080000Y4782866D02*
Y5900000D01*
X3293575Y6113575D01*
X2640000Y4629600D02*
X2926735D01*
X3080000Y4782866D01*
X2480000Y4469600D02*
X2640000Y4629600D01*
X2480000Y4462000D02*
Y4469600D01*
Y4462000D02*
X2495221Y4477221D01*
X3383525Y5773525D02*
X3530504D01*
X3590023Y5714006D01*
X3320000Y5710000D02*
X3383525Y5773525D01*
X3320000Y4280000D02*
Y5710000D01*
X3525283Y5813925D02*
X3590023Y5878664D01*
X3366790Y5813925D02*
X3525283D01*
X3279600Y5726735D02*
X3366790Y5813925D01*
X3279600Y4296734D02*
Y5726735D01*
X2902866Y3920000D02*
X3279600Y4296734D01*
X2480000Y3700000D02*
X2659600Y3879600D01*
X2919600D01*
X2480000Y4081000D02*
X2641000Y3920000D01*
X2902866D01*
X2480000Y4843000D02*
X2480221Y4842779D01*
X3525217Y6153974D02*
X3589957Y6218714D01*
X3276840Y6153974D02*
X3525217D01*
X3039600Y4799600D02*
Y5916734D01*
X3276840Y6153974D01*
X2480000Y4830000D02*
Y4843000D01*
Y4830000D02*
X2640000Y4670000D01*
X2910000D01*
X3039600Y4799600D01*
X2480000Y5224000D02*
Y5400944D01*
X2424879Y5740000D02*
X2522865D01*
X2362300Y5518644D02*
X2480000Y5400944D01*
X2362300Y5518644D02*
Y5677421D01*
X2424879Y5740000D01*
X2522865D02*
X3276782Y6493916D01*
X2480000Y5640000D02*
X3293516Y6453516D01*
X2480000Y5605000D02*
Y5640000D01*
X2780464Y6833916D02*
X3525262D01*
X2362300Y6415753D02*
X2780464Y6833916D01*
X2362300Y6280644D02*
Y6415753D01*
Y6280644D02*
X2480000Y6162944D01*
Y5986000D02*
Y6162944D01*
X2508318Y6395318D02*
Y6495100D01*
X2480000Y6367000D02*
X2508318Y6395318D01*
X2806734Y6793516D02*
X3530483D01*
X2508318Y6495100D02*
X2806734Y6793516D01*
X2646600Y7799600D02*
X2820400D01*
X2480000Y7633000D02*
X2646600Y7799600D01*
X2837134Y7840000D02*
X2950000Y7727134D01*
X2654000Y7840000D02*
X2837134D01*
X2480000Y8014000D02*
X2654000Y7840000D01*
X2820400Y7799600D02*
X2909600Y7710400D01*
X3189341Y7133525D02*
X3530481D01*
X3525261Y7173925D02*
X3590000Y7238664D01*
X3206075Y7173925D02*
X3525261D01*
X3525262Y6833916D02*
X3590002Y6898656D01*
X3530481Y7133525D02*
X3590000Y7074006D01*
X2909600Y7413266D02*
Y7710400D01*
X2950000Y7430000D02*
Y7727134D01*
X2909600Y7413266D02*
X3189341Y7133525D01*
X2950000Y7430000D02*
X3206075Y7173925D01*
X3525268Y7513925D02*
X3590007Y7578665D01*
X3476075Y7513925D02*
X3525268D01*
X3530488Y7473525D02*
X3590007Y7414006D01*
X2480000Y8750400D02*
Y8776000D01*
Y8750400D02*
X2630000Y8600400D01*
X2480000Y8395000D02*
Y8410000D01*
X2630000Y8560000D01*
Y8600400D02*
X2696334D01*
X2860000Y8436734D01*
Y8129999D02*
Y8436734D01*
X2630000Y8560000D02*
X2679600D01*
X2819600Y8420000D01*
Y8113265D02*
Y8420000D01*
Y8113265D02*
X3459341Y7473525D01*
X3530488D01*
X2860000Y8129999D02*
X3476075Y7513925D01*
X2362300Y9586753D02*
X2431247Y9655700D01*
X2362300Y9451644D02*
Y9586753D01*
X2431247Y9655700D02*
X2651434D01*
X2362300Y9451644D02*
X2480000Y9333944D01*
Y9157000D02*
Y9333944D01*
X3070000Y8270000D02*
Y9237134D01*
X2582301Y10417700D02*
X2650000Y10350000D01*
X3010711D01*
X2431247Y10417700D02*
X2582301D01*
X2362300Y10348753D02*
X2431247Y10417700D01*
X3010711Y10350000D02*
X3380000Y9980711D01*
X2480000Y9919000D02*
Y10095944D01*
X2362300Y10213644D02*
Y10348753D01*
Y10213644D02*
X2480000Y10095944D01*
X3380000Y8320000D02*
Y9980711D01*
X3589962Y8249910D02*
Y8252581D01*
X3380000Y8320000D02*
X3508169Y8191831D01*
X3559726Y8219674D02*
X3589962Y8249910D01*
X3557055Y8219674D02*
X3559726D01*
X3529211Y8191831D02*
X3557055Y8219674D01*
X3508169Y8191831D02*
X3529211D01*
X3070000Y8270000D02*
X3490000Y7850000D01*
X3589962Y7914740D02*
Y7917410D01*
X3525222Y7850000D02*
X3589962Y7914740D01*
X3490000Y7850000D02*
X3525222D01*
X3473266Y7809600D02*
X3530443D01*
X3589962Y7750081D01*
Y7747410D02*
Y7750081D01*
X3029600Y8253266D02*
X3473266Y7809600D01*
X2651434Y9655700D02*
X2828567Y9478567D01*
X2828567D01*
X2480000Y9538000D02*
X2712000D01*
X3029600Y9220400D01*
X2828567Y9478567D02*
X3070000Y9237134D01*
X3029600Y8253266D02*
Y9220400D01*
X2480000Y10300000D02*
X2990000D01*
X2480000Y10300000D02*
X2480000Y10300000D01*
X3490000Y8150000D02*
X3525214D01*
X3589962Y8085252D01*
Y8082581D02*
Y8085252D01*
X3330000Y8310000D02*
X3490000Y8150000D01*
X2990000Y10300000D02*
X3330000Y9960000D01*
Y8310000D02*
Y9960000D01*
X9991250Y5941251D02*
Y6161251D01*
X9990000Y5940001D02*
X9990001Y5940000D01*
X9991250Y6161251D02*
X9992500Y6162501D01*
X10541250Y8288751D02*
Y8558751D01*
X17412500Y6137500D02*
X17582500D01*
X17410001Y6140000D02*
X17412500Y6137500D01*
X17582500D02*
X17585001Y6135000D01*
X14304784Y5620000D02*
X14430000D01*
X14294785Y6270000D02*
X14294785Y6270000D01*
X14420000D01*
X9885856Y5655856D02*
X9980000Y5750000D01*
X8819999Y6650001D02*
X8850000Y6620000D01*
X8705000Y6650001D02*
X8819999D01*
X12585000Y8765000D02*
X12670000Y8850000D01*
X12585000Y8525000D02*
Y8765000D01*
X10060000Y8414140D02*
X10092500Y8381640D01*
X10060000Y8414140D02*
Y8420000D01*
X10092500Y8287501D02*
Y8381640D01*
X10223380Y8463380D02*
X10283380D01*
X10192500Y8432500D02*
X10223380Y8463380D01*
X10283380D02*
X10290000Y8470000D01*
X10192500Y8287501D02*
Y8432500D01*
X10232940Y8512940D02*
X10290000Y8570000D01*
X10192939Y8512940D02*
X10232940D01*
X10142500Y8462500D02*
X10192939Y8512940D01*
X10142500Y8287501D02*
Y8462500D01*
X13987671Y7472329D02*
X14080000D01*
X13919814Y7540186D02*
Y7630000D01*
Y7540186D02*
X13987671Y7472329D01*
X14258488Y7976948D02*
X14260001Y7978461D01*
X14258488Y7908488D02*
Y7976948D01*
X14230000Y7880000D02*
X14258488Y7908488D01*
X14160001Y7880000D02*
X14230000D01*
X13961540Y6982329D02*
X14080000D01*
X14080000Y7790000D02*
X14080000Y7790001D01*
X14930000Y7840000D02*
Y7930000D01*
X14260001Y7360000D02*
Y7478461D01*
Y6870000D02*
Y6988460D01*
X14271461Y6977000D01*
X14510001D01*
X14260001Y7478461D02*
X14269962Y7468500D01*
X14512331D01*
X14278461Y7960000D02*
X14510001D01*
X14260001Y7978461D02*
X14278461Y7960000D01*
X14080000Y8127671D02*
X14095329Y8143000D01*
X14080000Y7627671D02*
X14103830Y7651500D01*
X14080000Y7137671D02*
X14102330Y7160000D01*
X14948460Y8138646D02*
Y8140000D01*
X14705342Y8051500D02*
X14861314D01*
X14948460Y8138646D01*
X15091541Y7931540D02*
Y8140000D01*
X15090001Y7930000D02*
X15091541Y7931540D01*
X14940001Y7311539D02*
Y7430000D01*
X14939999Y6821539D02*
Y6940000D01*
X15111539Y6650000D02*
Y6768461D01*
X15120000Y6371539D02*
Y6490000D01*
X14960001D02*
Y6641539D01*
X14968462Y6650000D01*
X15091541Y6948460D02*
Y7150000D01*
Y6948460D02*
X15100002Y6940000D01*
X15091541Y7438461D02*
Y7640000D01*
Y7438461D02*
X15100002Y7430000D01*
X14869817Y7560000D02*
X14948462Y7638646D01*
Y7640000D01*
X14707671Y7560000D02*
X14869817D01*
X14868317Y7068500D02*
X14948460Y7148646D01*
X14705342Y7068500D02*
X14868317D01*
X14948460Y7148646D02*
Y7150000D01*
X10699363Y7550000D02*
X10829999D01*
X10659363Y7510000D02*
X10699363Y7550000D01*
X10650000Y7510000D02*
X10659363D01*
X10830000Y7600001D02*
X10834800Y7604801D01*
X10924801D01*
X10980000Y7660000D01*
X10829999Y7550000D02*
X10830000Y7550001D01*
X9072000Y5658000D02*
X9243000D01*
X7874000Y5456000D02*
X7990000Y5340000D01*
X7874000Y5456000D02*
Y5588000D01*
X7990000Y5340000D02*
X8860000D01*
X9920000Y8830000D02*
X10100000D01*
X10250000Y8980000D01*
X11057821D01*
X11087821Y9010000D01*
X11090000D01*
X10210000Y9040000D02*
X11020000D01*
X10060000Y8890000D02*
X10210000Y9040000D01*
X11020000D02*
X11101750Y9121750D01*
X9890000Y8890000D02*
X10060000D01*
X10020000Y8950000D02*
X10170000Y9100000D01*
Y9180000D01*
X9860000Y8950000D02*
X10020000D01*
X9958155Y8478155D02*
Y8521011D01*
X9892500Y8287501D02*
Y8412500D01*
X9958155Y8478155D01*
Y8521011D02*
X9967144Y8530000D01*
X9357856Y8607856D02*
X9360000Y8610000D01*
X9270000Y8530000D02*
X9272144D01*
X9270000D02*
Y8610000D01*
X9357856Y8532143D02*
Y8607856D01*
X9288068Y8481933D02*
Y8514076D01*
X9355713Y8474288D02*
Y8530000D01*
X9272144D02*
X9288068Y8514076D01*
X9842500Y8752500D02*
X9920000Y8830000D01*
X9842500Y8287501D02*
Y8752500D01*
X11101750Y9121750D02*
Y9500000D01*
X9792500Y8792500D02*
X9890000Y8890000D01*
X9792500Y8287501D02*
Y8792500D01*
X7913000Y9199363D02*
X7931250Y9217613D01*
Y9510000D01*
X8928578Y9217613D02*
Y9510001D01*
X11020000Y9189363D02*
X11038250Y9207613D01*
Y9500000D01*
X10038250Y9207613D02*
Y9500000D01*
X10020000Y9189363D02*
X10038250Y9207613D01*
X10020000Y9180000D02*
Y9189363D01*
X7867750Y9286326D02*
Y9510000D01*
X7783000Y9240000D02*
X7804250Y9261250D01*
X7820625Y9271447D02*
X7852871D01*
X7783328Y9230001D02*
Y9234150D01*
X7852871Y9271447D02*
X7867750Y9286326D01*
X8780656Y9230001D02*
Y9234150D01*
X8817953Y9271447D02*
X8850199D01*
X8865078Y9286326D01*
Y9510001D01*
X10974750Y9266654D02*
Y9500000D01*
X10959871Y9251775D02*
X10974750Y9266654D01*
X10922103Y9251775D02*
X10959871D01*
X9959871Y9255212D02*
X9974750Y9270091D01*
Y9500000D01*
X9925539Y9255212D02*
X9959871D01*
X10101750Y9121750D02*
Y9500000D01*
X9990000Y9010000D02*
X10101750Y9121750D01*
X9742500Y8832500D02*
X9860000Y8950000D01*
X9830000Y9010000D02*
X9990000D01*
X9742500Y8287501D02*
Y8832500D01*
X9692500Y8872500D02*
X9830000Y9010000D01*
X9692500Y8287501D02*
Y8872500D01*
X9642500Y8287501D02*
Y8867500D01*
X11292250Y9387422D02*
X11348517Y9331155D01*
X11292250Y9387422D02*
Y9500000D01*
X10292250Y9387422D02*
X10348517Y9331155D01*
X10292250Y9387422D02*
Y9500000D01*
X8185250Y9397422D02*
X8241516Y9341155D01*
X8185250Y9397422D02*
Y9510000D01*
X9182578Y9397422D02*
Y9510001D01*
X9238845Y9341156D02*
X9241156D01*
X9182578Y9397422D02*
X9238845Y9341156D01*
X9190000Y8940000D02*
X9492500Y8637500D01*
Y8287501D02*
Y8637500D01*
X8240000Y8940000D02*
X9190000D01*
X8340000Y9010000D02*
X9210000D01*
X9542500Y8677500D01*
X7994750Y9185250D02*
Y9510000D01*
Y9185250D02*
X8240000Y8940000D01*
X8992078Y9397922D02*
X9592500Y8797500D01*
X8992078Y9397922D02*
Y9510001D01*
X9592500Y8287501D02*
Y8797500D01*
X10892499Y9110000D02*
Y9217829D01*
X10749742Y9110000D02*
Y9217829D01*
X9897328Y9110000D02*
Y9217829D01*
X9752157Y9110000D02*
Y9217829D01*
X8639742Y9130000D02*
Y9237829D01*
X7640000Y9130000D02*
Y9237829D01*
X7637829Y9240000D02*
X7640000Y9237829D01*
X7804250Y9261250D02*
Y9510000D01*
X7637829Y9240000D02*
X7640243D01*
X7740750Y9340507D02*
Y9510000D01*
X7640243Y9240000D02*
X7740750Y9340507D01*
X8801578Y9261250D02*
Y9510001D01*
X8780328Y9240001D02*
X8801578Y9261250D01*
X8635157Y9240001D02*
X8637571D01*
X8738078Y9340507D02*
Y9510001D01*
X8637571Y9240001D02*
X8738078Y9340507D01*
X9752400Y9220001D02*
X9847750Y9315351D01*
Y9500000D01*
X9749986Y9220001D02*
X9752400D01*
X9895157D02*
X9911250Y9236094D01*
X10747571Y9220001D02*
X10782782Y9255212D01*
Y9257626D02*
X10847750Y9322594D01*
Y9500000D01*
X10745157Y9220001D02*
X10747571D01*
X10782782Y9255212D02*
Y9257626D01*
X10911250Y9240923D02*
Y9500000D01*
X12880000Y11290000D02*
X13083501D01*
X13313499Y11520000D01*
X11640000Y10870000D02*
X12460000D01*
X12880000Y11290000D01*
X11409672Y10290000D02*
Y10639672D01*
X11640000Y10870000D01*
X11530000Y10980000D02*
X12392500D01*
X12932500Y11520000D01*
X11520000Y11130000D02*
X11940000D01*
X12120000Y11310000D01*
X11317685Y10767685D02*
X11530000Y10980000D01*
X11317685Y10669999D02*
Y10767685D01*
X12341500Y11310000D02*
X12551500Y11520000D01*
X12120000Y11310000D02*
X12341500D01*
X11290000Y10900000D02*
X11520000Y11130000D01*
X11030000Y10900000D02*
X11290000D01*
X10960000Y10980000D02*
X11240000D01*
X11470000Y11210000D01*
X10956672Y10826672D02*
X11030000Y10900000D01*
X10956672Y10289999D02*
Y10826672D01*
X11470000Y11210000D02*
X11860500D01*
X12170500Y11520000D01*
X11120000Y11080000D02*
X11380000Y11340000D01*
X10660000Y11080000D02*
X11120000D01*
X10850015Y10669999D02*
Y10870015D01*
X10960000Y10980000D01*
X10775722Y10204279D02*
X10842084Y10137916D01*
X10756672Y10289999D02*
X10775722Y10270950D01*
Y10204279D02*
Y10270950D01*
X10842084Y10045666D02*
X10847750Y10040000D01*
X10842084Y10045666D02*
Y10137916D01*
X10911250Y10040000D02*
Y10171421D01*
X10854672Y10227999D02*
X10911250Y10171421D01*
X10956672Y10289999D02*
X10974750Y10271922D01*
Y10040000D02*
Y10271922D01*
X10854672Y10227999D02*
Y10477000D01*
X9974750Y10040000D02*
Y10260407D01*
X9955157Y10280001D02*
X9974750Y10260407D01*
X10292250Y10072200D02*
X10300050Y10080000D01*
X10292250Y10040000D02*
Y10072200D01*
X10300050Y10080000D02*
X10340000D01*
X10412157Y10152157D01*
Y10280000D01*
Y10832157D01*
X11292250Y10040000D02*
Y10075921D01*
X11300050Y10083721D02*
X11335971D01*
X11409672Y10157423D02*
Y10290000D01*
X11292250Y10075921D02*
X11300050Y10083721D01*
X11335971D02*
X11409672Y10157423D01*
X11165250Y10165250D02*
X11204279Y10204279D01*
Y10284606D02*
X11209672Y10290000D01*
X11204279Y10204279D02*
Y10284606D01*
X11165250Y10040000D02*
Y10165250D01*
X11228750Y10040000D02*
Y10146077D01*
X11304672Y10222000D01*
X10165250Y10153093D02*
X10206436Y10194279D01*
X10165250Y10040000D02*
Y10153093D01*
X10232244Y10043495D02*
Y10140088D01*
X10228750Y10040000D02*
X10232244Y10043495D01*
Y10140088D02*
X10310157Y10218000D01*
X11209672Y10290000D02*
Y10415000D01*
X11154672Y10470000D02*
X11209672Y10415000D01*
X11304672Y10222000D02*
Y10480000D01*
X11162344Y10487671D02*
Y10669999D01*
X10310157Y10218000D02*
Y10467001D01*
X10701672Y10470000D02*
X10756672Y10415000D01*
Y10289999D02*
Y10415000D01*
X10701672Y10480000D02*
Y10663001D01*
X11609500Y11340000D02*
X11789500Y11520000D01*
X11380000Y11340000D02*
X11609500D01*
X10412157Y10832157D02*
X10660000Y11080000D01*
X10580000Y11180000D02*
X11068500D01*
X11408500Y11520000D01*
X10460000Y11310000D02*
X10817500D01*
X11027500Y11520000D01*
X10305499Y10905499D02*
X10580000Y11180000D01*
X10305499Y10660000D02*
Y10905499D01*
X9955157Y10805157D02*
X10460000Y11310000D01*
X9955157Y10280001D02*
Y10805157D01*
X9863170Y10893170D02*
X10490000Y11520000D01*
X10646500D01*
X9863170Y10660000D02*
Y10893170D01*
X9297328Y10978828D02*
X9838500Y11520000D01*
X9190671Y11253171D02*
X9457500Y11520000D01*
X9190671Y10680000D02*
Y11253171D01*
X8840328Y11283828D02*
X9076500Y11520000D01*
X8840328Y10300000D02*
Y11283828D01*
X8695500Y11478166D02*
X8748341Y11425324D01*
X8695500Y11478166D02*
Y11520000D01*
X8748341Y10680000D02*
Y11425324D01*
X9195328Y10238000D02*
Y10487001D01*
X9119078Y10161750D02*
X9195328Y10238000D01*
X9119078Y10050000D02*
Y10161750D01*
X9091607Y10214279D02*
Y10294279D01*
X9063378Y10186050D02*
X9091607Y10214279D01*
X9063378Y10057801D02*
Y10186050D01*
X8735912Y10052166D02*
Y10151416D01*
X8671619Y10215710D02*
Y10268710D01*
Y10215710D02*
X8735912Y10151416D01*
X8801578Y10050000D02*
Y10165751D01*
X8735328Y10232000D02*
X8801578Y10165751D01*
X8735328Y10232000D02*
Y10490000D01*
X9042328D02*
Y10673001D01*
Y10480000D02*
X9097328Y10425000D01*
Y10300000D02*
Y10425000D01*
X8593000Y10497672D02*
Y10680000D01*
X8585328Y10480000D02*
X8640328Y10425000D01*
Y10300000D02*
Y10425000D01*
X10206436Y10194279D02*
Y10274279D01*
X9786448Y10195710D02*
Y10248710D01*
Y10195710D02*
X9850741Y10131416D01*
X9850157Y10212000D02*
X9916407Y10145751D01*
X9850157Y10212000D02*
Y10470000D01*
X10157157D02*
Y10653001D01*
Y10460000D02*
X10212157Y10405001D01*
Y10280000D02*
Y10405001D01*
X9707828Y10477672D02*
Y10660000D01*
X9700157Y10460000D02*
X9755157Y10405001D01*
Y10280001D02*
Y10405001D01*
X8314500Y10314500D02*
Y11520000D01*
X8193343Y10680000D02*
Y11260158D01*
X7933500Y11520000D02*
X8193343Y11260158D01*
X8038001Y10680000D02*
X8045000Y10673001D01*
Y10490000D02*
Y10673001D01*
Y10480000D02*
X8100000Y10425000D01*
X8045000Y10480000D02*
Y10490000D01*
X8100000Y10300000D02*
Y10425000D01*
X8094279Y10294279D02*
X8100000Y10300000D01*
X8066050Y10057800D02*
Y10186050D01*
X8094279Y10214279D01*
Y10294279D01*
X8058250Y10050000D02*
X8066050Y10057800D01*
X8195000Y10490000D02*
X8198000Y10487000D01*
X7588000Y10490000D02*
X7595672Y10497672D01*
Y10680000D01*
X7643000Y10300000D02*
Y10425000D01*
X7588000Y10480000D02*
Y10490000D01*
Y10480000D02*
X7643000Y10425000D01*
X7738000Y10232000D02*
X7804250Y10165750D01*
Y10050000D02*
Y10165750D01*
X7738000Y10232000D02*
Y10490000D01*
X7738584Y10052166D02*
Y10151416D01*
X7674291Y10215710D02*
X7738584Y10151416D01*
X7643000Y10300000D02*
X7674291Y10268709D01*
X7738584Y10052166D02*
X7740750Y10050000D01*
X7674291Y10215710D02*
Y10268709D01*
X7240000Y11320000D02*
X7400000D01*
X7171500Y11388500D02*
X7240000Y11320000D01*
X7400000D02*
X7751013Y10968987D01*
X7171500Y11388500D02*
Y11520000D01*
X7552500Y11357500D02*
Y11520000D01*
Y11357500D02*
X7843000Y11067000D01*
Y10300000D02*
Y11067000D01*
X7751013Y10680000D02*
Y10968987D01*
X15384752Y10069999D02*
X15384752Y10069999D01*
X4823801Y4845219D02*
X4883320Y4904738D01*
X4823801Y3853801D02*
Y4845219D01*
X4156568Y3186568D02*
X4823801Y3853801D01*
X4116168Y3203302D02*
X4783401Y3870536D01*
X4156568Y2481568D02*
Y3186568D01*
X4483801Y4845212D02*
X4543320Y4904731D01*
X4718661Y4904738D02*
X4783401Y4839999D01*
Y3870536D02*
Y4839999D01*
X5058661Y4904745D02*
X5123401Y4840006D01*
Y3093401D02*
Y4840006D01*
X5163801Y3076666D02*
Y4845226D01*
X5223319Y4904745D01*
X4918568Y2831433D02*
X5163801Y3076666D01*
X4878168Y2848168D02*
X5123401Y3093401D01*
X5680400Y2481400D02*
Y2899601D01*
X5503889Y3076111D02*
X5680400Y2899601D01*
X5463489Y3059377D02*
X5640000Y2882866D01*
X5503889Y4845140D02*
X5563408Y4904659D01*
X5503889Y3076111D02*
Y4845140D01*
X5398750Y4904659D02*
X5463489Y4839919D01*
Y3059377D02*
Y4839919D01*
X3530490Y6453516D02*
X3590008Y6393997D01*
X3293516Y6453516D02*
X3530490D01*
X3525269Y6493916D02*
X3590008Y6558656D01*
X3276782Y6493916D02*
X3525269D01*
X3530483Y6793516D02*
X3590002Y6733997D01*
X4378661Y4904731D02*
X4443401Y4839992D01*
X3915349Y7429829D02*
X3950560Y7465040D01*
X3952974D01*
X3967934Y7480000D01*
X3915349Y7427415D02*
Y7429829D01*
X3952974Y7534961D02*
X3967534Y7520400D01*
X3907934Y7577586D02*
Y7580000D01*
X3950560Y7534961D02*
X3952974D01*
X3967534Y7520400D02*
X4129600D01*
X3965113Y7139600D02*
X4200400D01*
X3915341Y7089829D02*
X3965113Y7139600D01*
X3915341Y7087415D02*
Y7089829D01*
X3897927Y7070000D02*
X3915341Y7087415D01*
X4200400Y7139600D02*
X4337500Y7002500D01*
X3965513Y7180000D02*
X4220000D01*
X4332501Y7067499D01*
X3907927Y7237586D02*
Y7240000D01*
X3745342Y7070000D02*
X3897927D01*
X4337500Y7002500D02*
X5162452D01*
X3745342Y7240000D02*
X3907927D01*
X4332501Y7067499D02*
X5162452D01*
X3907935Y6389991D02*
X3915350Y6397406D01*
X3745350Y6389991D02*
X3907935D01*
X4452500Y6742500D02*
X5162452D01*
X4159600Y6449600D02*
X4452500Y6742500D01*
X3745350Y6559991D02*
X3897935D01*
X3915350Y6542577D01*
X4457499Y6807499D02*
X5162452D01*
X4140000Y6490000D02*
X4457499Y6807499D01*
X3915350Y6397406D02*
X3967544Y6449600D01*
X4159600D01*
X3915350Y6542577D02*
X3967926Y6490000D01*
X4140000D01*
X3967537Y6789600D02*
X4239600D01*
X3915343Y6737406D02*
Y6739820D01*
X3950554Y6775031D01*
X3952968D02*
X3967537Y6789600D01*
X3950554Y6775031D02*
X3952968D01*
X3907929Y6729991D02*
X3915343Y6737406D01*
X3745343Y6729991D02*
X3907929D01*
X4322500Y6872500D02*
X5162452D01*
X4239600Y6789600D02*
X4322500Y6872500D01*
X3745343Y6899991D02*
X3897928D01*
X3915343Y6882577D01*
X4327500Y6937499D02*
X5162452D01*
X4220000Y6830000D02*
X4327500Y6937499D01*
X3915343Y6882577D02*
X3967920Y6830000D01*
X4220000D01*
X4129600Y7520400D02*
X4452500Y7197499D01*
X3967934Y7480000D02*
X4108076D01*
X4455577Y7132500D01*
X5162452D01*
X4452500Y7197499D02*
X5162452D01*
X3745349Y7580000D02*
X3907934D01*
X3897934Y7410000D02*
X3915349Y7427415D01*
X3745349Y7410000D02*
X3897934D01*
X3915364Y5870171D02*
X3965135Y5820400D01*
X4450401D01*
X4470001Y5780000D02*
X5042501Y6352500D01*
X3952989Y5765040D02*
X3967949Y5780000D01*
X4470001D01*
X3897949Y5710000D02*
Y5712414D01*
X3950575Y5765040D02*
X3952989D01*
X4450401Y5820400D02*
X5047500Y6417499D01*
X3915364Y5870171D02*
Y5872586D01*
X3907950Y5880000D02*
X3915364Y5872586D01*
X3967834Y6120000D02*
X4620000D01*
X4982500Y6482500D02*
X5162452D01*
X4620000Y6120000D02*
X4982500Y6482500D01*
X3965119Y6160400D02*
X4600401D01*
X3915298Y6210221D02*
X3965119Y6160400D01*
X3915298Y6067464D02*
X3967834Y6120000D01*
X4600401Y6160400D02*
X4987501Y6547499D01*
X3915298Y6210221D02*
Y6212635D01*
X3907884Y6220050D02*
X3915298Y6212635D01*
X5042501Y6352500D02*
X5162452D01*
X5047500Y6417499D02*
X5162452D01*
X4987501Y6547499D02*
X5162452D01*
X3962493Y8139600D02*
X4430400D01*
X3915303Y8092410D02*
X3962493Y8139600D01*
X3950514Y8197541D02*
X3952928D01*
X3915303Y8232752D02*
X3950514Y8197541D01*
X4450000Y8180000D02*
X5042501Y7587499D01*
X3915303Y8232752D02*
Y8235167D01*
X3897888Y8252581D02*
X3915303Y8235167D01*
X3970470Y8180000D02*
X4450000D01*
X4430400Y8139600D02*
X5047500Y7522500D01*
X3952928Y8197541D02*
X3970470Y8180000D01*
X3915303Y8089996D02*
Y8092410D01*
X3907889Y8082581D02*
X3915303Y8089996D01*
X3967664Y7809600D02*
X4570400D01*
X3915303Y7757239D02*
X3967664Y7809600D01*
X3915303Y7754825D02*
Y7757239D01*
X3907889Y7747410D02*
X3915303Y7754825D01*
X4570400Y7809600D02*
X4987501Y7392500D01*
X4596152Y7850000D02*
X4988653Y7457499D01*
X3962884Y7850000D02*
X4596152D01*
X3897888Y7914996D02*
Y7917410D01*
X4987501Y7392500D02*
X5162452D01*
X4988653Y7457499D02*
X5162452D01*
X5047500Y7522500D02*
X5162452D01*
X5042501Y7587499D02*
X5162452D01*
X3745303Y8252581D02*
X3897888D01*
X3745303Y8082581D02*
X3907889D01*
X3745303Y7917410D02*
X3897888D01*
X3745303Y7747410D02*
X3907889D01*
X5507500Y7737548D02*
Y8094424D01*
X5151924Y8450000D02*
X5507500Y8094424D01*
X5130400Y8409600D02*
X5442500Y8097500D01*
Y7737548D02*
Y8097500D01*
X5455035Y8677018D02*
X5467419Y8664635D01*
X5419824Y8714725D02*
X5455035Y8679514D01*
X5417410Y8714725D02*
X5419824D01*
X5524956Y8677100D02*
Y8679514D01*
X5510000Y8662144D02*
X5524956Y8677100D01*
X5510000Y8451924D02*
X5767500Y8194424D01*
X5510000Y8451924D02*
Y8662144D01*
X5560167Y8714725D02*
X5562581D01*
X5467419Y8422582D02*
X5702500Y8187500D01*
X5467419Y8422582D02*
Y8664635D01*
X5455035Y8677018D02*
Y8679514D01*
X5524956D02*
X5560167Y8714725D01*
X5170000Y8662059D02*
X5184960Y8677019D01*
Y8679433D01*
X5220171Y8714644D01*
X5115040Y8674229D02*
X5124714Y8664554D01*
X5115040Y8674229D02*
Y8679433D01*
X5079829Y8714644D02*
X5115040Y8679433D01*
X5077415Y8714644D02*
X5079829D01*
X5220171D02*
X5222586D01*
X5124714Y8595286D02*
X5572500Y8147500D01*
X5124714Y8595286D02*
Y8664554D01*
X5170000Y8611924D02*
Y8662059D01*
Y8611924D02*
X5637500Y8144424D01*
X5222586Y8714644D02*
Y8877230D01*
X4787414Y8542586D02*
Y8664562D01*
X4737414Y8714652D02*
X4739829D01*
X4844960Y8679441D02*
X4880171Y8714652D01*
X4830000Y8662066D02*
X4844960Y8677026D01*
X4830000Y8560000D02*
X4940000Y8450000D01*
X4739829Y8714652D02*
X4775040Y8679441D01*
X4830000Y8560000D02*
Y8662066D01*
X4775040Y8676936D02*
Y8679441D01*
X4787414Y8542586D02*
X4920400Y8409600D01*
X4880171Y8714652D02*
X4882586D01*
X4844960Y8677026D02*
Y8679441D01*
X4775040Y8676936D02*
X4787414Y8664562D01*
X4490000Y8662073D02*
X4504960Y8677034D01*
Y8679448D01*
X4540171Y8714659D02*
X4542586D01*
X4490000Y8515000D02*
Y8662073D01*
X4397414Y8714659D02*
X4399829D01*
X4435040Y8676944D02*
Y8679448D01*
Y8676944D02*
X4447414Y8664569D01*
X4490000Y8515000D02*
X4710000Y8295000D01*
X4399829Y8714659D02*
X4435040Y8679448D01*
X4447414Y8492586D02*
X4690001Y8250000D01*
X4447414Y8492586D02*
Y8664569D01*
X4504960Y8679448D02*
X4540171Y8714659D01*
X5510000Y5277586D02*
X5557586Y5230000D01*
X5510000Y5277586D02*
Y5750000D01*
X5460000Y5280090D02*
Y5760000D01*
X5452454Y5265211D02*
Y5272544D01*
X5510000Y5750000D02*
X5767500Y6007500D01*
X5460000Y5760000D02*
X5702500Y6002500D01*
X5452454Y5272544D02*
X5460000Y5280090D01*
X5702500Y6002500D02*
Y6202451D01*
X5767500Y6007500D02*
Y6202451D01*
X5557586Y5230000D02*
X5560000D01*
X5414829D02*
X5417243D01*
X5452454Y5265211D01*
X5560000Y5230000D02*
X5567414Y5222586D01*
X5414829Y5077415D02*
Y5230000D01*
X5397414Y5060000D02*
X5414829Y5077415D01*
X5567414Y5060000D02*
Y5222586D01*
X5175286Y5280176D02*
Y5563362D01*
X5130000Y5280176D02*
Y5580000D01*
X5572500Y6022500D02*
Y6202451D01*
X5637500Y6025576D02*
Y6202451D01*
X5175286Y5563362D02*
X5637500Y6025576D01*
X5130000Y5580000D02*
X5572500Y6022500D01*
X4492586Y5280162D02*
Y5427584D01*
Y5280162D02*
X4502286Y5270462D01*
Y5265283D02*
X4537497Y5230072D01*
X4539911D01*
X4450000Y5449998D02*
X4940002Y5940000D01*
X4397414Y5230332D02*
X4432366Y5265283D01*
X4435121D02*
X4450000Y5280162D01*
X4432366Y5265283D02*
X4435121D01*
X4502286D02*
Y5270462D01*
X4450000Y5280162D02*
Y5449998D01*
X4492586Y5427584D02*
X4960001Y5895000D01*
X4539911Y5230072D02*
X4547326Y5222658D01*
X4832586Y5280170D02*
X4842286Y5270469D01*
Y5265290D02*
Y5270469D01*
Y5265290D02*
X4877497Y5230079D01*
X4879911D01*
X4775121Y5265290D02*
X4790000Y5280170D01*
Y5590000D02*
X5020400Y5820400D01*
X4737414Y5230339D02*
X4772366Y5265290D01*
X4832586Y5572586D02*
X5040000Y5780000D01*
X4832586Y5280170D02*
Y5572586D01*
X4772366Y5265290D02*
X4775121D01*
X4790000Y5280170D02*
Y5590000D01*
X4879911Y5230079D02*
X4887326Y5222665D01*
X5175286Y5280176D02*
X5182286Y5273176D01*
Y5265297D02*
Y5273176D01*
Y5265297D02*
X5217497Y5230086D01*
X5219911D01*
X5077415Y5230346D02*
X5112365Y5265297D01*
X5115121D02*
X5130000Y5280176D01*
X5112365Y5265297D02*
X5115121D01*
X5219911Y5230086D02*
X5227326Y5222672D01*
X5020400Y5820400D02*
X5218476D01*
X5040000Y5780000D02*
X5240000D01*
X5507500Y6047500D01*
X5218476Y5820400D02*
X5442500Y6044424D01*
Y6202451D01*
X5507500Y6047500D02*
Y6202451D01*
X4940002Y5940000D02*
X5168076D01*
X5312500Y6084424D02*
Y6202451D01*
X5185000Y5895000D02*
X5377500Y6087500D01*
X5168076Y5940000D02*
X5312500Y6084424D01*
X4960001Y5895000D02*
X5185000D01*
X5377500Y6087500D02*
Y6202451D01*
X4542586Y8714659D02*
Y8877245D01*
X4397414Y8714659D02*
Y8867244D01*
X5312500Y7737548D02*
Y7877500D01*
X4940000Y8250000D02*
X5312500Y7877500D01*
X4690001Y8250000D02*
X4940000D01*
X4956924Y8295000D02*
X5377500Y7874424D01*
X4710000Y8295000D02*
X4956924D01*
X5377500Y7737548D02*
Y7874424D01*
X4920400Y8409600D02*
X5130400D01*
X4882586Y8714652D02*
Y8877237D01*
X4737414Y8714652D02*
Y8867237D01*
X4940000Y8450000D02*
X5151924D01*
X4380000Y8884659D02*
X4397414Y8867244D01*
X4542586Y8877245D02*
X4550000Y8884659D01*
X4720000Y8884652D02*
X4737414Y8867237D01*
X4882586Y8877237D02*
X4890000Y8884652D01*
X5572500Y7737548D02*
Y8147500D01*
X5077415Y8714644D02*
Y8867230D01*
X5060000Y8884644D02*
X5077415Y8867230D01*
X5222586Y8877230D02*
X5230000Y8884644D01*
X5637500Y7737548D02*
Y8144424D01*
X5702500Y7737548D02*
Y8187500D01*
X5417410Y8714725D02*
Y8867311D01*
X5399996Y8884725D02*
X5417410Y8867311D01*
X5562581Y8877311D02*
X5569995Y8884725D01*
X5562581Y8714725D02*
Y8877311D01*
X5767500Y7737548D02*
Y8194424D01*
X3745298Y6220050D02*
X3907884D01*
X3897884Y6050050D02*
X3915298Y6067464D01*
X3745298Y6050050D02*
X3897884D01*
X3745364Y5880000D02*
X3907950D01*
X3745364Y5710000D02*
X3897949D01*
X4377326Y5212658D02*
X4394740Y5230072D01*
X5227326Y5060086D02*
Y5222672D01*
X5057326Y5212672D02*
X5074740Y5230086D01*
X5057326Y5060086D02*
Y5212672D01*
X4377326Y5060072D02*
Y5212658D01*
X4547326Y5060072D02*
Y5222658D01*
X4717326Y5212665D02*
X4734740Y5230079D01*
X4717326Y5060080D02*
Y5212665D01*
X4887326Y5060080D02*
Y5222665D01*
X14041151Y5620000D02*
X14159613D01*
X16272501Y2690000D02*
Y3022462D01*
Y2690000D02*
X16282500Y2680000D01*
X16137500D02*
X16142500Y2685000D01*
Y3022462D01*
X16282500Y2680000D02*
X16480000D01*
X15942500D02*
X16137500D01*
X16337500Y3597538D02*
Y3757500D01*
X16402499Y3732500D02*
X16460001Y3790000D01*
X16402499Y3597538D02*
Y3732500D01*
X16614999Y4139999D02*
X16617329D01*
X9542500Y8287501D02*
Y8677500D01*
X9392500Y8287501D02*
Y8377500D01*
X9288068Y8481933D02*
X9392500Y8377500D01*
X9442500Y8287501D02*
Y8387500D01*
X9355713Y8474288D02*
X9442500Y8387500D01*
X9942500Y8287501D02*
Y8392500D01*
X10034789Y8484789D02*
Y8514076D01*
X9942500Y8392500D02*
X10034789Y8484789D01*
Y8514076D02*
X10050713Y8530000D01*
X10052856D01*
X9963572Y8533572D02*
Y8606428D01*
X9960000Y8610000D02*
X9963572Y8606428D01*
Y8533572D02*
X9967144Y8530000D01*
X10056428Y8606428D02*
X10060000Y8610000D01*
X10056428Y8533572D02*
Y8606428D01*
X10052856Y8530000D02*
X10056428Y8533572D01*
X10694626Y7710278D02*
X10703988D01*
X10714266Y7700001D01*
X10829999D01*
X8180000Y6530000D02*
X8440000D01*
X8469999Y6500001D01*
X8010000Y6360000D02*
X8180000Y6530000D01*
X8062329Y6740000D02*
X8072329Y6750000D01*
X7950000Y6740000D02*
X8062329D01*
X8520000Y6750000D02*
X8569999Y6700001D01*
X8705000D01*
X8869999Y7800001D02*
X8980865Y7689135D01*
X8705000Y7800001D02*
X8869999D01*
X13122000Y4099999D02*
Y4112500D01*
X12972000Y3908500D02*
X12973000Y3907500D01*
X13088539Y4770000D02*
X13108501Y4750039D01*
X13507001Y4450000D02*
Y4579999D01*
X13227000Y3907500D02*
X13349329D01*
X12823131Y4770000D02*
X12945461D01*
X12925500Y4750039D02*
X12945461Y4770000D01*
X12925500Y4537670D02*
Y4750039D01*
X13108501Y4537670D02*
Y4750039D01*
X13204671Y4302329D02*
X13327000D01*
X13108501Y4398499D02*
X13204671Y4302329D01*
X13108501Y4398499D02*
Y4537670D01*
X13122000Y4099999D02*
X13352000D01*
X13017000Y4217500D02*
X13122000Y4112500D01*
X13017000Y4217500D02*
Y4342329D01*
X12972000Y3908500D02*
Y4099999D01*
X13502000D02*
Y4285000D01*
X12322000Y4099999D02*
Y4112500D01*
X12172000Y3908500D02*
X12173000Y3907500D01*
X12288539Y4770000D02*
X12308500Y4750039D01*
X12707000Y4450000D02*
Y4579999D01*
X12427000Y3907500D02*
X12549329D01*
X12023131Y4770000D02*
X12145460D01*
X12125500Y4750039D02*
X12145460Y4770000D01*
X12125500Y4537670D02*
Y4750039D01*
X12308500Y4537670D02*
Y4750039D01*
X12404670Y4302329D02*
X12527000D01*
X12308500Y4398499D02*
X12404670Y4302329D01*
X12308500Y4398499D02*
Y4537670D01*
X12322000Y4099999D02*
X12552000D01*
X12217000Y4217500D02*
X12322000Y4112500D01*
X12217000Y4217500D02*
Y4342329D01*
X12172000Y3908500D02*
Y4099999D01*
X12702000D02*
Y4285000D01*
X11522000Y4099999D02*
Y4112500D01*
X11372000Y3908500D02*
X11373000Y3907500D01*
X11488539Y4770000D02*
X11508500Y4750039D01*
X11907000Y4450000D02*
Y4579999D01*
X11627000Y3907500D02*
X11749330D01*
X11223131Y4770000D02*
X11345460D01*
X11325500Y4750039D02*
X11345460Y4770000D01*
X11325500Y4537670D02*
Y4750039D01*
X11508500Y4537670D02*
Y4750039D01*
X11604670Y4302329D02*
X11727000D01*
X11508500Y4398499D02*
X11604670Y4302329D01*
X11508500Y4398499D02*
Y4537670D01*
X11522000Y4099999D02*
X11752000D01*
X11417000Y4217500D02*
X11522000Y4112500D01*
X11417000Y4217500D02*
Y4342329D01*
X11372000Y3908500D02*
Y4099999D01*
X11902000D02*
Y4285000D01*
X10722000Y4099999D02*
Y4112500D01*
X10572000Y3908500D02*
X10573000Y3907500D01*
X10688539Y4770000D02*
X10708500Y4750039D01*
X11107000Y4450000D02*
Y4579999D01*
X10827000Y3907500D02*
X10949329D01*
X10423131Y4770000D02*
X10545460D01*
X10525500Y4750039D02*
X10545460Y4770000D01*
X10525500Y4537670D02*
Y4750039D01*
X10708500Y4537670D02*
Y4750039D01*
X10804670Y4302329D02*
X10926999D01*
X10708500Y4398499D02*
X10804670Y4302329D01*
X10708500Y4398499D02*
Y4537670D01*
X10722000Y4099999D02*
X10952000D01*
X10617000Y4217500D02*
X10722000Y4112500D01*
X10617000Y4217500D02*
Y4342329D01*
X10572000Y3908500D02*
Y4099999D01*
X11102000D02*
Y4285000D01*
X9922000Y4099999D02*
Y4112500D01*
X9772000Y3908500D02*
X9773000Y3907500D01*
X9888539Y4770000D02*
X9908500Y4750039D01*
X10307000Y4450000D02*
Y4579999D01*
X10027000Y3907500D02*
X10149329D01*
X9623131Y4770000D02*
X9745460D01*
X9725500Y4750039D02*
X9745460Y4770000D01*
X9725500Y4537670D02*
Y4750039D01*
X9908500Y4537670D02*
Y4750039D01*
X10004670Y4302329D02*
X10127000D01*
X9908500Y4398499D02*
X10004670Y4302329D01*
X9908500Y4398499D02*
Y4537670D01*
X9922000Y4099999D02*
X10152000D01*
X9817000Y4217500D02*
X9922000Y4112500D01*
X9817000Y4217500D02*
Y4342329D01*
X9772000Y3908500D02*
Y4099999D01*
X10302000D02*
Y4285000D01*
X9122000Y4099999D02*
Y4112500D01*
X8972000Y3908500D02*
X8973000Y3907500D01*
X9088539Y4770000D02*
X9108500Y4750039D01*
X9507000Y4450000D02*
Y4579999D01*
X9227000Y3907500D02*
X9349330D01*
X8823131Y4770000D02*
X8945460D01*
X8925500Y4750039D02*
X8945460Y4770000D01*
X8925500Y4537670D02*
Y4750039D01*
X9108500Y4537670D02*
Y4750039D01*
X9204670Y4302329D02*
X9327000D01*
X9108500Y4398499D02*
X9204670Y4302329D01*
X9108500Y4398499D02*
Y4537670D01*
X9122000Y4099999D02*
X9352000D01*
X9017000Y4217500D02*
X9122000Y4112500D01*
X9017000Y4217500D02*
Y4342329D01*
X8972000Y3908500D02*
Y4099999D01*
X9502000D02*
Y4285000D01*
X8322000Y4099999D02*
Y4112500D01*
X8172000Y3908500D02*
X8173000Y3907500D01*
X8288539Y4770000D02*
X8308500Y4750039D01*
X8707000Y4450000D02*
Y4579999D01*
X8427000Y3907500D02*
X8549329D01*
X8023131Y4770000D02*
X8145460D01*
X8125500Y4750039D02*
X8145460Y4770000D01*
X8125500Y4537670D02*
Y4750039D01*
X8308500Y4537670D02*
Y4750039D01*
X8404670Y4302329D02*
X8526999D01*
X8308500Y4398499D02*
X8404670Y4302329D01*
X8308500Y4398499D02*
Y4537670D01*
X8322000Y4099999D02*
X8552000D01*
X8217000Y4217500D02*
X8322000Y4112500D01*
X8217000Y4217500D02*
Y4342329D01*
X8172000Y3908500D02*
Y4099999D01*
X8702000D02*
Y4285000D01*
X7630000Y3907500D02*
X7752330D01*
X7226131Y4770000D02*
X7348460D01*
X7910000Y4450001D02*
Y4580000D01*
Y4450001D02*
X7910000Y4450000D01*
X7905000Y4285000D02*
X7910000Y4290000D01*
X7905000Y4100000D02*
Y4285000D01*
X7511500Y4398500D02*
Y4537671D01*
Y4398500D02*
X7607671Y4302329D01*
X7730000D01*
X7491539Y4770000D02*
X7511500Y4750040D01*
Y4537671D02*
Y4750040D01*
X7328500Y4537671D02*
Y4750040D01*
X7348461Y4770000D01*
X7420000Y4217500D02*
X7525000Y4112500D01*
X7420000Y4217500D02*
Y4342329D01*
X7525000Y4100000D02*
Y4112500D01*
Y4100000D02*
X7755000D01*
X7375000Y3908501D02*
Y4100000D01*
Y3908501D02*
X7376000Y3907500D01*
X8430000Y5420000D02*
X8900000D01*
X8382000Y5468000D02*
X8430000Y5420000D01*
X8382000Y5468000D02*
Y5588000D01*
Y5772000D01*
X8900000Y5420000D02*
X9043000Y5277000D01*
X9243000D01*
X8860000Y5340000D02*
X9050000Y5150000D01*
X9247000Y5400000D02*
X9420000D01*
X9243000Y5404000D02*
X9247000Y5400000D01*
X9450000Y5100000D02*
Y5370000D01*
X9420000Y5400000D02*
X9450000Y5370000D01*
Y5100000D02*
X9510000Y5040000D01*
X10000000D01*
X10092500Y5132500D02*
Y6162501D01*
X10000000Y5040000D02*
X10092500Y5132500D01*
X9650000Y5150000D02*
X9655000Y5155000D01*
X9945000D01*
X9950000Y5160000D01*
X13085001Y8525000D02*
Y8765000D01*
Y7615000D02*
Y8525000D01*
X11298570Y8248570D02*
X11320000Y8270000D01*
X9491250Y5941251D02*
Y6161251D01*
X9050000Y5150000D02*
X9243000D01*
X9876500Y5273500D02*
X9880000Y5270000D01*
X9649644Y5274856D02*
X9651000Y5273500D01*
X9876500D01*
X9828781Y5401856D02*
X9870637Y5360000D01*
X9880000D01*
X9019000Y5531000D02*
X9243000D01*
X9567856Y5852144D02*
X9570000Y5850000D01*
X9490624Y5939376D02*
X9568125D01*
X9490000Y5940001D02*
X9491250Y5941251D01*
X10042500Y8126863D02*
X10060000Y8109363D01*
Y8100000D02*
Y8109363D01*
X10042500Y8126863D02*
Y8287501D01*
X9950000Y8100000D02*
Y8109363D01*
X9992500Y8151863D02*
Y8287501D01*
X9950000Y8109363D02*
X9992500Y8151863D01*
X13792586Y5877414D02*
X13904784D01*
X13680000Y5990000D02*
X13792586Y5877414D01*
X13650000Y6520000D02*
X13904784D01*
X13580000Y6590000D02*
X13650000Y6520000D01*
X13904784D02*
X13910126Y6514659D01*
X13904784Y6665171D02*
Y6783632D01*
X13910126Y6514659D02*
X14084784D01*
X14294785Y6675000D02*
X14574783D01*
X14089784D02*
X14294785D01*
X14084784Y6670000D02*
X14089784Y6675000D01*
X14294785Y6270000D02*
Y6485000D01*
X14574783Y6580000D02*
X14693245D01*
X14574783Y6485000D02*
X14577284Y6487500D01*
X14777499D01*
X14780000Y6490000D01*
X14031152Y6270000D02*
X14149612D01*
X13904784Y6022586D02*
X13910001Y6027802D01*
Y6160000D01*
X14819707Y5940048D02*
X14877328Y5997671D01*
X14584836Y5940048D02*
X14819707D01*
X14877328Y5997671D02*
X14880000D01*
X14304836Y5620052D02*
Y5845048D01*
X14304784Y5620000D02*
X14304836Y5620052D01*
X13907539Y5874659D02*
X14084784D01*
Y6030000D02*
X14089832Y6035048D01*
X14304836D01*
X14584836D01*
X14877281Y5845048D02*
X14880000Y5842329D01*
X14584836Y5845048D02*
X14877281D01*
X14880000Y5651539D02*
Y5842329D01*
Y5390000D02*
Y5508461D01*
X11448572Y7381428D02*
X11450000Y7382856D01*
X11290000Y7380000D02*
X11291428Y7381428D01*
X11448572D01*
X11450000Y7382856D02*
X11697145D01*
X11450000Y7210000D02*
Y7297144D01*
X11625000Y7280001D02*
X11790000D01*
X11432856Y7552856D02*
X11630000Y7750000D01*
X11920000D01*
X11152023Y7552856D02*
X11432856D01*
X11920000Y7750000D02*
X12041779Y7628221D01*
X11790000Y7490001D02*
X11790000Y7490002D01*
X13789999Y10210000D02*
Y10287144D01*
X13622501Y10182300D02*
X13664799Y10140000D01*
X13960001D02*
X14082391Y10017608D01*
X13664799Y10140000D02*
X13960001D01*
X13622501Y10182300D02*
Y10185000D01*
X14082391Y9862501D02*
Y10017608D01*
X13789999Y10372856D02*
Y10450000D01*
X13457500Y10395000D02*
X13622501D01*
X13555356Y10287144D02*
X13789999D01*
X13457500Y10385000D02*
X13555356Y10287144D01*
X13457500Y10385000D02*
Y10395000D01*
X14110001Y10632051D02*
Y10830000D01*
X13860001Y10890000D02*
X14050002D01*
X14110001Y10830000D01*
X12900000Y10650000D02*
X13620000D01*
X10642500Y8392500D02*
X12900000Y10650000D01*
X13620000D02*
X13860001Y10890000D01*
X10642500Y8287501D02*
Y8392500D01*
X12968462Y10558461D02*
X14012392D01*
X10830000Y8420000D02*
X12968462Y10558461D01*
X11137144Y7567735D02*
Y7620001D01*
X11227579Y7615279D02*
X11305278D01*
X11137144Y7567735D02*
X11152023Y7552856D01*
X11222856Y7620001D02*
X11227579Y7615279D01*
X11305278D02*
X11310000Y7610556D01*
X11790000Y7280001D02*
Y7290001D01*
X11697145Y7382856D02*
X11790000Y7290001D01*
X13000000Y8850000D02*
X13085001Y8765000D01*
X12287671Y8930000D02*
X12390670D01*
X12585000Y7615000D02*
Y8525000D01*
X13535001Y7615000D02*
Y8525000D01*
X12150000Y7150000D02*
X12270000Y7270000D01*
X12520000D01*
X12630000Y7380000D01*
X13310001D01*
X13357144Y7332856D01*
X13520000D01*
X13678461Y7067000D02*
Y7170000D01*
X13520000Y7245000D02*
X13595000Y7170000D01*
X13678461D01*
X13520000Y7245000D02*
Y7247143D01*
X13647856Y7332856D02*
X13664999Y7350000D01*
X13520000Y7332856D02*
X13647856D01*
X13814999Y7176539D02*
X13821539Y7170000D01*
X13814999Y7176539D02*
Y7350000D01*
X13735001Y7615000D02*
X13814999Y7535000D01*
Y7350000D02*
Y7535000D01*
X13535001Y7615000D02*
X13735001D01*
X12135000Y8525000D02*
Y8922670D01*
X12041779Y7628221D02*
X12121779D01*
X12135000Y7615000D01*
Y8525000D01*
X11390000Y7745949D02*
Y7747093D01*
X11422907Y7780000D01*
X8400000Y6450001D02*
X8705000D01*
X8469999Y6500001D02*
X8705000D01*
X8370000Y6420001D02*
X8400000Y6450001D01*
X13042586Y6952001D02*
X13044586Y6950000D01*
X12779500Y7142001D02*
X12882500D01*
X12895415Y6950000D02*
X12897415Y6952001D01*
X12770000Y6950000D02*
X12895415D01*
X12479251Y6370751D02*
X12480001Y6371501D01*
X12760001Y6533801D02*
Y6562001D01*
X12480001Y6371501D02*
X12597701D01*
X12340000Y6370000D02*
X12340751Y6370751D01*
X13065498Y7150000D02*
X13160001D01*
X13057500Y7142001D02*
X13065498Y7150000D01*
X13040001Y6752501D02*
X13047701D01*
X13044586Y6950000D02*
X13057500D01*
X13047701Y6752501D02*
X13057500Y6762301D01*
Y6950000D01*
X13160001D01*
X12340751Y6370751D02*
X12479251D01*
X12625000Y6942001D02*
X12630000Y6947000D01*
Y7050000D01*
X8958046Y7831954D02*
Y7873554D01*
Y7831954D02*
X8960000Y7830000D01*
X8831599Y8000001D02*
X8958046Y7873554D01*
X9910001Y5940001D02*
X9990000D01*
X9910000Y5940000D02*
X9910001Y5940001D01*
X9990000Y5940001D02*
X9991250Y5941251D01*
X10442500Y6383577D02*
X10480000Y6421077D01*
X10442500Y6162501D02*
Y6383577D01*
X10541250Y6163751D02*
Y6368750D01*
X10540000Y6370000D02*
X10541250Y6368750D01*
Y6163751D02*
X10542500Y6162501D01*
X10491250Y6001250D02*
Y6161251D01*
X10492500Y6162501D01*
X10490000Y6000000D02*
X10491250Y6001250D01*
X10390000Y6450000D02*
X10391250Y6448750D01*
Y6163751D02*
Y6448750D01*
Y6163751D02*
X10392500Y6162501D01*
X10480000Y6421077D02*
Y6530000D01*
X10291250Y6163751D02*
Y6448750D01*
X10290000Y6450000D02*
X10291250Y6448750D01*
Y6163751D02*
X10292500Y6162501D01*
X10242500D02*
Y6318137D01*
X10220000Y6340637D02*
Y6350000D01*
Y6340637D02*
X10242500Y6318137D01*
X8799138Y7950001D02*
X8833380Y7915759D01*
Y7896620D02*
X8840000Y7890000D01*
X8833380Y7896620D02*
Y7915759D01*
X8705000Y7950001D02*
X8799138D01*
X8705000Y8000001D02*
X8831599D01*
X11680000Y5000000D02*
Y5084000D01*
X11686000Y5090000D01*
X12450000Y5000000D02*
Y5088000D01*
X12448000Y5090000D02*
X12450000Y5088000D01*
X12446000Y5242000D02*
Y5588000D01*
Y5242000D02*
X12448000Y5240000D01*
X11684000Y5242000D02*
Y5588000D01*
Y5242000D02*
X11686000Y5240000D01*
X11938000Y5242000D02*
Y5588000D01*
Y5242000D02*
X11940000Y5240000D01*
X12192000Y5242000D02*
Y5588000D01*
Y5242000D02*
X12194000Y5240000D01*
X8772501Y6162501D02*
X8892500D01*
X8382000Y5772000D02*
X8772501Y6162501D01*
X8010000Y5724000D02*
Y6360000D01*
X7874000Y5588000D02*
X8010000Y5724000D01*
X10340000Y5200000D02*
Y5332329D01*
X12194000Y4993932D02*
Y5090000D01*
X11940000Y4993932D02*
Y5090000D01*
X11396173Y6446498D02*
Y6513827D01*
Y6446498D02*
X11400000Y6442671D01*
Y6445000D01*
X10989999Y6350001D02*
X11040000Y6300000D01*
X10830000Y6350001D02*
X10989999D01*
X11049999Y6400001D02*
X11110000Y6340000D01*
X10830000Y6400001D02*
X11049999D01*
X10830000Y6450001D02*
X11129999D01*
X11190000Y6390000D01*
X11209999Y6500001D02*
X11270000Y6440000D01*
X10830000Y6500001D02*
X11209999D01*
X10830000Y6700001D02*
X11349999D01*
X11642654Y6407346D01*
X11400000Y6297329D02*
X11402671Y6300000D01*
X11520000D01*
X11422671Y6440000D02*
X11520000D01*
X11729940Y6615046D02*
X11869544D01*
X11594954D02*
X11729940D01*
X11459999Y6750001D02*
X11594954Y6615046D01*
X10830000Y6750001D02*
X11459999D01*
X11687640Y6407346D02*
X11729940Y6365046D01*
X11642654Y6407346D02*
X11687640D01*
X11729940Y6365046D02*
X11864589D01*
X11960000Y6328447D02*
X12056068D01*
X11864589Y6365046D02*
X11891293Y6391751D01*
X11942093D01*
X11960000Y6409657D02*
Y6411555D01*
X11942093Y6391751D02*
X11960000Y6409657D01*
X11891293Y6593296D02*
X11945151D01*
X11960000Y6578447D01*
X11869544Y6615046D02*
X11891293Y6593296D01*
X11960000Y6661555D02*
X12056068D01*
X11195712Y7095713D02*
Y7150001D01*
X11180000Y7080000D02*
X11195712Y7095713D01*
X10830000Y7100001D02*
X11002400D01*
X11022401Y7080000D01*
X11180000D01*
X10830000Y7150001D02*
X11110000D01*
X11080001Y7620001D02*
X11137144D01*
X11010001Y7550001D02*
X11080001Y7620001D01*
X10830000Y7550001D02*
X11010001D01*
X11224284Y7830000D02*
Y7898573D01*
X11080000Y7830000D02*
X11224284D01*
X11059999Y7850001D02*
X11080000Y7830000D01*
X10830000Y7850001D02*
X11059999D01*
X11057856Y7760001D02*
X11140000D01*
X11017856Y7800001D02*
X11057856Y7760001D01*
X10830000Y7800001D02*
X11017856D01*
X10650001Y7650000D02*
X10829999D01*
X10650000Y7650000D02*
X10650001Y7650000D01*
X10829999D02*
X10830000Y7650001D01*
X10829999Y7700001D02*
X10830000Y7700001D01*
X11320000Y8270000D02*
Y8340000D01*
X11225712Y7900001D02*
X11364052D01*
X11410637Y8090000D02*
X11420000D01*
X11292671Y8065714D02*
X11386351D01*
X11410637Y8090000D01*
X11222856Y7620001D02*
X11224284Y7621429D01*
Y7898573D02*
X11225712Y7900001D01*
X11460000Y8248570D02*
Y8340000D01*
Y8162857D02*
X11556068D01*
X15763931Y6940000D02*
X15860001D01*
X15763933Y7948333D02*
X15860001D01*
X15766620Y7456620D02*
X15781621D01*
X15860001Y7535000D01*
X15760001Y7450000D02*
X15766620Y7456620D01*
X15860001Y7535000D02*
Y7545000D01*
X15763931Y7140000D02*
X15860001D01*
X15763933Y7343333D02*
X15860001D01*
X15763933Y7746666D02*
X15860001D01*
X11196338Y7148126D02*
X11270624D01*
X6736172Y5841498D02*
X6760000Y5817671D01*
X6736172Y5841498D02*
Y5883827D01*
X6547500Y6072500D02*
X6736172Y5883827D01*
X6547500Y6072500D02*
Y6202451D01*
X10833482Y5888125D02*
X10907768D01*
X10673661Y5890268D02*
X10746876D01*
X10673393Y5890536D02*
X10673661Y5890268D01*
X10592500Y5837500D02*
X10686172Y5743828D01*
X10592500Y5837500D02*
Y6162501D01*
X10746876Y5890268D02*
X10747144Y5890000D01*
X14850000Y9750000D02*
X14970001Y9870001D01*
X14850000Y9590000D02*
Y9750000D01*
X14970001Y9870001D02*
X15074721D01*
X14110001Y10632051D02*
X14189722Y10552330D01*
X14192392D01*
X10830000Y8100001D02*
Y8420000D01*
X14047800Y10523055D02*
X14120854Y10450000D01*
X14210001D01*
X14282391Y10377608D01*
X14012392Y10558461D02*
X14013747D01*
X14047800Y10524409D01*
Y10523055D02*
Y10524409D01*
X14200000Y10370000D02*
X14232391Y10337608D01*
X14089999Y10370000D02*
X14200000D01*
X14282391Y8837608D02*
X14360001Y8760000D01*
X14282391Y8837608D02*
Y8997501D01*
X14232391Y9862501D02*
Y10337608D01*
X14139999Y10102360D02*
X14182391Y10059968D01*
X14139999Y10102360D02*
Y10187144D01*
X14182391Y9862501D02*
Y10059968D01*
X14138573Y10188572D02*
X14139999Y10187144D01*
X13547392Y9155001D02*
X13547501D01*
X14061427Y10188572D02*
X14138573D01*
X14060001Y10190000D02*
X14061427Y10188572D01*
X14061427Y10271428D02*
X14138573D01*
X14060001Y10270000D02*
X14061427Y10271428D01*
X14138573D02*
X14139999Y10272857D01*
X15630063Y8660000D02*
X15632391Y8657671D01*
X15627733Y9330000D02*
X15639999Y9342267D01*
X15230000Y9870064D02*
X15230063Y9870001D01*
X15502393Y9872392D02*
X15504784Y9870001D01*
X15183821Y9405716D02*
X15288573D01*
X15182391Y9492857D02*
X15183821Y9491428D01*
X15288573D01*
X15289999Y9490000D01*
X15042392Y9492857D02*
X15182391D01*
X14952856D02*
X15042392D01*
X14915001Y9455001D02*
X14952856Y9492857D01*
X14689893Y9455001D02*
X14915001D01*
X15181320Y9406072D02*
X15182391Y9407144D01*
X14835001Y9505001D02*
X14900000Y9570000D01*
Y9630000D01*
X14960001Y9690001D01*
X15080853D01*
X14689893Y9505001D02*
X14835001D01*
X14689893Y9555001D02*
X14815001D01*
X14850000Y9590000D01*
X14732391Y10552330D02*
X14852330D01*
X15030000Y10730000D01*
X15818462D01*
X14739999Y10920000D02*
X15816920D01*
X14639999Y10820000D02*
X14739999Y10920000D01*
X14639999Y10637267D02*
Y10820000D01*
X14552393Y10552330D02*
X14555063D01*
X14639999Y10637267D01*
X14372392Y10552330D02*
X14375063D01*
X14460001Y10637267D01*
Y10880000D01*
X14680000Y11100000D01*
X15818462D01*
X17167236Y10370000D02*
X17670000D01*
X16807236Y10730000D02*
X17167236Y10370000D01*
X17670000D02*
X17800000Y10500000D01*
X15961539Y10730000D02*
X16807236D01*
X15961539Y11100000D02*
X16101540D01*
X16510001Y11150000D02*
X16650000D01*
X16250000Y10920000D02*
X16350000Y11020000D01*
Y11150000D01*
X15960001Y10920000D02*
X16250000D01*
X13542392Y9160001D02*
X13547392Y9155001D01*
X13547501Y8873932D02*
Y8970000D01*
X13372501Y8873932D02*
Y8970000D01*
X8942500Y8287501D02*
Y8567501D01*
X8910000Y8600001D02*
X8942500Y8567501D01*
X14232391Y8610001D02*
Y8997501D01*
X14373827Y10550895D02*
X14376498D01*
X14530000Y10180000D02*
Y10394722D01*
X14376498Y10550895D02*
X14405299Y10522094D01*
Y10519423D02*
Y10522094D01*
Y10519423D02*
X14530000Y10394722D01*
X14732391Y10707671D02*
Y10803739D01*
X14552393Y10707671D02*
Y10803739D01*
X14372392Y10707671D02*
Y10803739D01*
X14192392Y10707671D02*
Y10803739D01*
X14010001Y10703932D02*
X14012392Y10701540D01*
X14010001Y10703932D02*
Y10800000D01*
X14458105Y10240001D02*
Y10314287D01*
X14282391Y9862501D02*
Y10377608D01*
X14195062Y10552330D02*
X14225299Y10522094D01*
Y10519423D02*
Y10522094D01*
Y10519423D02*
X14372392Y10372330D01*
Y10240001D02*
Y10372330D01*
X14192392Y10552330D02*
X14195062D01*
X14732391Y10222392D02*
Y10552330D01*
X14482391Y9972392D02*
X14732391Y10222392D01*
X14482391Y9862501D02*
Y9972392D01*
X14552393Y10552330D02*
X14580000Y10524722D01*
Y10150000D02*
Y10524722D01*
X14432391Y9862501D02*
Y10002392D01*
X14580000Y10150000D01*
X14382391Y10032392D02*
X14530000Y10180000D01*
X14382391Y9862501D02*
Y10032392D01*
X14332391Y9862501D02*
Y10202144D01*
X14370248Y10240001D01*
X13475063Y9605001D02*
X13824892D01*
X13470062Y9600001D02*
X13475063Y9605001D01*
X7057671Y8030000D02*
X7160000D01*
X10738502Y5743828D02*
X10752329Y5730000D01*
X10686172Y5743828D02*
X10738502D01*
X10907671Y5730000D02*
X11010000D01*
X9491250Y6161251D02*
X9492500Y6162501D01*
X8615924Y8541934D02*
X8851779Y8306079D01*
X8892500Y8287501D02*
Y8301279D01*
X8615924Y8541934D02*
X8615924D01*
X8887700Y8306079D02*
X8892500Y8301279D01*
X8851779Y8306079D02*
X8887700D01*
X8699280Y6309280D02*
Y6345201D01*
X8410000Y6110001D02*
X8500001D01*
X8704080Y6350001D02*
X8705000D01*
X8699280Y6345201D02*
X8704080Y6350001D01*
X8500001Y6110001D02*
X8699280Y6309280D01*
X8410000Y7550001D02*
X8705000D01*
X8410000Y7000001D02*
X8410000Y7000001D01*
X8705000D01*
X8249375Y6111876D02*
X8323662D01*
X8409375Y6031876D02*
Y6109377D01*
X8249375Y7001876D02*
X8323662D01*
X8409375Y6921876D02*
Y6999377D01*
X8249375Y7551876D02*
X8323662D01*
X8409375Y7471876D02*
Y7549377D01*
X10538125Y8646339D02*
Y8720625D01*
X10540624Y8560626D02*
X10618125D01*
X8600000Y8645714D02*
X8600000Y8645714D01*
Y8720000D01*
X11298570Y8248570D02*
X11460000D01*
X11137856Y7900001D02*
X11140000D01*
X11140000Y7900001D02*
X11140000Y7900001D01*
X10540000Y8560001D02*
X10541250Y8558751D01*
X8600000Y8557857D02*
X8615924Y8541934D01*
X7247670Y6370000D02*
X7360000D01*
X7247671Y6540000D02*
X7360000D01*
X5780000Y5662500D02*
Y5668868D01*
X4705356Y7290000D02*
X4707678Y7292322D01*
Y7437678D02*
X4710000Y7440000D01*
X6697548Y6872500D02*
X6698798Y6871250D01*
X6350000Y5570000D02*
Y5910000D01*
X6222500Y6037500D02*
Y6202451D01*
Y6037500D02*
X6350000Y5910000D01*
X6086172Y5831327D02*
X6090000Y5827500D01*
X5938928Y5836428D02*
X5940000Y5835356D01*
X6440000Y5634814D02*
Y5747144D01*
X6760000Y5550000D02*
Y5662329D01*
X6060000Y5070000D02*
Y5182329D01*
X6230000Y5070000D02*
Y5182329D01*
X6230000Y5450000D02*
X6350000Y5570000D01*
X6200000Y5830000D02*
X6249396D01*
X6180000Y5810000D02*
X6200000Y5830000D01*
X6180000Y5510000D02*
Y5810000D01*
X6120000Y5450000D02*
X6180000Y5510000D01*
X6230000Y5337671D02*
Y5450000D01*
Y5337671D02*
X6230000Y5337671D01*
X5920000Y5450000D02*
X6120000D01*
X6060000Y5337671D02*
X6230000D01*
X5890000Y5420000D02*
X5920000Y5450000D01*
X5890000Y5010000D02*
Y5182329D01*
Y5010000D02*
X5990000Y4910000D01*
X6244659D01*
X5890000Y5337671D02*
Y5420000D01*
X7092329Y6540000D02*
X7092329Y6540000D01*
X7092329Y6370000D02*
Y6540000D01*
X6867501Y6612500D02*
X6940000Y6540000D01*
X7092329D01*
X6697548Y6612500D02*
X6867501D01*
X15962585Y10240000D02*
X15962587Y10240000D01*
D79*
X16467500Y5655000D02*
X16630000D01*
X16467500Y5025000D02*
X16630000D01*
X16889999Y5655000D02*
X17052499D01*
X16889999Y5025000D02*
X17052501D01*
X16164999Y5220000D02*
X16327501D01*
D80*
X14689893Y9839892D02*
X14750000Y9900000D01*
X11470000Y8750000D02*
X11800000D01*
X10990000Y8270000D02*
X11470000Y8750000D01*
X10990000Y8040000D02*
Y8270000D01*
X10950001Y8000001D02*
X10990000Y8040000D01*
X14689893Y9705001D02*
Y9839892D01*
X10830000Y8000001D02*
X10950001D01*
D81*
X17460001Y7500000D02*
X17620000D01*
X17250000D02*
X17460001D01*
X17620000D02*
X17689999Y7430000D01*
Y7201000D02*
Y7430000D01*
X17757414Y6900000D02*
Y6917733D01*
X17757237Y6917911D02*
X17757414Y6917733D01*
X17720000Y7720000D02*
X17902586Y7537414D01*
Y6900000D02*
Y7537414D01*
X17460001Y7720000D02*
X17720000D01*
X15962587Y10240000D02*
X16100000D01*
D82*
X16400000Y6080000D02*
X16411424D01*
X16430034Y6023610D02*
X16730177D01*
X16411424Y6080000D02*
X16430035Y6061390D01*
X16411424Y6005000D02*
X16430034Y6023610D01*
X16400000Y6005000D02*
X16411424D01*
X16893890Y6113890D02*
X16914999Y6135000D01*
X16787679Y6113890D02*
X16893890D01*
X16430035Y6061390D02*
X16735178D01*
X16787679Y6113890D01*
X8434558Y6619594D02*
X8456618D01*
X8411932Y6596967D02*
X8434558Y6619594D01*
X8456618D02*
X8520101Y6556111D01*
X8403033Y6596967D02*
X8411932D01*
X8520101Y6556111D02*
X8698890D01*
X8705000Y6550001D01*
X16787679Y5966110D02*
X16893890D01*
X16730177Y6023610D02*
X16787679Y5966110D01*
X16893890D02*
X16914999Y5945000D01*
X8408899Y6680000D02*
X8431525Y6657374D01*
X8472267D02*
X8535750Y6593891D01*
X8431525Y6657374D02*
X8472267D01*
X8400000Y6680000D02*
X8408899D01*
X8698890Y6593891D02*
X8705000Y6600001D01*
X8535750Y6593891D02*
X8698890D01*
X17349821Y6056390D02*
X17515974D01*
X17344823Y6018610D02*
X17515974D01*
X17164999Y6135000D02*
X17186110Y6113890D01*
X17292322D01*
X17349821Y6056390D01*
X17164999Y5945000D02*
X17186110Y5966110D01*
X17292322D01*
X17344823Y6018610D01*
X17518474Y6016110D02*
X17573891D01*
X17515974Y6018610D02*
X17518474Y6016110D01*
X17518475Y6058890D02*
X17573891D01*
X17515974Y6056390D02*
X17518475Y6058890D01*
X17573891Y6016110D02*
X17585001Y6005000D01*
X17573891Y6058890D02*
X17585001Y6070000D01*
D83*
X17414999Y5940000D02*
X17585001D01*
D84*
X15932462Y3597538D02*
X16012500D01*
Y3792500D01*
X16077499Y3597538D02*
Y3782500D01*
D85*
X16110559Y9343200D02*
Y9803200D01*
X16070000Y9820000D02*
X16190559Y9940559D01*
X15945763Y9235762D02*
X16070000Y9360000D01*
Y9820000D01*
X15962563Y9195204D02*
X16110559Y9343200D01*
Y9803200D02*
X16207359Y9900000D01*
X16190559Y9940559D02*
X16507635D01*
X16605956Y9842238D01*
X16207359Y9900000D02*
X16490836D01*
X16565398Y9825438D01*
X16605956Y9796080D02*
Y9842238D01*
X16587218Y9777341D02*
X16605956Y9796080D01*
X16587218Y9764783D02*
X16675000Y9677000D01*
X16587218Y9764783D02*
Y9777341D01*
X15507748Y9244642D02*
X15516628Y9235762D01*
X15439365Y9296973D02*
X15472392Y9330000D01*
X15507748Y9294644D01*
X14689893Y9355001D02*
X14694614Y9350280D01*
X15027167D01*
X15507748Y9244642D02*
Y9294644D01*
X15439365Y9243677D02*
Y9296973D01*
X15430486Y9234797D02*
X15439365Y9243677D01*
X15027167Y9350280D02*
X15142648Y9234797D01*
X15430486D01*
X16565398Y9812880D02*
Y9825438D01*
X16556519Y9804000D02*
X16565398Y9812880D01*
X16421001Y9804000D02*
X16556519D01*
X15516628Y9195204D02*
X15962563D01*
X15507748Y9186324D02*
X15516628Y9195204D01*
X15507748Y9133028D02*
Y9186324D01*
X15010367Y9309721D02*
X15125848Y9194239D01*
X14694614Y9309721D02*
X15010367D01*
X15125848Y9194239D02*
X15430486D01*
X14689893Y9305001D02*
X14694614Y9309721D01*
X15439365Y9135357D02*
X15474721Y9100001D01*
X15507748Y9133028D01*
X15430486Y9194239D02*
X15439365Y9185359D01*
Y9135357D02*
Y9185359D01*
X15516628Y9235762D02*
X15945763D01*
X15518958Y8749721D02*
X16099721D01*
X16889999Y9540000D02*
Y9906778D01*
X16123480Y8773480D02*
X16866241Y9516241D01*
X16123480Y8773480D02*
Y8773480D01*
X16082921Y8790280D02*
X16849442Y9556800D01*
X16849442D02*
Y9889978D01*
X15518958Y8790280D02*
X16082921D01*
X16849442Y9556800D02*
X16849442D01*
X16082921Y8790280D02*
Y8790280D01*
X16866241Y9516241D02*
X16866241D01*
X16099721Y8749721D02*
X16123480Y8773480D01*
X16866241Y9516241D02*
X16889999Y9540000D01*
X16713237Y10083541D02*
X16889999Y9906778D01*
X16696439Y10042982D02*
X16849442Y9889978D01*
X16626459Y10083541D02*
X16713237D01*
X16421001Y10289000D02*
X16626459Y10083541D01*
X16421001Y10289000D02*
Y10312000D01*
X15439365Y8695357D02*
Y8740841D01*
Y8695357D02*
X15474721Y8660000D01*
X14694614Y9159721D02*
X14863107D01*
X14689893Y9155001D02*
X14694614Y9159721D01*
X15273108Y8749721D02*
X15430486D01*
X15439365Y8740841D01*
X14863107Y9159721D02*
X15273108Y8749721D01*
X15439365Y8844644D02*
X15474721Y8880001D01*
X15430486Y8790280D02*
X15439365Y8799160D01*
Y8844644D01*
X14694614Y9200280D02*
X14879909D01*
X14689893Y9205001D02*
X14694614Y9200280D01*
X14879909D02*
X15289908Y8790280D01*
X15430486D01*
X15510078Y8740841D02*
X15518958Y8749721D01*
X15510078Y8695357D02*
Y8740841D01*
X15474721Y8660000D02*
X15510078Y8695357D01*
X16675000Y9931000D02*
Y10034102D01*
X16683881Y10042982D01*
X16696439D01*
X15510078Y8799160D02*
X15518958Y8790280D01*
X15510078Y8799160D02*
Y8844644D01*
X15474721Y8880001D02*
X15510078Y8844644D01*
D86*
X8549999Y7650001D02*
X8705000D01*
X8060000Y7730000D02*
X8470000D01*
X8549999Y7650001D01*
X8579999Y7700001D02*
X8705000D01*
X8500000Y7780000D02*
X8579999Y7700001D01*
X7860000Y7780000D02*
X8500000D01*
X8000000Y7670000D02*
X8060000Y7730000D01*
X9000000Y7450000D02*
X9592500Y6857500D01*
Y6162501D02*
Y6857500D01*
X9792500Y6162501D02*
Y6312500D01*
X9870000Y6390000D01*
X8900000Y7450000D02*
X9000000D01*
X7300000Y7350000D02*
X7400000Y7450000D01*
X7040000Y7350000D02*
X7300000D01*
X6952499Y7262500D02*
X7040000Y7350000D01*
X7000000Y7420000D02*
X7070000D01*
X6697548Y7262500D02*
X6952499D01*
X6907500Y7327499D02*
X7000000Y7420000D01*
X6697548Y7327499D02*
X6907500D01*
X10189200Y8590800D02*
Y8666344D01*
X10190000Y8667144D01*
X10130000Y7908823D02*
X10142500Y7896324D01*
X10130000Y7908823D02*
Y7920000D01*
X10142500Y6162501D02*
Y7896324D01*
X10190000Y8810000D02*
X10250000Y8870000D01*
X10190000Y8752856D02*
Y8810000D01*
X10250000Y8870000D02*
X10395417D01*
X10448565Y8816852D01*
X9042500Y8519644D02*
X9080000Y8557144D01*
Y8667144D01*
X9042500Y8287501D02*
Y8519644D01*
X9080000Y8752856D02*
X9082311Y8755167D01*
Y8830000D01*
X10470000Y7840000D02*
X10641764D01*
X10731763Y7750001D02*
X10830000D01*
X10641764Y7840000D02*
X10731763Y7750001D01*
X12240001Y7000001D02*
X12400000Y7160000D01*
X12600000D01*
X9130000Y6440000D02*
X9242500Y6327500D01*
X12210000Y6400000D02*
Y6600000D01*
X12009999Y6800001D02*
X12210000Y6600000D01*
Y6400000D02*
X12350000Y6260000D01*
X13170000D01*
X13200000Y6290000D02*
Y6330000D01*
X13170000Y6260000D02*
X13200000Y6290000D01*
X12300000Y6530000D02*
X12331499Y6498501D01*
X12039999Y6850001D02*
X12264499Y6625501D01*
X12089999Y6900001D02*
X12300000Y6690000D01*
X12600000Y7160000D02*
X12730000Y7290000D01*
X12630000Y7110000D02*
X12760000Y7240000D01*
X13040001Y6371501D02*
X13158499D01*
X13200000Y6330000D01*
X13040001Y6625501D02*
X13155501D01*
X13040001Y6498501D02*
X13148502D01*
X12331499D02*
X12480001D01*
Y6752501D02*
Y6937000D01*
X12397499Y6752501D02*
X12480001D01*
X12475000Y6942001D02*
X12480001Y6937000D01*
X12300000Y6850000D02*
X12397499Y6752501D01*
X12264499Y6625501D02*
X12480001D01*
X12270001Y6950001D02*
X12430000Y7110000D01*
X12630000D01*
X13155501Y6625501D02*
X13250000Y6720000D01*
Y7180000D01*
X13189999Y7240000D02*
X13250000Y7180000D01*
X13220000Y7290000D02*
X13310001Y7200000D01*
X13148502Y6498501D02*
X13310001Y6660000D01*
Y7200000D01*
X12730000Y7290000D02*
X13220000D01*
X12760000Y7240000D02*
X13189999D01*
X10830000Y6900001D02*
X12089999D01*
X10830000Y6850001D02*
X12039999D01*
X10830000Y6800001D02*
X12009999D01*
X10830000Y7000001D02*
X12240001D01*
X10830000Y6950001D02*
X12270001D01*
X16621001Y7361000D02*
X16760001Y7500000D01*
X16385001Y7361000D02*
X16621001D01*
X16380000Y7936000D02*
X16385001Y7931000D01*
X16380000Y7936000D02*
Y8090000D01*
X9242500Y6162501D02*
Y6327500D01*
D87*
X6244744Y4730000D02*
Y4909915D01*
X6248244Y4405000D02*
Y4726500D01*
D88*
X16001967Y11700792D02*
Y11802359D01*
X15976575Y11827751D01*
X15925792D01*
X15900400Y11802359D01*
Y11700792D01*
X15925792Y11675400D01*
X15976575D01*
X15951183Y11726184D02*
X16001967Y11675400D01*
X15976575D02*
X16001967Y11700792D01*
X16052751Y11675400D02*
Y11827751D01*
X16103534Y11776967D01*
X16154318Y11827751D01*
Y11675400D01*
X16205101D02*
Y11776967D01*
X16255885Y11827751D01*
X16306670Y11776967D01*
Y11675400D01*
Y11751575D01*
X16205101D01*
X16357452Y11675400D02*
Y11827751D01*
X16433627D01*
X16459019Y11802359D01*
Y11751575D01*
X16433627Y11726184D01*
X16357452D01*
X15900400Y11627751D02*
Y11500792D01*
X15925792Y11475400D01*
X15976575D01*
X16001967Y11500792D01*
Y11627751D01*
X16052751Y11475400D02*
Y11627751D01*
X16154318Y11475400D01*
Y11627751D01*
X16205101D02*
X16255885D01*
X16230493D01*
Y11475400D01*
X16205101D01*
X16255885D01*
X16433627Y11627751D02*
X16332060D01*
Y11551575D01*
X16382845D01*
X16332060D01*
Y11475400D01*
X16585979Y11627751D02*
X16484412D01*
Y11475400D01*
X16585979D01*
X16484412Y11551575D02*
X16535194D01*
X16636761Y11627751D02*
X16687544D01*
X16662154D01*
Y11475400D01*
X16636761D01*
X16687544D01*
D89*
X16675000Y9677000D02*
D03*
D90*
Y9931000D02*
D03*
Y10185000D02*
D03*
Y10439000D02*
D03*
X16421001Y9804000D02*
D03*
Y10058000D02*
D03*
Y10312000D02*
D03*
Y10566000D02*
D03*
D91*
X17800000Y9489000D02*
D03*
X17648000Y10754000D02*
D03*
X17800000Y10500000D02*
D03*
X17648000Y9743000D02*
D03*
D92*
X17005000Y9334000D02*
D03*
Y10909000D02*
D03*
D93*
X17310001Y9550000D02*
D03*
Y10693000D02*
D03*
D94*
X9781000Y2480000D02*
D03*
X7171500Y11520000D02*
D03*
X10646500D02*
D03*
X13256000Y2480000D02*
D03*
X3389000Y11520000D02*
D03*
X6060000Y2480000D02*
D03*
D95*
X9400000D02*
D03*
X9019000D02*
D03*
X8638000D02*
D03*
X8257000D02*
D03*
X7495000D02*
D03*
X7114000D02*
D03*
X7876000D02*
D03*
X7552500Y11520000D02*
D03*
X7933500D02*
D03*
X8314500D02*
D03*
X8695500D02*
D03*
X9457500D02*
D03*
X9838500D02*
D03*
X9076500D02*
D03*
X12551500D02*
D03*
X13313499D02*
D03*
X12932500D02*
D03*
X12170500D02*
D03*
X11789500D02*
D03*
X11408500D02*
D03*
X11027500D02*
D03*
X11351000Y2480000D02*
D03*
X10589000D02*
D03*
X10970000D02*
D03*
X11732000D02*
D03*
X12113000D02*
D03*
X12494000D02*
D03*
X12875000D02*
D03*
X5294000Y11520000D02*
D03*
X6056000D02*
D03*
X5675000D02*
D03*
X4913000D02*
D03*
X4532000D02*
D03*
X4151000D02*
D03*
X3770000D02*
D03*
X4155000Y2480000D02*
D03*
X3393000D02*
D03*
X3774000D02*
D03*
X4536000D02*
D03*
X4917000D02*
D03*
X5298000D02*
D03*
X5679000D02*
D03*
X2480000Y5605000D02*
D03*
Y6367000D02*
D03*
Y5986000D02*
D03*
Y5224000D02*
D03*
Y4843000D02*
D03*
Y4462000D02*
D03*
Y4081000D02*
D03*
Y9538000D02*
D03*
Y10300000D02*
D03*
Y9919000D02*
D03*
Y9157000D02*
D03*
Y8776000D02*
D03*
Y8395000D02*
D03*
Y8014000D02*
D03*
D96*
Y3700000D02*
D03*
Y7633000D02*
D03*
D97*
X12700000Y5842000D02*
D03*
X12953999Y5588000D02*
D03*
X11430000Y5842000D02*
D03*
X11684000Y5588000D02*
D03*
Y5842000D02*
D03*
X11938000Y5588000D02*
D03*
Y5842000D02*
D03*
X12192000Y5588000D02*
D03*
Y5842000D02*
D03*
X12446000Y5588000D02*
D03*
Y5842000D02*
D03*
X12700000Y5588000D02*
D03*
X12953999Y5842000D02*
D03*
X13208000Y5588000D02*
D03*
Y5842000D02*
D03*
D98*
X2500000Y2500000D02*
D03*
Y11500000D02*
D03*
X17500000D02*
D03*
Y2500000D02*
D03*
D99*
X14609502Y2490000D02*
D03*
D100*
X14990501D02*
D03*
D101*
X17585001Y6320000D02*
D03*
Y5820000D02*
D03*
D102*
X11430000Y5588000D02*
D03*
D103*
X7874000D02*
D03*
X8128000D02*
D03*
X8382000D02*
D03*
D104*
X8636000D02*
D03*
D105*
X6800000Y8170000D02*
D03*
X6755031Y8102121D02*
D03*
X6434070Y8170930D02*
D03*
X6482146Y8239636D02*
D03*
X7472403Y8081602D02*
D03*
X7350000Y7990000D02*
D03*
X7410000Y8040000D02*
D03*
X7256459Y8092918D02*
D03*
X7050000Y7760000D02*
D03*
Y7880000D02*
D03*
X6980000Y7745000D02*
D03*
Y7820000D02*
D03*
X7150000Y7480000D02*
D03*
X7325754Y7460607D02*
D03*
X7427854Y7380364D02*
D03*
X7470000Y7510000D02*
D03*
X14764709Y9826457D02*
D03*
X14750000Y9900000D02*
D03*
X14680363Y9927854D02*
D03*
X14130000Y8450000D02*
D03*
X14070000Y8400000D02*
D03*
X14128564Y8353148D02*
D03*
X14232391Y8358592D02*
D03*
X14383717Y8688849D02*
D03*
X14393541Y8827082D02*
D03*
X13980000Y8680000D02*
D03*
X13917918Y8637918D02*
D03*
X13839999Y8660000D02*
D03*
X13746021Y8752330D02*
D03*
X13807671Y8813979D02*
D03*
X13500000Y9318684D02*
D03*
Y9444348D02*
D03*
X13380000Y9160000D02*
D03*
X13639999Y9380000D02*
D03*
X13589999Y9530000D02*
D03*
X13563033Y9373033D02*
D03*
X13552081Y9257918D02*
D03*
X13588467Y9443588D02*
D03*
X11853033Y8804350D02*
D03*
X11846852Y8691435D02*
D03*
X11800000Y8750000D02*
D03*
X11790000Y7655651D02*
D03*
X11500000Y7865652D02*
D03*
X10490000Y8150000D02*
D03*
X15689999Y7910000D02*
D03*
X14800000Y7710000D02*
D03*
X15763933Y8149999D02*
D03*
X11500000Y7780000D02*
D03*
X5754915Y3220000D02*
D03*
Y3400000D02*
D03*
Y3580000D02*
D03*
X6507073Y3400000D02*
D03*
X6489659Y3580000D02*
D03*
X6380000Y3730000D02*
D03*
X6502244Y4730000D02*
D03*
X6502329Y4910000D02*
D03*
X6590000Y5550000D02*
D03*
X12870000Y6560000D02*
D03*
X12650000D02*
D03*
Y6420000D02*
D03*
X12870000D02*
D03*
Y6700000D02*
D03*
X12650000D02*
D03*
X14480017Y9680011D02*
D03*
X14520016Y9600011D02*
D03*
X14480017Y9520011D02*
D03*
X14520016Y9440011D02*
D03*
X14480017Y9360011D02*
D03*
X14520016Y9280011D02*
D03*
X14480017Y9200011D02*
D03*
X14400017Y9680011D02*
D03*
X14440018Y9600011D02*
D03*
X14400017Y9520011D02*
D03*
X14440018Y9440011D02*
D03*
X14400017Y9360011D02*
D03*
X14440018Y9280011D02*
D03*
X14400017Y9200011D02*
D03*
X14320016Y9680011D02*
D03*
X14360017Y9600011D02*
D03*
X14320016Y9520011D02*
D03*
X14360017Y9440011D02*
D03*
X14320016Y9360011D02*
D03*
X14360017Y9280011D02*
D03*
X14320016Y9200011D02*
D03*
X14160017Y9680011D02*
D03*
Y9520011D02*
D03*
Y9360011D02*
D03*
Y9200011D02*
D03*
X14120016Y9600011D02*
D03*
Y9440011D02*
D03*
Y9280011D02*
D03*
X14000015Y9680011D02*
D03*
Y9520011D02*
D03*
Y9360011D02*
D03*
X9240011Y7600009D02*
D03*
X8840010D02*
D03*
X9720011Y6480008D02*
D03*
X9680011Y8000009D02*
D03*
X10200012Y7120008D02*
D03*
X9560011D02*
D03*
X9480011Y7920009D02*
D03*
X8920010Y7600009D02*
D03*
X9080011Y6800008D02*
D03*
X9560011Y8080009D02*
D03*
X10320012Y7040008D02*
D03*
X9720011Y7120008D02*
D03*
X8880010Y7200008D02*
D03*
X9640011Y8080009D02*
D03*
X9960012Y7920009D02*
D03*
X9000010Y7600009D02*
D03*
X9320011Y8080009D02*
D03*
X10240012Y7040008D02*
D03*
X9080011Y7600009D02*
D03*
X9680011Y6560008D02*
D03*
X9520011Y8000009D02*
D03*
X9600011Y7200008D02*
D03*
X9360011Y8000009D02*
D03*
Y7200008D02*
D03*
X9160011Y7600009D02*
D03*
X9520011Y6400008D02*
D03*
X9560011Y7920009D02*
D03*
X9600011Y8000009D02*
D03*
X10280012Y7120008D02*
D03*
X9120011Y7040008D02*
D03*
X9680011Y6400008D02*
D03*
X9120011Y6880008D02*
D03*
X9200011Y7040008D02*
D03*
X9600011D02*
D03*
X9920012D02*
D03*
X9960012Y7120008D02*
D03*
X9400011Y8080009D02*
D03*
X9520011Y7200008D02*
D03*
X8880010Y7680009D02*
D03*
X9280011Y7040008D02*
D03*
X9520011D02*
D03*
X9440011Y8000009D02*
D03*
X9880011Y7120008D02*
D03*
X9640011Y7920009D02*
D03*
X9960012Y6320007D02*
D03*
X9640011Y7120008D02*
D03*
X10600012D02*
D03*
X9480011Y8080009D02*
D03*
X9240011Y7120008D02*
D03*
X9720011Y6320007D02*
D03*
X10000012Y8000009D02*
D03*
X10640013Y7200008D02*
D03*
X9920012Y6560008D02*
D03*
X9680011Y7040008D02*
D03*
X9480011Y7120008D02*
D03*
X9680011Y7200008D02*
D03*
X9520011Y6560008D02*
D03*
X9880011Y6480008D02*
D03*
X10680012Y7120008D02*
D03*
X9440011Y7200008D02*
D03*
X10560012D02*
D03*
X6150000Y8800000D02*
D03*
X6300000D02*
D03*
Y8670000D02*
D03*
X6150000D02*
D03*
X6300000Y8530000D02*
D03*
X6150000D02*
D03*
X6230000Y8590000D02*
D03*
Y8740000D02*
D03*
X16139999Y3210000D02*
D03*
X16239999D02*
D03*
X16339999D02*
D03*
X16139999Y3310000D02*
D03*
Y3410000D02*
D03*
X16239999Y3310000D02*
D03*
Y3410000D02*
D03*
X16339999D02*
D03*
Y3310000D02*
D03*
X16160019Y5360006D02*
D03*
X16080019D02*
D03*
X16000018D02*
D03*
X15920020D02*
D03*
X15840019D02*
D03*
X16959993Y2559999D02*
D03*
X17039993Y2399999D02*
D03*
X16959993Y2239999D02*
D03*
X16799992Y2559999D02*
D03*
X16879993Y2399999D02*
D03*
X16719994D02*
D03*
X16559993D02*
D03*
X16399992D02*
D03*
X16239993D02*
D03*
X16079993D02*
D03*
X15800018Y3600004D02*
D03*
X15760019Y3520004D02*
D03*
X15800018Y3440004D02*
D03*
X15760019Y3360004D02*
D03*
X15720018Y3600004D02*
D03*
X15680019Y3520004D02*
D03*
X15720018Y3440004D02*
D03*
X15600018Y3520004D02*
D03*
X15640018Y3440004D02*
D03*
X15520018Y3520004D02*
D03*
X15560017Y3440004D02*
D03*
X15440018Y3520004D02*
D03*
X15480019Y3440004D02*
D03*
X15360017Y3520004D02*
D03*
X15400018Y3440004D02*
D03*
X15280019Y3520004D02*
D03*
X15320018Y3440004D02*
D03*
X15200018Y3520004D02*
D03*
X15240018Y3440004D02*
D03*
X15120018Y3520004D02*
D03*
X15160017Y3440004D02*
D03*
X15120018Y3360004D02*
D03*
X15040018Y3520004D02*
D03*
X15080019Y3440004D02*
D03*
X15040018Y3360004D02*
D03*
X15000017Y3440004D02*
D03*
X14960017Y3360004D02*
D03*
X14920016Y3440004D02*
D03*
X14880017Y3360004D02*
D03*
X17280020Y4800006D02*
D03*
X17320020Y4720006D02*
D03*
X17280020Y4640005D02*
D03*
X17320020Y4560005D02*
D03*
X17280020Y4480005D02*
D03*
X17320020Y4400005D02*
D03*
X17280020Y4320005D02*
D03*
X17200020Y4800006D02*
D03*
X17240021Y4720006D02*
D03*
X17200020Y4640005D02*
D03*
X17240021Y4560005D02*
D03*
X17200020Y4480005D02*
D03*
X17240021Y4400005D02*
D03*
X17200020Y4320005D02*
D03*
X17120020Y4800006D02*
D03*
X17160020Y4720006D02*
D03*
X17120020Y4640005D02*
D03*
X17160020Y4560005D02*
D03*
X17120020Y4480005D02*
D03*
X17160020Y4400005D02*
D03*
X17120020Y4320005D02*
D03*
X17080020Y4720006D02*
D03*
Y4560005D02*
D03*
Y4400005D02*
D03*
X16880020Y4800006D02*
D03*
X16920020Y4720006D02*
D03*
X16880020Y4640005D02*
D03*
X16920020Y4560005D02*
D03*
X16880020Y4480005D02*
D03*
X16920020Y4400005D02*
D03*
X16880020Y4320005D02*
D03*
X16800020Y4800006D02*
D03*
X16840021Y4720006D02*
D03*
X16800020Y4640005D02*
D03*
X16840021Y4560005D02*
D03*
X16800020Y4480005D02*
D03*
X16840021Y4400005D02*
D03*
X16800020Y4320005D02*
D03*
X16720020Y4800006D02*
D03*
X16760020Y4720006D02*
D03*
X16720020Y4640005D02*
D03*
X16760020Y4560005D02*
D03*
X16720020Y4480005D02*
D03*
X16760020Y4400005D02*
D03*
X16720020Y4320005D02*
D03*
X16680019Y4720006D02*
D03*
X16640021Y4640005D02*
D03*
X16680019Y4560005D02*
D03*
X16640021Y4480005D02*
D03*
X16680019Y4400005D02*
D03*
X16640021Y4320005D02*
D03*
X16600018Y4560005D02*
D03*
Y4400005D02*
D03*
X16440019Y4240005D02*
D03*
X16400018Y4160005D02*
D03*
X16320020D02*
D03*
X16360019Y4080005D02*
D03*
X15860001Y5720000D02*
D03*
X16010001D02*
D03*
Y5590000D02*
D03*
X15860001D02*
D03*
X16010001Y5450000D02*
D03*
X15860001D02*
D03*
X15939999Y5510000D02*
D03*
Y5660000D02*
D03*
X17560001Y8680000D02*
D03*
Y8800000D02*
D03*
X17730000D02*
D03*
X17889999D02*
D03*
Y8680000D02*
D03*
X17730000D02*
D03*
X16500000Y5600000D02*
D03*
X16400000Y5525000D02*
D03*
X16300000Y5600000D02*
D03*
X16500000Y5450000D02*
D03*
X16400000Y5375000D02*
D03*
X16300000Y5450000D02*
D03*
X16500000Y5300000D02*
D03*
X16400000Y5225000D02*
D03*
X16300000Y5300000D02*
D03*
Y5150000D02*
D03*
X16400000Y5075000D02*
D03*
X16500000Y5150000D02*
D03*
Y5000000D02*
D03*
X16300000D02*
D03*
X7470000Y7980000D02*
D03*
X6880000Y6780000D02*
D03*
X7000000Y6700000D02*
D03*
X6880000D02*
D03*
X8770000Y8730000D02*
D03*
X8490000Y8560000D02*
D03*
X13180000Y9660000D02*
D03*
X16520000Y3790000D02*
D03*
X14880000Y6130000D02*
D03*
X15670000Y4360000D02*
D03*
Y4230000D02*
D03*
X15050000Y3890000D02*
D03*
X14139999Y3455000D02*
D03*
X13710001Y3452329D02*
D03*
Y3840000D02*
D03*
X14100000Y4180000D02*
D03*
X17060001Y5000000D02*
D03*
X16630000Y5340000D02*
D03*
X16889999D02*
D03*
X16400000Y6005000D02*
D03*
Y6080000D02*
D03*
X17289999Y5810000D02*
D03*
X17689999Y4310000D02*
D03*
X17720000Y5340000D02*
D03*
X17010001Y4098000D02*
D03*
X17005000Y3930000D02*
D03*
X17005000Y3502000D02*
D03*
X17010001Y3670000D02*
D03*
X17025436Y3047607D02*
D03*
X17010001Y3220000D02*
D03*
X16770000Y3530000D02*
D03*
Y3630000D02*
D03*
X16670000D02*
D03*
Y3530000D02*
D03*
X16570000Y3630000D02*
D03*
Y3530000D02*
D03*
X15110001Y5650000D02*
D03*
Y5500000D02*
D03*
X15030000Y5440000D02*
D03*
X15180000D02*
D03*
X15030000Y5580000D02*
D03*
X15180000D02*
D03*
Y5710000D02*
D03*
X15030000D02*
D03*
X16630000Y5800000D02*
D03*
X16230000Y3870000D02*
D03*
X14870000Y4100000D02*
D03*
Y4180000D02*
D03*
X14789999D02*
D03*
Y4100000D02*
D03*
X14710001Y4180000D02*
D03*
Y4100000D02*
D03*
X14560001Y3440000D02*
D03*
X14710001Y3710000D02*
D03*
Y3790000D02*
D03*
X14789999Y3710000D02*
D03*
Y3790000D02*
D03*
X14870000D02*
D03*
Y3710000D02*
D03*
X9910000Y5850000D02*
D03*
X11107856Y7227856D02*
D03*
X11197856D02*
D03*
X10620000Y8480000D02*
D03*
X9530000Y6300000D02*
D03*
X9342300Y5870000D02*
D03*
X9340000Y6580000D02*
D03*
X9440000Y6490000D02*
D03*
X9260000D02*
D03*
X8250000Y6280000D02*
D03*
X10050000Y7920000D02*
D03*
X9070000Y6000000D02*
D03*
X8990000D02*
D03*
X9730000Y6010000D02*
D03*
X9640000D02*
D03*
X9870000Y6390000D02*
D03*
X9210000Y5860000D02*
D03*
X9050000Y6310000D02*
D03*
X8527000Y4579999D02*
D03*
X9327000D02*
D03*
X7730000Y4580000D02*
D03*
X10127000Y4579999D02*
D03*
X9000000Y7010000D02*
D03*
X8500000Y7090000D02*
D03*
X10927000Y4579999D02*
D03*
X12527000D02*
D03*
X11727000D02*
D03*
X13327000D02*
D03*
X8950000Y7520000D02*
D03*
X8900000Y7450000D02*
D03*
X7400000Y7530000D02*
D03*
X7070000Y7500000D02*
D03*
X7400000Y7450000D02*
D03*
X7070000Y7420000D02*
D03*
X17410001Y6140000D02*
D03*
X14430000Y5620000D02*
D03*
X14420000Y6270000D02*
D03*
X9980000Y5750000D02*
D03*
X8850000Y6620000D02*
D03*
X12670000Y8850000D02*
D03*
X10060000Y8420000D02*
D03*
X10290000Y8570000D02*
D03*
X10189200Y8590800D02*
D03*
X10290000Y8470000D02*
D03*
X13961540Y6982329D02*
D03*
X13919814Y7630000D02*
D03*
X14079816Y7790001D02*
D03*
X14160001Y7880000D02*
D03*
X14260001Y7360000D02*
D03*
Y6870000D02*
D03*
X14940001Y7311539D02*
D03*
X14939999Y6821539D02*
D03*
X15111539Y6768461D02*
D03*
X15120000Y6371539D02*
D03*
X10650000Y7510000D02*
D03*
X10980000Y7660000D02*
D03*
X10130000Y7920000D02*
D03*
X10210000D02*
D03*
X10448565Y8816852D02*
D03*
X9082311Y8830000D02*
D03*
X9270000Y8610000D02*
D03*
X9360000D02*
D03*
X11090000Y9010000D02*
D03*
X7913000Y9190000D02*
D03*
X8910328Y9190000D02*
D03*
X11020000Y9180000D02*
D03*
X10020000D02*
D03*
X10170000D02*
D03*
X9338734Y9173577D02*
D03*
X8192311Y9160000D02*
D03*
X11350827Y9331155D02*
D03*
X10350827D02*
D03*
X8243827Y9341155D02*
D03*
X9241156Y9341156D02*
D03*
X10892499Y9110000D02*
D03*
X10749742D02*
D03*
X9897328D02*
D03*
X9752157D02*
D03*
X8782499Y9130000D02*
D03*
X8639742D02*
D03*
X7795796Y9140625D02*
D03*
X7640000Y9130000D02*
D03*
X15562856Y10162391D02*
D03*
X5860000Y8850000D02*
D03*
X5750000Y8710000D02*
D03*
X14041151Y5620000D02*
D03*
X8403033Y6596967D02*
D03*
X8400000Y6680000D02*
D03*
X16470000Y5960000D02*
D03*
X16789999Y6040000D02*
D03*
X17289999D02*
D03*
X16470000Y6120000D02*
D03*
X9960000Y8610000D02*
D03*
X10060000D02*
D03*
X10398849Y7863717D02*
D03*
X10470000Y7840000D02*
D03*
X10694626Y7710278D02*
D03*
X8330000Y6648078D02*
D03*
X7850000Y6740000D02*
D03*
X7950000D02*
D03*
X8982819Y7687181D02*
D03*
X13507001Y4579999D02*
D03*
X13349329Y3907500D02*
D03*
X12823131Y4770000D02*
D03*
X12707000Y4579999D02*
D03*
X12549329Y3907500D02*
D03*
X12023131Y4770000D02*
D03*
X11907000Y4579999D02*
D03*
X11749330Y3907500D02*
D03*
X11223131Y4770000D02*
D03*
X11107000Y4579999D02*
D03*
X10949329Y3907500D02*
D03*
X10423131Y4770000D02*
D03*
X10307000Y4579999D02*
D03*
X10149329Y3907500D02*
D03*
X9623131Y4770000D02*
D03*
X9507000Y4579999D02*
D03*
X9349330Y3907500D02*
D03*
X8823131Y4770000D02*
D03*
X8707000Y4579999D02*
D03*
X8549329Y3907500D02*
D03*
X8023131Y4770000D02*
D03*
X7752330Y3907500D02*
D03*
X7226131Y4770000D02*
D03*
X7910000Y4580000D02*
D03*
X9950000Y5160000D02*
D03*
X9880000Y5270000D02*
D03*
Y5360000D02*
D03*
X9570000Y5850000D02*
D03*
X9568125Y5939377D02*
D03*
X9950000Y8100000D02*
D03*
X10060000D02*
D03*
X13680000Y5990000D02*
D03*
X13580000Y6590000D02*
D03*
X13904784Y6783632D02*
D03*
X14693245Y6580000D02*
D03*
X14780000Y6490000D02*
D03*
X14031152Y6270000D02*
D03*
X13910001Y6160000D02*
D03*
X14880000Y5390000D02*
D03*
X11290000Y7380000D02*
D03*
X11450000Y7210000D02*
D03*
X13789999Y10210000D02*
D03*
X13350000Y10190000D02*
D03*
X13789999Y10450000D02*
D03*
X11310000Y7610556D02*
D03*
X13000000Y8850000D02*
D03*
X12390670Y8930000D02*
D03*
X12150000Y7150000D02*
D03*
X13678461Y7067000D02*
D03*
X16755000Y5560000D02*
D03*
X9130000Y6327700D02*
D03*
X12300000Y6850000D02*
D03*
X12770000Y6950000D02*
D03*
X12300000Y6530000D02*
D03*
Y6690000D02*
D03*
Y6770000D02*
D03*
X13160001Y6950000D02*
D03*
Y7150000D02*
D03*
X12630000Y7050000D02*
D03*
X12779500Y7142001D02*
D03*
X12340000Y6370000D02*
D03*
X12300000Y6450000D02*
D03*
X8960000Y7830000D02*
D03*
X9910000Y5940000D02*
D03*
X10490000Y6000000D02*
D03*
X10390000Y6450000D02*
D03*
X10480000Y6530000D02*
D03*
X10220000Y6350000D02*
D03*
X10290000Y6450000D02*
D03*
X10540000Y6370000D02*
D03*
X8840000Y7890000D02*
D03*
X8940000Y6760000D02*
D03*
X11680000Y5000000D02*
D03*
X12450000D02*
D03*
X10340000Y5200000D02*
D03*
X12194000Y4993932D02*
D03*
X11940000D02*
D03*
X11520000Y6300000D02*
D03*
Y6440000D02*
D03*
X12056068Y6328447D02*
D03*
Y6661555D02*
D03*
X11057856Y7760001D02*
D03*
X10650000Y7650000D02*
D03*
X11320000Y8340000D02*
D03*
X11420000Y8090000D02*
D03*
X11460000Y8340000D02*
D03*
X11556068Y8162857D02*
D03*
X8931337Y6945324D02*
D03*
X8880000Y7000000D02*
D03*
X16850000Y7280000D02*
D03*
X16760001Y7500000D02*
D03*
X16700000Y7630000D02*
D03*
X16380000Y8090000D02*
D03*
X15763931Y6940000D02*
D03*
X16455000Y8090000D02*
D03*
X16850000Y7205000D02*
D03*
X16772330Y7426020D02*
D03*
X16700000Y7555000D02*
D03*
X16580000Y7805000D02*
D03*
Y7730000D02*
D03*
X15689999Y7710000D02*
D03*
X15760001Y7850000D02*
D03*
X15763933Y7948333D02*
D03*
X15760001Y7450000D02*
D03*
X15763931Y7140000D02*
D03*
X15763933Y7343333D02*
D03*
Y7746666D02*
D03*
X15760001Y8050000D02*
D03*
X15670000Y8070000D02*
D03*
X9130000Y6440000D02*
D03*
X8960000Y6310000D02*
D03*
X15760001Y7650000D02*
D03*
X11270624Y7148126D02*
D03*
X10907768Y5888125D02*
D03*
X10673393Y5890536D02*
D03*
X14825000Y9900000D02*
D03*
X14089999Y10370000D02*
D03*
X14010001Y10340000D02*
D03*
X10400000Y8060000D02*
D03*
X10210000Y8000000D02*
D03*
X10290000Y7920000D02*
D03*
X14360001Y8760000D02*
D03*
X14438631Y8760488D02*
D03*
X9020000Y8120000D02*
D03*
X13820000Y8740000D02*
D03*
X14060001Y10190000D02*
D03*
Y10270000D02*
D03*
X15370000Y9690000D02*
D03*
Y9580000D02*
D03*
Y8480000D02*
D03*
X15725024Y10060000D02*
D03*
Y10240000D02*
D03*
X15742438Y8480000D02*
D03*
X15739999Y9100000D02*
D03*
X15744946Y9690000D02*
D03*
X15850000D02*
D03*
X15230000Y9980000D02*
D03*
X15477144Y10162391D02*
D03*
X15384752Y10069999D02*
D03*
X15368851Y9868573D02*
D03*
X15289999Y9404288D02*
D03*
Y9490000D02*
D03*
X16101540Y11100000D02*
D03*
X16650000Y11150000D02*
D03*
X13550000Y9080000D02*
D03*
X13372501Y8873932D02*
D03*
X13547501D02*
D03*
X8920000Y8100000D02*
D03*
Y8000000D02*
D03*
X14732391Y10803739D02*
D03*
X14552393D02*
D03*
X14372392D02*
D03*
X14192392D02*
D03*
X14010001Y10800000D02*
D03*
X14458105Y10314287D02*
D03*
X10360000Y8800000D02*
D03*
X10332974Y8721286D02*
D03*
X7350000Y8100000D02*
D03*
X7290000Y8160000D02*
D03*
X7160000Y8030000D02*
D03*
X6980000Y7900000D02*
D03*
X6662824Y8107633D02*
D03*
X6714667Y8165333D02*
D03*
X6563033Y8223033D02*
D03*
X6510000Y8170000D02*
D03*
X11010000Y5730000D02*
D03*
X8249375Y6111876D02*
D03*
X8409376Y6031876D02*
D03*
X8249375Y7001876D02*
D03*
X8409376Y6921876D02*
D03*
X8249375Y7551876D02*
D03*
X8409376Y7471876D02*
D03*
X10538125Y8720625D02*
D03*
X10618125Y8560625D02*
D03*
X8600000Y8720000D02*
D03*
X6450000Y6450000D02*
D03*
Y7500000D02*
D03*
X5400000D02*
D03*
Y7050000D02*
D03*
Y7200000D02*
D03*
X5550000D02*
D03*
Y7350000D02*
D03*
X5700000D02*
D03*
Y7500000D02*
D03*
X6450000Y7200000D02*
D03*
Y7350000D02*
D03*
Y6900000D02*
D03*
Y7050000D02*
D03*
Y6600000D02*
D03*
Y6750000D02*
D03*
X6300000Y7500000D02*
D03*
Y7200000D02*
D03*
Y7350000D02*
D03*
Y6900000D02*
D03*
Y7050000D02*
D03*
Y6600000D02*
D03*
Y6750000D02*
D03*
Y6450000D02*
D03*
X6150000Y7500000D02*
D03*
Y7200000D02*
D03*
Y7350000D02*
D03*
Y6900000D02*
D03*
Y7050000D02*
D03*
Y6600000D02*
D03*
Y6750000D02*
D03*
Y6450000D02*
D03*
X6000000D02*
D03*
Y6750000D02*
D03*
Y6600000D02*
D03*
Y7050000D02*
D03*
Y6900000D02*
D03*
Y7350000D02*
D03*
Y7200000D02*
D03*
Y7500000D02*
D03*
X5820000Y5940000D02*
D03*
X5750000Y8350000D02*
D03*
X4803477Y7440000D02*
D03*
X4700000Y6400000D02*
D03*
X5550000Y7500000D02*
D03*
X5850000D02*
D03*
X5700000Y7200000D02*
D03*
X5850000D02*
D03*
Y7350000D02*
D03*
X5400000D02*
D03*
Y6900000D02*
D03*
X5550000D02*
D03*
X5700000D02*
D03*
X5850000D02*
D03*
Y7050000D02*
D03*
X5700000D02*
D03*
X5550000D02*
D03*
X5400000Y6600000D02*
D03*
X5550000D02*
D03*
X5700000D02*
D03*
X5850000D02*
D03*
Y6750000D02*
D03*
X5700000D02*
D03*
X5550000D02*
D03*
X5400000D02*
D03*
X5850000Y6450000D02*
D03*
X5700000D02*
D03*
X5550000D02*
D03*
X5400000D02*
D03*
X5930000Y8230000D02*
D03*
X4535000Y7533477D02*
D03*
X4710000D02*
D03*
X7360000Y6370000D02*
D03*
X7360000Y6540000D02*
D03*
X7265000Y7119999D02*
D03*
X7267500Y6820000D02*
D03*
X7142857Y6870000D02*
D03*
Y7070001D02*
D03*
X6040000Y8230000D02*
D03*
X4800000Y6500000D02*
D03*
X5750000Y8530000D02*
D03*
X6290000Y8240000D02*
D03*
X6130000Y8350000D02*
D03*
X4525000Y6406523D02*
D03*
X4526167Y7290000D02*
D03*
X4441524Y7440000D02*
D03*
X4500000Y6650000D02*
D03*
X4400000Y6500000D02*
D03*
X6725000Y3275000D02*
D03*
Y3175000D02*
D03*
X6625000Y3275000D02*
D03*
Y3175000D02*
D03*
X6525000D02*
D03*
Y3275000D02*
D03*
X6260000Y5634814D02*
D03*
X6440000D02*
D03*
X6760000Y5550000D02*
D03*
X6090000Y5540171D02*
D03*
X5940000Y5637314D02*
D03*
X5780000Y5550171D02*
D03*
X6060000Y5070000D02*
D03*
X6230000D02*
D03*
X17250000Y7500000D02*
D03*
X16100000Y10240000D02*
D03*
D106*
X2750000Y2500000D02*
D03*
X2676776Y2323224D02*
D03*
X2500000Y2250001D02*
D03*
X2323224Y2323224D02*
D03*
X2250001Y2500000D02*
D03*
X2323224Y2676776D02*
D03*
X2500000Y2750000D02*
D03*
X2676776Y2676776D02*
D03*
X2750000Y11500000D02*
D03*
X2676776Y11323224D02*
D03*
X2500000Y11250001D02*
D03*
X2323224Y11323224D02*
D03*
X2250001Y11500000D02*
D03*
X2323224Y11676776D02*
D03*
X2500000Y11750000D02*
D03*
X2676776Y11676776D02*
D03*
X17750000Y11500000D02*
D03*
X17676776Y11323224D02*
D03*
X17500000Y11250001D02*
D03*
X17323224Y11323224D02*
D03*
X17250002Y11500000D02*
D03*
X17323224Y11676776D02*
D03*
X17500000Y11750000D02*
D03*
X17676776Y11676776D02*
D03*
X17750000Y2500000D02*
D03*
X17676776Y2323224D02*
D03*
X17500000Y2250001D02*
D03*
X17323224Y2323224D02*
D03*
X17250002Y2500000D02*
D03*
X17323224Y2676776D02*
D03*
X17500000Y2750000D02*
D03*
X17676776Y2676776D02*
D03*
D107*
X17902586Y6762586D02*
D03*
%TF.MD5,cd8d6ee4febf1a98e216adca76a74624*%
M02*
