%TF.GenerationSoftware,Altium Limited,Altium Designer,24.2.2 (26)*%
G04 Layer_Color=16711935*
%FSLAX45Y45*%
%MOMM*%
%TF.SameCoordinates,A2E2EA48-9257-4B33-8537-14B19699C7D1*%
%TF.FilePolarity,Negative*%
%TF.FileFunction,Soldermask,Bot*%
%TF.Part,Single*%
G01*
G75*
%TA.AperFunction,ComponentPad*%
%ADD103C,1.57000*%
%ADD104R,1.57000X1.57000*%
%ADD158R,1.60320X1.60320*%
%ADD159C,1.60320*%
%ADD160C,1.75320*%
%ADD161C,2.30320*%
%ADD162C,3.15320*%
%ADD163R,2.00320X2.00320*%
%ADD164C,2.00320*%
%ADD165R,2.00320X2.00320*%
%ADD166C,1.85320*%
%ADD167C,6.70320*%
%ADD168C,1.90320*%
%ADD169R,1.90320X1.90320*%
%ADD170C,1.65320*%
%ADD171R,1.85320X1.85320*%
%TA.AperFunction,ViaPad*%
%ADD172C,1.20320*%
D103*
X7874000Y5588000D02*
D03*
X8128000D02*
D03*
X8382000D02*
D03*
D104*
X8636000D02*
D03*
D158*
X16675000Y9677000D02*
D03*
D159*
Y9931000D02*
D03*
Y10185000D02*
D03*
Y10439000D02*
D03*
X16421001Y9804000D02*
D03*
Y10058000D02*
D03*
Y10312000D02*
D03*
Y10566000D02*
D03*
D160*
X17800000Y9489000D02*
D03*
X17648000Y10754000D02*
D03*
X17800000Y10500000D02*
D03*
X17648000Y9743000D02*
D03*
D161*
X17005000Y9334000D02*
D03*
Y10909000D02*
D03*
D162*
X17310001Y9550000D02*
D03*
Y10693000D02*
D03*
D163*
X9781000Y2480000D02*
D03*
X7171500Y11520000D02*
D03*
X10646500D02*
D03*
X13256000Y2480000D02*
D03*
X3389000Y11520000D02*
D03*
X6060000Y2480000D02*
D03*
D164*
X9400000D02*
D03*
X9019000D02*
D03*
X8638000D02*
D03*
X8257000D02*
D03*
X7495000D02*
D03*
X7114000D02*
D03*
X7876000D02*
D03*
X7552500Y11520000D02*
D03*
X7933500D02*
D03*
X8314500D02*
D03*
X8695500D02*
D03*
X9457500D02*
D03*
X9838500D02*
D03*
X9076500D02*
D03*
X12551500D02*
D03*
X13313499D02*
D03*
X12932500D02*
D03*
X12170500D02*
D03*
X11789500D02*
D03*
X11408500D02*
D03*
X11027500D02*
D03*
X11351000Y2480000D02*
D03*
X10589000D02*
D03*
X10970000D02*
D03*
X11732000D02*
D03*
X12113000D02*
D03*
X12494000D02*
D03*
X12875000D02*
D03*
X5294000Y11520000D02*
D03*
X6056000D02*
D03*
X5675000D02*
D03*
X4913000D02*
D03*
X4532000D02*
D03*
X4151000D02*
D03*
X3770000D02*
D03*
X4155000Y2480000D02*
D03*
X3393000D02*
D03*
X3774000D02*
D03*
X4536000D02*
D03*
X4917000D02*
D03*
X5298000D02*
D03*
X5679000D02*
D03*
X2480000Y5605000D02*
D03*
Y6367000D02*
D03*
Y5986000D02*
D03*
Y5224000D02*
D03*
Y4843000D02*
D03*
Y4462000D02*
D03*
Y4081000D02*
D03*
Y9538000D02*
D03*
Y10300000D02*
D03*
Y9919000D02*
D03*
Y9157000D02*
D03*
Y8776000D02*
D03*
Y8395000D02*
D03*
Y8014000D02*
D03*
D165*
Y3700000D02*
D03*
Y7633000D02*
D03*
D166*
X12700000Y5842000D02*
D03*
X12953999Y5588000D02*
D03*
X11430000Y5842000D02*
D03*
X11684000Y5588000D02*
D03*
Y5842000D02*
D03*
X11938000Y5588000D02*
D03*
Y5842000D02*
D03*
X12192000Y5588000D02*
D03*
Y5842000D02*
D03*
X12446000Y5588000D02*
D03*
Y5842000D02*
D03*
X12700000Y5588000D02*
D03*
X12953999Y5842000D02*
D03*
X13208000Y5588000D02*
D03*
Y5842000D02*
D03*
D167*
X2500000Y2500000D02*
D03*
Y11500000D02*
D03*
X17500000D02*
D03*
Y2500000D02*
D03*
D168*
X14609502Y2490000D02*
D03*
D169*
X14990501D02*
D03*
D170*
X17585001Y6320000D02*
D03*
Y5820000D02*
D03*
D171*
X11430000Y5588000D02*
D03*
D172*
X2750000Y2500000D02*
D03*
X2676776Y2323224D02*
D03*
X2500000Y2250001D02*
D03*
X2323224Y2323224D02*
D03*
X2250001Y2500000D02*
D03*
X2323224Y2676776D02*
D03*
X2500000Y2750000D02*
D03*
X2676776Y2676776D02*
D03*
X2750000Y11500000D02*
D03*
X2676776Y11323224D02*
D03*
X2500000Y11250001D02*
D03*
X2323224Y11323224D02*
D03*
X2250001Y11500000D02*
D03*
X2323224Y11676776D02*
D03*
X2500000Y11750000D02*
D03*
X2676776Y11676776D02*
D03*
X17750000Y11500000D02*
D03*
X17676776Y11323224D02*
D03*
X17500000Y11250001D02*
D03*
X17323224Y11323224D02*
D03*
X17250002Y11500000D02*
D03*
X17323224Y11676776D02*
D03*
X17500000Y11750000D02*
D03*
X17676776Y11676776D02*
D03*
X17750000Y2500000D02*
D03*
X17676776Y2323224D02*
D03*
X17500000Y2250001D02*
D03*
X17323224Y2323224D02*
D03*
X17250002Y2500000D02*
D03*
X17323224Y2676776D02*
D03*
X17500000Y2750000D02*
D03*
X17676776Y2676776D02*
D03*
%TF.MD5,05b3ca8c16639874dd9a30c6dbfaaff2*%
M02*
