%TF.GenerationSoftware,Altium Limited,Altium Designer,24.2.2 (26)*%
G04 Layer_Color=32896*
%FSLAX45Y45*%
%MOMM*%
%TF.SameCoordinates,A2E2EA48-9257-4B33-8537-14B19699C7D1*%
%TF.FilePolarity,Positive*%
%TF.FileFunction,Legend,Bot*%
%TF.Part,Single*%
G01*
G75*
%TA.AperFunction,NonConductor*%
%ADD134C,0.40000*%
%ADD135R,43.60000X7.90000*%
G36*
X4629819Y6200403D02*
X4697755Y6200731D01*
X4699724Y6199418D01*
X4699068Y6125903D01*
X4698083Y6124918D01*
X4624568Y6125574D01*
X4623583Y6128528D01*
X4624239Y6131154D01*
Y6192198D01*
Y6192854D01*
X4623911Y6199090D01*
X4624568Y6200403D01*
X4627193Y6201059D01*
X4629819Y6200403D01*
D02*
G37*
G36*
X4327224D02*
X4399426D01*
X4470645Y6200731D01*
X4472614Y6199418D01*
X4471957Y6125246D01*
X4322629Y6124918D01*
X4321644Y6125903D01*
X4322301Y6200075D01*
X4325254Y6201059D01*
X4327224Y6200403D01*
D02*
G37*
G36*
X4176254D02*
X4244190Y6200731D01*
X4245503Y6200075D01*
X4246160Y6197449D01*
X4245503Y6125903D01*
X4244519Y6124918D01*
X4190695D01*
X4170019Y6125246D01*
X4170347Y6195152D01*
X4170019Y6198762D01*
X4171003Y6200403D01*
X4173629Y6201059D01*
X4176254Y6200403D01*
D02*
G37*
G36*
X4931758D02*
X5226804Y6200731D01*
X5228774Y6199418D01*
X5229430Y6125903D01*
X5230414Y6124918D01*
X5606525Y6124262D01*
X5606853Y5974933D01*
X5605869Y5973949D01*
X5456212Y5974605D01*
X5455228Y5977559D01*
X5455884Y5979528D01*
X5455228Y6048449D01*
X5454243Y6049433D01*
X5153617Y6048777D01*
X5153289Y5974933D01*
X5154273Y5973949D01*
X5379415Y5973292D01*
X5380399Y5970339D01*
X5379743Y5968369D01*
X5380399Y5898792D01*
X5383025Y5898136D01*
X5454243Y5898464D01*
X5455884Y5896823D01*
X5456540Y5822651D01*
X5601930Y5822323D01*
X5603900Y5822979D01*
X5606853Y5821338D01*
X5607182Y5595869D01*
X5832979Y5595213D01*
X5833964Y5594228D01*
X5833636Y5588648D01*
X5834292Y5444899D01*
X5909449Y5444571D01*
X5909121Y5371384D01*
X5909777Y5369415D01*
X5912402Y5368758D01*
X5984933Y5368430D01*
X5985262Y5293930D01*
X5987887Y5293274D01*
X6060418Y5292945D01*
X6060746Y5142304D01*
X6211059Y5141648D01*
X6212044Y5138694D01*
X6211387Y5136725D01*
X6211716Y4917163D01*
X6211059Y4915850D01*
X6208434Y4915194D01*
X6062387Y4915522D01*
X6060418Y4914209D01*
X6060746Y4839709D01*
X6211059Y4839053D01*
X6212044Y4836099D01*
X6211387Y4834130D01*
X6211716Y4690709D01*
X6210403Y4688740D01*
X6135903Y4689068D01*
X6135246Y4763896D01*
X6061074Y4764553D01*
X6060418Y4766522D01*
X6060090Y4839709D01*
X5985262Y4839053D01*
X5984605Y4764881D01*
X5982636Y4764224D01*
X5834292Y4764881D01*
X5833308Y4765865D01*
X5833636Y4771445D01*
X5833308Y4832161D01*
X5833964Y4834130D01*
X5833308Y4836755D01*
X5833964Y4839381D01*
X5908136Y4840037D01*
X5909449Y4841350D01*
X5909121Y4915194D01*
X5834292Y4915850D01*
X5833308Y4918804D01*
X5833964Y4922086D01*
X5833308Y4924055D01*
X5832979Y4991335D01*
X5758151Y4990678D01*
X5757823Y4918804D01*
X5758479Y4918148D01*
X5757495Y4915850D01*
X5754869Y4915194D01*
X5606853Y4915522D01*
X5607510Y4990350D01*
X5608494Y4991335D01*
X5613417Y4991007D01*
X5757823Y4991663D01*
X5757166Y5217461D01*
X5683323Y5217789D01*
X5682338Y5216804D01*
X5681682Y5067148D01*
X5532682Y5066491D01*
X5531369Y5065835D01*
X5530712Y4991663D01*
X5527759Y4990678D01*
X5525133Y4991335D01*
X5460479Y4991007D01*
X5457525Y4991335D01*
X5455884Y4990350D01*
X5455228Y4987725D01*
X5455884Y4985099D01*
X5456212Y4839709D01*
X5530384Y4840365D01*
X5531369Y4841350D01*
X5532025Y4914866D01*
X5534322Y4915850D01*
X5536292Y4915194D01*
X5606853Y4914866D01*
X5607182Y4688740D01*
X5908464Y4688083D01*
X5909449Y4687099D01*
X5909777Y4613255D01*
X5982964Y4612927D01*
X5984933Y4614240D01*
X5985590Y4688412D01*
X6135574Y4688740D01*
X6135903Y4614240D01*
X6134918Y4613255D01*
X6132293Y4612599D01*
X6130323Y4613255D01*
X6061403Y4612599D01*
X6060418Y4611614D01*
X6061074Y4537442D01*
X6206464Y4537114D01*
X6208434Y4537770D01*
X6211059Y4537114D01*
X6212044Y4534160D01*
X6211387Y4531534D01*
X6211716Y4312629D01*
X6210403Y4310660D01*
X6135903Y4310988D01*
X6135246Y4461301D01*
X6061731Y4461957D01*
X6060418Y4463270D01*
X6060090Y4537114D01*
X5986246Y4537442D01*
X5984933Y4536129D01*
X5984277Y4462614D01*
X5983292Y4461629D01*
X5909777Y4462286D01*
X5908792Y4465239D01*
X5909449Y4467208D01*
X5909121Y4613255D01*
X5834292Y4612599D01*
X5833308Y4609645D01*
X5833964Y4607019D01*
X5833636Y4542365D01*
X5833964Y4539411D01*
X5832979Y4537770D01*
X5830354Y4537114D01*
X5827072Y4537770D01*
X5825103Y4537114D01*
X5763074Y4537442D01*
X5760120Y4537114D01*
X5757823Y4538755D01*
X5757495Y4612599D01*
X5754869Y4613255D01*
X5608823Y4612927D01*
X5606853Y4614240D01*
X5606525Y4688740D01*
X5531697Y4689396D01*
X5531040Y4762912D01*
X5529728Y4764224D01*
X5455884Y4764553D01*
X5455556Y4839709D01*
X5380728Y4840365D01*
X5379743Y4841350D01*
X5380071Y4913225D01*
X5379415Y4915194D01*
X5376461Y4915522D01*
X5305899Y4915194D01*
X5304258Y4916835D01*
X5304915Y4990350D01*
X5305899Y4991335D01*
X5310822Y4991007D01*
X5375476Y4991335D01*
X5377445Y4990678D01*
X5379743Y4991663D01*
X5380399Y4994945D01*
X5379743Y4996914D01*
X5380071Y5064850D01*
X5378758Y5066820D01*
X5304586Y5067476D01*
X5303930Y5293274D01*
X5229758Y5293930D01*
X5228774Y5294915D01*
X5228117Y5368430D01*
X5225163Y5369415D01*
X5223194Y5368758D01*
X5153617Y5369415D01*
X5153289Y5443915D01*
X5156243Y5444899D01*
X5226804Y5444571D01*
X5228774Y5445884D01*
X5228445Y5520384D01*
X5153617Y5521041D01*
X5152961Y5671354D01*
X5078132Y5672010D01*
X5077148Y5674964D01*
X5077804Y5676933D01*
X5077476Y5746838D01*
X5001991Y5746182D01*
X5001663Y5676276D01*
X5002319Y5674307D01*
X5000678Y5671354D01*
X4926178Y5671682D01*
X4925850Y5746838D01*
X4850694Y5747167D01*
X4850365Y5897808D01*
X4847740Y5898464D01*
X4775537Y5897808D01*
X4774881Y5823636D01*
X4773568Y5822323D01*
X4767989Y5822651D01*
X4624239Y5821995D01*
X4624568Y5746838D01*
X4697099Y5747167D01*
X4699396Y5746182D01*
X4699724Y5672994D01*
X4698083Y5671354D01*
X4624568Y5672010D01*
X4623583Y5674964D01*
X4624239Y5677589D01*
X4623911Y5746838D01*
X4550724Y5747167D01*
X4548755Y5746510D01*
X4548098Y5743885D01*
X4548427Y5673323D01*
X4547114Y5671354D01*
X4472614Y5671682D01*
X4471957Y5821995D01*
X4470973Y5822979D01*
X4462440Y5822323D01*
X4397129Y5821995D01*
X4397457Y5671354D01*
X4472614Y5671025D01*
X4472942Y5595869D01*
X4774881Y5596525D01*
X4775209Y5653303D01*
Y5653959D01*
X4775865Y5746510D01*
X4778163Y5747495D01*
X4780132Y5746838D01*
X4850694Y5746510D01*
X4851350Y5672338D01*
X4852335Y5671354D01*
X4926178Y5671025D01*
X4926835Y5596197D01*
X5076491Y5595541D01*
X5077804Y5594228D01*
X5077148Y5520712D01*
X4927491Y5520056D01*
X4926178Y5518743D01*
X4926507Y5444899D01*
X5001335Y5444243D01*
X5002319Y5441289D01*
X5001663Y5438664D01*
X5001991Y5370728D01*
X5001335Y5369415D01*
X4998709Y5368758D01*
X4927163Y5369415D01*
X4926178Y5370399D01*
X4925850Y5444899D01*
X4851678Y5444243D01*
X4850694Y5443259D01*
X4850037Y5369743D01*
X4849053Y5368758D01*
X4701693Y5369087D01*
X4699724Y5368430D01*
X4700052Y5217789D01*
X4926178Y5217461D01*
X4926507Y5142304D01*
X5001663Y5142633D01*
X5001991Y5216476D01*
X5000678Y5217789D01*
X4926178Y5218117D01*
X4926835Y5292945D01*
X5076819Y5293274D01*
X5077804Y5290320D01*
X5077476Y5219758D01*
X5078789Y5217789D01*
X5228445Y5217133D01*
X5228774Y4840694D01*
X5225820Y4839709D01*
X5153289Y4840037D01*
X5152632Y4914866D01*
X5149679Y4915850D01*
X5147710Y4915194D01*
X5002648Y4915850D01*
X5001663Y4918804D01*
X5002319Y4922086D01*
X5001663Y4924055D01*
X5001335Y5066820D01*
X4926178Y5067148D01*
X4925850Y5142304D01*
X4775537Y5141648D01*
X4774881Y4991991D01*
X4771599Y4990678D01*
X4768973Y4991335D01*
X4699724Y4991663D01*
X4699068Y5065835D01*
X4698083Y5066820D01*
X4624239Y5067148D01*
X4623911Y5142304D01*
X4397457Y5142961D01*
X4397129Y5216804D01*
X4398114Y5217789D01*
X4624239Y5217461D01*
X4624568Y5142304D01*
X4699068Y5142633D01*
X4699724Y5145258D01*
X4699396Y5217789D01*
X4624239Y5218117D01*
X4623583Y5444571D01*
X4553021Y5444899D01*
X4551052Y5444243D01*
X4548755Y5445228D01*
X4548098Y5447853D01*
X4548427Y5518415D01*
X4547114Y5520384D01*
X4472614Y5520712D01*
X4472285Y5595869D01*
X4397129Y5596197D01*
X4396801Y5671354D01*
X4321973Y5672010D01*
X4321316Y5822323D01*
X4250754Y5822651D01*
X4247801Y5822323D01*
X4246160Y5823308D01*
X4245503Y5825933D01*
X4246160Y5827902D01*
X4245831Y5896495D01*
X4247144Y5898464D01*
X4321644Y5898136D01*
X4322301Y5822651D01*
X4396144Y5822323D01*
X4397129Y5823308D01*
X4396801Y5898464D01*
X4321644Y5898792D01*
X4322301Y6049105D01*
X4547114Y6049433D01*
X4548098Y6048449D01*
X4548755Y6045823D01*
X4548098Y6043854D01*
X4548427Y5975918D01*
X4547114Y5973949D01*
X4397457Y5973292D01*
X4397129Y5898792D01*
X4547442Y5898136D01*
X4548755Y5894854D01*
X4548098Y5892885D01*
X4548755Y5823308D01*
X4551709Y5822323D01*
X4555647Y5822979D01*
X4557616Y5822323D01*
X4623911Y5822979D01*
X4624239Y5969026D01*
X4623583Y5970995D01*
X4625224Y5973949D01*
X4699068Y5974277D01*
X4699724Y5976902D01*
X4700381Y6049105D01*
X4774881Y6049433D01*
X4775537Y5974605D01*
X4777506Y5973949D01*
X4850365Y5974605D01*
X4850694Y6049105D01*
X4775209Y6049762D01*
X4775865Y6124590D01*
X4849709Y6124918D01*
X4850694Y6123934D01*
X4851022Y6049433D01*
X5076819Y6050090D01*
X5077804Y6051075D01*
X5077148Y6124590D01*
X4927491Y6125246D01*
X4926178Y6126559D01*
X4926835Y6200075D01*
X4929788Y6201059D01*
X4931758Y6200403D01*
D02*
G37*
G36*
X4024628D02*
X4092565Y6200731D01*
X4094534Y6199418D01*
X4095190Y6125903D01*
X4096175Y6124918D01*
X4170019Y6124590D01*
X4170347Y6049433D01*
X4245175Y6048777D01*
X4246160Y6047793D01*
X4245503Y5974277D01*
X4171659Y5973949D01*
X4170019Y5975590D01*
X4170347Y5979856D01*
X4169690Y6049433D01*
X4095190Y6049105D01*
X4094534Y6046480D01*
Y6036634D01*
Y6035978D01*
X4093878Y5974277D01*
X4020034Y5973949D01*
X4019049Y5974933D01*
X4019705Y6200075D01*
X4022659Y6201059D01*
X4024628Y6200403D01*
D02*
G37*
G36*
X4245503Y5746510D02*
X4246160Y5743885D01*
X4245503Y5672338D01*
X4244519Y5671354D01*
X4217607D01*
X4170019Y5671682D01*
X4170347Y5741587D01*
X4170019Y5745197D01*
X4171003Y5746838D01*
X4173957Y5747167D01*
X4241893Y5746838D01*
X4243206Y5747495D01*
X4245503Y5746510D01*
D02*
G37*
G36*
X5687918Y6200403D02*
X6210075Y6200731D01*
X6211387Y6200075D01*
X6212044Y6197449D01*
X6211387Y6194824D01*
X6211716Y5673323D01*
X6210403Y5671354D01*
X6161830D01*
X5683323Y5672010D01*
X5682338Y5672994D01*
X5682994Y6200075D01*
X5685948Y6201059D01*
X5687918Y6200403D01*
D02*
G37*
G36*
X3420095D02*
X3518553D01*
X3941595Y6200731D01*
X3943564Y6199418D01*
X3942908Y5672338D01*
X3941924Y5671354D01*
X3414843Y5672010D01*
X3413859Y5674964D01*
X3414515Y5676933D01*
X3414187Y6199090D01*
X3414843Y6200403D01*
X3417469Y6201059D01*
X3420095Y6200403D01*
D02*
G37*
G36*
X6211387Y5594884D02*
X6212044Y5592259D01*
X6211387Y5590290D01*
Y5527276D01*
Y5526620D01*
X6211716Y5522353D01*
X6210403Y5520384D01*
X5984933Y5520712D01*
X5985590Y5595541D01*
X6210403Y5595869D01*
X6211387Y5594884D01*
D02*
G37*
G36*
X4025285Y5822323D02*
X4093221Y5822651D01*
X4094534Y5821995D01*
X4095190Y5672338D01*
X4096175Y5671354D01*
X4170019Y5671025D01*
X4170347Y5595869D01*
X4397129Y5595541D01*
X4397457Y5520384D01*
X4472614Y5520056D01*
X4472285Y5369415D01*
X4469660Y5368758D01*
X4397129Y5369087D01*
X4396801Y5520384D01*
X4321973Y5519728D01*
X4321316Y5445556D01*
X4318034Y5444243D01*
X4316065Y5444899D01*
X4246488Y5444243D01*
X4245503Y5441289D01*
X4246160Y5439320D01*
X4245503Y5369743D01*
X4244519Y5368758D01*
X4171988Y5369087D01*
X4170675Y5368430D01*
X4170019Y5365805D01*
X4170675Y5362523D01*
X4170019Y5360553D01*
X4170347Y5217789D01*
X4245503Y5217461D01*
X4246160Y5214835D01*
X4245503Y5142633D01*
X4171659Y5142304D01*
X4170019Y5143945D01*
X4170347Y5148212D01*
X4169690Y5217789D01*
X4095518D01*
X4095190Y5217461D01*
X4094534Y5214835D01*
X4094862Y4991335D01*
X4165424Y4991007D01*
X4168377Y4991335D01*
X4170019Y4990350D01*
X4170675Y4987725D01*
X4170019Y4985099D01*
X4170347Y4917163D01*
X4169034Y4915194D01*
X4095518Y4915850D01*
X4094534Y4916835D01*
X4094206Y4991335D01*
X4021018Y4991007D01*
X4019049Y4992319D01*
X4018393Y5292945D01*
X3943564Y5293602D01*
X3942908Y5368430D01*
X3939954Y5369415D01*
X3937985Y5368758D01*
X3792923Y5369415D01*
X3791939Y5372368D01*
X3792595Y5374994D01*
X3792267Y5442930D01*
X3792923Y5444243D01*
X3795549Y5444899D01*
X3941595Y5444571D01*
X3943564Y5445884D01*
X3943236Y5520384D01*
X3868408Y5521041D01*
X3867751Y5523666D01*
X3868080Y5592259D01*
X3867423Y5592915D01*
X3869064Y5595869D01*
X3943236Y5595213D01*
X3943893Y5520384D01*
X4018721Y5521041D01*
X4019377Y5821667D01*
X4022659Y5822979D01*
X4025285Y5822323D01*
D02*
G37*
G36*
X5985262Y5444899D02*
X6211059Y5444243D01*
X6212044Y5441289D01*
X6211387Y5439320D01*
X6211716Y5370728D01*
X6211059Y5369415D01*
X6208434Y5368758D01*
X6137872Y5369087D01*
X6135903Y5367774D01*
X6136231Y5293274D01*
X6211059Y5292617D01*
X6212044Y5289664D01*
X6211387Y5287694D01*
X6211716Y5219758D01*
X6210403Y5217789D01*
X6136887Y5218445D01*
X6135903Y5219430D01*
X6135574Y5293274D01*
X6060418Y5293602D01*
X6059762Y5368430D01*
X6056808Y5369415D01*
X6054839Y5368758D01*
X5984933Y5369087D01*
X5984605Y5444899D01*
X5909449Y5445228D01*
Y5450479D01*
Y5451135D01*
X5909121Y5517759D01*
X5910105Y5520056D01*
X5984605Y5520384D01*
X5985262Y5444899D01*
D02*
G37*
G36*
X3792595Y5594228D02*
X3792267Y5589305D01*
X3792595Y5527276D01*
X3791939Y5525307D01*
X3792595Y5523338D01*
X3791939Y5520712D01*
X3717767Y5520056D01*
X3716454Y5518743D01*
X3716782Y5371384D01*
X3716126Y5369415D01*
X3713500Y5368758D01*
X3640969Y5369087D01*
Y5514148D01*
Y5514805D01*
X3640641Y5519728D01*
X3638016Y5520384D01*
X3565485Y5520712D01*
X3566141Y5595541D01*
X3790954Y5595869D01*
X3792595Y5594228D01*
D02*
G37*
G36*
X4327224Y5368758D02*
X4352823D01*
X4397129Y5368430D01*
X4396801Y5293930D01*
X4394175Y5293274D01*
X4321973Y5293930D01*
X4321644Y5367774D01*
X4322629Y5368758D01*
X4325254Y5369415D01*
X4327224Y5368758D01*
D02*
G37*
G36*
X3420095D02*
X3490000Y5368430D01*
Y5323139D01*
Y5322483D01*
X3489344Y5294258D01*
X3488359Y5293274D01*
X3414843Y5293930D01*
X3413859Y5296884D01*
X3414515Y5298853D01*
X3414187Y5367446D01*
X3414843Y5368758D01*
X3417469Y5369415D01*
X3420095Y5368758D01*
D02*
G37*
G36*
X3943564Y5292945D02*
Y5277192D01*
Y5276536D01*
X3942908Y5218117D01*
X3869064Y5217789D01*
X3868080Y5218774D01*
X3867751Y5221071D01*
X3868080Y5289664D01*
X3867423Y5290976D01*
X3869064Y5293274D01*
X3943564Y5292945D01*
D02*
G37*
G36*
X3565485Y5520056D02*
X3565813Y5368758D01*
X3640969Y5368430D01*
X3640313Y5218117D01*
X3566469Y5217789D01*
X3565485Y5218774D01*
Y5283756D01*
Y5284412D01*
X3565156Y5368758D01*
X3490000Y5369087D01*
X3489344Y5443915D01*
X3488359Y5444899D01*
X3415828Y5444571D01*
X3414515Y5445228D01*
X3413859Y5447853D01*
X3414515Y5450479D01*
X3414187Y5518415D01*
X3415500Y5520384D01*
X3565485Y5520056D01*
D02*
G37*
G36*
X3791610Y5217133D02*
X3792595Y5216148D01*
X3792267Y5211225D01*
X3792595Y5149196D01*
X3791939Y5147884D01*
X3792595Y5145915D01*
X3791939Y5143289D01*
X3790954Y5142304D01*
X3716454Y5142633D01*
X3717110Y5217461D01*
X3720721Y5217789D01*
X3721377D01*
X3791610Y5217133D01*
D02*
G37*
G36*
X3943564Y5140663D02*
X3942908Y5067148D01*
X3869064Y5066820D01*
X3868080Y5067804D01*
X3867423Y5069773D01*
X3868080Y5071742D01*
Y5079619D01*
Y5080276D01*
X3867751Y5139679D01*
X3868736Y5141976D01*
X3941924Y5142304D01*
X3943564Y5140663D01*
D02*
G37*
G36*
X4624239Y5066491D02*
X4623911Y4992648D01*
X4624568Y4991335D01*
X4627193Y4990678D01*
X4629819Y4991335D01*
X4699724Y4991007D01*
X4700052Y4915194D01*
X4924209Y4915522D01*
X4926178Y4914209D01*
X4926835Y4840694D01*
X4927819Y4839709D01*
X5153289Y4839381D01*
X5152632Y4689068D01*
X5078132Y4688740D01*
X5077476Y4762912D01*
X5076163Y4764224D01*
X4927163Y4763568D01*
X4926178Y4762583D01*
X4926507Y4461629D01*
X5001663Y4461957D01*
X5001991Y4532519D01*
X5001663Y4535473D01*
X5002648Y4537114D01*
X5005273Y4537770D01*
X5007899Y4537114D01*
X5075835Y4537442D01*
X5077804Y4536129D01*
X5077148Y4462614D01*
X5076163Y4461629D01*
X5001991Y4460973D01*
X5001663Y4311644D01*
X5002648Y4310660D01*
X5077804Y4310331D01*
X5078132Y4235175D01*
X5152304Y4234519D01*
X5153289Y4233534D01*
X5153945Y4160019D01*
X5156899Y4159034D01*
X5158868Y4159690D01*
X5227789Y4159034D01*
X5228774Y4158049D01*
X5228117Y4084534D01*
X5227133Y4083549D01*
X5078132Y4084206D01*
X5077148Y4087159D01*
X5077804Y4089129D01*
X5077476Y4235175D01*
X5002319Y4235503D01*
X5001663Y4238129D01*
X5002319Y4241411D01*
X5001663Y4243380D01*
X5001335Y4310660D01*
X4926178Y4310988D01*
X4925850Y4461629D01*
X4851022Y4460973D01*
X4850694Y4310988D01*
X4926178Y4310331D01*
X4925850Y4159690D01*
X4922568Y4159034D01*
X4920599Y4159690D01*
X4852663Y4159362D01*
X4850694Y4160675D01*
X4850365Y4310660D01*
X4775537Y4311316D01*
X4774881Y4385488D01*
X4772911Y4386144D01*
X4700052Y4385488D01*
X4699396Y4235832D01*
X4697427Y4235175D01*
X4624239Y4235503D01*
X4623583Y4238129D01*
X4624239Y4242724D01*
X4623911Y4305409D01*
X4624239Y4309019D01*
X4622599Y4310660D01*
X4549083Y4310003D01*
X4548098Y4309019D01*
X4548427Y4237144D01*
X4547114Y4235175D01*
X4472614Y4235503D01*
X4471957Y4310331D01*
X4397129Y4310988D01*
X4397785Y4461301D01*
X4400411Y4461957D01*
X4469004Y4461629D01*
X4469660Y4462286D01*
X4472614Y4460645D01*
X4473270Y4387129D01*
X4474255Y4386144D01*
X4623255Y4386801D01*
X4624239Y4387785D01*
X4623911Y4392709D01*
X4624239Y4457363D01*
X4623583Y4459332D01*
X4624568Y4461629D01*
X4626865Y4461957D01*
X4773568Y4461629D01*
X4775209Y4463270D01*
X4774881Y4613255D01*
X4626209Y4612927D01*
X4624239Y4613583D01*
X4623583Y4616209D01*
X4624239Y4618834D01*
X4623911Y4683488D01*
X4624239Y4687099D01*
X4622599Y4688740D01*
X4549083Y4688083D01*
X4548098Y4687099D01*
X4548427Y4539739D01*
X4547770Y4537770D01*
X4545145Y4537114D01*
X4541863Y4537770D01*
X4539894Y4537114D01*
X4402380Y4537442D01*
X4398770Y4537114D01*
X4397129Y4538755D01*
X4396801Y4688740D01*
X4246488Y4688083D01*
X4245503Y4685130D01*
X4246160Y4683160D01*
X4246488Y4613255D01*
X4320660Y4612599D01*
X4321644Y4611614D01*
X4320988Y4462614D01*
X4320003Y4461629D01*
X4246488Y4460973D01*
X4245503Y4458675D01*
X4246160Y4456706D01*
X4245831Y4388114D01*
X4247144Y4386144D01*
X4321316Y4385488D01*
X4321973Y4310660D01*
X4397129Y4310331D01*
X4397785Y4235503D01*
X4472614Y4234847D01*
X4472942Y4159690D01*
X4547770Y4159034D01*
X4548755Y4156080D01*
X4548098Y4154111D01*
X4548755Y4009049D01*
X4549739Y4008065D01*
X4623911Y4008721D01*
X4624239Y4079283D01*
X4623583Y4081252D01*
X4624568Y4083549D01*
X4627193Y4084206D01*
X4629819Y4083549D01*
X4698740Y4084206D01*
X4699724Y4085190D01*
X4700052Y4159034D01*
X4702678Y4159690D01*
X4774224Y4159034D01*
X4775209Y4158049D01*
X4775865Y4084534D01*
X4776850Y4083549D01*
X5000350Y4083878D01*
X5001663Y4083221D01*
X5002319Y4080596D01*
X5001663Y4076001D01*
X5001991Y3937175D01*
X5001663Y3934221D01*
X5003304Y3932580D01*
X5153289Y3932252D01*
X5153945Y3857423D01*
X5304258Y3856767D01*
X5304586Y3781610D01*
X5377774Y3781282D01*
X5379743Y3781939D01*
X5380399Y3785221D01*
X5379743Y3787190D01*
X5380071Y3855126D01*
X5378758Y3857095D01*
X5304258Y3857423D01*
X5304915Y3932252D01*
X5454243Y3932580D01*
X5455884Y3930939D01*
X5455556Y3859064D01*
X5456869Y3857095D01*
X5530712Y3857423D01*
X5531369Y3860049D01*
X5530712Y4007736D01*
X5305571Y4008393D01*
X5304258Y4009705D01*
X5304915Y4083221D01*
X5307868Y4084206D01*
X5309837Y4083549D01*
X5379415Y4084206D01*
X5380399Y4087159D01*
X5379743Y4089129D01*
X5380071Y4157721D01*
X5379415Y4159034D01*
X5376789Y4159690D01*
X5306227Y4159362D01*
X5304258Y4160675D01*
X5303930Y4235175D01*
X5229102Y4235832D01*
X5228445Y4310003D01*
X5226476Y4310660D01*
X5077804Y4310988D01*
X5077476Y4384175D01*
X5078789Y4386144D01*
X5228445Y4386801D01*
X5228774Y4461301D01*
X5154602Y4461957D01*
X5153289Y4462614D01*
X5153945Y4536786D01*
X5154930Y4537770D01*
X5163463Y4537114D01*
X5227461Y4537442D01*
X5228774Y4536129D01*
X5229102Y4461629D01*
X5301633Y4461957D01*
X5303930Y4460973D01*
X5304586Y4387457D01*
X5305899Y4386144D01*
X5379415Y4386801D01*
X5380399Y4389755D01*
X5379743Y4391724D01*
X5379415Y4537114D01*
X5309509Y4537442D01*
X5305899Y4537114D01*
X5304258Y4538755D01*
X5303930Y4612599D01*
X5301304Y4613255D01*
X5230743Y4612927D01*
X5228774Y4614240D01*
X5229430Y4763896D01*
X5303274Y4764224D01*
X5304258Y4763240D01*
X5304915Y4689068D01*
X5379743Y4688412D01*
X5380399Y4537442D01*
X5526446Y4537114D01*
X5528415Y4537770D01*
X5531369Y4536129D01*
X5530712Y4462614D01*
X5529728Y4461629D01*
X5455884Y4461301D01*
X5455228Y4458019D01*
X5455884Y4456050D01*
X5455228Y4311644D01*
X5454243Y4310660D01*
X5305243Y4310003D01*
X5304258Y4309019D01*
X5304586Y4235175D01*
X5531369Y4234847D01*
X5531697Y4159690D01*
X5682338Y4159362D01*
X5682994Y4084534D01*
X5683979Y4083549D01*
X5757495Y4084206D01*
X5757823Y4158706D01*
X5754869Y4159690D01*
X5682338Y4160019D01*
X5682994Y4234190D01*
X5683979Y4235175D01*
X5757495Y4235832D01*
X5757823Y4310331D01*
X5606853Y4310988D01*
X5607510Y4461301D01*
X5610135Y4461957D01*
X5830354Y4461629D01*
X5831010Y4462286D01*
X5833308Y4461301D01*
X5833964Y4458675D01*
X5833308Y4454737D01*
X5833964Y4452768D01*
X5834292Y4386144D01*
X6060090Y4385488D01*
X6060746Y4311316D01*
X6062715Y4310660D01*
X6135903Y4310331D01*
X6136559Y4235503D01*
X6210731Y4234847D01*
X6212044Y4231565D01*
X6211387Y4229596D01*
X6211716Y4010034D01*
X6210403Y4008065D01*
X6135903Y4008393D01*
X6135246Y4083221D01*
X6132293Y4084206D01*
X6130323Y4083549D01*
X6060418Y4083878D01*
X6060090Y4234519D01*
X6057464Y4235175D01*
X5985262Y4235832D01*
X5984605Y4309347D01*
X5983949Y4310660D01*
X5833964Y4310331D01*
X5833636Y4085518D01*
X5834292Y4084206D01*
X5836918Y4083549D01*
X5907479Y4083878D01*
X5909449Y4082565D01*
X5909121Y3935205D01*
X5910105Y3932908D01*
X5984277Y3932252D01*
X5984933Y3930282D01*
X5984277Y3857423D01*
X5910105Y3856767D01*
X5908792Y3854141D01*
X5909449Y3852172D01*
X5908792Y3630969D01*
X5907808Y3629985D01*
X5835933Y3630313D01*
X5833964Y3629656D01*
X5833308Y3627031D01*
X5833964Y3622436D01*
X5834292Y3554500D01*
X5908792Y3554172D01*
X5909449Y3551546D01*
X5909777Y3479015D01*
X6135574Y3479672D01*
X6136231Y3629328D01*
X6139513Y3630641D01*
X6141482Y3629985D01*
X6209418Y3630313D01*
X6211387Y3629656D01*
X6212044Y3626375D01*
X6211387Y3624406D01*
X6211716Y3405500D01*
X6210403Y3403531D01*
X5909777Y3404187D01*
X5908792Y3406484D01*
X5909449Y3408453D01*
X5909121Y3479015D01*
X5834292Y3479672D01*
X5833308Y3480656D01*
X5833636Y3486236D01*
X5832979Y3554500D01*
X5757823Y3554828D01*
X5757166Y3629656D01*
X5754869Y3630641D01*
X5752900Y3629985D01*
X5682338Y3630313D01*
X5681682Y3705141D01*
X5680697Y3706126D01*
X5672164Y3705469D01*
X5608166Y3705798D01*
X5606853Y3704485D01*
X5607510Y3630969D01*
X5608494Y3629985D01*
X5682338Y3629656D01*
X5682666Y3554500D01*
X5757823Y3554172D01*
X5758151Y3481641D01*
X5757166Y3479344D01*
X5682666Y3479015D01*
X5682010Y3554500D01*
X5607182Y3553844D01*
X5606853Y3479344D01*
X5682338Y3478687D01*
X5681682Y3403859D01*
X5607838Y3403531D01*
X5606853Y3404515D01*
X5606525Y3479015D01*
X5456212Y3478359D01*
X5455228Y3475405D01*
X5455884Y3473436D01*
X5455228Y3403859D01*
X5154273Y3403531D01*
X5153289Y3404515D01*
X5153945Y3478687D01*
X5228117Y3479344D01*
X5228774Y3481313D01*
X5228445Y3629985D01*
X5153289Y3630313D01*
X5152961Y3705469D01*
X5077804Y3705141D01*
X5077476Y3632610D01*
X5078132Y3630641D01*
X5080758Y3629985D01*
X5153289Y3629656D01*
X5152632Y3555485D01*
X5151648Y3554500D01*
X4850694Y3554828D01*
X4850037Y3629656D01*
X4847740Y3630641D01*
X4845771Y3629985D01*
X4701693Y3630313D01*
X4699724Y3629000D01*
X4699068Y3479344D01*
X4472942Y3479015D01*
X4472285Y3553844D01*
X4470316Y3554500D01*
X4397457Y3553844D01*
X4397129Y3480000D01*
X4398114Y3479015D01*
X4472614Y3478687D01*
X4471957Y3403859D01*
X4322629Y3403531D01*
X4321644Y3404515D01*
X4320988Y3554172D01*
X4170019Y3554828D01*
X4170347Y3624734D01*
X4170019Y3628344D01*
X4171003Y3629985D01*
X4173957Y3630313D01*
X4395488Y3629985D01*
X4397129Y3631626D01*
X4396473Y3705141D01*
X4395488Y3706126D01*
X4386955Y3705469D01*
X4326239Y3705798D01*
X4323285Y3705469D01*
X4321644Y3707110D01*
X4321316Y3781610D01*
X4246160Y3781939D01*
X4245831Y3855126D01*
X4247144Y3857095D01*
X4321644Y3856767D01*
X4321973Y3781610D01*
X4394504Y3781282D01*
X4396801Y3782267D01*
X4397129Y3856111D01*
X4396144Y3857095D01*
X4321644Y3857423D01*
X4320988Y3932252D01*
X4171659Y3932580D01*
X4170019Y3930939D01*
X4170347Y3926016D01*
X4170019Y3788503D01*
X4170675Y3786533D01*
X4170019Y3784564D01*
X4170675Y3781939D01*
X4173301Y3781282D01*
X4245831Y3781610D01*
X4246160Y3707110D01*
X4245175Y3706126D01*
X4242550Y3705469D01*
X4239268Y3706126D01*
X4237298Y3705469D01*
X4119805D01*
X4096503Y3705798D01*
X4094534Y3704485D01*
X4094862Y3554500D01*
X4170019Y3554172D01*
X4170347Y3484266D01*
X4170019Y3480656D01*
X4171659Y3479015D01*
X4245175Y3478359D01*
X4246160Y3477374D01*
X4245503Y3403859D01*
X4095518Y3403531D01*
X4094534Y3406484D01*
X4094206Y3554500D01*
X4019377Y3555156D01*
X4019049Y3779970D01*
X4020690Y3781610D01*
X4092565Y3781282D01*
X4094534Y3782595D01*
X4093878Y3932252D01*
X4019705Y3932908D01*
X4019049Y3934877D01*
X4018393Y4083221D01*
X4015439Y4084206D01*
X4013470Y4083549D01*
X3943564Y4083878D01*
X3943236Y4159690D01*
X3868080Y4160019D01*
X3867751Y4235175D01*
X3792923Y4234519D01*
X3791939Y4231565D01*
X3792595Y4228939D01*
X3792923Y4159690D01*
X3868080Y4159362D01*
X3868408Y4084206D01*
X3871033Y4083549D01*
X3943564Y4083221D01*
X3942908Y4009049D01*
X3941924Y4008065D01*
X3565813Y4008721D01*
X3565485Y4082565D01*
X3566469Y4083549D01*
X3569095Y4084206D01*
X3571064Y4083549D01*
X3640641Y4084206D01*
X3641298Y4158378D01*
X3642610Y4159690D01*
X3716454Y4160019D01*
X3716782Y4232550D01*
X3715797Y4234847D01*
X3641626Y4235503D01*
X3640969Y4237472D01*
X3641626Y4461301D01*
X3644251Y4461957D01*
X3788985Y4461629D01*
X3789641Y4462286D01*
X3791939Y4461301D01*
X3792595Y4458675D01*
X3791939Y4455393D01*
X3792595Y4453424D01*
X3792267Y4391396D01*
X3792595Y4387785D01*
X3790954Y4386144D01*
X3717110Y4385816D01*
X3716454Y4383191D01*
X3717110Y4310988D01*
X3868080Y4310331D01*
X3868408Y4235175D01*
X3943564Y4234847D01*
X3943893Y4159690D01*
X4017080Y4159362D01*
X4019049Y4160675D01*
X4018721Y4234519D01*
X4016095Y4235175D01*
X3943564Y4235503D01*
X3942908Y4310331D01*
X3868080Y4310988D01*
X3867751Y4383519D01*
X3868736Y4385816D01*
X4093549Y4386144D01*
X4094534Y4385160D01*
X4095190Y4235503D01*
X4169690Y4235175D01*
X4170675Y4238129D01*
X4170019Y4240755D01*
X4169690Y4537114D01*
X3943564Y4536786D01*
X3942908Y4462614D01*
X3941924Y4461629D01*
X3868408Y4462286D01*
X3867751Y4464911D01*
X3868080Y4534160D01*
X3867423Y4534816D01*
X3868408Y4537114D01*
X3871033Y4537770D01*
X3875628Y4537114D01*
X3943236Y4537770D01*
X3943564Y4611614D01*
X3941924Y4613255D01*
X3870049Y4612927D01*
X3868080Y4614240D01*
X3867423Y4616209D01*
X3868080Y4618178D01*
X3867751Y4688740D01*
X3792595Y4689068D01*
X3792267Y4762912D01*
X3793580Y4764224D01*
X3868080Y4763896D01*
X3868408Y4688740D01*
X4169690Y4689396D01*
X4170675Y4690381D01*
X4170019Y4696945D01*
X4169690Y4764224D01*
X3868080Y4764553D01*
X3867751Y4837084D01*
X3868736Y4839381D01*
X4169034Y4839709D01*
X4170675Y4838068D01*
X4170019Y4829535D01*
X4170347Y4764224D01*
X4245175Y4764881D01*
X4246160Y4765865D01*
X4245831Y4913225D01*
X4246488Y4915194D01*
X4249442Y4915522D01*
X4321644Y4914866D01*
X4322301Y4764553D01*
X4396473Y4763896D01*
X4397129Y4761927D01*
X4397457Y4688740D01*
X4472285Y4689396D01*
X4472614Y4838724D01*
X4471629Y4839709D01*
X4397457Y4840365D01*
X4396801Y4914537D01*
X4393519Y4915850D01*
X4391550Y4915194D01*
X4321644Y4915522D01*
X4321973Y5066163D01*
X4324598Y5066820D01*
X4472285Y5066163D01*
X4472942Y4991991D01*
X4476224Y4990678D01*
X4478850Y4991335D01*
X4546786Y4991007D01*
X4548098Y4991663D01*
X4548427Y4994617D01*
X4548098Y5065179D01*
X4549739Y5066820D01*
X4624239Y5066491D01*
D02*
G37*
G36*
X4926178D02*
X4925850Y4991335D01*
X4923225Y4990678D01*
X4918630Y4991335D01*
X4869401D01*
X4852663Y4991007D01*
X4850694Y4992319D01*
X4851350Y5065835D01*
X4852335Y5066820D01*
X4926178Y5066491D01*
D02*
G37*
G36*
X3489344Y5217461D02*
X3490000Y5214835D01*
X3490656Y5142633D01*
X3564828Y5141976D01*
X3565485Y5140007D01*
X3565813Y5066820D01*
X3640641Y5067476D01*
X3641298Y5140991D01*
X3642610Y5142304D01*
X3716454Y5141976D01*
X3717110Y5067148D01*
X3791282Y5066491D01*
X3792595Y5063209D01*
X3792267Y5060256D01*
X3792923Y4991335D01*
X3938313Y4991007D01*
X3941924Y4991335D01*
X3943564Y4989694D01*
X3942908Y4916178D01*
X3941924Y4915194D01*
X3792595Y4914866D01*
X3792267Y4844960D01*
X3792595Y4841350D01*
X3790954Y4839709D01*
X3717439Y4840365D01*
X3716454Y4841350D01*
X3717110Y4914866D01*
X3720064Y4915850D01*
X3722033Y4915194D01*
X3792267Y4915850D01*
X3792595Y4990350D01*
X3791610Y4991335D01*
X3646220Y4991007D01*
X3642610Y4991335D01*
X3640969Y4989694D01*
X3641626Y4764553D01*
X3715797Y4763896D01*
X3717110Y4760614D01*
X3716454Y4758645D01*
Y4705478D01*
Y4704821D01*
X3717110Y4689068D01*
X3792595Y4688412D01*
X3792267Y4617850D01*
X3792595Y4614896D01*
X3791610Y4613255D01*
X3788657Y4612927D01*
X3718095Y4613255D01*
X3716454Y4611614D01*
X3716782Y4539739D01*
X3716126Y4537770D01*
X3713500Y4537114D01*
X3710218Y4537770D01*
X3708249Y4537114D01*
X3646220Y4537442D01*
X3642610Y4537114D01*
X3640969Y4538755D01*
X3640641Y4612599D01*
X3638016Y4613255D01*
X3491969Y4612927D01*
X3490000Y4614240D01*
X3489672Y4688740D01*
X3414843Y4689396D01*
X3413859Y4692350D01*
X3414515Y4694319D01*
X3414187Y4913881D01*
X3414843Y4915194D01*
X3417797Y4915522D01*
X3488359Y4915194D01*
X3490000Y4916835D01*
X3490328Y4990678D01*
X3492954Y4991335D01*
X3496236Y4990678D01*
X3498205Y4991335D01*
X3563515Y4991007D01*
X3565485Y4992319D01*
X3565156Y5066820D01*
X3414515Y5067148D01*
X3413859Y5070430D01*
X3414515Y5072399D01*
X3414187Y5215820D01*
X3415500Y5217789D01*
X3489344Y5217461D01*
D02*
G37*
G36*
X5757823Y4838724D02*
X5758151Y4836427D01*
X5757823Y4834786D01*
Y4834130D01*
X5758151Y4766850D01*
X5757166Y4764553D01*
X5683323Y4764224D01*
X5682338Y4765209D01*
X5682994Y4839381D01*
X5756838Y4839709D01*
X5757823Y4838724D01*
D02*
G37*
G36*
X5455884Y4763896D02*
X5455228Y4689068D01*
X5420767Y4688740D01*
X5420111D01*
X5379743Y4689068D01*
X5380399Y4763240D01*
X5381384Y4764224D01*
X5455884Y4763896D01*
D02*
G37*
G36*
X5077804Y4688412D02*
X5077148Y4613583D01*
X5074194Y4612599D01*
X5072225Y4613255D01*
X5004289Y4612927D01*
X5002319Y4613583D01*
X5001663Y4616209D01*
X5002319Y4619491D01*
X5001663Y4621460D01*
Y4647715D01*
Y4648372D01*
X5001991Y4683488D01*
X5001663Y4687099D01*
X5003304Y4688740D01*
X5077804Y4688412D01*
D02*
G37*
G36*
X3422064Y4537114D02*
X3465385D01*
X3563515Y4537442D01*
X3565485Y4536129D01*
X3564828Y4462614D01*
X3563844Y4461629D01*
X3414843Y4462286D01*
X3413859Y4465239D01*
X3414515Y4467208D01*
X3414187Y4535801D01*
X3414843Y4537114D01*
X3417469Y4537770D01*
X3422064Y4537114D01*
D02*
G37*
G36*
X5606853Y4236160D02*
X5605869Y4235175D01*
X5531369Y4235503D01*
Y4255195D01*
Y4255851D01*
X5532025Y4310331D01*
X5606525Y4310660D01*
X5606853Y4236160D01*
D02*
G37*
G36*
X3489672Y4385488D02*
X3490328Y4311316D01*
X3492297Y4310660D01*
X3565156Y4310003D01*
X3565485Y4236160D01*
X3564500Y4235175D01*
X3490328Y4234519D01*
X3489672Y4009377D01*
X3488359Y4008065D01*
X3414843Y4008721D01*
X3413859Y4011675D01*
X3414515Y4013644D01*
Y4192838D01*
Y4193495D01*
X3414187Y4384175D01*
X3415500Y4386144D01*
X3489672Y4385488D01*
D02*
G37*
G36*
X5228445Y4007408D02*
X5228774Y3933564D01*
X5227789Y3932580D01*
X5153289Y3932908D01*
X5153945Y4007736D01*
X5161494Y4008065D01*
X5162150D01*
X5228445Y4007408D01*
D02*
G37*
G36*
X5990513Y4083549D02*
X6060418Y4083221D01*
X6060746Y4008065D01*
X6135903Y4007736D01*
X6136559Y3933564D01*
X6137544Y3932580D01*
X6211059Y3931924D01*
X6212044Y3928970D01*
X6211387Y3927001D01*
X6211716Y3783580D01*
X6211059Y3781610D01*
X6208105Y3781282D01*
X6060418Y3781939D01*
Y3941441D01*
Y3942098D01*
X6060090Y4008065D01*
X5985262Y4008721D01*
X5984933Y4082565D01*
X5985918Y4083549D01*
X5988544Y4084206D01*
X5990513Y4083549D01*
D02*
G37*
G36*
X6060418Y3781282D02*
X6059762Y3706454D01*
X6058777Y3705469D01*
X6053198Y3705798D01*
X6027927Y3705469D01*
X6027270D01*
X5989528Y3705798D01*
X5986574Y3705469D01*
X5984933Y3707110D01*
X5985262Y3780954D01*
X5987887Y3781610D01*
X6060418Y3781282D01*
D02*
G37*
G36*
X5076819Y3478359D02*
X5077804Y3477374D01*
X5077148Y3403859D01*
X5047938Y3403531D01*
X5047282D01*
X5002319Y3403859D01*
X5001663Y3406484D01*
X5002319Y3409766D01*
X5001663Y3411736D01*
X5001991Y3474421D01*
X5001663Y3477374D01*
X5003304Y3479015D01*
X5076819Y3478359D01*
D02*
G37*
G36*
X4850694Y3554172D02*
X4851022Y3479015D01*
X4925850Y3478359D01*
X4926178Y3404515D01*
X4925194Y3403531D01*
X4851022Y3404187D01*
X4850365Y3479015D01*
X4775537Y3479672D01*
X4775209Y3553515D01*
X4776193Y3554500D01*
X4784070D01*
X4850694Y3554172D01*
D02*
G37*
G36*
X3943236Y3931924D02*
X3943564Y3404515D01*
X3942580Y3403531D01*
X3414843Y3404187D01*
X3413859Y3407141D01*
X3414515Y3409110D01*
X3414187Y3930611D01*
X3415500Y3932580D01*
X3843465D01*
X3943236Y3931924D01*
D02*
G37*
%LPC*%
G36*
X5000678Y5973949D02*
X4927163Y5973292D01*
X4926178Y5972308D01*
Y5948678D01*
Y5948021D01*
X4926835Y5898792D01*
X4929460Y5898136D01*
X4998709Y5898464D01*
X4999366Y5897808D01*
X5001663Y5898792D01*
X5002319Y5901418D01*
X5001663Y5906013D01*
X5001991Y5971980D01*
X5000678Y5973949D01*
D02*
G37*
G36*
X4998709Y5822979D02*
X4996084Y5822323D01*
X4928148Y5822651D01*
X4926178Y5821338D01*
X4926507Y5746838D01*
X5001663Y5747167D01*
Y5778673D01*
Y5779330D01*
X5001991Y5821010D01*
X5001335Y5822323D01*
X4998709Y5822979D01*
D02*
G37*
G36*
X4773568Y5520384D02*
X4624568Y5519728D01*
X4623583Y5516774D01*
X4624239Y5514148D01*
X4624568Y5444899D01*
X4707273D01*
X4773240Y5444571D01*
X4775209Y5445884D01*
X4774553Y5519400D01*
X4773568Y5520384D01*
D02*
G37*
G36*
X5301304Y5898464D02*
X5078132Y5897808D01*
X5077148Y5894854D01*
X5077804Y5892885D01*
X5078132Y5746838D01*
X5151320Y5747167D01*
X5153289Y5745854D01*
X5153617Y5671354D01*
X5228774Y5671025D01*
X5229102Y5520384D01*
X5303930Y5521041D01*
X5304586Y5594556D01*
X5305899Y5595869D01*
X5379743Y5595541D01*
X5380399Y5445228D01*
X5383353Y5444243D01*
X5385322Y5444899D01*
X5529400Y5444571D01*
X5531369Y5445884D01*
X5532025Y5520056D01*
X5606525Y5520384D01*
X5607182Y5293930D01*
X5609807Y5293274D01*
X5682010Y5293930D01*
X5682666Y5443587D01*
X5683979Y5444899D01*
X5757823Y5444571D01*
X5758479Y5369743D01*
X5759464Y5368758D01*
X5832979Y5369415D01*
X5833964Y5372368D01*
X5833308Y5376963D01*
X5832979Y5444899D01*
X5757823Y5445228D01*
X5757166Y5520056D01*
X5606853Y5520712D01*
X5606525Y5595869D01*
X5551388D01*
X5531697Y5596525D01*
X5531040Y5746182D01*
X5528415Y5747495D01*
X5526446Y5746838D01*
X5455884Y5746510D01*
X5455228Y5596853D01*
X5454243Y5595869D01*
X5379743Y5596197D01*
X5380399Y5746510D01*
X5383353Y5747495D01*
X5385322Y5746838D01*
X5455556Y5747495D01*
X5455884Y5821995D01*
X5311479Y5822651D01*
X5309837Y5822979D01*
X5307868Y5822323D01*
X5305243Y5822979D01*
X5304258Y5823964D01*
X5303930Y5897808D01*
X5301304Y5898464D01*
D02*
G37*
G36*
X5376789Y5369415D02*
X5374163Y5368758D01*
X5316401D01*
X5306227Y5369087D01*
X5304258Y5367774D01*
X5304586Y5293274D01*
X5379415Y5293930D01*
X5380399Y5296884D01*
X5379743Y5298853D01*
X5380071Y5366789D01*
X5379415Y5368758D01*
X5376789Y5369415D01*
D02*
G37*
G36*
X5464745Y5217789D02*
X5464089D01*
X5380728Y5217133D01*
X5379743Y5216148D01*
X5380399Y5142633D01*
X5605869Y5142304D01*
X5606853Y5143289D01*
X5606197Y5217461D01*
X5464745Y5217789D01*
D02*
G37*
G36*
X5076163Y5142304D02*
X5061066D01*
X5001991Y5141648D01*
X5001663Y5067804D01*
X5002648Y5066820D01*
X5077804Y5066491D01*
X5077476Y4993304D01*
X5078132Y4991335D01*
X5080758Y4990678D01*
X5083384Y4991335D01*
X5151320Y4991007D01*
X5153289Y4992319D01*
X5152632Y5065835D01*
X5151648Y5066820D01*
X5077804Y5067148D01*
X5077148Y5141320D01*
X5076163Y5142304D01*
D02*
G37*
G36*
X5834948Y5217789D02*
X5833308Y5216148D01*
X5833964Y5207615D01*
X5834292Y4991335D01*
X5904197Y4991007D01*
X5907151Y4991335D01*
X5909449Y4989694D01*
X5909777Y4915194D01*
X5983949Y4915850D01*
X5984933Y4916835D01*
X5985590Y4990350D01*
X5986574Y4991335D01*
X5991497Y4991007D01*
X6130980Y4991335D01*
X6132949Y4990678D01*
X6134918Y4991335D01*
X6135903Y4992319D01*
Y5002165D01*
Y5002822D01*
X6135574Y5066163D01*
X6132949Y5066820D01*
X6060746Y5067476D01*
X6060090Y5142304D01*
X5985262Y5141648D01*
X5984605Y5067476D01*
X5982636Y5066820D01*
X5909777Y5067476D01*
X5908792Y5069773D01*
X5909449Y5071742D01*
X5908792Y5217461D01*
X5834948Y5217789D01*
D02*
G37*
%LPD*%
G36*
X5233696Y5746838D02*
X5302289Y5747167D01*
X5304258Y5745854D01*
Y5737321D01*
Y5736664D01*
X5303602Y5671682D01*
X5229102Y5671354D01*
X5228774Y5745854D01*
X5229758Y5746838D01*
X5231727Y5747495D01*
X5233696Y5746838D01*
D02*
G37*
%LPC*%
G36*
X5758807Y6124918D02*
X5757823Y6121964D01*
X5758479Y5747823D01*
X5759464Y5746838D01*
X6135574Y5747495D01*
X6135903Y6099647D01*
Y6100304D01*
X6135246Y6124590D01*
X5758807Y6124918D01*
D02*
G37*
%LPD*%
G36*
X6060090Y6048777D02*
X6060418Y5823964D01*
X6058777Y5822323D01*
X6053198Y5822651D01*
X5840856Y5822323D01*
X5838887Y5822979D01*
X5836918Y5822323D01*
X5834292Y5822979D01*
X5833308Y5825933D01*
X5833964Y5829215D01*
X5833308Y5831184D01*
X5833964Y6042541D01*
Y6043198D01*
X5833308Y6047793D01*
X5834948Y6049433D01*
X6060090Y6048777D01*
D02*
G37*
%LPC*%
G36*
X3490984Y6124918D02*
X3490000Y6123934D01*
X3490328Y5747495D01*
X3492954Y5746838D01*
X3574346D01*
X3867095Y5747495D01*
X3868080Y5748479D01*
X3867423Y6124590D01*
X3490984Y6124918D01*
D02*
G37*
%LPD*%
G36*
X3792595Y6047793D02*
X3792267Y6042870D01*
X3792595Y5936863D01*
Y5936206D01*
X3792267Y5827574D01*
X3792595Y5824620D01*
X3791610Y5822979D01*
X3788985Y5822323D01*
X3785703Y5822979D01*
X3783734Y5822323D01*
X3570079Y5822651D01*
X3567125Y5822323D01*
X3565485Y5823964D01*
X3566141Y6049105D01*
X3790954Y6049433D01*
X3792595Y6047793D01*
D02*
G37*
%LPC*%
G36*
X4169690Y5595869D02*
X4095518Y5595213D01*
X4094534Y5594228D01*
X4095190Y5520712D01*
X4102739Y5520384D01*
X4103395D01*
X4169690Y5521041D01*
X4170675Y5522025D01*
X4170019Y5528589D01*
X4169690Y5595869D01*
D02*
G37*
G36*
X4626209Y4915522D02*
X4624239Y4914866D01*
X4623583Y4912240D01*
X4624239Y4909615D01*
X4623911Y4844960D01*
X4624239Y4841350D01*
X4622599Y4839709D01*
X4548755Y4839381D01*
X4548098Y4836755D01*
X4548755Y4765209D01*
X4549739Y4764224D01*
X4699724Y4763896D01*
X4700381Y4689068D01*
X4773896Y4688412D01*
X4775209Y4687099D01*
X4775537Y4613255D01*
X4848724Y4612927D01*
X4850694Y4614240D01*
Y4670033D01*
Y4670689D01*
X4850037Y4763896D01*
X4699724Y4764553D01*
X4699396Y4915194D01*
X4626209Y4915522D01*
D02*
G37*
G36*
X4245831Y4613255D02*
X4171003Y4612599D01*
X4170019Y4609645D01*
X4170347Y4606691D01*
X4170019Y4538098D01*
X4171003Y4537114D01*
X4210387D01*
X4240908Y4537442D01*
X4243862Y4537114D01*
X4246160Y4538755D01*
X4245831Y4613255D01*
D02*
G37*
G36*
X5832979Y4386144D02*
X5758479Y4385816D01*
X5757823Y4383191D01*
Y4345120D01*
Y4344464D01*
X5758151Y4310660D01*
X5833308Y4310988D01*
X5832979Y4386144D01*
D02*
G37*
G36*
X4247144Y4310660D02*
X4246160Y4309675D01*
X4245503Y4307050D01*
X4246160Y4305081D01*
Y4253226D01*
Y4252569D01*
X4245831Y4237144D01*
X4247144Y4235175D01*
X4321316Y4235832D01*
X4321644Y4310331D01*
X4247144Y4310660D01*
D02*
G37*
G36*
X5531040Y4159690D02*
X5456212Y4159034D01*
X5455228Y4156080D01*
X5455884Y4153455D01*
X5455556Y4085518D01*
X5456212Y4084206D01*
X5458838Y4083549D01*
X5530384Y4084206D01*
X5531369Y4085190D01*
Y4152142D01*
Y4152798D01*
X5531040Y4159690D01*
D02*
G37*
G36*
X4472285D02*
X4398114Y4159034D01*
X4397129Y4158049D01*
X4397785Y4084534D01*
X4398770Y4083549D01*
X4470316D01*
X4472614Y4084534D01*
X4472285Y4159690D01*
D02*
G37*
G36*
X3726628D02*
X3725972D01*
X3716782Y4159034D01*
X3716454Y4085190D01*
X3718095Y4083549D01*
X3791610Y4084206D01*
X3792595Y4087159D01*
X3791939Y4090441D01*
X3792595Y4092411D01*
X3791939Y4159362D01*
X3726628Y4159690D01*
D02*
G37*
G36*
X4320003D02*
X4095518Y4159034D01*
X4094534Y4158049D01*
X4095190Y4009049D01*
X4096175Y4008065D01*
X4169690Y4008721D01*
X4170675Y4011675D01*
X4170019Y4014300D01*
X4170347Y4078298D01*
X4170019Y4081908D01*
X4171003Y4083549D01*
X4173629Y4084206D01*
X4176254Y4083549D01*
X4244190Y4083878D01*
X4245503Y4083221D01*
X4246160Y4080596D01*
X4245831Y4010034D01*
X4247144Y4008065D01*
X4320660Y4008721D01*
X4321644Y4009705D01*
Y4055653D01*
Y4056309D01*
X4320988Y4158706D01*
X4320003Y4159690D01*
D02*
G37*
G36*
X4925194Y4008065D02*
X4775537Y4007408D01*
X4774881Y3933236D01*
X4772911Y3932580D01*
X4700052Y3933236D01*
X4699396Y4006752D01*
X4698740Y4008065D01*
X4624239Y4007736D01*
X4623911Y3859064D01*
X4625224Y3857095D01*
X4698083D01*
X4698411Y3856767D01*
X4699724Y3855454D01*
X4700052Y3781610D01*
X4772583Y3781282D01*
X4774881Y3782267D01*
X4775537Y3856439D01*
X4777506Y3857095D01*
X4850365Y3857751D01*
X4851022Y3931924D01*
X4852991Y3932580D01*
X4925850Y3933236D01*
X4926178Y4007080D01*
X4925194Y4008065D01*
D02*
G37*
G36*
X4398114D02*
X4397129Y4007080D01*
Y4006424D01*
X4397785Y3932908D01*
X4471629Y3932580D01*
X4472614Y3933564D01*
X4471957Y4007736D01*
X4398114Y4008065D01*
D02*
G37*
G36*
X5832323D02*
X5678071D01*
X5607182Y4007408D01*
X5606853Y3782595D01*
X5607838Y3781610D01*
X5610135Y3781282D01*
X5830354Y3781610D01*
X5831010Y3780954D01*
X5833308Y3781939D01*
X5833964Y3784564D01*
X5833308Y3789159D01*
X5833636Y4006752D01*
X5832323Y4008065D01*
D02*
G37*
G36*
X4547114Y3857095D02*
X4473598Y3856439D01*
X4472614Y3855454D01*
Y3804256D01*
Y3803599D01*
X4473270Y3781939D01*
X4475896Y3781282D01*
X4544488Y3781610D01*
X4545801Y3780954D01*
X4548098Y3781939D01*
X4548427Y3784892D01*
X4548098Y3852829D01*
X4548755Y3854798D01*
X4547114Y3857095D01*
D02*
G37*
G36*
X4699396Y3781610D02*
X4624568Y3780954D01*
X4623583Y3778000D01*
X4624239Y3775375D01*
X4624568Y3706126D01*
X4697755Y3705798D01*
X4699724Y3707110D01*
Y3711705D01*
Y3712362D01*
X4699396Y3781610D01*
D02*
G37*
G36*
X5452274Y3706126D02*
X5447679Y3705469D01*
X5381712Y3705798D01*
X5380399Y3705141D01*
X5379743Y3702516D01*
Y3690701D01*
Y3690044D01*
X5380399Y3630969D01*
X5381384Y3629985D01*
X5455556Y3630641D01*
X5455884Y3703829D01*
X5454899Y3705469D01*
X5452274Y3706126D01*
D02*
G37*
G36*
X5076163Y3781610D02*
X4927163Y3780954D01*
X4926178Y3779970D01*
Y3753714D01*
Y3753058D01*
X4926835Y3706454D01*
X4929788Y3705469D01*
X4932414Y3706126D01*
X5077804Y3706454D01*
X5077148Y3780626D01*
X5076163Y3781610D01*
D02*
G37*
G36*
X5243542D02*
X5242886D01*
X5153617Y3780954D01*
X5153289Y3706454D01*
X5221553Y3705798D01*
X5223851Y3705469D01*
X5225820Y3706126D01*
X5227789Y3705469D01*
X5228774Y3704485D01*
X5229102Y3629985D01*
X5303930Y3630641D01*
X5304258Y3781282D01*
X5243542Y3781610D01*
D02*
G37*
G36*
X5528087Y3630313D02*
X5455884Y3629656D01*
X5455556Y3556469D01*
X5456869Y3554500D01*
X5530384Y3555156D01*
X5531369Y3556141D01*
Y3607339D01*
Y3607996D01*
X5530712Y3629656D01*
X5528087Y3630313D01*
D02*
G37*
G36*
X4550396Y3706126D02*
X4548098Y3704485D01*
Y3697265D01*
Y3696608D01*
X4548755Y3555485D01*
X4549739Y3554500D01*
X4623255Y3555156D01*
X4624239Y3556141D01*
X4623911Y3561064D01*
X4624239Y3705141D01*
X4552693Y3705798D01*
X4550396Y3706126D01*
D02*
G37*
G36*
X5378758Y3554500D02*
X5304586Y3553844D01*
X5304258Y3480656D01*
X5305243Y3479015D01*
X5379415Y3479672D01*
X5380399Y3482625D01*
X5379743Y3484595D01*
Y3499692D01*
Y3500348D01*
X5380071Y3552531D01*
X5378758Y3554500D01*
D02*
G37*
%LPD*%
G36*
X5757823Y3931595D02*
X5758151Y3929298D01*
X5757823Y3917811D01*
Y3917155D01*
X5758151Y3859721D01*
X5757166Y3857423D01*
X5683323Y3857095D01*
X5682338Y3858080D01*
X5682994Y3932252D01*
X5756838Y3932580D01*
X5757823Y3931595D01*
D02*
G37*
%LPC*%
G36*
X3490984Y4839709D02*
X3490000Y4838724D01*
X3490328Y4688740D01*
X3565156Y4689396D01*
X3565485Y4727795D01*
Y4728451D01*
X3564828Y4839381D01*
X3490984Y4839709D01*
D02*
G37*
G36*
X3866439Y3857095D02*
X3490328Y3856439D01*
X3490000Y3480000D01*
X3490984Y3479015D01*
X3867095Y3479672D01*
X3868080Y3480656D01*
Y3619811D01*
Y3620467D01*
X3867423Y3856111D01*
X3866439Y3857095D01*
D02*
G37*
%LPD*%
G36*
X3791610Y3780954D02*
X3792595Y3778000D01*
X3792267Y3775047D01*
X3792595Y3679542D01*
Y3678886D01*
X3792267Y3559751D01*
X3792595Y3556141D01*
X3790954Y3554500D01*
X3565813Y3555156D01*
X3565485Y3779970D01*
X3567125Y3781610D01*
X3791610Y3780954D01*
D02*
G37*
D134*
X12927258Y10652579D02*
Y10852514D01*
X12827292D01*
X12793969Y10819191D01*
Y10752546D01*
X12827292Y10719224D01*
X12927258D01*
X12860614D02*
X12793969Y10652579D01*
X12594033Y10852514D02*
X12727324D01*
Y10652579D01*
X12594033D01*
X12727324Y10752546D02*
X12660679D01*
X12527388Y10852514D02*
Y10719224D01*
X12460743Y10652579D01*
X12394098Y10719224D01*
Y10852514D01*
X12327453D02*
X12260808D01*
X12294130D01*
Y10652579D01*
X12327453D01*
X12260808D01*
X12027549Y10819191D02*
X12060872Y10852514D01*
X12127517D01*
X12160840Y10819191D01*
Y10785869D01*
X12127517Y10752546D01*
X12060872D01*
X12027549Y10719224D01*
Y10685901D01*
X12060872Y10652579D01*
X12127517D01*
X12160840Y10685901D01*
X11960904Y10852514D02*
X11894259D01*
X11927582D01*
Y10652579D01*
X11960904D01*
X11894259D01*
X11694324Y10852514D02*
X11760969D01*
X11794291Y10819191D01*
Y10685901D01*
X11760969Y10652579D01*
X11694324D01*
X11661001Y10685901D01*
Y10819191D01*
X11694324Y10852514D01*
X11594356Y10652579D02*
Y10852514D01*
X11461065Y10652579D01*
Y10852514D01*
X7573969Y10809192D02*
X7607292Y10842515D01*
X7673937D01*
X7707259Y10809192D01*
Y10775869D01*
X7673937Y10742547D01*
X7607292D01*
X7573969Y10709224D01*
Y10675901D01*
X7607292Y10642579D01*
X7673937D01*
X7707259Y10675901D01*
X7374034Y10842515D02*
X7507324D01*
Y10642579D01*
X7374034D01*
X7507324Y10742547D02*
X7440679D01*
X7307388Y10642579D02*
Y10842515D01*
X7207420D01*
X7174098Y10809192D01*
Y10742547D01*
X7207420Y10709224D01*
X7307388D01*
X7240743D02*
X7174098Y10642579D01*
X7107453Y10842515D02*
X7040808D01*
X7074130D01*
Y10642579D01*
X7107453D01*
X7040808D01*
X6940840D02*
Y10775869D01*
X6874195Y10842515D01*
X6807550Y10775869D01*
Y10642579D01*
Y10742547D01*
X6940840D01*
X6740904Y10842515D02*
Y10642579D01*
X6607614D01*
X6341033D02*
Y10842515D01*
X6207743Y10642579D01*
Y10842515D01*
X6141097D02*
Y10675901D01*
X6107775Y10642579D01*
X6041130D01*
X6007807Y10675901D01*
Y10842515D01*
X5941162Y10642579D02*
Y10842515D01*
X5874517Y10775869D01*
X5807872Y10842515D01*
Y10642579D01*
X5741226Y10842515D02*
Y10642579D01*
X5641258D01*
X5607936Y10675901D01*
Y10709224D01*
X5641258Y10742547D01*
X5741226D01*
X5641258D01*
X5607936Y10775869D01*
Y10809192D01*
X5641258Y10842515D01*
X5741226D01*
X5408000D02*
X5541291D01*
Y10642579D01*
X5408000D01*
X5541291Y10742547D02*
X5474646D01*
X5341355Y10642579D02*
Y10842515D01*
X5241387D01*
X5208065Y10809192D01*
Y10742547D01*
X5241387Y10709224D01*
X5341355D01*
X5274710D02*
X5208065Y10642579D01*
X14466710Y4036613D02*
X14500032Y4069935D01*
X14566676D01*
X14600000Y4036613D01*
Y3903322D01*
X14566676Y3870000D01*
X14500032D01*
X14466710Y3903322D01*
X14400064Y3870000D02*
Y4069935D01*
X14300098D01*
X14266774Y4036613D01*
Y3969968D01*
X14300098Y3936645D01*
X14400064D01*
X14066840Y4036613D02*
X14100162Y4069935D01*
X14166806D01*
X14200130Y4036613D01*
Y3903322D01*
X14166806Y3870000D01*
X14100162D01*
X14066840Y3903322D01*
X14000192Y3969968D02*
X13866904D01*
X13800258Y4069935D02*
Y3903322D01*
X13766936Y3870000D01*
X13700290D01*
X13666966Y3903322D01*
Y4069935D01*
X13600322Y3870000D02*
Y4069935D01*
X13467032Y3870000D01*
Y4069935D01*
X13400386D02*
X13333742D01*
X13367064D01*
Y3870000D01*
X13400386D01*
X13333742D01*
X13100484Y4069935D02*
X13233774D01*
Y3969968D01*
X13167130D01*
X13233774D01*
Y3870000D01*
X12900548Y4069935D02*
X13033838D01*
Y3870000D01*
X12900548D01*
X13033838Y3969968D02*
X12967194D01*
X12833902Y4069935D02*
X12767257D01*
X12800580D01*
Y3870000D01*
X12833902D01*
X12767257D01*
X12667290Y4003290D02*
X12633967D01*
Y3969968D01*
X12667290D01*
Y4003290D01*
Y3903322D02*
X12633967D01*
Y3870000D01*
X12667290D01*
Y3903322D01*
X12200773Y4069935D02*
X12267419D01*
X12300741Y4036613D01*
Y3903322D01*
X12267419Y3870000D01*
X12200773D01*
X12167451Y3903322D01*
Y4036613D01*
X12200773Y4069935D01*
X12100806Y3870000D02*
Y4069935D01*
X12000838D01*
X11967515Y4036613D01*
Y3969968D01*
X12000838Y3936645D01*
X12100806D01*
X11767580Y4069935D02*
X11900870D01*
Y3870000D01*
X11767580D01*
X11900870Y3969968D02*
X11834225D01*
X11700934Y3870000D02*
Y4069935D01*
X11567644Y3870000D01*
Y4069935D01*
X11167773Y4036613D02*
X11201095Y4069935D01*
X11267741D01*
X11301063Y4036613D01*
Y4003290D01*
X11267741Y3969968D01*
X11201095D01*
X11167773Y3936645D01*
Y3903322D01*
X11201095Y3870000D01*
X11267741D01*
X11301063Y3903322D01*
X11001160Y4069935D02*
X11067805D01*
X11101128Y4036613D01*
Y3903322D01*
X11067805Y3870000D01*
X11001160D01*
X10967837Y3903322D01*
Y4036613D01*
X11001160Y4069935D01*
X10901192D02*
Y3903322D01*
X10867870Y3870000D01*
X10801224D01*
X10767902Y3903322D01*
Y4069935D01*
X10701256Y3870000D02*
Y4069935D01*
X10601289D01*
X10567966Y4036613D01*
Y3969968D01*
X10601289Y3936645D01*
X10701256D01*
X10634611D02*
X10567966Y3870000D01*
X10368031Y4036613D02*
X10401353Y4069935D01*
X10467998D01*
X10501321Y4036613D01*
Y3903322D01*
X10467998Y3870000D01*
X10401353D01*
X10368031Y3903322D01*
X10168095Y4069935D02*
X10301385D01*
Y3870000D01*
X10168095D01*
X10301385Y3969968D02*
X10234740D01*
X9901514Y3870000D02*
Y4069935D01*
X9801546D01*
X9768224Y4036613D01*
Y3969968D01*
X9801546Y3936645D01*
X9901514D01*
X9701579Y3870000D02*
Y4069935D01*
X9601611D01*
X9568288Y4036613D01*
Y3969968D01*
X9601611Y3936645D01*
X9701579D01*
X9634933D02*
X9568288Y3870000D01*
X9401675Y4069935D02*
X9468320D01*
X9501643Y4036613D01*
Y3903322D01*
X9468320Y3870000D01*
X9401675D01*
X9368353Y3903322D01*
Y4036613D01*
X9401675Y4069935D01*
X9301707D02*
X9168417D01*
X9235062D01*
Y3870000D01*
X8968481Y4069935D02*
X9101772D01*
Y3870000D01*
X8968481D01*
X9101772Y3969968D02*
X9035127D01*
X8768546Y4036613D02*
X8801868Y4069935D01*
X8868514D01*
X8901836Y4036613D01*
Y3903322D01*
X8868514Y3870000D01*
X8801868D01*
X8768546Y3903322D01*
X8701901Y4069935D02*
X8568610D01*
X8635256D01*
Y3870000D01*
X8501965Y4069935D02*
X8435320D01*
X8468642D01*
Y3870000D01*
X8501965D01*
X8435320D01*
X8235384Y4069935D02*
X8302030D01*
X8335352Y4036613D01*
Y3903322D01*
X8302030Y3870000D01*
X8235384D01*
X8202062Y3903322D01*
Y4036613D01*
X8235384Y4069935D01*
X8135417Y3870000D02*
Y4069935D01*
X8002126Y3870000D01*
Y4069935D01*
X7735545Y3870000D02*
Y4069935D01*
X7635578D01*
X7602255Y4036613D01*
Y3969968D01*
X7635578Y3936645D01*
X7735545D01*
X7668900D02*
X7602255Y3870000D01*
X7402319Y4069935D02*
X7535610D01*
Y3870000D01*
X7402319D01*
X7535610Y3969968D02*
X7468965D01*
X7335674Y4069935D02*
Y3870000D01*
X7202384D01*
X7135739D02*
Y4003290D01*
X7069094Y4069935D01*
X7002448Y4003290D01*
Y3870000D01*
Y3969968D01*
X7135739D01*
X6935803Y4069935D02*
Y4036613D01*
X6869158Y3969968D01*
X6802513Y4036613D01*
Y4069935D01*
X6869158Y3969968D02*
Y3870000D01*
X12040000Y3679935D02*
Y3480000D01*
X11940032D01*
X11906710Y3513322D01*
Y3646613D01*
X11940032Y3679935D01*
X12040000D01*
X11706774D02*
X11840064D01*
Y3480000D01*
X11706774D01*
X11840064Y3579968D02*
X11773419D01*
X11506839Y3646613D02*
X11540161Y3679935D01*
X11606806D01*
X11640129Y3646613D01*
Y3613290D01*
X11606806Y3579968D01*
X11540161D01*
X11506839Y3546645D01*
Y3513322D01*
X11540161Y3480000D01*
X11606806D01*
X11640129Y3513322D01*
X11440193Y3679935D02*
X11373548D01*
X11406871D01*
Y3480000D01*
X11440193D01*
X11373548D01*
X11140290Y3646613D02*
X11173613Y3679935D01*
X11240258D01*
X11273580Y3646613D01*
Y3513322D01*
X11240258Y3480000D01*
X11173613D01*
X11140290Y3513322D01*
Y3579968D01*
X11206935D01*
X11073645Y3480000D02*
Y3679935D01*
X10940355Y3480000D01*
Y3679935D01*
X10740419D02*
X10873709D01*
Y3480000D01*
X10740419D01*
X10873709Y3579968D02*
X10807064D01*
X10673774Y3679935D02*
Y3480000D01*
X10573806D01*
X10540483Y3513322D01*
Y3646613D01*
X10573806Y3679935D01*
X10673774D01*
X10273902D02*
Y3480000D01*
X10173935D01*
X10140612Y3513322D01*
Y3546645D01*
X10173935Y3579968D01*
X10273902D01*
X10173935D01*
X10140612Y3613290D01*
Y3646613D01*
X10173935Y3679935D01*
X10273902D01*
X10073967D02*
Y3646613D01*
X10007322Y3579968D01*
X9940677Y3646613D01*
Y3679935D01*
X10007322Y3579968D02*
Y3480000D01*
X9540805Y3646613D02*
X9574128Y3679935D01*
X9640773D01*
X9674096Y3646613D01*
Y3513322D01*
X9640773Y3480000D01*
X9574128D01*
X9540805Y3513322D01*
Y3579968D01*
X9607451D01*
X9474160Y3480000D02*
Y3613290D01*
X9407515Y3679935D01*
X9340870Y3613290D01*
Y3480000D01*
Y3579968D01*
X9474160D01*
X9274225Y3679935D02*
Y3480000D01*
X9174257D01*
X9140934Y3513322D01*
Y3546645D01*
X9174257Y3579968D01*
X9274225D01*
X9174257D01*
X9140934Y3613290D01*
Y3646613D01*
X9174257Y3679935D01*
X9274225D01*
X9074289Y3480000D02*
Y3679935D01*
X8974321D01*
X8940999Y3646613D01*
Y3579968D01*
X8974321Y3546645D01*
X9074289D01*
X9007644D02*
X8940999Y3480000D01*
X8874353Y3679935D02*
X8807708D01*
X8841031D01*
Y3480000D01*
X8874353D01*
X8807708D01*
X8574450Y3679935D02*
X8707741D01*
Y3480000D01*
X8574450D01*
X8707741Y3579968D02*
X8641095D01*
X8507805Y3679935D02*
Y3480000D01*
X8374515D01*
X8107934Y3679935D02*
Y3480000D01*
X8007966D01*
X7974643Y3513322D01*
Y3546645D01*
X8007966Y3579968D01*
X8107934D01*
X8007966D01*
X7974643Y3613290D01*
Y3646613D01*
X8007966Y3679935D01*
X8107934D01*
X7907998Y3480000D02*
Y3513322D01*
X7874676D01*
Y3480000D01*
X7907998D01*
X7541450D02*
Y3679935D01*
X7474805Y3613290D01*
X7408159Y3679935D01*
Y3480000D01*
X7241546Y3679935D02*
X7308192D01*
X7341514Y3646613D01*
Y3513322D01*
X7308192Y3480000D01*
X7241546D01*
X7208224Y3513322D01*
Y3646613D01*
X7241546Y3679935D01*
X7141579D02*
Y3480000D01*
X7008288D01*
X6941643Y3679935D02*
X6808353D01*
Y3646613D01*
X6941643Y3513322D01*
Y3480000D01*
X6808353D01*
D135*
X10770000Y10175000D02*
D03*
X5550000Y10165000D02*
D03*
%TF.MD5,5b6f2a5cbc000bfc2ce8af03af843d01*%
M02*
