%TF.GenerationSoftware,Altium Limited,Altium Designer,24.2.2 (26)*%
G04 Layer_Physical_Order=3*
G04 Layer_Color=16440176*
%FSLAX45Y45*%
%MOMM*%
%TF.SameCoordinates,A2E2EA48-9257-4B33-8537-14B19699C7D1*%
%TF.FilePolarity,Positive*%
%TF.FileFunction,Copper,L3,Inr,Signal*%
%TF.Part,Single*%
G01*
G75*
%TA.AperFunction,Conductor*%
%ADD78C,0.25400*%
%TA.AperFunction,ComponentPad*%
%ADD89R,1.40000X1.40000*%
%ADD90C,1.40000*%
%ADD91C,1.55000*%
%ADD92C,2.10000*%
%ADD93C,2.95000*%
%ADD94R,1.80000X1.80000*%
%ADD95C,1.80000*%
%ADD96R,1.80000X1.80000*%
%ADD97C,1.65000*%
%ADD98C,6.50000*%
%ADD99C,1.70000*%
%ADD100R,1.70000X1.70000*%
%ADD101C,1.45000*%
%ADD102R,1.65000X1.65000*%
%ADD103C,1.57000*%
%ADD104R,1.57000X1.57000*%
%TA.AperFunction,ViaPad*%
%ADD105C,0.60000*%
%ADD106C,1.00000*%
%ADD107C,0.80000*%
D78*
X14780000Y6390000D02*
Y6490000D01*
X14880000Y6290000D02*
X16500000D01*
X14780000Y6390000D02*
X14880000Y6290000D01*
X16500000D02*
X16630000Y6160000D01*
Y5980000D02*
Y6160000D01*
Y5980000D02*
X17010001Y5600000D01*
Y5210000D02*
Y5600000D01*
X16520000Y4720000D02*
X17010001Y5210000D01*
X16520000Y3790000D02*
Y4720000D01*
X16630000Y4990000D02*
Y5340000D01*
X16580000Y4940000D02*
X16630000Y4990000D01*
X16150000Y4940000D02*
X16580000D01*
X15939999Y5150000D02*
X16150000Y4940000D01*
X9490000Y6250637D02*
X9530000Y6290637D01*
X9490000Y5740000D02*
Y6250637D01*
X9530000Y6290637D02*
Y6300000D01*
X9420000Y5720000D02*
Y6460637D01*
Y5720000D02*
X9720000Y5420000D01*
X9440000Y6480637D02*
Y6490000D01*
X9420000Y6460637D02*
X9440000Y6480637D01*
X9342300Y5707700D02*
X9640000Y5410000D01*
X9342300Y5707700D02*
Y5870000D01*
X9280000Y5940000D02*
X9340000Y6000000D01*
X9280000Y5660000D02*
Y5940000D01*
Y5660000D02*
X9570000Y5370000D01*
X9340000Y6000000D02*
Y6580000D01*
X9260000Y6486993D02*
Y6490000D01*
Y6486993D02*
X9289172Y6457821D01*
Y6049172D02*
Y6457821D01*
X9130000Y5890000D02*
X9289172Y6049172D01*
X9980000Y5380000D02*
X10160000D01*
X10250000Y5180000D02*
Y5290000D01*
X10160000Y5380000D02*
X10250000Y5290000D01*
X13310001Y6640000D02*
Y7180000D01*
Y6640000D02*
X13680000Y6270000D01*
Y5990000D02*
Y6270000D01*
X12610000Y7370000D02*
X13260001D01*
X13400000Y7230000D01*
Y6770000D02*
Y7230000D01*
X12680000Y7270000D02*
X13220000D01*
X13310001Y7180000D01*
X12340000Y6930000D02*
X12680000Y7270000D01*
X9860000Y7770000D02*
Y8010000D01*
Y7770000D02*
X10610000Y7020000D01*
X12260000D01*
X12610000Y7370000D01*
X10560000Y6930000D02*
X12340000D01*
X9760521Y7729479D02*
X10560000Y6930000D01*
X9760521Y7729479D02*
Y8100521D01*
X9840000Y8180000D02*
X9980000D01*
X10060000Y8100000D01*
X9760521Y8100521D02*
X9840000Y8180000D01*
X13400000Y6770000D02*
X13580000Y6590000D01*
X9860000Y8010000D02*
X9950000Y8100000D01*
X8527000Y4579999D02*
Y4687000D01*
X8740000Y4900000D02*
X9320000D01*
X8527000Y4687000D02*
X8740000Y4900000D01*
X9327000Y4579999D02*
Y4737000D01*
X10127000Y4579999D02*
Y4693000D01*
X10050000Y4770000D02*
X10127000Y4693000D01*
X10840000Y4780000D02*
X10927000Y4693000D01*
Y4579999D02*
Y4693000D01*
X11493365Y4920000D02*
X11727000Y4686365D01*
Y4579999D02*
Y4686365D01*
X12527000Y4579999D02*
Y4733000D01*
X11640000Y4920000D02*
X12340000D01*
X12527000Y4733000D01*
X12960001Y5080000D02*
X13327000Y4713000D01*
Y4579999D02*
Y4713000D01*
X7730000Y4580000D02*
Y4850000D01*
X7870000Y4990000D01*
X9130000Y5560000D02*
Y5890000D01*
X7870000Y4990000D02*
X9250000D01*
X9380000Y5120000D01*
Y5310000D01*
X9130000Y5560000D02*
X9380000Y5310000D01*
X9210000Y5600000D02*
X9470000Y5340000D01*
Y5050000D02*
Y5340000D01*
X9320000Y4900000D02*
X9470000Y5050000D01*
X9210000Y5600000D02*
Y5860000D01*
X9327000Y4737000D02*
X9570000Y4980000D01*
Y5370000D01*
X9870000Y4770000D02*
X10050000D01*
X9640000Y5000000D02*
X9870000Y4770000D01*
X9640000Y5000000D02*
Y5410000D01*
X9720000Y5040000D02*
Y5420000D01*
Y5040000D02*
X9790000Y4970000D01*
X10350000D01*
X10540000Y4780000D02*
X10840000D01*
X10350000Y4970000D02*
X10540000Y4780000D01*
X9795000Y5085000D02*
X9830000Y5050000D01*
X9795000Y5085000D02*
Y5435000D01*
X9490000Y5740000D02*
X9795000Y5435000D01*
X10380000Y5050000D02*
X10510000Y4920000D01*
X11493365D01*
X9830000Y5050000D02*
X10380000D01*
X11560000Y5000000D02*
X11640000Y4920000D01*
X10550000Y5000000D02*
X11560000D01*
X10580000Y5080000D02*
X12960001D01*
X10210000Y5450000D02*
X10580000Y5080000D01*
X10440000Y5110000D02*
X10550000Y5000000D01*
X10320000Y5110000D02*
X10440000D01*
X10250000Y5180000D02*
X10320000Y5110000D01*
X9670000Y5690000D02*
X9980000Y5380000D01*
X9670000Y5690000D02*
Y5970637D01*
X9730000Y5730000D02*
X10010000Y5450000D01*
X9730000Y5730000D02*
Y6010000D01*
X9640000Y6000637D02*
Y6010000D01*
Y6000637D02*
X9670000Y5970637D01*
X10640000Y5150000D02*
X15939999D01*
X10270000Y5520000D02*
X10640000Y5150000D01*
X10690000Y5210000D02*
X12068000D01*
X10030000Y5870000D02*
X10690000Y5210000D01*
X12068000D02*
X12446000Y5588000D01*
X10010000Y5450000D02*
X10210000D01*
X9800000Y5810000D02*
X10090000Y5520000D01*
X10270000D01*
X9800000Y5810000D02*
Y7240000D01*
X9352819Y7687181D02*
X9800000Y7240000D01*
X13961540Y6982329D02*
Y7408460D01*
X13839999Y7530000D02*
X13961540Y7408460D01*
X12480000Y7530000D02*
X13839999D01*
X11210000Y8800000D02*
X12480000Y7530000D01*
X11270000Y8870000D02*
X12510000Y7630000D01*
X13919814D01*
X12499999Y7790001D02*
X14079816D01*
X11350000Y8940000D02*
X12499999Y7790001D01*
X10670000Y8800000D02*
X11210000D01*
X10560000Y8910000D02*
X10670000Y8800000D01*
X10290000Y8910000D02*
X10560000D01*
X10220000Y8720000D02*
Y8840000D01*
X10290000Y8910000D01*
X10220000Y8720000D02*
X10290000Y8650000D01*
Y8570000D02*
Y8650000D01*
X9920000Y8500000D02*
X10085318D01*
X10115318Y8470000D02*
X10290000D01*
X10085318Y8500000D02*
X10115318Y8470000D01*
X9870000Y8550000D02*
Y8790000D01*
Y8550000D02*
X9920000Y8500000D01*
X9870000Y8790000D02*
X10060000Y8980000D01*
X9880000Y8360000D02*
X10000000D01*
X10060000Y8420000D01*
X10060000Y8980000D02*
X10610000D01*
X10720000Y8870000D01*
X9790000Y8450000D02*
Y8810000D01*
Y8450000D02*
X9880000Y8360000D01*
X9790000Y8810000D02*
X10040000Y9060000D01*
X10660000D01*
X10780000Y8940000D01*
X11350000D01*
X10720000Y8870000D02*
X11270000D01*
X11130000Y7510000D02*
X11250000D01*
X10980000Y7660000D02*
X11130000Y7510000D01*
X10030000Y5870000D02*
Y7150000D01*
X10890000Y5270000D02*
X11874000D01*
X10090000Y6070000D02*
X10890000Y5270000D01*
X10090000Y6070000D02*
Y7180000D01*
X10150000Y6110000D02*
Y6370000D01*
X10910000Y5350000D02*
X11700000D01*
X10150000Y6110000D02*
X10910000Y5350000D01*
X10240000Y6120000D02*
X10940000Y5420000D01*
X10240000Y6120000D02*
Y6320637D01*
X10940000Y5420000D02*
X11516000D01*
X11250000Y7510000D02*
X11610000Y7150000D01*
X8982819Y7687181D02*
X9352819D01*
X9950000Y8100000D02*
X9956620Y8106620D01*
X11610000Y7150000D02*
X12150000D01*
X8910000Y7760000D02*
X9420000D01*
X8870000Y7800000D02*
Y7800000D01*
Y7800000D02*
X8910000Y7760000D01*
X8846620Y7823380D02*
X8870000Y7800000D01*
X8846620Y7823380D02*
Y7883380D01*
X8840000Y7890000D02*
X8846620Y7883380D01*
X9420000Y7760000D02*
X10030000Y7150000D01*
X8960000Y7830000D02*
X9440000D01*
X10090000Y7180000D01*
X10150000Y6370000D02*
X10230000Y6450000D01*
X11526000Y6000000D02*
X11684000Y5842000D01*
X10490000Y6000000D02*
X11526000D01*
X10390000Y6450000D02*
X10570000D01*
X10890000Y6130000D01*
X10480000Y6530000D02*
X10680000D01*
X11000000Y6210000D01*
X10220000Y6340637D02*
Y6350000D01*
Y6340637D02*
X10240000Y6320637D01*
X10230000Y6450000D02*
X10290000D01*
X10540000Y6370000D02*
X10850000Y6060000D01*
X11720000D01*
X11000000Y6210000D02*
X12570000D01*
X12830000Y5950000D01*
Y5712000D02*
Y5950000D01*
Y5712000D02*
X12953999Y5588000D01*
X10890000Y6130000D02*
X12440000D01*
X11720000Y6060000D02*
X11938000Y5842000D01*
X12440000Y6130000D02*
X12570000Y6000000D01*
Y5718000D02*
Y6000000D01*
Y5718000D02*
X12700000Y5588000D01*
X11874000Y5270000D02*
X12192000Y5588000D01*
X11700000Y5350000D02*
X11938000Y5588000D01*
X11516000Y5420000D02*
X11684000Y5588000D01*
D89*
X16675000Y9677000D02*
D03*
D90*
Y9931000D02*
D03*
Y10185000D02*
D03*
Y10439000D02*
D03*
X16421001Y9804000D02*
D03*
Y10058000D02*
D03*
Y10312000D02*
D03*
Y10566000D02*
D03*
D91*
X17800000Y9489000D02*
D03*
X17648000Y10754000D02*
D03*
X17800000Y10500000D02*
D03*
X17648000Y9743000D02*
D03*
D92*
X17005000Y9334000D02*
D03*
Y10909000D02*
D03*
D93*
X17310001Y9550000D02*
D03*
Y10693000D02*
D03*
D94*
X9781000Y2480000D02*
D03*
X7171500Y11520000D02*
D03*
X10646500D02*
D03*
X13256000Y2480000D02*
D03*
X3389000Y11520000D02*
D03*
X6060000Y2480000D02*
D03*
D95*
X9400000D02*
D03*
X9019000D02*
D03*
X8638000D02*
D03*
X8257000D02*
D03*
X7495000D02*
D03*
X7114000D02*
D03*
X7876000D02*
D03*
X7552500Y11520000D02*
D03*
X7933500D02*
D03*
X8314500D02*
D03*
X8695500D02*
D03*
X9457500D02*
D03*
X9838500D02*
D03*
X9076500D02*
D03*
X12551500D02*
D03*
X13313499D02*
D03*
X12932500D02*
D03*
X12170500D02*
D03*
X11789500D02*
D03*
X11408500D02*
D03*
X11027500D02*
D03*
X11351000Y2480000D02*
D03*
X10589000D02*
D03*
X10970000D02*
D03*
X11732000D02*
D03*
X12113000D02*
D03*
X12494000D02*
D03*
X12875000D02*
D03*
X5294000Y11520000D02*
D03*
X6056000D02*
D03*
X5675000D02*
D03*
X4913000D02*
D03*
X4532000D02*
D03*
X4151000D02*
D03*
X3770000D02*
D03*
X4155000Y2480000D02*
D03*
X3393000D02*
D03*
X3774000D02*
D03*
X4536000D02*
D03*
X4917000D02*
D03*
X5298000D02*
D03*
X5679000D02*
D03*
X2480000Y5605000D02*
D03*
Y6367000D02*
D03*
Y5986000D02*
D03*
Y5224000D02*
D03*
Y4843000D02*
D03*
Y4462000D02*
D03*
Y4081000D02*
D03*
Y9538000D02*
D03*
Y10300000D02*
D03*
Y9919000D02*
D03*
Y9157000D02*
D03*
Y8776000D02*
D03*
Y8395000D02*
D03*
Y8014000D02*
D03*
D96*
Y3700000D02*
D03*
Y7633000D02*
D03*
D97*
X12700000Y5842000D02*
D03*
X12953999Y5588000D02*
D03*
X11430000Y5842000D02*
D03*
X11684000Y5588000D02*
D03*
Y5842000D02*
D03*
X11938000Y5588000D02*
D03*
Y5842000D02*
D03*
X12192000Y5588000D02*
D03*
Y5842000D02*
D03*
X12446000Y5588000D02*
D03*
Y5842000D02*
D03*
X12700000Y5588000D02*
D03*
X12953999Y5842000D02*
D03*
X13208000Y5588000D02*
D03*
Y5842000D02*
D03*
D98*
X2500000Y2500000D02*
D03*
Y11500000D02*
D03*
X17500000D02*
D03*
Y2500000D02*
D03*
D99*
X14609502Y2490000D02*
D03*
D100*
X14990501D02*
D03*
D101*
X17585001Y6320000D02*
D03*
Y5820000D02*
D03*
D102*
X11430000Y5588000D02*
D03*
D103*
X7874000D02*
D03*
X8128000D02*
D03*
X8382000D02*
D03*
D104*
X8636000D02*
D03*
D105*
X6800000Y8170000D02*
D03*
X6755031Y8102121D02*
D03*
X6434070Y8170930D02*
D03*
X6482146Y8239636D02*
D03*
X7472403Y8081602D02*
D03*
X7350000Y7990000D02*
D03*
X7410000Y8040000D02*
D03*
X7256459Y8092918D02*
D03*
X7050000Y7760000D02*
D03*
Y7880000D02*
D03*
X6980000Y7745000D02*
D03*
Y7820000D02*
D03*
X7150000Y7480000D02*
D03*
X7325754Y7460607D02*
D03*
X7427854Y7380364D02*
D03*
X7470000Y7510000D02*
D03*
X14764709Y9826457D02*
D03*
X14750000Y9900000D02*
D03*
X14680363Y9927854D02*
D03*
X14130000Y8450000D02*
D03*
X14070000Y8400000D02*
D03*
X14128564Y8353148D02*
D03*
X14232391Y8358592D02*
D03*
X14383717Y8688849D02*
D03*
X14393541Y8827082D02*
D03*
X13980000Y8680000D02*
D03*
X13917918Y8637918D02*
D03*
X13839999Y8660000D02*
D03*
X13746021Y8752330D02*
D03*
X13807671Y8813979D02*
D03*
X13500000Y9318684D02*
D03*
Y9444348D02*
D03*
X13380000Y9160000D02*
D03*
X13639999Y9380000D02*
D03*
X13589999Y9530000D02*
D03*
X13563033Y9373033D02*
D03*
X13552081Y9257918D02*
D03*
X13588467Y9443588D02*
D03*
X11853033Y8804350D02*
D03*
X11846852Y8691435D02*
D03*
X11800000Y8750000D02*
D03*
X11790000Y7655651D02*
D03*
X11500000Y7865652D02*
D03*
X10490000Y8150000D02*
D03*
X15689999Y7910000D02*
D03*
X14800000Y7710000D02*
D03*
X15763933Y8149999D02*
D03*
X11500000Y7780000D02*
D03*
X5754915Y3220000D02*
D03*
Y3400000D02*
D03*
Y3580000D02*
D03*
X6507073Y3400000D02*
D03*
X6489659Y3580000D02*
D03*
X6380000Y3730000D02*
D03*
X6502244Y4730000D02*
D03*
X6502329Y4910000D02*
D03*
X6590000Y5550000D02*
D03*
X12870000Y6560000D02*
D03*
X12650000D02*
D03*
Y6420000D02*
D03*
X12870000D02*
D03*
Y6700000D02*
D03*
X12650000D02*
D03*
X14480017Y9680011D02*
D03*
X14520016Y9600011D02*
D03*
X14480017Y9520011D02*
D03*
X14520016Y9440011D02*
D03*
X14480017Y9360011D02*
D03*
X14520016Y9280011D02*
D03*
X14480017Y9200011D02*
D03*
X14400017Y9680011D02*
D03*
X14440018Y9600011D02*
D03*
X14400017Y9520011D02*
D03*
X14440018Y9440011D02*
D03*
X14400017Y9360011D02*
D03*
X14440018Y9280011D02*
D03*
X14400017Y9200011D02*
D03*
X14320016Y9680011D02*
D03*
X14360017Y9600011D02*
D03*
X14320016Y9520011D02*
D03*
X14360017Y9440011D02*
D03*
X14320016Y9360011D02*
D03*
X14360017Y9280011D02*
D03*
X14320016Y9200011D02*
D03*
X14160017Y9680011D02*
D03*
Y9520011D02*
D03*
Y9360011D02*
D03*
Y9200011D02*
D03*
X14120016Y9600011D02*
D03*
Y9440011D02*
D03*
Y9280011D02*
D03*
X14000015Y9680011D02*
D03*
Y9520011D02*
D03*
Y9360011D02*
D03*
X9240011Y7600009D02*
D03*
X8840010D02*
D03*
X9720011Y6480008D02*
D03*
X9680011Y8000009D02*
D03*
X10200012Y7120008D02*
D03*
X9560011D02*
D03*
X9480011Y7920009D02*
D03*
X8920010Y7600009D02*
D03*
X9080011Y6800008D02*
D03*
X9560011Y8080009D02*
D03*
X10320012Y7040008D02*
D03*
X9720011Y7120008D02*
D03*
X8880010Y7200008D02*
D03*
X9640011Y8080009D02*
D03*
X9960012Y7920009D02*
D03*
X9000010Y7600009D02*
D03*
X9320011Y8080009D02*
D03*
X10240012Y7040008D02*
D03*
X9080011Y7600009D02*
D03*
X9680011Y6560008D02*
D03*
X9520011Y8000009D02*
D03*
X9600011Y7200008D02*
D03*
X9360011Y8000009D02*
D03*
Y7200008D02*
D03*
X9160011Y7600009D02*
D03*
X9520011Y6400008D02*
D03*
X9560011Y7920009D02*
D03*
X9600011Y8000009D02*
D03*
X10280012Y7120008D02*
D03*
X9120011Y7040008D02*
D03*
X9680011Y6400008D02*
D03*
X9120011Y6880008D02*
D03*
X9200011Y7040008D02*
D03*
X9600011D02*
D03*
X9920012D02*
D03*
X9960012Y7120008D02*
D03*
X9400011Y8080009D02*
D03*
X9520011Y7200008D02*
D03*
X8880010Y7680009D02*
D03*
X9280011Y7040008D02*
D03*
X9520011D02*
D03*
X9440011Y8000009D02*
D03*
X9880011Y7120008D02*
D03*
X9640011Y7920009D02*
D03*
X9960012Y6320007D02*
D03*
X9640011Y7120008D02*
D03*
X10600012D02*
D03*
X9480011Y8080009D02*
D03*
X9240011Y7120008D02*
D03*
X9720011Y6320007D02*
D03*
X10000012Y8000009D02*
D03*
X10640013Y7200008D02*
D03*
X9920012Y6560008D02*
D03*
X9680011Y7040008D02*
D03*
X9480011Y7120008D02*
D03*
X9680011Y7200008D02*
D03*
X9520011Y6560008D02*
D03*
X9880011Y6480008D02*
D03*
X10680012Y7120008D02*
D03*
X9440011Y7200008D02*
D03*
X10560012D02*
D03*
X6150000Y8800000D02*
D03*
X6300000D02*
D03*
Y8670000D02*
D03*
X6150000D02*
D03*
X6300000Y8530000D02*
D03*
X6150000D02*
D03*
X6230000Y8590000D02*
D03*
Y8740000D02*
D03*
X16139999Y3210000D02*
D03*
X16239999D02*
D03*
X16339999D02*
D03*
X16139999Y3310000D02*
D03*
Y3410000D02*
D03*
X16239999Y3310000D02*
D03*
Y3410000D02*
D03*
X16339999D02*
D03*
Y3310000D02*
D03*
X16160019Y5360006D02*
D03*
X16080019D02*
D03*
X16000018D02*
D03*
X15920020D02*
D03*
X15840019D02*
D03*
X16959993Y2559999D02*
D03*
X17039993Y2399999D02*
D03*
X16959993Y2239999D02*
D03*
X16799992Y2559999D02*
D03*
X16879993Y2399999D02*
D03*
X16719994D02*
D03*
X16559993D02*
D03*
X16399992D02*
D03*
X16239993D02*
D03*
X16079993D02*
D03*
X15800018Y3600004D02*
D03*
X15760019Y3520004D02*
D03*
X15800018Y3440004D02*
D03*
X15760019Y3360004D02*
D03*
X15720018Y3600004D02*
D03*
X15680019Y3520004D02*
D03*
X15720018Y3440004D02*
D03*
X15600018Y3520004D02*
D03*
X15640018Y3440004D02*
D03*
X15520018Y3520004D02*
D03*
X15560017Y3440004D02*
D03*
X15440018Y3520004D02*
D03*
X15480019Y3440004D02*
D03*
X15360017Y3520004D02*
D03*
X15400018Y3440004D02*
D03*
X15280019Y3520004D02*
D03*
X15320018Y3440004D02*
D03*
X15200018Y3520004D02*
D03*
X15240018Y3440004D02*
D03*
X15120018Y3520004D02*
D03*
X15160017Y3440004D02*
D03*
X15120018Y3360004D02*
D03*
X15040018Y3520004D02*
D03*
X15080019Y3440004D02*
D03*
X15040018Y3360004D02*
D03*
X15000017Y3440004D02*
D03*
X14960017Y3360004D02*
D03*
X14920016Y3440004D02*
D03*
X14880017Y3360004D02*
D03*
X17280020Y4800006D02*
D03*
X17320020Y4720006D02*
D03*
X17280020Y4640005D02*
D03*
X17320020Y4560005D02*
D03*
X17280020Y4480005D02*
D03*
X17320020Y4400005D02*
D03*
X17280020Y4320005D02*
D03*
X17200020Y4800006D02*
D03*
X17240021Y4720006D02*
D03*
X17200020Y4640005D02*
D03*
X17240021Y4560005D02*
D03*
X17200020Y4480005D02*
D03*
X17240021Y4400005D02*
D03*
X17200020Y4320005D02*
D03*
X17120020Y4800006D02*
D03*
X17160020Y4720006D02*
D03*
X17120020Y4640005D02*
D03*
X17160020Y4560005D02*
D03*
X17120020Y4480005D02*
D03*
X17160020Y4400005D02*
D03*
X17120020Y4320005D02*
D03*
X17080020Y4720006D02*
D03*
Y4560005D02*
D03*
Y4400005D02*
D03*
X16880020Y4800006D02*
D03*
X16920020Y4720006D02*
D03*
X16880020Y4640005D02*
D03*
X16920020Y4560005D02*
D03*
X16880020Y4480005D02*
D03*
X16920020Y4400005D02*
D03*
X16880020Y4320005D02*
D03*
X16800020Y4800006D02*
D03*
X16840021Y4720006D02*
D03*
X16800020Y4640005D02*
D03*
X16840021Y4560005D02*
D03*
X16800020Y4480005D02*
D03*
X16840021Y4400005D02*
D03*
X16800020Y4320005D02*
D03*
X16720020Y4800006D02*
D03*
X16760020Y4720006D02*
D03*
X16720020Y4640005D02*
D03*
X16760020Y4560005D02*
D03*
X16720020Y4480005D02*
D03*
X16760020Y4400005D02*
D03*
X16720020Y4320005D02*
D03*
X16680019Y4720006D02*
D03*
X16640021Y4640005D02*
D03*
X16680019Y4560005D02*
D03*
X16640021Y4480005D02*
D03*
X16680019Y4400005D02*
D03*
X16640021Y4320005D02*
D03*
X16600018Y4560005D02*
D03*
Y4400005D02*
D03*
X16440019Y4240005D02*
D03*
X16400018Y4160005D02*
D03*
X16320020D02*
D03*
X16360019Y4080005D02*
D03*
X15860001Y5720000D02*
D03*
X16010001D02*
D03*
Y5590000D02*
D03*
X15860001D02*
D03*
X16010001Y5450000D02*
D03*
X15860001D02*
D03*
X15939999Y5510000D02*
D03*
Y5660000D02*
D03*
X17560001Y8680000D02*
D03*
Y8800000D02*
D03*
X17730000D02*
D03*
X17889999D02*
D03*
Y8680000D02*
D03*
X17730000D02*
D03*
X16500000Y5600000D02*
D03*
X16400000Y5525000D02*
D03*
X16300000Y5600000D02*
D03*
X16500000Y5450000D02*
D03*
X16400000Y5375000D02*
D03*
X16300000Y5450000D02*
D03*
X16500000Y5300000D02*
D03*
X16400000Y5225000D02*
D03*
X16300000Y5300000D02*
D03*
Y5150000D02*
D03*
X16400000Y5075000D02*
D03*
X16500000Y5150000D02*
D03*
Y5000000D02*
D03*
X16300000D02*
D03*
X7470000Y7980000D02*
D03*
X6880000Y6780000D02*
D03*
X7000000Y6700000D02*
D03*
X6880000D02*
D03*
X8770000Y8730000D02*
D03*
X8490000Y8560000D02*
D03*
X13180000Y9660000D02*
D03*
X16520000Y3790000D02*
D03*
X14880000Y6130000D02*
D03*
X15670000Y4360000D02*
D03*
Y4230000D02*
D03*
X15050000Y3890000D02*
D03*
X14139999Y3455000D02*
D03*
X13710001Y3452329D02*
D03*
Y3840000D02*
D03*
X14100000Y4180000D02*
D03*
X17060001Y5000000D02*
D03*
X16630000Y5340000D02*
D03*
X16889999D02*
D03*
X16400000Y6005000D02*
D03*
Y6080000D02*
D03*
X17289999Y5810000D02*
D03*
X17689999Y4310000D02*
D03*
X17720000Y5340000D02*
D03*
X17010001Y4098000D02*
D03*
X17005000Y3930000D02*
D03*
X17005000Y3502000D02*
D03*
X17010001Y3670000D02*
D03*
X17025436Y3047607D02*
D03*
X17010001Y3220000D02*
D03*
X16770000Y3530000D02*
D03*
Y3630000D02*
D03*
X16670000D02*
D03*
Y3530000D02*
D03*
X16570000Y3630000D02*
D03*
Y3530000D02*
D03*
X15110001Y5650000D02*
D03*
Y5500000D02*
D03*
X15030000Y5440000D02*
D03*
X15180000D02*
D03*
X15030000Y5580000D02*
D03*
X15180000D02*
D03*
Y5710000D02*
D03*
X15030000D02*
D03*
X16630000Y5800000D02*
D03*
X16230000Y3870000D02*
D03*
X14870000Y4100000D02*
D03*
Y4180000D02*
D03*
X14789999D02*
D03*
Y4100000D02*
D03*
X14710001Y4180000D02*
D03*
Y4100000D02*
D03*
X14560001Y3440000D02*
D03*
X14710001Y3710000D02*
D03*
Y3790000D02*
D03*
X14789999Y3710000D02*
D03*
Y3790000D02*
D03*
X14870000D02*
D03*
Y3710000D02*
D03*
X9910000Y5850000D02*
D03*
X11107856Y7227856D02*
D03*
X11197856D02*
D03*
X10620000Y8480000D02*
D03*
X9530000Y6300000D02*
D03*
X9342300Y5870000D02*
D03*
X9340000Y6580000D02*
D03*
X9440000Y6490000D02*
D03*
X9260000D02*
D03*
X8250000Y6280000D02*
D03*
X10050000Y7920000D02*
D03*
X9070000Y6000000D02*
D03*
X8990000D02*
D03*
X9730000Y6010000D02*
D03*
X9640000D02*
D03*
X9870000Y6390000D02*
D03*
X9210000Y5860000D02*
D03*
X9050000Y6310000D02*
D03*
X8527000Y4579999D02*
D03*
X9327000D02*
D03*
X7730000Y4580000D02*
D03*
X10127000Y4579999D02*
D03*
X9000000Y7010000D02*
D03*
X8500000Y7090000D02*
D03*
X10927000Y4579999D02*
D03*
X12527000D02*
D03*
X11727000D02*
D03*
X13327000D02*
D03*
X8950000Y7520000D02*
D03*
X8900000Y7450000D02*
D03*
X7400000Y7530000D02*
D03*
X7070000Y7500000D02*
D03*
X7400000Y7450000D02*
D03*
X7070000Y7420000D02*
D03*
X17410001Y6140000D02*
D03*
X14430000Y5620000D02*
D03*
X14420000Y6270000D02*
D03*
X9980000Y5750000D02*
D03*
X8850000Y6620000D02*
D03*
X12670000Y8850000D02*
D03*
X10060000Y8420000D02*
D03*
X10290000Y8570000D02*
D03*
X10189200Y8590800D02*
D03*
X10290000Y8470000D02*
D03*
X13961540Y6982329D02*
D03*
X13919814Y7630000D02*
D03*
X14079816Y7790001D02*
D03*
X14160001Y7880000D02*
D03*
X14260001Y7360000D02*
D03*
Y6870000D02*
D03*
X14940001Y7311539D02*
D03*
X14939999Y6821539D02*
D03*
X15111539Y6768461D02*
D03*
X15120000Y6371539D02*
D03*
X10650000Y7510000D02*
D03*
X10980000Y7660000D02*
D03*
X10130000Y7920000D02*
D03*
X10210000D02*
D03*
X10448565Y8816852D02*
D03*
X9082311Y8830000D02*
D03*
X9270000Y8610000D02*
D03*
X9360000D02*
D03*
X11090000Y9010000D02*
D03*
X7913000Y9190000D02*
D03*
X8910328Y9190000D02*
D03*
X11020000Y9180000D02*
D03*
X10020000D02*
D03*
X10170000D02*
D03*
X9338734Y9173577D02*
D03*
X8192311Y9160000D02*
D03*
X11350827Y9331155D02*
D03*
X10350827D02*
D03*
X8243827Y9341155D02*
D03*
X9241156Y9341156D02*
D03*
X10892499Y9110000D02*
D03*
X10749742D02*
D03*
X9897328D02*
D03*
X9752157D02*
D03*
X8782499Y9130000D02*
D03*
X8639742D02*
D03*
X7795796Y9140625D02*
D03*
X7640000Y9130000D02*
D03*
X15562856Y10162391D02*
D03*
X5860000Y8850000D02*
D03*
X5750000Y8710000D02*
D03*
X14041151Y5620000D02*
D03*
X8403033Y6596967D02*
D03*
X8400000Y6680000D02*
D03*
X16470000Y5960000D02*
D03*
X16789999Y6040000D02*
D03*
X17289999D02*
D03*
X16470000Y6120000D02*
D03*
X9960000Y8610000D02*
D03*
X10060000D02*
D03*
X10398849Y7863717D02*
D03*
X10470000Y7840000D02*
D03*
X10694626Y7710278D02*
D03*
X8330000Y6648078D02*
D03*
X7850000Y6740000D02*
D03*
X7950000D02*
D03*
X8982819Y7687181D02*
D03*
X13507001Y4579999D02*
D03*
X13349329Y3907500D02*
D03*
X12823131Y4770000D02*
D03*
X12707000Y4579999D02*
D03*
X12549329Y3907500D02*
D03*
X12023131Y4770000D02*
D03*
X11907000Y4579999D02*
D03*
X11749330Y3907500D02*
D03*
X11223131Y4770000D02*
D03*
X11107000Y4579999D02*
D03*
X10949329Y3907500D02*
D03*
X10423131Y4770000D02*
D03*
X10307000Y4579999D02*
D03*
X10149329Y3907500D02*
D03*
X9623131Y4770000D02*
D03*
X9507000Y4579999D02*
D03*
X9349330Y3907500D02*
D03*
X8823131Y4770000D02*
D03*
X8707000Y4579999D02*
D03*
X8549329Y3907500D02*
D03*
X8023131Y4770000D02*
D03*
X7752330Y3907500D02*
D03*
X7226131Y4770000D02*
D03*
X7910000Y4580000D02*
D03*
X9950000Y5160000D02*
D03*
X9880000Y5270000D02*
D03*
Y5360000D02*
D03*
X9570000Y5850000D02*
D03*
X9568125Y5939377D02*
D03*
X9950000Y8100000D02*
D03*
X10060000D02*
D03*
X13680000Y5990000D02*
D03*
X13580000Y6590000D02*
D03*
X13904784Y6783632D02*
D03*
X14693245Y6580000D02*
D03*
X14780000Y6490000D02*
D03*
X14031152Y6270000D02*
D03*
X13910001Y6160000D02*
D03*
X14880000Y5390000D02*
D03*
X11290000Y7380000D02*
D03*
X11450000Y7210000D02*
D03*
X13789999Y10210000D02*
D03*
X13350000Y10190000D02*
D03*
X13789999Y10450000D02*
D03*
X11310000Y7610556D02*
D03*
X13000000Y8850000D02*
D03*
X12390670Y8930000D02*
D03*
X12150000Y7150000D02*
D03*
X13678461Y7067000D02*
D03*
X16755000Y5560000D02*
D03*
X9130000Y6327700D02*
D03*
X12300000Y6850000D02*
D03*
X12770000Y6950000D02*
D03*
X12300000Y6530000D02*
D03*
Y6690000D02*
D03*
Y6770000D02*
D03*
X13160001Y6950000D02*
D03*
Y7150000D02*
D03*
X12630000Y7050000D02*
D03*
X12779500Y7142001D02*
D03*
X12340000Y6370000D02*
D03*
X12300000Y6450000D02*
D03*
X8960000Y7830000D02*
D03*
X9910000Y5940000D02*
D03*
X10490000Y6000000D02*
D03*
X10390000Y6450000D02*
D03*
X10480000Y6530000D02*
D03*
X10220000Y6350000D02*
D03*
X10290000Y6450000D02*
D03*
X10540000Y6370000D02*
D03*
X8840000Y7890000D02*
D03*
X8940000Y6760000D02*
D03*
X11680000Y5000000D02*
D03*
X12450000D02*
D03*
X10340000Y5200000D02*
D03*
X12194000Y4993932D02*
D03*
X11940000D02*
D03*
X11520000Y6300000D02*
D03*
Y6440000D02*
D03*
X12056068Y6328447D02*
D03*
Y6661555D02*
D03*
X11057856Y7760001D02*
D03*
X10650000Y7650000D02*
D03*
X11320000Y8340000D02*
D03*
X11420000Y8090000D02*
D03*
X11460000Y8340000D02*
D03*
X11556068Y8162857D02*
D03*
X8931337Y6945324D02*
D03*
X8880000Y7000000D02*
D03*
X16850000Y7280000D02*
D03*
X16760001Y7500000D02*
D03*
X16700000Y7630000D02*
D03*
X16380000Y8090000D02*
D03*
X15763931Y6940000D02*
D03*
X16455000Y8090000D02*
D03*
X16850000Y7205000D02*
D03*
X16772330Y7426020D02*
D03*
X16700000Y7555000D02*
D03*
X16580000Y7805000D02*
D03*
Y7730000D02*
D03*
X15689999Y7710000D02*
D03*
X15760001Y7850000D02*
D03*
X15763933Y7948333D02*
D03*
X15760001Y7450000D02*
D03*
X15763931Y7140000D02*
D03*
X15763933Y7343333D02*
D03*
Y7746666D02*
D03*
X15760001Y8050000D02*
D03*
X15670000Y8070000D02*
D03*
X9130000Y6440000D02*
D03*
X8960000Y6310000D02*
D03*
X15760001Y7650000D02*
D03*
X11270624Y7148126D02*
D03*
X10907768Y5888125D02*
D03*
X10673393Y5890536D02*
D03*
X14825000Y9900000D02*
D03*
X14089999Y10370000D02*
D03*
X14010001Y10340000D02*
D03*
X10400000Y8060000D02*
D03*
X10210000Y8000000D02*
D03*
X10290000Y7920000D02*
D03*
X14360001Y8760000D02*
D03*
X14438631Y8760488D02*
D03*
X9020000Y8120000D02*
D03*
X13820000Y8740000D02*
D03*
X14060001Y10190000D02*
D03*
Y10270000D02*
D03*
X15370000Y9690000D02*
D03*
Y9580000D02*
D03*
Y8480000D02*
D03*
X15725024Y10060000D02*
D03*
Y10240000D02*
D03*
X15742438Y8480000D02*
D03*
X15739999Y9100000D02*
D03*
X15744946Y9690000D02*
D03*
X15850000D02*
D03*
X15230000Y9980000D02*
D03*
X15477144Y10162391D02*
D03*
X15384752Y10069999D02*
D03*
X15368851Y9868573D02*
D03*
X15289999Y9404288D02*
D03*
Y9490000D02*
D03*
X16101540Y11100000D02*
D03*
X16650000Y11150000D02*
D03*
X13550000Y9080000D02*
D03*
X13372501Y8873932D02*
D03*
X13547501D02*
D03*
X8920000Y8100000D02*
D03*
Y8000000D02*
D03*
X14732391Y10803739D02*
D03*
X14552393D02*
D03*
X14372392D02*
D03*
X14192392D02*
D03*
X14010001Y10800000D02*
D03*
X14458105Y10314287D02*
D03*
X10360000Y8800000D02*
D03*
X10332974Y8721286D02*
D03*
X7350000Y8100000D02*
D03*
X7290000Y8160000D02*
D03*
X7160000Y8030000D02*
D03*
X6980000Y7900000D02*
D03*
X6662824Y8107633D02*
D03*
X6714667Y8165333D02*
D03*
X6563033Y8223033D02*
D03*
X6510000Y8170000D02*
D03*
X11010000Y5730000D02*
D03*
X8249375Y6111876D02*
D03*
X8409376Y6031876D02*
D03*
X8249375Y7001876D02*
D03*
X8409376Y6921876D02*
D03*
X8249375Y7551876D02*
D03*
X8409376Y7471876D02*
D03*
X10538125Y8720625D02*
D03*
X10618125Y8560625D02*
D03*
X8600000Y8720000D02*
D03*
X6450000Y6450000D02*
D03*
Y7500000D02*
D03*
X5400000D02*
D03*
Y7050000D02*
D03*
Y7200000D02*
D03*
X5550000D02*
D03*
Y7350000D02*
D03*
X5700000D02*
D03*
Y7500000D02*
D03*
X6450000Y7200000D02*
D03*
Y7350000D02*
D03*
Y6900000D02*
D03*
Y7050000D02*
D03*
Y6600000D02*
D03*
Y6750000D02*
D03*
X6300000Y7500000D02*
D03*
Y7200000D02*
D03*
Y7350000D02*
D03*
Y6900000D02*
D03*
Y7050000D02*
D03*
Y6600000D02*
D03*
Y6750000D02*
D03*
Y6450000D02*
D03*
X6150000Y7500000D02*
D03*
Y7200000D02*
D03*
Y7350000D02*
D03*
Y6900000D02*
D03*
Y7050000D02*
D03*
Y6600000D02*
D03*
Y6750000D02*
D03*
Y6450000D02*
D03*
X6000000D02*
D03*
Y6750000D02*
D03*
Y6600000D02*
D03*
Y7050000D02*
D03*
Y6900000D02*
D03*
Y7350000D02*
D03*
Y7200000D02*
D03*
Y7500000D02*
D03*
X5820000Y5940000D02*
D03*
X5750000Y8350000D02*
D03*
X4803477Y7440000D02*
D03*
X4700000Y6400000D02*
D03*
X5550000Y7500000D02*
D03*
X5850000D02*
D03*
X5700000Y7200000D02*
D03*
X5850000D02*
D03*
Y7350000D02*
D03*
X5400000D02*
D03*
Y6900000D02*
D03*
X5550000D02*
D03*
X5700000D02*
D03*
X5850000D02*
D03*
Y7050000D02*
D03*
X5700000D02*
D03*
X5550000D02*
D03*
X5400000Y6600000D02*
D03*
X5550000D02*
D03*
X5700000D02*
D03*
X5850000D02*
D03*
Y6750000D02*
D03*
X5700000D02*
D03*
X5550000D02*
D03*
X5400000D02*
D03*
X5850000Y6450000D02*
D03*
X5700000D02*
D03*
X5550000D02*
D03*
X5400000D02*
D03*
X5930000Y8230000D02*
D03*
X4535000Y7533477D02*
D03*
X4710000D02*
D03*
X7360000Y6370000D02*
D03*
X7360000Y6540000D02*
D03*
X7265000Y7119999D02*
D03*
X7267500Y6820000D02*
D03*
X7142857Y6870000D02*
D03*
Y7070001D02*
D03*
X6040000Y8230000D02*
D03*
X4800000Y6500000D02*
D03*
X5750000Y8530000D02*
D03*
X6290000Y8240000D02*
D03*
X6130000Y8350000D02*
D03*
X4525000Y6406523D02*
D03*
X4526167Y7290000D02*
D03*
X4441524Y7440000D02*
D03*
X4500000Y6650000D02*
D03*
X4400000Y6500000D02*
D03*
X6725000Y3275000D02*
D03*
Y3175000D02*
D03*
X6625000Y3275000D02*
D03*
Y3175000D02*
D03*
X6525000D02*
D03*
Y3275000D02*
D03*
X6260000Y5634814D02*
D03*
X6440000D02*
D03*
X6760000Y5550000D02*
D03*
X6090000Y5540171D02*
D03*
X5940000Y5637314D02*
D03*
X5780000Y5550171D02*
D03*
X6060000Y5070000D02*
D03*
X6230000D02*
D03*
X17250000Y7500000D02*
D03*
X16100000Y10240000D02*
D03*
D106*
X2750000Y2500000D02*
D03*
X2676776Y2323224D02*
D03*
X2500000Y2250001D02*
D03*
X2323224Y2323224D02*
D03*
X2250001Y2500000D02*
D03*
X2323224Y2676776D02*
D03*
X2500000Y2750000D02*
D03*
X2676776Y2676776D02*
D03*
X2750000Y11500000D02*
D03*
X2676776Y11323224D02*
D03*
X2500000Y11250001D02*
D03*
X2323224Y11323224D02*
D03*
X2250001Y11500000D02*
D03*
X2323224Y11676776D02*
D03*
X2500000Y11750000D02*
D03*
X2676776Y11676776D02*
D03*
X17750000Y11500000D02*
D03*
X17676776Y11323224D02*
D03*
X17500000Y11250001D02*
D03*
X17323224Y11323224D02*
D03*
X17250002Y11500000D02*
D03*
X17323224Y11676776D02*
D03*
X17500000Y11750000D02*
D03*
X17676776Y11676776D02*
D03*
X17750000Y2500000D02*
D03*
X17676776Y2323224D02*
D03*
X17500000Y2250001D02*
D03*
X17323224Y2323224D02*
D03*
X17250002Y2500000D02*
D03*
X17323224Y2676776D02*
D03*
X17500000Y2750000D02*
D03*
X17676776Y2676776D02*
D03*
D107*
X17902586Y6762586D02*
D03*
%TF.MD5,b6432525a21163647b9c38b6b1f3057d*%
M02*
