%TF.GenerationSoftware,Altium Limited,Altium Designer,24.2.2 (26)*%
G04 Layer_Color=8421504*
%FSLAX45Y45*%
%MOMM*%
%TF.SameCoordinates,A2E2EA48-9257-4B33-8537-14B19699C7D1*%
%TF.FilePolarity,Positive*%
%TF.FileFunction,Paste,Top*%
%TF.Part,Single*%
G01*
G75*
%TA.AperFunction,Conductor*%
%ADD11C,0.50000*%
%TA.AperFunction,SMDPad,CuDef*%
%ADD12R,0.35000X1.35000*%
%ADD13R,1.35000X0.35000*%
%ADD14R,1.90000X1.40000*%
%ADD15R,2.00000X0.80000*%
%ADD16R,1.40000X1.80000*%
%ADD17R,1.65872X0.62684*%
G04:AMPARAMS|DCode=18|XSize=1.65872mm|YSize=0.62684mm|CornerRadius=0.31342mm|HoleSize=0mm|Usage=FLASHONLY|Rotation=0.000|XOffset=0mm|YOffset=0mm|HoleType=Round|Shape=RoundedRectangle|*
%AMROUNDEDRECTD18*
21,1,1.65872,0.00000,0,0,0.0*
21,1,1.03188,0.62684,0,0,0.0*
1,1,0.62684,0.51594,0.00000*
1,1,0.62684,-0.51594,0.00000*
1,1,0.62684,-0.51594,0.00000*
1,1,0.62684,0.51594,0.00000*
%
%ADD18ROUNDEDRECTD18*%
%ADD19R,1.10000X1.30000*%
%ADD20R,0.85872X0.91213*%
%ADD21R,0.91213X0.85872*%
G04:AMPARAMS|DCode=22|XSize=0.3mm|YSize=1.65mm|CornerRadius=0.0495mm|HoleSize=0mm|Usage=FLASHONLY|Rotation=90.000|XOffset=0mm|YOffset=0mm|HoleType=Round|Shape=RoundedRectangle|*
%AMROUNDEDRECTD22*
21,1,0.30000,1.55100,0,0,90.0*
21,1,0.20100,1.65000,0,0,90.0*
1,1,0.09900,0.77550,0.10050*
1,1,0.09900,0.77550,-0.10050*
1,1,0.09900,-0.77550,-0.10050*
1,1,0.09900,-0.77550,0.10050*
%
%ADD22ROUNDEDRECTD22*%
G04:AMPARAMS|DCode=23|XSize=0.3mm|YSize=1.65mm|CornerRadius=0.0495mm|HoleSize=0mm|Usage=FLASHONLY|Rotation=180.000|XOffset=0mm|YOffset=0mm|HoleType=Round|Shape=RoundedRectangle|*
%AMROUNDEDRECTD23*
21,1,0.30000,1.55100,0,0,180.0*
21,1,0.20100,1.65000,0,0,180.0*
1,1,0.09900,-0.10050,0.77550*
1,1,0.09900,0.10050,0.77550*
1,1,0.09900,0.10050,-0.77550*
1,1,0.09900,-0.10050,-0.77550*
%
%ADD23ROUNDEDRECTD23*%
%ADD24R,1.80620X1.35443*%
%ADD25R,0.95822X1.00650*%
%ADD26R,2.79000X0.74000*%
%ADD27R,0.57247X0.61535*%
%ADD28R,0.61535X0.57247*%
%ADD29R,1.00000X1.25000*%
%ADD30R,0.80000X1.00000*%
%ADD31R,0.95814X0.96213*%
%ADD32R,1.40000X0.45000*%
%ADD33R,1.84600X2.15000*%
%ADD34R,0.75000X1.00000*%
%ADD35R,0.80000X0.80000*%
%ADD36R,0.90000X1.05000*%
%ADD37R,0.95650X0.96213*%
%ADD38R,0.93504X0.96213*%
%ADD39R,0.96213X0.93504*%
G04:AMPARAMS|DCode=40|XSize=1.1mm|YSize=0.6mm|CornerRadius=0.051mm|HoleSize=0mm|Usage=FLASHONLY|Rotation=0.000|XOffset=0mm|YOffset=0mm|HoleType=Round|Shape=RoundedRectangle|*
%AMROUNDEDRECTD40*
21,1,1.10000,0.49800,0,0,0.0*
21,1,0.99800,0.60000,0,0,0.0*
1,1,0.10200,0.49900,-0.24900*
1,1,0.10200,-0.49900,-0.24900*
1,1,0.10200,-0.49900,0.24900*
1,1,0.10200,0.49900,0.24900*
%
%ADD40ROUNDEDRECTD40*%
G04:AMPARAMS|DCode=42|XSize=1.95543mm|YSize=0.42077mm|CornerRadius=0.21038mm|HoleSize=0mm|Usage=FLASHONLY|Rotation=90.000|XOffset=0mm|YOffset=0mm|HoleType=Round|Shape=RoundedRectangle|*
%AMROUNDEDRECTD42*
21,1,1.95543,0.00000,0,0,90.0*
21,1,1.53467,0.42077,0,0,90.0*
1,1,0.42077,0.00000,0.76733*
1,1,0.42077,0.00000,-0.76733*
1,1,0.42077,0.00000,-0.76733*
1,1,0.42077,0.00000,0.76733*
%
%ADD42ROUNDEDRECTD42*%
%ADD43R,0.42077X1.95543*%
%ADD44R,1.90292X2.70620*%
%ADD45R,2.90000X5.40000*%
%ADD46R,2.20000X2.15000*%
%ADD47R,1.45620X1.25464*%
%ADD48R,0.95872X0.91213*%
%ADD49R,1.13108X0.91213*%
%ADD50R,1.20000X0.60000*%
%ADD51R,1.00000X0.80000*%
%ADD52R,1.00650X0.95822*%
%ADD53R,1.40000X2.10000*%
%ADD54R,1.10000X0.45000*%
%ADD55R,3.50000X4.10000*%
%ADD56R,0.66213X0.91213*%
%ADD57R,1.90000X1.10000*%
%ADD58R,0.61213X0.68106*%
%ADD59R,0.91213X0.95872*%
%ADD60R,1.95524X0.49493*%
G04:AMPARAMS|DCode=61|XSize=1.95524mm|YSize=0.49493mm|CornerRadius=0.24746mm|HoleSize=0mm|Usage=FLASHONLY|Rotation=0.000|XOffset=0mm|YOffset=0mm|HoleType=Round|Shape=RoundedRectangle|*
%AMROUNDEDRECTD61*
21,1,1.95524,0.00000,0,0,0.0*
21,1,1.46031,0.49493,0,0,0.0*
1,1,0.49493,0.73015,0.00000*
1,1,0.49493,-0.73015,0.00000*
1,1,0.49493,-0.73015,0.00000*
1,1,0.49493,0.73015,0.00000*
%
%ADD61ROUNDEDRECTD61*%
G04:AMPARAMS|DCode=62|XSize=0.49493mm|YSize=1.95524mm|CornerRadius=0.24746mm|HoleSize=0mm|Usage=FLASHONLY|Rotation=0.000|XOffset=0mm|YOffset=0mm|HoleType=Round|Shape=RoundedRectangle|*
%AMROUNDEDRECTD62*
21,1,0.49493,1.46031,0,0,0.0*
21,1,0.00000,1.95524,0,0,0.0*
1,1,0.49493,0.00000,-0.73015*
1,1,0.49493,0.00000,-0.73015*
1,1,0.49493,0.00000,0.73015*
1,1,0.49493,0.00000,0.73015*
%
%ADD62ROUNDEDRECTD62*%
%ADD63R,1.10000X0.60000*%
%ADD64R,0.91213X0.95814*%
%ADD65R,0.96213X0.95650*%
%ADD66R,0.95814X0.91213*%
%ADD67R,0.91213X1.13108*%
%ADD68R,0.41000X1.60000*%
%ADD69R,0.80000X0.80000*%
%ADD70R,1.35000X0.40000*%
%ADD71R,1.90000X1.50000*%
%ADD72R,0.91213X0.66213*%
G04:AMPARAMS|DCode=73|XSize=1.65872mm|YSize=0.62684mm|CornerRadius=0.31342mm|HoleSize=0mm|Usage=FLASHONLY|Rotation=90.000|XOffset=0mm|YOffset=0mm|HoleType=Round|Shape=RoundedRectangle|*
%AMROUNDEDRECTD73*
21,1,1.65872,0.00000,0,0,90.0*
21,1,1.03188,0.62684,0,0,90.0*
1,1,0.62684,0.00000,0.51594*
1,1,0.62684,0.00000,-0.51594*
1,1,0.62684,0.00000,-0.51594*
1,1,0.62684,0.00000,0.51594*
%
%ADD73ROUNDEDRECTD73*%
%ADD74R,0.62684X1.65872*%
%ADD75R,0.80000X1.20000*%
%ADD76O,0.70000X2.50000*%
%TA.AperFunction,NonConductor*%
%ADD173R,2.01544X1.61545*%
G36*
X17950000Y5710000D02*
X17760001D01*
Y5840000D01*
X17950000D01*
Y5710000D01*
D02*
G37*
G36*
X17900003Y5660002D02*
X17810001Y5660000D01*
Y5710000D01*
X17900003D01*
Y5660002D01*
D02*
G37*
G36*
X17900000Y6430001D02*
X17809998D01*
Y6479998D01*
X17900000Y6480001D01*
Y6430001D01*
D02*
G37*
G36*
X17950000Y6300000D02*
X17760001D01*
Y6430000D01*
X17950000D01*
Y6300000D01*
D02*
G37*
D11*
X17925000Y5710000D02*
G03*
X17925000Y5710000I-25000J0D01*
G01*
X17835001D02*
G03*
X17835001Y5710000I-25000J0D01*
G01*
X17925000Y6430000D02*
G03*
X17925000Y6430000I-25000J0D01*
G01*
X17835001D02*
G03*
X17835001Y6430000I-25000J0D01*
G01*
D12*
X10642500Y6162501D02*
D03*
X10592500D02*
D03*
X10542500D02*
D03*
X10492500D02*
D03*
X10442500D02*
D03*
X10392500D02*
D03*
X10342500D02*
D03*
X10292500D02*
D03*
X10242500D02*
D03*
X10192500D02*
D03*
X10142500D02*
D03*
X10092500D02*
D03*
X10042500D02*
D03*
X9992500D02*
D03*
X9942500D02*
D03*
X9892500D02*
D03*
X9842500D02*
D03*
X9792500D02*
D03*
X9742500D02*
D03*
X9692500D02*
D03*
X9642500D02*
D03*
X9592500D02*
D03*
X9542500D02*
D03*
X9492500D02*
D03*
X9442500D02*
D03*
X9392500D02*
D03*
X9342500D02*
D03*
X9292500D02*
D03*
X9242500D02*
D03*
X9192500D02*
D03*
X9142500D02*
D03*
X9092500D02*
D03*
X9042500D02*
D03*
X8992500D02*
D03*
X8942500D02*
D03*
X8892500D02*
D03*
Y8287501D02*
D03*
X8942500D02*
D03*
X8992500D02*
D03*
X9042500D02*
D03*
X9092500D02*
D03*
X9142500D02*
D03*
X9192500D02*
D03*
X9242500D02*
D03*
X9292500D02*
D03*
X9342500D02*
D03*
X9392500D02*
D03*
X9442500D02*
D03*
X9492500D02*
D03*
X9542500D02*
D03*
X9592500D02*
D03*
X9642500D02*
D03*
X9692500D02*
D03*
X9742500D02*
D03*
X9792500D02*
D03*
X9842500D02*
D03*
X9892500D02*
D03*
X9942500D02*
D03*
X9992500D02*
D03*
X10042500D02*
D03*
X10092500D02*
D03*
X10142500D02*
D03*
X10192500D02*
D03*
X10242500D02*
D03*
X10292500D02*
D03*
X10342500D02*
D03*
X10392500D02*
D03*
X10442500D02*
D03*
X10492500D02*
D03*
X10542500D02*
D03*
X10592500D02*
D03*
X10642500D02*
D03*
D13*
X8705000Y6350001D02*
D03*
Y6400001D02*
D03*
Y6450001D02*
D03*
Y6500001D02*
D03*
Y6550001D02*
D03*
Y6600001D02*
D03*
Y6650001D02*
D03*
Y6700001D02*
D03*
Y6750001D02*
D03*
Y6800001D02*
D03*
Y6850001D02*
D03*
Y6900001D02*
D03*
Y6950001D02*
D03*
Y7000001D02*
D03*
Y7050001D02*
D03*
Y7100001D02*
D03*
Y7150001D02*
D03*
Y7200001D02*
D03*
Y7250001D02*
D03*
Y7300001D02*
D03*
Y7350001D02*
D03*
Y7400001D02*
D03*
Y7450001D02*
D03*
Y7500001D02*
D03*
Y7550001D02*
D03*
Y7600001D02*
D03*
Y7650001D02*
D03*
Y7700001D02*
D03*
Y7750001D02*
D03*
Y7800001D02*
D03*
Y7850001D02*
D03*
Y7900001D02*
D03*
Y7950001D02*
D03*
Y8000001D02*
D03*
Y8050001D02*
D03*
Y8100001D02*
D03*
X10830000D02*
D03*
Y8050001D02*
D03*
Y8000001D02*
D03*
Y7950001D02*
D03*
Y7900001D02*
D03*
Y7850001D02*
D03*
Y7800001D02*
D03*
Y7750001D02*
D03*
Y7700001D02*
D03*
Y7650001D02*
D03*
Y7600001D02*
D03*
Y7550001D02*
D03*
Y7500001D02*
D03*
Y7450001D02*
D03*
Y7400001D02*
D03*
Y7350001D02*
D03*
Y7300001D02*
D03*
Y7250001D02*
D03*
Y7200001D02*
D03*
Y7150001D02*
D03*
Y7100001D02*
D03*
Y7050001D02*
D03*
Y7000001D02*
D03*
Y6950001D02*
D03*
Y6900001D02*
D03*
Y6850001D02*
D03*
Y6800001D02*
D03*
Y6750001D02*
D03*
Y6700001D02*
D03*
Y6650001D02*
D03*
Y6600001D02*
D03*
Y6550001D02*
D03*
Y6500001D02*
D03*
Y6450001D02*
D03*
Y6400001D02*
D03*
Y6350001D02*
D03*
D14*
X17789999Y8516000D02*
D03*
X17689999Y7201000D02*
D03*
D15*
X17439999Y8050000D02*
D03*
X17400000Y7940000D02*
D03*
X17439999Y7830000D02*
D03*
X17460001Y7720000D02*
D03*
X17439999Y7610000D02*
D03*
X17460001Y7500000D02*
D03*
X17439999Y7390000D02*
D03*
Y7280000D02*
D03*
D16*
X16385001Y7931000D02*
D03*
Y7361000D02*
D03*
D17*
X14510001Y8143000D02*
D03*
X14512331Y7651500D02*
D03*
X14510001Y7160000D02*
D03*
D18*
Y7960000D02*
D03*
X14705342Y8051500D02*
D03*
X14512331Y7468500D02*
D03*
X14707671Y7560000D02*
D03*
X14705342Y7068500D02*
D03*
X14510001Y6977000D02*
D03*
D19*
X11790000Y7280001D02*
D03*
Y7490001D02*
D03*
X11625000D02*
D03*
Y7280001D02*
D03*
X13622501Y10395000D02*
D03*
Y10185000D02*
D03*
X13457500D02*
D03*
Y10395000D02*
D03*
D20*
X15630063Y8880001D02*
D03*
X15474721D02*
D03*
X15630063Y8660000D02*
D03*
X15474721D02*
D03*
X15627733Y9330000D02*
D03*
X15472392D02*
D03*
X15630063Y9100001D02*
D03*
X15474721D02*
D03*
X11162344Y10669999D02*
D03*
X11317685D02*
D03*
X10694673D02*
D03*
X10850015D02*
D03*
X9863170Y10660000D02*
D03*
X9707828D02*
D03*
X10150158D02*
D03*
X10305499D02*
D03*
X8748341Y10680000D02*
D03*
X8593000D02*
D03*
X9035329D02*
D03*
X9190671D02*
D03*
X3589962Y8252581D02*
D03*
X3745303D02*
D03*
X3589962Y8082581D02*
D03*
X3745303D02*
D03*
X3589962Y7917410D02*
D03*
X3745303D02*
D03*
X3589962Y7747410D02*
D03*
X3745303D02*
D03*
X3590002Y6899991D02*
D03*
X3745343D02*
D03*
X3590000Y7240000D02*
D03*
X3745342D02*
D03*
X3590000Y7070000D02*
D03*
X3745342D02*
D03*
X3590007Y7410000D02*
D03*
X3745349D02*
D03*
X3590002Y6729991D02*
D03*
X3745343D02*
D03*
X3590008Y6389991D02*
D03*
X3745350D02*
D03*
X3589957Y6220050D02*
D03*
X3745298D02*
D03*
X3590007Y7580000D02*
D03*
X3745349D02*
D03*
X3590008Y6559991D02*
D03*
X3745350D02*
D03*
X3590023Y5710000D02*
D03*
X3745364D02*
D03*
X3589957Y6050050D02*
D03*
X3745298D02*
D03*
X3590023Y5880000D02*
D03*
X3745364D02*
D03*
X17145436Y3047607D02*
D03*
X17300777D02*
D03*
X16614659Y3969999D02*
D03*
X16770000D02*
D03*
X6902329Y8030000D02*
D03*
X7057671D02*
D03*
X7751013Y10680000D02*
D03*
X7595672D02*
D03*
X8193343D02*
D03*
X8038001D02*
D03*
X15992329Y6030000D02*
D03*
X16147672D02*
D03*
X12287671Y8930000D02*
D03*
X12132329D02*
D03*
X8227671Y6750000D02*
D03*
X8072329D02*
D03*
X10907671Y5730000D02*
D03*
X10752329D02*
D03*
X17607671Y5360000D02*
D03*
X17452328D02*
D03*
X17534657Y4430000D02*
D03*
X17689999D02*
D03*
X13314722Y9600001D02*
D03*
X13470062D02*
D03*
X15230063Y9870001D02*
D03*
X15074721D02*
D03*
X7247671Y6540000D02*
D03*
X7092329D02*
D03*
X7092329Y6370000D02*
D03*
X7247670D02*
D03*
D21*
X6590000Y5662329D02*
D03*
Y5817671D02*
D03*
X5567414Y4904659D02*
D03*
Y5060000D02*
D03*
X5397414Y4904659D02*
D03*
Y5060000D02*
D03*
X5230000Y9039986D02*
D03*
Y8884644D02*
D03*
X5060000Y9039986D02*
D03*
Y8884644D02*
D03*
X5227326Y4904745D02*
D03*
Y5060086D02*
D03*
X5057326Y4904745D02*
D03*
Y5060086D02*
D03*
X4890000Y9039993D02*
D03*
Y8884652D02*
D03*
X4720000Y9039993D02*
D03*
Y8884652D02*
D03*
X4887326Y4904738D02*
D03*
Y5060080D02*
D03*
X4717326Y4904738D02*
D03*
Y5060080D02*
D03*
X4550000Y9040000D02*
D03*
Y8884659D02*
D03*
X4380000Y9040000D02*
D03*
Y8884659D02*
D03*
X4547326Y4904731D02*
D03*
Y5060072D02*
D03*
X4377326Y4904731D02*
D03*
Y5060072D02*
D03*
X14080000Y8127671D02*
D03*
Y7972329D02*
D03*
Y7137671D02*
D03*
Y6982329D02*
D03*
Y7627671D02*
D03*
Y7472329D02*
D03*
X13830000Y3452329D02*
D03*
Y3607671D02*
D03*
X5569995Y8884725D02*
D03*
Y9040067D02*
D03*
X5399996Y8884725D02*
D03*
Y9040067D02*
D03*
X14084784Y6670000D02*
D03*
Y6514659D02*
D03*
X14880000Y5842329D02*
D03*
Y5997671D02*
D03*
X14084784Y6030000D02*
D03*
Y5874659D02*
D03*
X14192392Y10552330D02*
D03*
Y10707671D02*
D03*
X10340000Y5332329D02*
D03*
Y5487671D02*
D03*
X14232391Y8454659D02*
D03*
Y8610001D02*
D03*
X14732391Y10707671D02*
D03*
Y10552330D02*
D03*
X14372392Y10707671D02*
D03*
Y10552330D02*
D03*
X14552393Y10707671D02*
D03*
Y10552330D02*
D03*
X11727000Y4302329D02*
D03*
Y4457670D02*
D03*
X10926999Y4302329D02*
D03*
Y4457670D02*
D03*
X13327000Y4302329D02*
D03*
Y4457670D02*
D03*
X12527000Y4302329D02*
D03*
Y4457670D02*
D03*
X7730000Y4302329D02*
D03*
Y4457671D02*
D03*
X8526999Y4302329D02*
D03*
Y4457670D02*
D03*
X10127000Y4302329D02*
D03*
Y4457670D02*
D03*
X9327000Y4302329D02*
D03*
Y4457670D02*
D03*
X6760000Y5662329D02*
D03*
Y5817671D02*
D03*
X5890000Y5337671D02*
D03*
Y5182329D02*
D03*
X6060000Y5337671D02*
D03*
Y5182329D02*
D03*
X6230000Y5337671D02*
D03*
Y5182329D02*
D03*
D22*
X13824892Y9155001D02*
D03*
Y9205001D02*
D03*
Y9255001D02*
D03*
Y9305001D02*
D03*
Y9355001D02*
D03*
Y9405001D02*
D03*
Y9455001D02*
D03*
Y9505001D02*
D03*
Y9555001D02*
D03*
Y9605001D02*
D03*
Y9655001D02*
D03*
Y9705001D02*
D03*
X14689893D02*
D03*
Y9655001D02*
D03*
Y9605001D02*
D03*
Y9555001D02*
D03*
Y9505001D02*
D03*
Y9455001D02*
D03*
Y9405001D02*
D03*
Y9355001D02*
D03*
Y9305001D02*
D03*
Y9255001D02*
D03*
Y9205001D02*
D03*
Y9155001D02*
D03*
D23*
X13982391Y9862501D02*
D03*
X14032391D02*
D03*
X14082391D02*
D03*
X14132391D02*
D03*
X14182391D02*
D03*
X14232391D02*
D03*
X14282391D02*
D03*
X14332391D02*
D03*
X14382391D02*
D03*
X14432391D02*
D03*
X14482391D02*
D03*
X14532391D02*
D03*
Y8997501D02*
D03*
X14482391D02*
D03*
X14432391D02*
D03*
X14382391D02*
D03*
X14332391D02*
D03*
X14282391D02*
D03*
X14232391D02*
D03*
X14182391D02*
D03*
X14132391D02*
D03*
X14082391D02*
D03*
X14032391D02*
D03*
X13982391D02*
D03*
D24*
X15310001Y3022411D02*
D03*
Y3297588D02*
D03*
X15570000Y3295177D02*
D03*
Y3020000D02*
D03*
D25*
X15789999Y3017414D02*
D03*
Y3162585D02*
D03*
X3915349Y7572586D02*
D03*
Y7427415D02*
D03*
X3915303Y8089996D02*
D03*
Y8235167D02*
D03*
Y7754825D02*
D03*
Y7899996D02*
D03*
X3915341Y7232586D02*
D03*
Y7087415D02*
D03*
X3915343Y6737406D02*
D03*
Y6882577D02*
D03*
X3915298Y6212635D02*
D03*
Y6067464D02*
D03*
X3915350Y6397406D02*
D03*
Y6542577D02*
D03*
X3915364Y5872586D02*
D03*
Y5727415D02*
D03*
X13904784Y5877414D02*
D03*
Y6022586D02*
D03*
Y6520000D02*
D03*
Y6665171D02*
D03*
D26*
X9650000Y5150000D02*
D03*
Y5277000D02*
D03*
Y5404000D02*
D03*
Y5531000D02*
D03*
Y5658000D02*
D03*
X9243000Y5150000D02*
D03*
Y5277000D02*
D03*
Y5404000D02*
D03*
Y5531000D02*
D03*
Y5658000D02*
D03*
D27*
X10190000Y8752856D02*
D03*
Y8667144D02*
D03*
X9490000Y5940001D02*
D03*
Y5854289D02*
D03*
X13789999Y10372856D02*
D03*
Y10287144D02*
D03*
X11450000Y7297144D02*
D03*
Y7382856D02*
D03*
X15042392Y9492857D02*
D03*
Y9407144D02*
D03*
X9080000Y8667144D02*
D03*
Y8752856D02*
D03*
X6440000Y5832856D02*
D03*
Y5747144D02*
D03*
X5900000Y8059644D02*
D03*
Y8145356D02*
D03*
X5940000Y5835356D02*
D03*
Y5749644D02*
D03*
X6040000Y8059644D02*
D03*
Y8145356D02*
D03*
X6260000Y5832856D02*
D03*
Y5747144D02*
D03*
X15182391Y9492857D02*
D03*
Y9407144D02*
D03*
X14139999Y10187144D02*
D03*
Y10272857D02*
D03*
X8600000Y8645714D02*
D03*
Y8560001D02*
D03*
X10540000Y8645714D02*
D03*
Y8560001D02*
D03*
X11460000Y8162857D02*
D03*
Y8248570D02*
D03*
X9990000Y5854289D02*
D03*
Y5940001D02*
D03*
X13520000Y7247143D02*
D03*
Y7332856D02*
D03*
D28*
X9270000Y8530000D02*
D03*
X9355713D02*
D03*
X11140000Y7760001D02*
D03*
X11225712D02*
D03*
X7042856Y7070000D02*
D03*
X6957144D02*
D03*
X4705356Y7290000D02*
D03*
X4619643D02*
D03*
X4702856Y6650000D02*
D03*
X4617143D02*
D03*
X6957144Y6870000D02*
D03*
X7042856D02*
D03*
X13542392Y9160001D02*
D03*
X13456679D02*
D03*
X14372392Y10240001D02*
D03*
X14458105D02*
D03*
X10052856Y8530000D02*
D03*
X9967144D02*
D03*
X8324287Y7550001D02*
D03*
X8410000D02*
D03*
X11225712Y7900001D02*
D03*
X11140000D02*
D03*
X11222856Y7620001D02*
D03*
X11137144D02*
D03*
X11195712Y7150001D02*
D03*
X11110000D02*
D03*
X10832856Y5890000D02*
D03*
X10747144D02*
D03*
X8324287Y7000001D02*
D03*
X8410000D02*
D03*
X8324287Y6110001D02*
D03*
X8410000D02*
D03*
X15562856Y10070000D02*
D03*
X15477144D02*
D03*
D29*
X11209672Y10290000D02*
D03*
X11409672D02*
D03*
X10756672Y10289999D02*
D03*
X10956672D02*
D03*
X9955157Y10280001D02*
D03*
X9755157D02*
D03*
X10212157Y10280000D02*
D03*
X10412157D02*
D03*
X8840328Y10300000D02*
D03*
X8640328D02*
D03*
X9097328Y10300000D02*
D03*
X9297328D02*
D03*
X8100000Y10300000D02*
D03*
X8300000D02*
D03*
X7843000Y10300000D02*
D03*
X7643000D02*
D03*
D30*
X11154672Y10480000D02*
D03*
X11304672D02*
D03*
X10701672D02*
D03*
X10851672D02*
D03*
X9850157Y10470000D02*
D03*
X9700157D02*
D03*
X10157157D02*
D03*
X10307157D02*
D03*
X8735328Y10490000D02*
D03*
X8585328D02*
D03*
X9042328D02*
D03*
X9192328D02*
D03*
X12475000Y6942001D02*
D03*
X12625000D02*
D03*
X15860001Y8149999D02*
D03*
X16010001D02*
D03*
X16010001Y6940000D02*
D03*
X15860001D02*
D03*
X16010001Y7140000D02*
D03*
X15860001D02*
D03*
X16010001Y7343333D02*
D03*
X15860001D02*
D03*
X16010001Y7545000D02*
D03*
X15860001D02*
D03*
X16010001Y7746666D02*
D03*
X15860001D02*
D03*
X16010001Y7948333D02*
D03*
X15860001D02*
D03*
X8195000Y10490000D02*
D03*
X8045000D02*
D03*
X7738000D02*
D03*
X7588000D02*
D03*
D31*
X11147301Y8240000D02*
D03*
X11292699D02*
D03*
X15622699Y9870000D02*
D03*
X15477301D02*
D03*
X6227301Y3220000D02*
D03*
X6372699D02*
D03*
X5857301Y8530000D02*
D03*
X6002699D02*
D03*
D32*
X15710001Y5667500D02*
D03*
Y5602500D02*
D03*
Y5537500D02*
D03*
Y5472500D02*
D03*
X16150000D02*
D03*
Y5537500D02*
D03*
Y5602500D02*
D03*
Y5667500D02*
D03*
D33*
X15930000Y5570000D02*
D03*
D34*
X17275000Y3502000D02*
D03*
X17125000D02*
D03*
X17125000Y3930000D02*
D03*
X17275000D02*
D03*
X13814999Y7350000D02*
D03*
X13664999D02*
D03*
X11902000Y4099999D02*
D03*
X11752000D02*
D03*
X11372000D02*
D03*
X11522000D02*
D03*
X10572000D02*
D03*
X10722000D02*
D03*
X11102000D02*
D03*
X10952000D02*
D03*
X13502000D02*
D03*
X13352000D02*
D03*
X12972000D02*
D03*
X13122000D02*
D03*
X12172000D02*
D03*
X12322000D02*
D03*
X12702000D02*
D03*
X12552000D02*
D03*
X7905000Y4100000D02*
D03*
X7755000D02*
D03*
X7375000D02*
D03*
X7525000D02*
D03*
X8172000Y4099999D02*
D03*
X8322000D02*
D03*
X8702000D02*
D03*
X8552000D02*
D03*
X10302000D02*
D03*
X10152000D02*
D03*
X9772000D02*
D03*
X9922000D02*
D03*
X8972000D02*
D03*
X9122000D02*
D03*
X9502000D02*
D03*
X9352000D02*
D03*
D35*
X17130000Y4098000D02*
D03*
X17289999D02*
D03*
X17130000Y3220000D02*
D03*
X17289999D02*
D03*
X17289999Y3670000D02*
D03*
X17130000D02*
D03*
X15100002Y6940000D02*
D03*
X14939999D02*
D03*
X15090001Y7930000D02*
D03*
X14930000D02*
D03*
X15100002Y7430000D02*
D03*
X14940001D02*
D03*
X14960001Y6490000D02*
D03*
X15120000D02*
D03*
X16350000Y11150000D02*
D03*
X16510001D02*
D03*
D36*
X15942500Y2680000D02*
D03*
X15797501D02*
D03*
X16282500D02*
D03*
X16137500D02*
D03*
D37*
X16480000D02*
D03*
X16630171D02*
D03*
D38*
X14948462Y7640000D02*
D03*
X15091541D02*
D03*
X14948460Y7150000D02*
D03*
X15091541D02*
D03*
X16618462Y3790000D02*
D03*
X16761539D02*
D03*
X14968462Y6650000D02*
D03*
X15111539D02*
D03*
X15091541Y8140000D02*
D03*
X14948460D02*
D03*
X15960001Y10920000D02*
D03*
X15816920D02*
D03*
X15961539Y11100000D02*
D03*
X15818462D02*
D03*
X15961539Y10730000D02*
D03*
X15818462D02*
D03*
X13821539Y7170000D02*
D03*
X13678461D02*
D03*
X17538460Y4620000D02*
D03*
X17681538D02*
D03*
X15223930Y9690001D02*
D03*
X15080853D02*
D03*
X11488539Y4770000D02*
D03*
X11345460D02*
D03*
X10688539D02*
D03*
X10545460D02*
D03*
X13088539D02*
D03*
X12945461D02*
D03*
X12288539D02*
D03*
X12145460D02*
D03*
X7491539Y4770000D02*
D03*
X7348461D02*
D03*
X8288539Y4770000D02*
D03*
X8145460D02*
D03*
X9888539D02*
D03*
X9745460D02*
D03*
X9088539D02*
D03*
X8945460D02*
D03*
D39*
X14260001Y8121540D02*
D03*
Y7978461D02*
D03*
Y7621539D02*
D03*
Y7478461D02*
D03*
Y7131539D02*
D03*
Y6988460D02*
D03*
X14880000Y5651539D02*
D03*
Y5508461D02*
D03*
X14020000Y3840000D02*
D03*
Y3983079D02*
D03*
X14012392Y10701540D02*
D03*
Y10558461D02*
D03*
D40*
X15905000Y5220000D02*
D03*
Y5125000D02*
D03*
Y5030000D02*
D03*
X16164999D02*
D03*
Y5125000D02*
D03*
Y5220000D02*
D03*
X16630000Y5655000D02*
D03*
Y5560000D02*
D03*
Y5465000D02*
D03*
X16889999D02*
D03*
Y5560000D02*
D03*
Y5655000D02*
D03*
X16889999Y5025000D02*
D03*
Y5120000D02*
D03*
Y5215000D02*
D03*
X16630000D02*
D03*
Y5120000D02*
D03*
Y5025000D02*
D03*
X14584999Y3655000D02*
D03*
Y3750000D02*
D03*
Y3845000D02*
D03*
X14315001D02*
D03*
Y3750000D02*
D03*
Y3655000D02*
D03*
D42*
X16012500Y3597538D02*
D03*
X16077499D02*
D03*
X16142500D02*
D03*
X16207500D02*
D03*
X16272501D02*
D03*
X16337500D02*
D03*
X16402499D02*
D03*
X16467500D02*
D03*
Y3022462D02*
D03*
X16402499D02*
D03*
X16337500D02*
D03*
X16272501D02*
D03*
X16207500D02*
D03*
X16142500D02*
D03*
X16077499D02*
D03*
D43*
X16012500D02*
D03*
D44*
X16110001Y4230000D02*
D03*
X15879878D02*
D03*
X16110001Y4650000D02*
D03*
X15879878D02*
D03*
D45*
X15380000Y4690000D02*
D03*
X14410001D02*
D03*
D46*
X14550000Y3070000D02*
D03*
X14989999D02*
D03*
D47*
X15580000Y3815156D02*
D03*
Y3650000D02*
D03*
X15310001Y3815156D02*
D03*
Y3650000D02*
D03*
X15048000Y3815157D02*
D03*
Y3650001D02*
D03*
D48*
X16142671Y5860000D02*
D03*
X15997330D02*
D03*
X16762671Y4139999D02*
D03*
X16617329D02*
D03*
X11292671Y8065714D02*
D03*
X11147329D02*
D03*
X6390000Y4910000D02*
D03*
X6244659D02*
D03*
D49*
X17594052Y5530000D02*
D03*
X17465948D02*
D03*
D50*
X17164999Y6135000D02*
D03*
Y6040000D02*
D03*
Y5945000D02*
D03*
X16914999D02*
D03*
Y6040000D02*
D03*
Y6135000D02*
D03*
D51*
X14020000Y3455000D02*
D03*
Y3605000D02*
D03*
X11940000Y5090000D02*
D03*
Y5240000D02*
D03*
X12448000D02*
D03*
Y5090000D02*
D03*
X12194000Y5240000D02*
D03*
Y5090000D02*
D03*
X11686000Y5240000D02*
D03*
Y5090000D02*
D03*
D52*
X13857414Y4170000D02*
D03*
X14002586D02*
D03*
X5414829Y5230000D02*
D03*
X5560000D02*
D03*
X5417410Y8714725D02*
D03*
X5562581D02*
D03*
X5074740Y5230086D02*
D03*
X5219911D02*
D03*
X5077415Y8714644D02*
D03*
X5222586D02*
D03*
X4734740Y5230079D02*
D03*
X4879911D02*
D03*
X4737414Y8714652D02*
D03*
X4882586D02*
D03*
X4394740Y5230072D02*
D03*
X4539911D02*
D03*
X4397414Y8714659D02*
D03*
X4542586D02*
D03*
X12897415Y6952001D02*
D03*
X13042586D02*
D03*
X6002586Y8710000D02*
D03*
X5857414D02*
D03*
X14294785Y6270000D02*
D03*
X14149612D02*
D03*
X14304784Y5620000D02*
D03*
X14159613D02*
D03*
X14317413Y3440000D02*
D03*
X14462585D02*
D03*
X15962585Y10060000D02*
D03*
X15817415D02*
D03*
X15962585Y10240000D02*
D03*
X15817415D02*
D03*
X10745157Y9220001D02*
D03*
X10890328D02*
D03*
X9749986D02*
D03*
X9895157D02*
D03*
X8635157Y9240001D02*
D03*
X8780328D02*
D03*
X7637829Y9240000D02*
D03*
X7783000D02*
D03*
X17902586Y6900000D02*
D03*
X17757414D02*
D03*
X15487221Y8480001D02*
D03*
X15632391D02*
D03*
X15479807Y9510001D02*
D03*
X15624979D02*
D03*
X6389915Y4730000D02*
D03*
X6244744D02*
D03*
X6377329Y3580000D02*
D03*
X6232158D02*
D03*
D53*
X13085001Y8525000D02*
D03*
Y7615000D02*
D03*
X13535001Y8525000D02*
D03*
Y7615000D02*
D03*
X12585000D02*
D03*
Y8525000D02*
D03*
X12135000Y7615000D02*
D03*
Y8525000D02*
D03*
D54*
X12480001Y6752501D02*
D03*
Y6625501D02*
D03*
Y6498501D02*
D03*
Y6371501D02*
D03*
X13040001D02*
D03*
Y6498501D02*
D03*
Y6625501D02*
D03*
Y6752501D02*
D03*
D55*
X12760001Y6562001D02*
D03*
D56*
X12882500Y7142001D02*
D03*
X13057500D02*
D03*
X4710000Y7440000D02*
D03*
X4535000D02*
D03*
X13547501Y8970000D02*
D03*
X13372501D02*
D03*
X15464893Y9690001D02*
D03*
X15639893D02*
D03*
X5867244Y3400000D02*
D03*
X6042244D02*
D03*
X5867244Y3220000D02*
D03*
X6042244D02*
D03*
X5867244Y3580000D02*
D03*
X6042244D02*
D03*
X6394744Y3400000D02*
D03*
X6219744D02*
D03*
X7267500Y6720000D02*
D03*
X7092500D02*
D03*
X7265000Y7220000D02*
D03*
X7090000D02*
D03*
X6037500Y8350000D02*
D03*
X5862500D02*
D03*
X4525000Y6500000D02*
D03*
X4700000D02*
D03*
D57*
X11729940Y6615046D02*
D03*
Y6365046D02*
D03*
D58*
X11960000Y6578447D02*
D03*
Y6661555D02*
D03*
Y6411555D02*
D03*
Y6328447D02*
D03*
D59*
X11400000Y6442671D02*
D03*
Y6297329D02*
D03*
D60*
X5162452Y7587499D02*
D03*
D61*
Y7522500D02*
D03*
Y7457499D02*
D03*
Y7392500D02*
D03*
Y7327499D02*
D03*
Y7262500D02*
D03*
Y7197499D02*
D03*
Y7132500D02*
D03*
Y7067499D02*
D03*
Y7002500D02*
D03*
Y6937499D02*
D03*
Y6872500D02*
D03*
Y6807499D02*
D03*
Y6742500D02*
D03*
Y6677499D02*
D03*
Y6612500D02*
D03*
Y6547499D02*
D03*
Y6482500D02*
D03*
Y6417499D02*
D03*
Y6352500D02*
D03*
X6697548D02*
D03*
Y6417499D02*
D03*
Y6482500D02*
D03*
Y6547499D02*
D03*
Y6612500D02*
D03*
Y6677499D02*
D03*
Y6742500D02*
D03*
Y6807499D02*
D03*
Y6872500D02*
D03*
Y6937499D02*
D03*
Y7002500D02*
D03*
Y7067499D02*
D03*
Y7132500D02*
D03*
Y7197499D02*
D03*
Y7262500D02*
D03*
Y7327499D02*
D03*
Y7392500D02*
D03*
Y7457499D02*
D03*
Y7522500D02*
D03*
Y7587499D02*
D03*
D62*
X5312500Y6202451D02*
D03*
X5377500D02*
D03*
X5442500D02*
D03*
X5507500D02*
D03*
X5572500D02*
D03*
X5637500D02*
D03*
X5702500D02*
D03*
X5767500D02*
D03*
X5832500D02*
D03*
X5897500D02*
D03*
X5962500D02*
D03*
X6027500D02*
D03*
X6092500D02*
D03*
X6157500D02*
D03*
X6222500D02*
D03*
X6287500D02*
D03*
X6352500D02*
D03*
X6417500D02*
D03*
X6482500D02*
D03*
X6547500D02*
D03*
Y7737548D02*
D03*
X6482500D02*
D03*
X6417500D02*
D03*
X6352500D02*
D03*
X6287500D02*
D03*
X6222500D02*
D03*
X6157500D02*
D03*
X6092500D02*
D03*
X6027500D02*
D03*
X5962500D02*
D03*
X5897500D02*
D03*
X5832500D02*
D03*
X5767500D02*
D03*
X5702500D02*
D03*
X5637500D02*
D03*
X5572500D02*
D03*
X5507500D02*
D03*
X5442500D02*
D03*
X5377500D02*
D03*
X5312500D02*
D03*
D63*
X14574783Y6485000D02*
D03*
Y6580000D02*
D03*
Y6675000D02*
D03*
X14294785D02*
D03*
Y6485000D02*
D03*
X14584836Y5845048D02*
D03*
Y5940048D02*
D03*
Y6035048D02*
D03*
X14304836D02*
D03*
Y5845048D02*
D03*
D64*
X15487804Y5517301D02*
D03*
Y5662699D02*
D03*
X8370000Y6274602D02*
D03*
Y6420001D02*
D03*
D65*
X13830000Y3840000D02*
D03*
Y3990171D02*
D03*
D66*
X8764601Y8600001D02*
D03*
X8910000D02*
D03*
D67*
X11390000Y7745949D02*
D03*
Y7874054D02*
D03*
D68*
X10847750Y10040000D02*
D03*
X10911250D02*
D03*
X10974750D02*
D03*
X11038250D02*
D03*
X11101750D02*
D03*
X11165250D02*
D03*
X11228750D02*
D03*
X11292250D02*
D03*
Y9500000D02*
D03*
X11228750D02*
D03*
X11165250D02*
D03*
X11101750D02*
D03*
X11038250D02*
D03*
X10974750D02*
D03*
X10911250D02*
D03*
X10847750D02*
D03*
X9847750Y10040000D02*
D03*
X9911250D02*
D03*
X9974750D02*
D03*
X10038250D02*
D03*
X10101750D02*
D03*
X10165250D02*
D03*
X10228750D02*
D03*
X10292250D02*
D03*
Y9500000D02*
D03*
X10228750D02*
D03*
X10165250D02*
D03*
X10101750D02*
D03*
X10038250D02*
D03*
X9974750D02*
D03*
X9911250D02*
D03*
X9847750D02*
D03*
X7740750Y10050000D02*
D03*
X7804250D02*
D03*
X7867750D02*
D03*
X7931250D02*
D03*
X7994750D02*
D03*
X8058250D02*
D03*
X8121750D02*
D03*
X8185250D02*
D03*
Y9510000D02*
D03*
X8121750D02*
D03*
X8058250D02*
D03*
X7994750D02*
D03*
X7931250D02*
D03*
X7867750D02*
D03*
X7804250D02*
D03*
X7740750D02*
D03*
X8738078Y10050000D02*
D03*
X8801578D02*
D03*
X8865078D02*
D03*
X8928578D02*
D03*
X8992078D02*
D03*
X9055578D02*
D03*
X9119078D02*
D03*
X9182578D02*
D03*
Y9510001D02*
D03*
X9119078D02*
D03*
X9055578D02*
D03*
X8992078D02*
D03*
X8928578D02*
D03*
X8865078D02*
D03*
X8801578D02*
D03*
X8738078D02*
D03*
D69*
X13507001Y4290000D02*
D03*
Y4450000D02*
D03*
X12707000Y4290000D02*
D03*
Y4450000D02*
D03*
X11907000Y4290000D02*
D03*
Y4450000D02*
D03*
X11107000Y4290000D02*
D03*
Y4450000D02*
D03*
X10307000Y4290000D02*
D03*
Y4450000D02*
D03*
X9507000Y4290000D02*
D03*
Y4450000D02*
D03*
X7910000Y4290000D02*
D03*
Y4450000D02*
D03*
X8707000Y4290000D02*
D03*
Y4450000D02*
D03*
D70*
X17585001Y5940000D02*
D03*
Y6005000D02*
D03*
Y6070000D02*
D03*
Y6135000D02*
D03*
Y6200000D02*
D03*
D71*
X17855000Y5970000D02*
D03*
Y6170000D02*
D03*
D72*
X15307803Y5502500D02*
D03*
Y5677500D02*
D03*
X6090000Y5652500D02*
D03*
Y5827500D02*
D03*
X6190000Y8240000D02*
D03*
Y8065000D02*
D03*
X5780000Y5662500D02*
D03*
Y5837500D02*
D03*
D73*
X17610001Y5100000D02*
D03*
X17701500Y4904659D02*
D03*
X11417000Y4342329D02*
D03*
X11325500Y4537670D02*
D03*
X10617000Y4342329D02*
D03*
X10525500Y4537670D02*
D03*
X13017000Y4342329D02*
D03*
X12925500Y4537670D02*
D03*
X12217000Y4342329D02*
D03*
X12125500Y4537670D02*
D03*
X7420000Y4342329D02*
D03*
X7328500Y4537671D02*
D03*
X8217000Y4342329D02*
D03*
X8125500Y4537670D02*
D03*
X9817000Y4342329D02*
D03*
X9725500Y4537670D02*
D03*
X9017000Y4342329D02*
D03*
X8925500Y4537670D02*
D03*
D74*
X17518500Y4904659D02*
D03*
X11508500Y4537670D02*
D03*
X10708500D02*
D03*
X13108501D02*
D03*
X12308500D02*
D03*
X7511500Y4537671D02*
D03*
X8308500Y4537670D02*
D03*
X9908500D02*
D03*
X9108500D02*
D03*
D75*
X11627000Y3292500D02*
D03*
X11373000D02*
D03*
Y3907500D02*
D03*
X11627000D02*
D03*
X10827000Y3292500D02*
D03*
X10573000D02*
D03*
Y3907500D02*
D03*
X10827000D02*
D03*
X13227000Y3292500D02*
D03*
X12973000D02*
D03*
Y3907500D02*
D03*
X13227000D02*
D03*
X12427000Y3292500D02*
D03*
X12173000D02*
D03*
Y3907500D02*
D03*
X12427000D02*
D03*
X7630000Y3292500D02*
D03*
X7376000D02*
D03*
Y3907500D02*
D03*
X7630000D02*
D03*
X8427000Y3292500D02*
D03*
X8173000D02*
D03*
Y3907500D02*
D03*
X8427000D02*
D03*
X10027000Y3292500D02*
D03*
X9773000D02*
D03*
Y3907500D02*
D03*
X10027000D02*
D03*
X9227000Y3292500D02*
D03*
X8973000D02*
D03*
Y3907500D02*
D03*
X9227000D02*
D03*
D76*
X5994244Y3915000D02*
D03*
X6121244D02*
D03*
X6248244D02*
D03*
X6375244D02*
D03*
X5994244Y4405000D02*
D03*
X6121244D02*
D03*
X6248244D02*
D03*
X6375244D02*
D03*
D173*
X16240060Y3310059D02*
D03*
%TF.MD5,d724c660d398657f48b159b6f1c06ac4*%
M02*
