%TF.GenerationSoftware,Altium Limited,Altium Designer,24.2.2 (26)*%
G04 Layer_Physical_Order=6*
G04 Layer_Color=16711680*
%FSLAX45Y45*%
%MOMM*%
%TF.SameCoordinates,A2E2EA48-9257-4B33-8537-14B19699C7D1*%
%TF.FilePolarity,Positive*%
%TF.FileFunction,Copper,L6,Bot,Signal*%
%TF.Part,Single*%
G01*
G75*
%TA.AperFunction,Conductor*%
%ADD10C,0.18697*%
%ADD11C,0.50000*%
%ADD77C,0.45000*%
%ADD78C,0.25400*%
%ADD80C,0.18700*%
%ADD82C,0.17780*%
%ADD86C,0.18697*%
%TA.AperFunction,ComponentPad*%
%ADD89R,1.40000X1.40000*%
%ADD90C,1.40000*%
%ADD91C,1.55000*%
%ADD92C,2.10000*%
%ADD93C,2.95000*%
%ADD94R,1.80000X1.80000*%
%ADD95C,1.80000*%
%ADD96R,1.80000X1.80000*%
%ADD97C,1.65000*%
%ADD98C,6.50000*%
%ADD99C,1.70000*%
%ADD100R,1.70000X1.70000*%
%ADD101C,1.45000*%
%ADD102R,1.65000X1.65000*%
%ADD103C,1.57000*%
%ADD104R,1.57000X1.57000*%
%TA.AperFunction,ViaPad*%
%ADD105C,0.60000*%
%ADD106C,1.00000*%
%ADD107C,0.80000*%
%TA.AperFunction,Conductor*%
%ADD123C,1.00000*%
G36*
X14910001Y3610000D02*
X14700000Y3400000D01*
X14520000D01*
Y3480000D01*
X14600000D01*
X14670000Y3550000D01*
Y4220000D01*
X14910001D01*
Y3610000D01*
D02*
G37*
G36*
X16520000Y3670000D02*
Y3470000D01*
X16839999D01*
Y2960000D01*
X15880000D01*
Y3820000D01*
X16370000D01*
X16520000Y3670000D01*
D02*
G37*
D10*
X13273007Y9434748D02*
G03*
X13307755Y9400000I34748J0D01*
G01*
X13273007Y9434751D02*
G03*
X13203510Y9434751I-34748J0D01*
G01*
X13134013Y9392845D02*
G03*
X13203510Y9392845I34748J0D01*
G01*
X13134013Y9501555D02*
G03*
X13064516Y9501555I-34748J0D01*
G01*
X12995020Y9375380D02*
G03*
X13064516Y9375380I34748J0D01*
G01*
X12995020Y9507935D02*
G03*
X12925522Y9507935I-34748J0D01*
G01*
X12856026Y9383504D02*
G03*
X12925522Y9383504I34748J0D01*
G01*
X12856026Y9508102D02*
G03*
X12786528Y9508102I-34748J0D01*
G01*
X12717031Y9383504D02*
G03*
X12786528Y9383504I34748J0D01*
G01*
X12717031Y9508282D02*
G03*
X12647534Y9508282I-34748J0D01*
G01*
X12578037Y9383504D02*
G03*
X12647534Y9383504I34748J0D01*
G01*
X12578037Y9508476D02*
G03*
X12508540Y9508476I-34748J0D01*
G01*
X12439043Y9383504D02*
G03*
X12508540Y9383504I34748J0D01*
G01*
X12439043Y9471494D02*
G03*
X12369547Y9471494I-34748J0D01*
G01*
X12334798Y9400000D02*
G03*
X12369547Y9434748I0J34748D01*
G01*
X13103349Y9310000D02*
G03*
X13068600Y9275251I0J-34748D01*
G01*
X12999104Y9228598D02*
G03*
X13068600Y9228598I34748J0D01*
G01*
X12999104Y9276373D02*
G03*
X12929607Y9276373I-34748J0D01*
G01*
X12860110Y9192684D02*
G03*
X12929607Y9192684I34748J0D01*
G01*
X12860110Y9284498D02*
G03*
X12790613Y9284498I-34748J0D01*
G01*
X12721117Y9192684D02*
G03*
X12790613Y9192684I34748J0D01*
G01*
X12721117Y9284498D02*
G03*
X12651620Y9284498I-34748J0D01*
G01*
X12582123Y9192684D02*
G03*
X12651620Y9192684I34748J0D01*
G01*
X12582123Y9284498D02*
G03*
X12512626Y9284498I-34748J0D01*
G01*
X12443129Y9192684D02*
G03*
X12512626Y9192684I34748J0D01*
G01*
X12443129Y9284498D02*
G03*
X12373632Y9284498I-34748J0D01*
G01*
X12304135Y9192684D02*
G03*
X12373632Y9192684I34748J0D01*
G01*
X12304135Y9284498D02*
G03*
X12234638Y9284498I-34748J0D01*
G01*
X12165141Y9192684D02*
G03*
X12234638Y9192684I34748J0D01*
G01*
X12165141Y9284498D02*
G03*
X12095644Y9284498I-34748J0D01*
G01*
X12026147Y9192684D02*
G03*
X12095644Y9192684I34748J0D01*
G01*
X12026147Y9275251D02*
G03*
X11991399Y9310000I-34748J0D01*
G01*
X13258641Y8410000D02*
G03*
X13223894Y8375251I0J-34748D01*
G01*
X13154396Y8364110D02*
G03*
X13223894Y8364110I34748J0D01*
G01*
X13154396Y8455575D02*
G03*
X13084898Y8455575I-34748J0D01*
G01*
X13050150Y8410000D02*
G03*
X13084898Y8444748I0J34748D01*
G01*
X12927237Y8614749D02*
G03*
X12961984Y8580000I34748J0D01*
G01*
X12927237Y8614751D02*
G03*
X12857739Y8614751I-34748J0D01*
G01*
X12788243Y8552937D02*
G03*
X12857739Y8552937I34748J0D01*
G01*
X12788243Y8617586D02*
G03*
X12718746Y8617586I-34748J0D01*
G01*
X12649249Y8536193D02*
G03*
X12718746Y8536193I34748J0D01*
G01*
X12649249Y8617586D02*
G03*
X12579752Y8617586I-34748J0D01*
G01*
X12545004Y8580000D02*
G03*
X12579752Y8614749I0J34748D01*
G01*
X12997559Y9604748D02*
G03*
X13032307Y9570000I34748J0D01*
G01*
X12997559Y9683809D02*
G03*
X12928062Y9683809I-34748J0D01*
G01*
X12858565Y9604749D02*
G03*
X12928062Y9604749I34748J0D01*
G01*
X12858565Y9690655D02*
G03*
X12789068Y9690655I-34748J0D01*
G01*
X12719571Y9604749D02*
G03*
X12789068Y9604749I34748J0D01*
G01*
X12719571Y9690655D02*
G03*
X12650074Y9690655I-34748J0D01*
G01*
X12580577Y9604749D02*
G03*
X12650074Y9604749I34748J0D01*
G01*
X12580577Y9690655D02*
G03*
X12511080Y9690655I-34748J0D01*
G01*
X12441583Y9604749D02*
G03*
X12511080Y9604749I34748J0D01*
G01*
X12441583Y9690655D02*
G03*
X12372086Y9690655I-34748J0D01*
G01*
X12302589Y9567611D02*
G03*
X12372086Y9567611I34748J0D01*
G01*
X12302589Y9690655D02*
G03*
X12233092Y9690655I-34748J0D01*
G01*
X12163595Y9468445D02*
G03*
X12233092Y9468445I34748J0D01*
G01*
X12163595Y9690655D02*
G03*
X12094098Y9690655I-34748J0D01*
G01*
X12059350Y9570000D02*
G03*
X12094098Y9604748I0J34748D01*
G01*
X7550000Y7960000D02*
Y8200000D01*
X8180000Y8830000D01*
X7410000Y7820000D02*
X7550000Y7960000D01*
X7410000Y8040000D02*
Y8170000D01*
X6980000Y7820000D02*
X7410000D01*
X13600000Y7930000D02*
X14070000Y8400000D01*
X11380000Y7930000D02*
X13600000D01*
X13689999Y8410000D02*
X13917918Y8637918D01*
X13561157Y8410000D02*
X13689999D01*
X13139999Y8580000D02*
X13660001D01*
X13820000Y8740000D01*
X13446968Y9373033D02*
X13563033D01*
X13420000Y9400000D02*
X13446968Y9373033D01*
X13358736Y9400000D02*
X13420000D01*
X13440897Y9259103D02*
X13550896D01*
X13250778Y9310000D02*
X13389999D01*
X13440897Y9259103D01*
X13462054Y9570000D02*
X13588467Y9443588D01*
X13160706Y9570000D02*
X13462054D01*
X13550896Y9259103D02*
X13552081Y9257918D01*
X13307755Y9400000D02*
X13358736D01*
X13273007Y9434748D02*
Y9434751D01*
X13203510Y9392845D02*
Y9434751D01*
X13134013Y9392845D02*
Y9501555D01*
X13064516Y9375380D02*
Y9501555D01*
X12995020Y9375380D02*
Y9507935D01*
X12925522Y9383504D02*
Y9507935D01*
X12856026Y9383504D02*
Y9508102D01*
X12786528Y9383504D02*
Y9508102D01*
X12717031Y9383504D02*
Y9508282D01*
X12647534Y9383504D02*
Y9508282D01*
X12578037Y9383504D02*
Y9508476D01*
X12508540Y9383504D02*
Y9508476D01*
X12439043Y9383504D02*
Y9471494D01*
X12369547Y9434748D02*
Y9471494D01*
X12325448Y9400000D02*
X12334798D01*
X10550000Y7920000D02*
X11929926Y9299926D01*
X13103349Y9310000D02*
X13250778D01*
X13068600Y9228598D02*
Y9275251D01*
X12999104Y9228598D02*
Y9276373D01*
X12929607Y9192684D02*
Y9276373D01*
X12860110Y9192684D02*
Y9284498D01*
X12790613Y9192684D02*
Y9284498D01*
X12721117Y9192684D02*
Y9284498D01*
X12651620Y9192684D02*
Y9284498D01*
X12582123Y9192684D02*
Y9284498D01*
X12512626Y9192684D02*
Y9284498D01*
X12443129Y9192684D02*
Y9284498D01*
X12373632Y9192684D02*
Y9284498D01*
X12304135Y9192684D02*
Y9284498D01*
X12234638Y9192684D02*
Y9284498D01*
X12165141Y9192684D02*
Y9284498D01*
X12095644Y9192684D02*
Y9284498D01*
X12026147Y9192684D02*
Y9275251D01*
X11940000Y9310000D02*
X11991399D01*
X11929926Y9299926D02*
X11940000Y9310000D01*
X11930000Y9400000D02*
X12325448D01*
X10530000Y8000000D02*
X11930000Y9400000D01*
X10210000Y8000000D02*
X10530000D01*
X11990000Y9570000D02*
X12050000D01*
X10400000Y8060000D02*
X10480000D01*
X11990000Y9570000D01*
X11030000Y7580000D02*
X11380000Y7930000D01*
X10390000Y8250000D02*
X10490000Y8150000D01*
X10390000Y8250000D02*
Y8560000D01*
X10120000Y8830000D02*
X10390000Y8560000D01*
X9082311Y8830000D02*
X10120000D01*
X9340000Y7580000D02*
X11030000D01*
X8920000Y8000000D02*
X9340000Y7580000D01*
X8180000Y8830000D02*
X9082311D01*
X10290000Y7920000D02*
X10550000D01*
X10290000Y7920000D02*
X10290000Y7920000D01*
X13258641Y8410000D02*
X13561157D01*
X13223894Y8364110D02*
Y8375251D01*
X13154396Y8364110D02*
Y8455575D01*
X13084898Y8444748D02*
Y8455575D01*
X13040800Y8410000D02*
X13050150D01*
X11450000D02*
X13040800D01*
X12961984Y8580000D02*
X13139999D01*
X12927237Y8614749D02*
Y8614751D01*
X12857739Y8552937D02*
Y8614751D01*
X12788243Y8552937D02*
Y8617586D01*
X12718746Y8536193D02*
Y8617586D01*
X12649249Y8536193D02*
Y8617586D01*
X12579752Y8614749D02*
Y8617586D01*
X12535654Y8580000D02*
X12545004D01*
X11320000D02*
X12535654D01*
X13032307Y9570000D02*
X13160706D01*
X12997559Y9604748D02*
Y9683809D01*
X12928062Y9604749D02*
Y9683809D01*
X12858565Y9604749D02*
Y9690655D01*
X12789068Y9604749D02*
Y9690655D01*
X12719571Y9604749D02*
Y9690655D01*
X12650074Y9604749D02*
Y9690655D01*
X12580577Y9604749D02*
Y9690655D01*
X12511080Y9604749D02*
Y9690655D01*
X12441583Y9604749D02*
Y9690655D01*
X12372086Y9567611D02*
Y9690655D01*
X12302589Y9567611D02*
Y9690655D01*
X12233092Y9468445D02*
Y9690655D01*
X12163595Y9468445D02*
Y9690655D01*
X12094098Y9604748D02*
Y9690655D01*
X12050000Y9570000D02*
X12059350D01*
X10590000Y7850000D02*
X11320000Y8580000D01*
X8920000Y8100000D02*
X9230000Y7790000D01*
X9020000Y8120000D02*
X9290000Y7850000D01*
X8130000Y8890000D02*
X10164583D01*
X7410000Y8170000D02*
X8130000Y8890000D01*
X10164583D02*
X10332974Y8721609D01*
X10315417Y8950000D02*
X10448565Y8816852D01*
X7290000Y8160000D02*
X8080000Y8950000D01*
X10315417D01*
X6514667Y8165333D02*
X6714667D01*
D11*
X14708087Y3708087D02*
X14710001Y3710000D01*
X14560001Y3440000D02*
X14561913Y3441913D01*
D77*
X15742438Y8480000D02*
Y9272437D01*
X15850000Y9690000D02*
X15854059D01*
X15744946D02*
X15850000D01*
X15544946Y9490000D02*
X15744946Y9690000D01*
X15289999Y9490000D02*
X15544946D01*
X15861559Y9682500D02*
X15863640D01*
X15889999Y9420000D02*
Y9656140D01*
X15742438Y9272437D02*
X15889999Y9420000D01*
X15854059Y9690000D02*
X15861559Y9682500D01*
X15863640D02*
X15889999Y9656140D01*
D78*
X11200000Y8030000D02*
X13539999D01*
X14120000Y8610000D01*
X14439999D01*
X14550000Y8720000D01*
X14160001Y8760000D02*
X14360001D01*
X11180000Y8240000D02*
X13639999D01*
X14160001Y8760000D01*
X10820000Y7650000D02*
X11200000Y8030000D01*
X14830000Y6250000D02*
X17250000D01*
X14730000Y6150000D02*
X14830000Y6250000D01*
X14130000Y6150000D02*
X14730000D01*
X13930000Y5040000D02*
X14280000Y5390000D01*
X14880000D01*
X13930000Y3665000D02*
Y5040000D01*
Y3665000D02*
X14139999Y3455000D01*
X14460001Y4180000D02*
X14639999Y4360000D01*
X14100000Y4180000D02*
X14460001D01*
X16170000Y3950000D02*
X16730000D01*
X15670000Y4230000D02*
X15889999D01*
X16170000Y3950000D01*
X14639999Y4360000D02*
X15670000D01*
X17689999Y4310000D02*
X17689999Y4310000D01*
Y3830000D02*
Y4310000D01*
X17530000Y3670000D02*
X17689999Y3830000D01*
X17010001Y3670000D02*
X17530000D01*
X14255000Y3340000D02*
X14730000D01*
X14989999Y3600000D01*
X14139999Y3455000D02*
X14255000Y3340000D01*
X14989999Y3600000D02*
Y3830000D01*
X15050000Y3890000D01*
X17010001Y4950000D02*
X17060001Y5000000D01*
X17010001Y4098000D02*
Y4950000D01*
X16730000Y3950000D02*
X17010001Y3670000D01*
X16230000Y3870000D02*
X16710001D01*
X16900000Y3680000D01*
Y3173042D02*
Y3680000D01*
Y3173042D02*
X17025436Y3047607D01*
X17010001Y3220000D02*
X17080000D01*
X17130000Y2990000D02*
Y3170000D01*
X17080000Y3220000D02*
X17130000Y3170000D01*
X17030000Y2890000D02*
X17130000Y2990000D01*
X15160001Y2890000D02*
X17030000D01*
X14990501Y2720501D02*
X15160001Y2890000D01*
X14990501Y2490000D02*
Y2720501D01*
X16630000Y5340000D02*
Y5800000D01*
X16889999Y5340000D02*
X17720000D01*
X16789999Y5810000D02*
X17289999D01*
X16680000Y5920000D02*
X16789999Y5810000D01*
X16600000Y5920000D02*
X16680000D01*
X16550000Y5870000D02*
X16600000Y5920000D01*
X16330000Y5870000D02*
X16550000D01*
X14480000Y5950000D02*
X16250000D01*
X16330000Y5870000D01*
X9280000Y5830000D02*
X9420000Y5690000D01*
X9280000Y5830000D02*
Y6000000D01*
X9160000Y6120000D02*
X9280000Y6000000D01*
X8570000Y6140000D02*
Y6990000D01*
Y6140000D02*
X8710000Y6000000D01*
X8570000Y6990000D02*
X9090000Y7510000D01*
X8710000Y6000000D02*
X8990000D01*
X9090000Y7510000D02*
X10650000D01*
X17360001Y6140000D02*
X17410001D01*
X17250000Y6250000D02*
X17360001Y6140000D01*
X13300000Y5320000D02*
X14130000Y6150000D01*
X10720000Y5320000D02*
X13300000D01*
X10350000Y5690000D02*
X10720000Y5320000D01*
X9420000Y5690000D02*
X10350000D01*
X8900000Y6120000D02*
X9160000D01*
X8850000Y6170000D02*
X8900000Y6120000D01*
X8850000Y6170000D02*
Y6620000D01*
X11090000Y9010000D02*
Y9110000D01*
X11020000Y9180000D02*
X11090000Y9110000D01*
X10020000Y9180000D02*
X10170000D01*
X8919691Y9190000D02*
X8936114Y9173577D01*
X8910328Y9190000D02*
X8919691D01*
X8936114Y9173577D02*
X9338734D01*
X7952363Y9160000D02*
X8192311D01*
X7922363Y9190000D02*
X7952363Y9160000D01*
X7913000Y9190000D02*
X7922363D01*
X13630000Y5100000D02*
X14480000Y5950000D01*
X10600000Y5100000D02*
X13630000D01*
X10695206Y7755206D02*
X11180000Y8240000D01*
X10694626Y7710278D02*
X10695206Y7710858D01*
Y7755206D01*
X7950000Y6030000D02*
Y6740000D01*
Y6030000D02*
X8200000Y5780000D01*
X9280000Y5450000D02*
X10250000D01*
X10600000Y5100000D01*
X8950000Y5780000D02*
X9280000Y5450000D01*
X8200000Y5780000D02*
X8950000D01*
X10650000Y7650000D02*
X10820000D01*
X14230000Y9140000D02*
Y10340000D01*
X14089999Y10370000D02*
X14200000D01*
X14230000Y10340000D01*
Y9140000D02*
X14550000Y8820000D01*
Y8720000D02*
Y8820000D01*
X16291000Y11100000D02*
X17648000Y9743000D01*
X16101540Y11100000D02*
X16291000D01*
D80*
X14560001Y10460000D02*
X14750000Y10270000D01*
Y9900000D02*
Y10270000D01*
X13620000Y8750000D02*
X14060001Y9190000D01*
X11800000Y8750000D02*
X13620000D01*
X14060001Y9190000D02*
Y10000000D01*
X13900520Y10159479D02*
X14060001Y10000000D01*
X13900520Y10159479D02*
Y10390521D01*
X13970000Y10460000D01*
X14560001D01*
D82*
X14211391Y6061390D02*
X16369965D01*
X13386716Y5236715D02*
X14211391Y6061390D01*
X14227039Y6023610D02*
X16369965D01*
X13402364Y5198935D02*
X14227039Y6023610D01*
X16388576Y6005000D02*
X16400000D01*
X16388576Y6080000D02*
X16400000D01*
X16369965Y6023610D02*
X16388576Y6005000D01*
X16369965Y6061390D02*
X16388576Y6080000D01*
X10673286Y5236715D02*
X13386716D01*
X9352220Y5607780D02*
X10302221D01*
X10673286Y5236715D01*
X9336571Y5570000D02*
X10286572D01*
X10657637Y5198935D02*
X13402364D01*
X10286572Y5570000D02*
X10657637Y5198935D01*
X9030000Y5930000D02*
X9352220Y5607780D01*
X8281645Y6620221D02*
X8307678Y6594188D01*
X8258838Y6620221D02*
X8281645D01*
X8400254Y6594188D02*
X8403033Y6596967D01*
X8307678Y6594188D02*
X8400254D01*
X8263429Y5930000D02*
X9030000D01*
X8176714Y6538098D02*
X8258838Y6620221D01*
X8176714Y6016715D02*
X8263429Y5930000D01*
X8176714Y6016715D02*
Y6538098D01*
X8366607Y6701968D02*
X8388575Y6680000D01*
X8287155Y6701968D02*
X8366607D01*
X8388575Y6680000D02*
X8400000D01*
X9014351Y5892220D02*
X9336571Y5570000D01*
X8247780Y5892220D02*
X9014351D01*
X8138934Y6553747D02*
X8287155Y6701968D01*
X8138934Y6001066D02*
X8247780Y5892220D01*
X8138934Y6001066D02*
Y6553747D01*
D86*
X7946860Y8200000D02*
X9080000D01*
X7166860Y7420000D02*
X7946860Y8200000D01*
X7070000Y7420000D02*
X7166860D01*
X7400000Y7450000D02*
X8230000D01*
X8290000Y7390000D01*
X13650000Y7830000D02*
X14100000Y8280000D01*
X15400000D01*
X15530000Y8410000D01*
X11710000Y7830000D02*
X13650000D01*
X15489999Y8140000D02*
X15673697Y8323697D01*
X16336304D02*
X16700000Y7960000D01*
X15587395Y8357394D02*
X16422606D01*
X16760001Y8020000D01*
X15439999Y8210000D02*
X15587395Y8357394D01*
X15673697Y8323697D02*
X16336304D01*
X15520000Y8070000D02*
X15739999Y8290000D01*
X16180000D01*
X16380000Y8090000D01*
X9290000Y7850000D02*
X9410000Y7730000D01*
X10470000D02*
X10590000Y7850000D01*
X9410000Y7730000D02*
X10470000D01*
X9370000Y7650000D02*
X10490000D01*
X9230000Y7790000D02*
X9370000Y7650000D01*
X10490000D02*
X11250000Y8410000D01*
X8880000Y7000000D02*
X9250000Y7370000D01*
X11070000D02*
X11185000Y7485000D01*
X9250000Y7370000D02*
X11070000D01*
X11430000Y7550000D02*
X11710000Y7830000D01*
X11475000Y7485000D02*
X11700000Y7710000D01*
X13650000D02*
X14150000Y8210000D01*
X11700000Y7710000D02*
X13650000D01*
X15530000Y8410000D02*
X16480000D01*
X14150000Y8210000D02*
X15439999D01*
X14200000Y8140000D02*
X15489999D01*
X14230000Y8070000D02*
X15520000D01*
X15689999Y7980000D02*
X15760001Y8050000D01*
X14380000Y7980000D02*
X15689999D01*
X13860001Y7460000D02*
X14380000Y7980000D01*
X14320000Y7790000D02*
X15700000D01*
X11970000Y7390000D02*
X13920000D01*
X14320000Y7790000D01*
X11910000Y7460000D02*
X13860001D01*
X14300000Y7650000D02*
X15760001D01*
X12040000Y7320000D02*
X13970000D01*
X14300000Y7650000D01*
X14030000Y7250000D02*
X14330000Y7550000D01*
X12100000Y7250000D02*
X14030000D01*
X14330000Y7550000D02*
X15889999D01*
X15700000Y7790000D02*
X15760001Y7850000D01*
X13686655Y7526655D02*
X14230000Y8070000D01*
X16760001Y7501604D02*
Y8020000D01*
X16700000Y7630000D02*
Y7960000D01*
X16480000Y8410000D02*
X16850000Y8040000D01*
X11390000Y7290000D02*
X11697366Y7597366D01*
X13657365D02*
X14200000Y8140000D01*
X11697366Y7597366D02*
X13657365D01*
X16850000Y7280000D02*
Y8040000D01*
X9000000Y7020000D02*
X9270000Y7290000D01*
X11390000D01*
X9470632Y7809368D02*
X10428192D01*
X9080000Y8200000D02*
X9470632Y7809368D01*
X9200000Y6397700D02*
Y6540000D01*
X9130000Y6327700D02*
X9200000Y6397700D01*
Y6540000D02*
X9330000Y6670000D01*
X9290000Y6740000D02*
X11460000D01*
X9130000Y6580000D02*
X9290000Y6740000D01*
X9130000Y6440000D02*
Y6580000D01*
X9870000Y6390000D02*
X10080000Y6600000D01*
X11580000D01*
X9330000Y6670000D02*
X11520000D01*
X9050000Y6310000D02*
Y6600000D01*
X9000000Y7010000D02*
Y7020000D01*
X8689999Y7450000D02*
X8900000D01*
X8630000Y7390000D02*
X8689999Y7450000D01*
X8290000Y7390000D02*
X8630000D01*
X10189200Y8590800D02*
X10190000Y8590000D01*
Y8110000D02*
Y8590000D01*
X10130000Y8050000D02*
X10190000Y8110000D01*
X11856655Y7526655D02*
X13686655D01*
X10428192Y7809368D02*
X10458823Y7840000D01*
X10470000D01*
X9220000Y7450000D02*
X11040000D01*
X8820000Y7050000D02*
X9220000Y7450000D01*
X10130000Y7920000D02*
Y8050000D01*
X11140000Y7550000D02*
X11430000D01*
X11040000Y7450000D02*
X11140000Y7550000D01*
X11185000Y7485000D02*
X11475000D01*
X8931337Y6945324D02*
X11275324D01*
X11856655Y7526655D01*
X11330000Y6880000D02*
X11910000Y7460000D01*
X9240000Y6880000D02*
X11330000D01*
X9260000Y6810000D02*
X11390000D01*
X11970000Y7390000D01*
X11460000Y6740000D02*
X12040000Y7320000D01*
X11520000Y6670000D02*
X12100000Y7250000D01*
X11830000Y6850000D02*
X12300000D01*
X11580000Y6600000D02*
X11830000Y6850000D01*
X12300000Y6530000D02*
Y6690000D01*
X8960000Y6600000D02*
X9240000Y6880000D01*
X8820000D02*
X8940000Y6760000D01*
X9050000Y6600000D02*
X9260000Y6810000D01*
X8960000Y6310000D02*
Y6600000D01*
X8820000Y6880000D02*
Y7050000D01*
X11250000Y8410000D02*
X11450000D01*
X15889999Y7550000D02*
X16070000Y7730000D01*
X16580000D01*
D89*
X16675000Y9677000D02*
D03*
D90*
Y9931000D02*
D03*
Y10185000D02*
D03*
Y10439000D02*
D03*
X16421001Y9804000D02*
D03*
Y10058000D02*
D03*
Y10312000D02*
D03*
Y10566000D02*
D03*
D91*
X17800000Y9489000D02*
D03*
X17648000Y10754000D02*
D03*
X17800000Y10500000D02*
D03*
X17648000Y9743000D02*
D03*
D92*
X17005000Y9334000D02*
D03*
Y10909000D02*
D03*
D93*
X17310001Y9550000D02*
D03*
Y10693000D02*
D03*
D94*
X9781000Y2480000D02*
D03*
X7171500Y11520000D02*
D03*
X10646500D02*
D03*
X13256000Y2480000D02*
D03*
X3389000Y11520000D02*
D03*
X6060000Y2480000D02*
D03*
D95*
X9400000D02*
D03*
X9019000D02*
D03*
X8638000D02*
D03*
X8257000D02*
D03*
X7495000D02*
D03*
X7114000D02*
D03*
X7876000D02*
D03*
X7552500Y11520000D02*
D03*
X7933500D02*
D03*
X8314500D02*
D03*
X8695500D02*
D03*
X9457500D02*
D03*
X9838500D02*
D03*
X9076500D02*
D03*
X12551500D02*
D03*
X13313499D02*
D03*
X12932500D02*
D03*
X12170500D02*
D03*
X11789500D02*
D03*
X11408500D02*
D03*
X11027500D02*
D03*
X11351000Y2480000D02*
D03*
X10589000D02*
D03*
X10970000D02*
D03*
X11732000D02*
D03*
X12113000D02*
D03*
X12494000D02*
D03*
X12875000D02*
D03*
X5294000Y11520000D02*
D03*
X6056000D02*
D03*
X5675000D02*
D03*
X4913000D02*
D03*
X4532000D02*
D03*
X4151000D02*
D03*
X3770000D02*
D03*
X4155000Y2480000D02*
D03*
X3393000D02*
D03*
X3774000D02*
D03*
X4536000D02*
D03*
X4917000D02*
D03*
X5298000D02*
D03*
X5679000D02*
D03*
X2480000Y5605000D02*
D03*
Y6367000D02*
D03*
Y5986000D02*
D03*
Y5224000D02*
D03*
Y4843000D02*
D03*
Y4462000D02*
D03*
Y4081000D02*
D03*
Y9538000D02*
D03*
Y10300000D02*
D03*
Y9919000D02*
D03*
Y9157000D02*
D03*
Y8776000D02*
D03*
Y8395000D02*
D03*
Y8014000D02*
D03*
D96*
Y3700000D02*
D03*
Y7633000D02*
D03*
D97*
X12700000Y5842000D02*
D03*
X12953999Y5588000D02*
D03*
X11430000Y5842000D02*
D03*
X11684000Y5588000D02*
D03*
Y5842000D02*
D03*
X11938000Y5588000D02*
D03*
Y5842000D02*
D03*
X12192000Y5588000D02*
D03*
Y5842000D02*
D03*
X12446000Y5588000D02*
D03*
Y5842000D02*
D03*
X12700000Y5588000D02*
D03*
X12953999Y5842000D02*
D03*
X13208000Y5588000D02*
D03*
Y5842000D02*
D03*
D98*
X2500000Y2500000D02*
D03*
Y11500000D02*
D03*
X17500000D02*
D03*
Y2500000D02*
D03*
D99*
X14609502Y2490000D02*
D03*
D100*
X14990501D02*
D03*
D101*
X17585001Y6320000D02*
D03*
Y5820000D02*
D03*
D102*
X11430000Y5588000D02*
D03*
D103*
X7874000D02*
D03*
X8128000D02*
D03*
X8382000D02*
D03*
D104*
X8636000D02*
D03*
D105*
X6800000Y8170000D02*
D03*
X6755031Y8102121D02*
D03*
X6434070Y8170930D02*
D03*
X6482146Y8239636D02*
D03*
X7472403Y8081602D02*
D03*
X7350000Y7990000D02*
D03*
X7410000Y8040000D02*
D03*
X7256459Y8092918D02*
D03*
X7050000Y7760000D02*
D03*
Y7880000D02*
D03*
X6980000Y7745000D02*
D03*
Y7820000D02*
D03*
X7150000Y7480000D02*
D03*
X7325754Y7460607D02*
D03*
X7427854Y7380364D02*
D03*
X7470000Y7510000D02*
D03*
X14764709Y9826457D02*
D03*
X14750000Y9900000D02*
D03*
X14680363Y9927854D02*
D03*
X14130000Y8450000D02*
D03*
X14070000Y8400000D02*
D03*
X14128564Y8353148D02*
D03*
X14232391Y8358592D02*
D03*
X14383717Y8688849D02*
D03*
X14393541Y8827082D02*
D03*
X13980000Y8680000D02*
D03*
X13917918Y8637918D02*
D03*
X13839999Y8660000D02*
D03*
X13746021Y8752330D02*
D03*
X13807671Y8813979D02*
D03*
X13500000Y9318684D02*
D03*
Y9444348D02*
D03*
X13380000Y9160000D02*
D03*
X13639999Y9380000D02*
D03*
X13589999Y9530000D02*
D03*
X13563033Y9373033D02*
D03*
X13552081Y9257918D02*
D03*
X13588467Y9443588D02*
D03*
X11853033Y8804350D02*
D03*
X11846852Y8691435D02*
D03*
X11800000Y8750000D02*
D03*
X11790000Y7655651D02*
D03*
X11500000Y7865652D02*
D03*
X10490000Y8150000D02*
D03*
X15689999Y7910000D02*
D03*
X14800000Y7710000D02*
D03*
X15763933Y8149999D02*
D03*
X11500000Y7780000D02*
D03*
X5754915Y3220000D02*
D03*
Y3400000D02*
D03*
Y3580000D02*
D03*
X6507073Y3400000D02*
D03*
X6489659Y3580000D02*
D03*
X6380000Y3730000D02*
D03*
X6502244Y4730000D02*
D03*
X6502329Y4910000D02*
D03*
X6590000Y5550000D02*
D03*
X12870000Y6560000D02*
D03*
X12650000D02*
D03*
Y6420000D02*
D03*
X12870000D02*
D03*
Y6700000D02*
D03*
X12650000D02*
D03*
X14480017Y9680011D02*
D03*
X14520016Y9600011D02*
D03*
X14480017Y9520011D02*
D03*
X14520016Y9440011D02*
D03*
X14480017Y9360011D02*
D03*
X14520016Y9280011D02*
D03*
X14480017Y9200011D02*
D03*
X14400017Y9680011D02*
D03*
X14440018Y9600011D02*
D03*
X14400017Y9520011D02*
D03*
X14440018Y9440011D02*
D03*
X14400017Y9360011D02*
D03*
X14440018Y9280011D02*
D03*
X14400017Y9200011D02*
D03*
X14320016Y9680011D02*
D03*
X14360017Y9600011D02*
D03*
X14320016Y9520011D02*
D03*
X14360017Y9440011D02*
D03*
X14320016Y9360011D02*
D03*
X14360017Y9280011D02*
D03*
X14320016Y9200011D02*
D03*
X14160017Y9680011D02*
D03*
Y9520011D02*
D03*
Y9360011D02*
D03*
Y9200011D02*
D03*
X14120016Y9600011D02*
D03*
Y9440011D02*
D03*
Y9280011D02*
D03*
X14000015Y9680011D02*
D03*
Y9520011D02*
D03*
Y9360011D02*
D03*
X9240011Y7600009D02*
D03*
X8840010D02*
D03*
X9720011Y6480008D02*
D03*
X9680011Y8000009D02*
D03*
X10200012Y7120008D02*
D03*
X9560011D02*
D03*
X9480011Y7920009D02*
D03*
X8920010Y7600009D02*
D03*
X9080011Y6800008D02*
D03*
X9560011Y8080009D02*
D03*
X10320012Y7040008D02*
D03*
X9720011Y7120008D02*
D03*
X8880010Y7200008D02*
D03*
X9640011Y8080009D02*
D03*
X9960012Y7920009D02*
D03*
X9000010Y7600009D02*
D03*
X9320011Y8080009D02*
D03*
X10240012Y7040008D02*
D03*
X9080011Y7600009D02*
D03*
X9680011Y6560008D02*
D03*
X9520011Y8000009D02*
D03*
X9600011Y7200008D02*
D03*
X9360011Y8000009D02*
D03*
Y7200008D02*
D03*
X9160011Y7600009D02*
D03*
X9520011Y6400008D02*
D03*
X9560011Y7920009D02*
D03*
X9600011Y8000009D02*
D03*
X10280012Y7120008D02*
D03*
X9120011Y7040008D02*
D03*
X9680011Y6400008D02*
D03*
X9120011Y6880008D02*
D03*
X9200011Y7040008D02*
D03*
X9600011D02*
D03*
X9920012D02*
D03*
X9960012Y7120008D02*
D03*
X9400011Y8080009D02*
D03*
X9520011Y7200008D02*
D03*
X8880010Y7680009D02*
D03*
X9280011Y7040008D02*
D03*
X9520011D02*
D03*
X9440011Y8000009D02*
D03*
X9880011Y7120008D02*
D03*
X9640011Y7920009D02*
D03*
X9960012Y6320007D02*
D03*
X9640011Y7120008D02*
D03*
X10600012D02*
D03*
X9480011Y8080009D02*
D03*
X9240011Y7120008D02*
D03*
X9720011Y6320007D02*
D03*
X10000012Y8000009D02*
D03*
X10640013Y7200008D02*
D03*
X9920012Y6560008D02*
D03*
X9680011Y7040008D02*
D03*
X9480011Y7120008D02*
D03*
X9680011Y7200008D02*
D03*
X9520011Y6560008D02*
D03*
X9880011Y6480008D02*
D03*
X10680012Y7120008D02*
D03*
X9440011Y7200008D02*
D03*
X10560012D02*
D03*
X6150000Y8800000D02*
D03*
X6300000D02*
D03*
Y8670000D02*
D03*
X6150000D02*
D03*
X6300000Y8530000D02*
D03*
X6150000D02*
D03*
X6230000Y8590000D02*
D03*
Y8740000D02*
D03*
X16139999Y3210000D02*
D03*
X16239999D02*
D03*
X16339999D02*
D03*
X16139999Y3310000D02*
D03*
Y3410000D02*
D03*
X16239999Y3310000D02*
D03*
Y3410000D02*
D03*
X16339999D02*
D03*
Y3310000D02*
D03*
X16160019Y5360006D02*
D03*
X16080019D02*
D03*
X16000018D02*
D03*
X15920020D02*
D03*
X15840019D02*
D03*
X16959993Y2559999D02*
D03*
X17039993Y2399999D02*
D03*
X16959993Y2239999D02*
D03*
X16799992Y2559999D02*
D03*
X16879993Y2399999D02*
D03*
X16719994D02*
D03*
X16559993D02*
D03*
X16399992D02*
D03*
X16239993D02*
D03*
X16079993D02*
D03*
X15800018Y3600004D02*
D03*
X15760019Y3520004D02*
D03*
X15800018Y3440004D02*
D03*
X15760019Y3360004D02*
D03*
X15720018Y3600004D02*
D03*
X15680019Y3520004D02*
D03*
X15720018Y3440004D02*
D03*
X15600018Y3520004D02*
D03*
X15640018Y3440004D02*
D03*
X15520018Y3520004D02*
D03*
X15560017Y3440004D02*
D03*
X15440018Y3520004D02*
D03*
X15480019Y3440004D02*
D03*
X15360017Y3520004D02*
D03*
X15400018Y3440004D02*
D03*
X15280019Y3520004D02*
D03*
X15320018Y3440004D02*
D03*
X15200018Y3520004D02*
D03*
X15240018Y3440004D02*
D03*
X15120018Y3520004D02*
D03*
X15160017Y3440004D02*
D03*
X15120018Y3360004D02*
D03*
X15040018Y3520004D02*
D03*
X15080019Y3440004D02*
D03*
X15040018Y3360004D02*
D03*
X15000017Y3440004D02*
D03*
X14960017Y3360004D02*
D03*
X14920016Y3440004D02*
D03*
X14880017Y3360004D02*
D03*
X17280020Y4800006D02*
D03*
X17320020Y4720006D02*
D03*
X17280020Y4640005D02*
D03*
X17320020Y4560005D02*
D03*
X17280020Y4480005D02*
D03*
X17320020Y4400005D02*
D03*
X17280020Y4320005D02*
D03*
X17200020Y4800006D02*
D03*
X17240021Y4720006D02*
D03*
X17200020Y4640005D02*
D03*
X17240021Y4560005D02*
D03*
X17200020Y4480005D02*
D03*
X17240021Y4400005D02*
D03*
X17200020Y4320005D02*
D03*
X17120020Y4800006D02*
D03*
X17160020Y4720006D02*
D03*
X17120020Y4640005D02*
D03*
X17160020Y4560005D02*
D03*
X17120020Y4480005D02*
D03*
X17160020Y4400005D02*
D03*
X17120020Y4320005D02*
D03*
X17080020Y4720006D02*
D03*
Y4560005D02*
D03*
Y4400005D02*
D03*
X16880020Y4800006D02*
D03*
X16920020Y4720006D02*
D03*
X16880020Y4640005D02*
D03*
X16920020Y4560005D02*
D03*
X16880020Y4480005D02*
D03*
X16920020Y4400005D02*
D03*
X16880020Y4320005D02*
D03*
X16800020Y4800006D02*
D03*
X16840021Y4720006D02*
D03*
X16800020Y4640005D02*
D03*
X16840021Y4560005D02*
D03*
X16800020Y4480005D02*
D03*
X16840021Y4400005D02*
D03*
X16800020Y4320005D02*
D03*
X16720020Y4800006D02*
D03*
X16760020Y4720006D02*
D03*
X16720020Y4640005D02*
D03*
X16760020Y4560005D02*
D03*
X16720020Y4480005D02*
D03*
X16760020Y4400005D02*
D03*
X16720020Y4320005D02*
D03*
X16680019Y4720006D02*
D03*
X16640021Y4640005D02*
D03*
X16680019Y4560005D02*
D03*
X16640021Y4480005D02*
D03*
X16680019Y4400005D02*
D03*
X16640021Y4320005D02*
D03*
X16600018Y4560005D02*
D03*
Y4400005D02*
D03*
X16440019Y4240005D02*
D03*
X16400018Y4160005D02*
D03*
X16320020D02*
D03*
X16360019Y4080005D02*
D03*
X15860001Y5720000D02*
D03*
X16010001D02*
D03*
Y5590000D02*
D03*
X15860001D02*
D03*
X16010001Y5450000D02*
D03*
X15860001D02*
D03*
X15939999Y5510000D02*
D03*
Y5660000D02*
D03*
X17560001Y8680000D02*
D03*
Y8800000D02*
D03*
X17730000D02*
D03*
X17889999D02*
D03*
Y8680000D02*
D03*
X17730000D02*
D03*
X16500000Y5600000D02*
D03*
X16400000Y5525000D02*
D03*
X16300000Y5600000D02*
D03*
X16500000Y5450000D02*
D03*
X16400000Y5375000D02*
D03*
X16300000Y5450000D02*
D03*
X16500000Y5300000D02*
D03*
X16400000Y5225000D02*
D03*
X16300000Y5300000D02*
D03*
Y5150000D02*
D03*
X16400000Y5075000D02*
D03*
X16500000Y5150000D02*
D03*
Y5000000D02*
D03*
X16300000D02*
D03*
X7470000Y7980000D02*
D03*
X6880000Y6780000D02*
D03*
X7000000Y6700000D02*
D03*
X6880000D02*
D03*
X8770000Y8730000D02*
D03*
X8490000Y8560000D02*
D03*
X13180000Y9660000D02*
D03*
X16520000Y3790000D02*
D03*
X14880000Y6130000D02*
D03*
X15670000Y4360000D02*
D03*
Y4230000D02*
D03*
X15050000Y3890000D02*
D03*
X14139999Y3455000D02*
D03*
X13710001Y3452329D02*
D03*
Y3840000D02*
D03*
X14100000Y4180000D02*
D03*
X17060001Y5000000D02*
D03*
X16630000Y5340000D02*
D03*
X16889999D02*
D03*
X16400000Y6005000D02*
D03*
Y6080000D02*
D03*
X17289999Y5810000D02*
D03*
X17689999Y4310000D02*
D03*
X17720000Y5340000D02*
D03*
X17010001Y4098000D02*
D03*
X17005000Y3930000D02*
D03*
X17005000Y3502000D02*
D03*
X17010001Y3670000D02*
D03*
X17025436Y3047607D02*
D03*
X17010001Y3220000D02*
D03*
X16770000Y3530000D02*
D03*
Y3630000D02*
D03*
X16670000D02*
D03*
Y3530000D02*
D03*
X16570000Y3630000D02*
D03*
Y3530000D02*
D03*
X15110001Y5650000D02*
D03*
Y5500000D02*
D03*
X15030000Y5440000D02*
D03*
X15180000D02*
D03*
X15030000Y5580000D02*
D03*
X15180000D02*
D03*
Y5710000D02*
D03*
X15030000D02*
D03*
X16630000Y5800000D02*
D03*
X16230000Y3870000D02*
D03*
X14870000Y4100000D02*
D03*
Y4180000D02*
D03*
X14789999D02*
D03*
Y4100000D02*
D03*
X14710001Y4180000D02*
D03*
Y4100000D02*
D03*
X14560001Y3440000D02*
D03*
X14710001Y3710000D02*
D03*
Y3790000D02*
D03*
X14789999Y3710000D02*
D03*
Y3790000D02*
D03*
X14870000D02*
D03*
Y3710000D02*
D03*
X9910000Y5850000D02*
D03*
X11107856Y7227856D02*
D03*
X11197856D02*
D03*
X10620000Y8480000D02*
D03*
X9530000Y6300000D02*
D03*
X9342300Y5870000D02*
D03*
X9340000Y6580000D02*
D03*
X9440000Y6490000D02*
D03*
X9260000D02*
D03*
X8250000Y6280000D02*
D03*
X10050000Y7920000D02*
D03*
X9070000Y6000000D02*
D03*
X8990000D02*
D03*
X9730000Y6010000D02*
D03*
X9640000D02*
D03*
X9870000Y6390000D02*
D03*
X9210000Y5860000D02*
D03*
X9050000Y6310000D02*
D03*
X8527000Y4579999D02*
D03*
X9327000D02*
D03*
X7730000Y4580000D02*
D03*
X10127000Y4579999D02*
D03*
X9000000Y7010000D02*
D03*
X8500000Y7090000D02*
D03*
X10927000Y4579999D02*
D03*
X12527000D02*
D03*
X11727000D02*
D03*
X13327000D02*
D03*
X8950000Y7520000D02*
D03*
X8900000Y7450000D02*
D03*
X7400000Y7530000D02*
D03*
X7070000Y7500000D02*
D03*
X7400000Y7450000D02*
D03*
X7070000Y7420000D02*
D03*
X17410001Y6140000D02*
D03*
X14430000Y5620000D02*
D03*
X14420000Y6270000D02*
D03*
X9980000Y5750000D02*
D03*
X8850000Y6620000D02*
D03*
X12670000Y8850000D02*
D03*
X10060000Y8420000D02*
D03*
X10290000Y8570000D02*
D03*
X10189200Y8590800D02*
D03*
X10290000Y8470000D02*
D03*
X13961540Y6982329D02*
D03*
X13919814Y7630000D02*
D03*
X14079816Y7790001D02*
D03*
X14160001Y7880000D02*
D03*
X14260001Y7360000D02*
D03*
Y6870000D02*
D03*
X14940001Y7311539D02*
D03*
X14939999Y6821539D02*
D03*
X15111539Y6768461D02*
D03*
X15120000Y6371539D02*
D03*
X10650000Y7510000D02*
D03*
X10980000Y7660000D02*
D03*
X10130000Y7920000D02*
D03*
X10210000D02*
D03*
X10448565Y8816852D02*
D03*
X9082311Y8830000D02*
D03*
X9270000Y8610000D02*
D03*
X9360000D02*
D03*
X11090000Y9010000D02*
D03*
X7913000Y9190000D02*
D03*
X8910328Y9190000D02*
D03*
X11020000Y9180000D02*
D03*
X10020000D02*
D03*
X10170000D02*
D03*
X9338734Y9173577D02*
D03*
X8192311Y9160000D02*
D03*
X11350827Y9331155D02*
D03*
X10350827D02*
D03*
X8243827Y9341155D02*
D03*
X9241156Y9341156D02*
D03*
X10892499Y9110000D02*
D03*
X10749742D02*
D03*
X9897328D02*
D03*
X9752157D02*
D03*
X8782499Y9130000D02*
D03*
X8639742D02*
D03*
X7795796Y9140625D02*
D03*
X7640000Y9130000D02*
D03*
X15562856Y10162391D02*
D03*
X5860000Y8850000D02*
D03*
X5750000Y8710000D02*
D03*
X14041151Y5620000D02*
D03*
X8403033Y6596967D02*
D03*
X8400000Y6680000D02*
D03*
X16470000Y5960000D02*
D03*
X16789999Y6040000D02*
D03*
X17289999D02*
D03*
X16470000Y6120000D02*
D03*
X9960000Y8610000D02*
D03*
X10060000D02*
D03*
X10398849Y7863717D02*
D03*
X10470000Y7840000D02*
D03*
X10694626Y7710278D02*
D03*
X8330000Y6648078D02*
D03*
X7850000Y6740000D02*
D03*
X7950000D02*
D03*
X8982819Y7687181D02*
D03*
X13507001Y4579999D02*
D03*
X13349329Y3907500D02*
D03*
X12823131Y4770000D02*
D03*
X12707000Y4579999D02*
D03*
X12549329Y3907500D02*
D03*
X12023131Y4770000D02*
D03*
X11907000Y4579999D02*
D03*
X11749330Y3907500D02*
D03*
X11223131Y4770000D02*
D03*
X11107000Y4579999D02*
D03*
X10949329Y3907500D02*
D03*
X10423131Y4770000D02*
D03*
X10307000Y4579999D02*
D03*
X10149329Y3907500D02*
D03*
X9623131Y4770000D02*
D03*
X9507000Y4579999D02*
D03*
X9349330Y3907500D02*
D03*
X8823131Y4770000D02*
D03*
X8707000Y4579999D02*
D03*
X8549329Y3907500D02*
D03*
X8023131Y4770000D02*
D03*
X7752330Y3907500D02*
D03*
X7226131Y4770000D02*
D03*
X7910000Y4580000D02*
D03*
X9950000Y5160000D02*
D03*
X9880000Y5270000D02*
D03*
Y5360000D02*
D03*
X9570000Y5850000D02*
D03*
X9568125Y5939377D02*
D03*
X9950000Y8100000D02*
D03*
X10060000D02*
D03*
X13680000Y5990000D02*
D03*
X13580000Y6590000D02*
D03*
X13904784Y6783632D02*
D03*
X14693245Y6580000D02*
D03*
X14780000Y6490000D02*
D03*
X14031152Y6270000D02*
D03*
X13910001Y6160000D02*
D03*
X14880000Y5390000D02*
D03*
X11290000Y7380000D02*
D03*
X11450000Y7210000D02*
D03*
X13789999Y10210000D02*
D03*
X13350000Y10190000D02*
D03*
X13789999Y10450000D02*
D03*
X11310000Y7610556D02*
D03*
X13000000Y8850000D02*
D03*
X12390670Y8930000D02*
D03*
X12150000Y7150000D02*
D03*
X13678461Y7067000D02*
D03*
X16755000Y5560000D02*
D03*
X9130000Y6327700D02*
D03*
X12300000Y6850000D02*
D03*
X12770000Y6950000D02*
D03*
X12300000Y6530000D02*
D03*
Y6690000D02*
D03*
Y6770000D02*
D03*
X13160001Y6950000D02*
D03*
Y7150000D02*
D03*
X12630000Y7050000D02*
D03*
X12779500Y7142001D02*
D03*
X12340000Y6370000D02*
D03*
X12300000Y6450000D02*
D03*
X8960000Y7830000D02*
D03*
X9910000Y5940000D02*
D03*
X10490000Y6000000D02*
D03*
X10390000Y6450000D02*
D03*
X10480000Y6530000D02*
D03*
X10220000Y6350000D02*
D03*
X10290000Y6450000D02*
D03*
X10540000Y6370000D02*
D03*
X8840000Y7890000D02*
D03*
X8940000Y6760000D02*
D03*
X11680000Y5000000D02*
D03*
X12450000D02*
D03*
X10340000Y5200000D02*
D03*
X12194000Y4993932D02*
D03*
X11940000D02*
D03*
X11520000Y6300000D02*
D03*
Y6440000D02*
D03*
X12056068Y6328447D02*
D03*
Y6661555D02*
D03*
X11057856Y7760001D02*
D03*
X10650000Y7650000D02*
D03*
X11320000Y8340000D02*
D03*
X11420000Y8090000D02*
D03*
X11460000Y8340000D02*
D03*
X11556068Y8162857D02*
D03*
X8931337Y6945324D02*
D03*
X8880000Y7000000D02*
D03*
X16850000Y7280000D02*
D03*
X16760001Y7500000D02*
D03*
X16700000Y7630000D02*
D03*
X16380000Y8090000D02*
D03*
X15763931Y6940000D02*
D03*
X16455000Y8090000D02*
D03*
X16850000Y7205000D02*
D03*
X16772330Y7426020D02*
D03*
X16700000Y7555000D02*
D03*
X16580000Y7805000D02*
D03*
Y7730000D02*
D03*
X15689999Y7710000D02*
D03*
X15760001Y7850000D02*
D03*
X15763933Y7948333D02*
D03*
X15760001Y7450000D02*
D03*
X15763931Y7140000D02*
D03*
X15763933Y7343333D02*
D03*
Y7746666D02*
D03*
X15760001Y8050000D02*
D03*
X15670000Y8070000D02*
D03*
X9130000Y6440000D02*
D03*
X8960000Y6310000D02*
D03*
X15760001Y7650000D02*
D03*
X11270624Y7148126D02*
D03*
X10907768Y5888125D02*
D03*
X10673393Y5890536D02*
D03*
X14825000Y9900000D02*
D03*
X14089999Y10370000D02*
D03*
X14010001Y10340000D02*
D03*
X10400000Y8060000D02*
D03*
X10210000Y8000000D02*
D03*
X10290000Y7920000D02*
D03*
X14360001Y8760000D02*
D03*
X14438631Y8760488D02*
D03*
X9020000Y8120000D02*
D03*
X13820000Y8740000D02*
D03*
X14060001Y10190000D02*
D03*
Y10270000D02*
D03*
X15370000Y9690000D02*
D03*
Y9580000D02*
D03*
Y8480000D02*
D03*
X15725024Y10060000D02*
D03*
Y10240000D02*
D03*
X15742438Y8480000D02*
D03*
X15739999Y9100000D02*
D03*
X15744946Y9690000D02*
D03*
X15850000D02*
D03*
X15230000Y9980000D02*
D03*
X15477144Y10162391D02*
D03*
X15384752Y10069999D02*
D03*
X15368851Y9868573D02*
D03*
X15289999Y9404288D02*
D03*
Y9490000D02*
D03*
X16101540Y11100000D02*
D03*
X16650000Y11150000D02*
D03*
X13550000Y9080000D02*
D03*
X13372501Y8873932D02*
D03*
X13547501D02*
D03*
X8920000Y8100000D02*
D03*
Y8000000D02*
D03*
X14732391Y10803739D02*
D03*
X14552393D02*
D03*
X14372392D02*
D03*
X14192392D02*
D03*
X14010001Y10800000D02*
D03*
X14458105Y10314287D02*
D03*
X10360000Y8800000D02*
D03*
X10332974Y8721286D02*
D03*
X7350000Y8100000D02*
D03*
X7290000Y8160000D02*
D03*
X7160000Y8030000D02*
D03*
X6980000Y7900000D02*
D03*
X6662824Y8107633D02*
D03*
X6714667Y8165333D02*
D03*
X6563033Y8223033D02*
D03*
X6510000Y8170000D02*
D03*
X11010000Y5730000D02*
D03*
X8249375Y6111876D02*
D03*
X8409376Y6031876D02*
D03*
X8249375Y7001876D02*
D03*
X8409376Y6921876D02*
D03*
X8249375Y7551876D02*
D03*
X8409376Y7471876D02*
D03*
X10538125Y8720625D02*
D03*
X10618125Y8560625D02*
D03*
X8600000Y8720000D02*
D03*
X6450000Y6450000D02*
D03*
Y7500000D02*
D03*
X5400000D02*
D03*
Y7050000D02*
D03*
Y7200000D02*
D03*
X5550000D02*
D03*
Y7350000D02*
D03*
X5700000D02*
D03*
Y7500000D02*
D03*
X6450000Y7200000D02*
D03*
Y7350000D02*
D03*
Y6900000D02*
D03*
Y7050000D02*
D03*
Y6600000D02*
D03*
Y6750000D02*
D03*
X6300000Y7500000D02*
D03*
Y7200000D02*
D03*
Y7350000D02*
D03*
Y6900000D02*
D03*
Y7050000D02*
D03*
Y6600000D02*
D03*
Y6750000D02*
D03*
Y6450000D02*
D03*
X6150000Y7500000D02*
D03*
Y7200000D02*
D03*
Y7350000D02*
D03*
Y6900000D02*
D03*
Y7050000D02*
D03*
Y6600000D02*
D03*
Y6750000D02*
D03*
Y6450000D02*
D03*
X6000000D02*
D03*
Y6750000D02*
D03*
Y6600000D02*
D03*
Y7050000D02*
D03*
Y6900000D02*
D03*
Y7350000D02*
D03*
Y7200000D02*
D03*
Y7500000D02*
D03*
X5820000Y5940000D02*
D03*
X5750000Y8350000D02*
D03*
X4803477Y7440000D02*
D03*
X4700000Y6400000D02*
D03*
X5550000Y7500000D02*
D03*
X5850000D02*
D03*
X5700000Y7200000D02*
D03*
X5850000D02*
D03*
Y7350000D02*
D03*
X5400000D02*
D03*
Y6900000D02*
D03*
X5550000D02*
D03*
X5700000D02*
D03*
X5850000D02*
D03*
Y7050000D02*
D03*
X5700000D02*
D03*
X5550000D02*
D03*
X5400000Y6600000D02*
D03*
X5550000D02*
D03*
X5700000D02*
D03*
X5850000D02*
D03*
Y6750000D02*
D03*
X5700000D02*
D03*
X5550000D02*
D03*
X5400000D02*
D03*
X5850000Y6450000D02*
D03*
X5700000D02*
D03*
X5550000D02*
D03*
X5400000D02*
D03*
X5930000Y8230000D02*
D03*
X4535000Y7533477D02*
D03*
X4710000D02*
D03*
X7360000Y6370000D02*
D03*
X7360000Y6540000D02*
D03*
X7265000Y7119999D02*
D03*
X7267500Y6820000D02*
D03*
X7142857Y6870000D02*
D03*
Y7070001D02*
D03*
X6040000Y8230000D02*
D03*
X4800000Y6500000D02*
D03*
X5750000Y8530000D02*
D03*
X6290000Y8240000D02*
D03*
X6130000Y8350000D02*
D03*
X4525000Y6406523D02*
D03*
X4526167Y7290000D02*
D03*
X4441524Y7440000D02*
D03*
X4500000Y6650000D02*
D03*
X4400000Y6500000D02*
D03*
X6725000Y3275000D02*
D03*
Y3175000D02*
D03*
X6625000Y3275000D02*
D03*
Y3175000D02*
D03*
X6525000D02*
D03*
Y3275000D02*
D03*
X6260000Y5634814D02*
D03*
X6440000D02*
D03*
X6760000Y5550000D02*
D03*
X6090000Y5540171D02*
D03*
X5940000Y5637314D02*
D03*
X5780000Y5550171D02*
D03*
X6060000Y5070000D02*
D03*
X6230000D02*
D03*
X17250000Y7500000D02*
D03*
X16100000Y10240000D02*
D03*
D106*
X2750000Y2500000D02*
D03*
X2676776Y2323224D02*
D03*
X2500000Y2250001D02*
D03*
X2323224Y2323224D02*
D03*
X2250001Y2500000D02*
D03*
X2323224Y2676776D02*
D03*
X2500000Y2750000D02*
D03*
X2676776Y2676776D02*
D03*
X2750000Y11500000D02*
D03*
X2676776Y11323224D02*
D03*
X2500000Y11250001D02*
D03*
X2323224Y11323224D02*
D03*
X2250001Y11500000D02*
D03*
X2323224Y11676776D02*
D03*
X2500000Y11750000D02*
D03*
X2676776Y11676776D02*
D03*
X17750000Y11500000D02*
D03*
X17676776Y11323224D02*
D03*
X17500000Y11250001D02*
D03*
X17323224Y11323224D02*
D03*
X17250002Y11500000D02*
D03*
X17323224Y11676776D02*
D03*
X17500000Y11750000D02*
D03*
X17676776Y11676776D02*
D03*
X17750000Y2500000D02*
D03*
X17676776Y2323224D02*
D03*
X17500000Y2250001D02*
D03*
X17323224Y2323224D02*
D03*
X17250002Y2500000D02*
D03*
X17323224Y2676776D02*
D03*
X17500000Y2750000D02*
D03*
X17676776Y2676776D02*
D03*
D107*
X17902586Y6762586D02*
D03*
D123*
X17289999Y5810000D02*
Y6040000D01*
X5660000Y5780000D02*
X5820000Y5940000D01*
X5270000Y5780000D02*
X5660000D01*
X5150000Y5900000D02*
X5270000Y5780000D01*
X4710000Y7533477D02*
X4803477Y7440000D01*
X4700000Y6400000D02*
X4800000Y6500000D01*
X5750000Y8350000D02*
Y8530000D01*
Y8260000D02*
Y8350000D01*
X5150000Y5900000D02*
Y7750000D01*
X5250000Y7850000D01*
X5750000D01*
X5900000Y8000000D01*
Y8091421D01*
X5750000Y8150000D02*
X5841421D01*
X4800000Y6500000D02*
X4950000Y6650000D01*
Y7850000D01*
X5150000Y8050000D01*
X5650000D02*
X5750000Y8150000D01*
X5150000Y8050000D02*
X5650000D01*
X5750000Y8150000D02*
Y8260000D01*
X4710000Y7533477D02*
Y7860000D01*
X5110000Y8260000D02*
X5750000D01*
X4710000Y7860000D02*
X5110000Y8260000D01*
X5841421Y8150000D02*
X5900000Y8091421D01*
X16421001Y10058000D02*
X16548000D01*
X16102000D02*
X16421001D01*
X16100000Y10060000D02*
Y10240000D01*
Y10060000D02*
X16102000Y10058000D01*
X16548000D02*
X16675000Y10185000D01*
%TF.MD5,433ccd346c0d9631344be9046fa2b671*%
M02*
